0
SECTION
2
HEADER
9
$ACADVER
1
AC1009
0
ENDSEC
0
SECTION
2
TABLES
0
TABLE
2
LAYER
70
3
0
LAYER
2
0
70
0
62
7
6
CONTINUOUS
0
LAYER
2
A-WALL
70
0
62
7
6
CONTINUOUS
0
LAYER
2
A-AXIS
70
0
62
3
6
CONTINUOUS
0
ENDTAB
0
ENDSEC
0
SECTION
2
ENTITIES
0
LINE
8
A-WALL
62
7
10
212385.00
20
-325242.00
11
213835.00
21
-325242.00
0
LINE
8
A-WALL
62
7
10
167527.00
20
-324942.00
11
169527.00
21
-324942.00
0
LINE
8
A-WALL
62
7
10
198585.00
20
-324942.00
11
202185.00
21
-324942.00
0
LINE
8
A-WALL
62
7
10
202485.00
20
-324942.00
11
203385.00
21
-324942.00
0
LINE
8
A-WALL
62
7
10
204985.00
20
-324942.00
11
205985.00
21
-324942.00
0
LINE
8
A-WALL
62
7
10
212385.00
20
-324942.00
11
213835.00
21
-324942.00
0
LINE
8
A-WALL
62
7
10
167727.00
20
-324742.00
11
169527.00
21
-324742.00
0
LINE
8
A-WALL
62
7
10
175127.00
20
-324742.00
11
178827.00
21
-324742.00
0
LINE
8
A-WALL
62
7
10
198785.00
20
-324742.00
11
200585.00
21
-324742.00
0
LINE
8
A-WALL
62
7
10
200785.00
20
-324742.00
11
202185.00
21
-324742.00
0
LINE
8
A-WALL
62
7
10
202485.00
20
-324742.00
11
203385.00
21
-324742.00
0
LINE
8
A-WALL
62
7
10
204985.00
20
-324742.00
11
205985.00
21
-324742.00
0
LINE
8
A-WALL
62
7
10
206185.00
20
-324742.00
11
209885.00
21
-324742.00
0
LINE
8
A-WALL
62
7
10
179027.00
20
-322742.00
11
181227.00
21
-322742.00
0
LINE
8
A-WALL
62
7
10
182727.00
20
-322742.00
11
183327.00
21
-322742.00
0
LINE
8
A-WALL
62
7
10
211705.00
20
-322662.00
11
212405.00
21
-322662.00
0
LINE
8
A-WALL
62
7
10
213305.00
20
-322662.00
11
214385.00
21
-322662.00
0
LINE
8
A-WALL
62
7
10
182727.00
20
-322622.00
11
183527.00
21
-322622.00
0
LINE
8
A-WALL
62
7
10
179027.00
20
-322542.00
11
181227.00
21
-322542.00
0
LINE
8
A-WALL
62
7
10
211585.00
20
-322542.00
11
212405.00
21
-322542.00
0
LINE
8
A-WALL
62
7
10
213305.00
20
-322542.00
11
214385.00
21
-322542.00
0
LINE
8
A-WALL
62
7
10
149844.00
20
-322312.00
11
150969.00
21
-322312.00
0
LINE
8
A-WALL
62
7
10
152219.00
20
-322312.00
11
152819.00
21
-322312.00
0
LINE
8
A-WALL
62
7
10
149844.00
20
-322192.00
11
150969.00
21
-322192.00
0
LINE
8
A-WALL
62
7
10
152019.00
20
-322192.00
11
152819.00
21
-322192.00
0
LINE
8
A-WALL
62
7
10
147319.00
20
-321812.00
11
148219.00
21
-321812.00
0
LINE
8
A-WALL
62
7
10
176527.00
20
-321812.00
11
177427.00
21
-321812.00
0
LINE
8
A-WALL
62
7
10
207585.00
20
-321812.00
11
208485.00
21
-321812.00
0
LINE
8
A-WALL
62
7
10
147319.00
20
-321662.00
11
148219.00
21
-321662.00
0
LINE
8
A-WALL
62
7
10
176527.00
20
-321662.00
11
177427.00
21
-321662.00
0
LINE
8
A-WALL
62
7
10
207585.00
20
-321662.00
11
208485.00
21
-321662.00
0
LINE
8
A-WALL
62
7
10
182327.00
20
-321042.00
11
183327.00
21
-321042.00
0
LINE
8
A-WALL
62
7
10
210085.00
20
-321042.00
11
212405.00
21
-321042.00
0
LINE
8
A-WALL
62
7
10
213405.00
20
-321042.00
11
214385.00
21
-321042.00
0
LINE
8
A-WALL
62
7
10
180027.00
20
-320962.00
11
181227.00
21
-320962.00
0
LINE
8
A-WALL
62
7
10
180027.00
20
-320842.00
11
181227.00
21
-320842.00
0
LINE
8
A-WALL
62
7
10
182327.00
20
-320842.00
11
183327.00
21
-320842.00
0
LINE
8
A-WALL
62
7
10
210085.00
20
-320842.00
11
212405.00
21
-320842.00
0
LINE
8
A-WALL
62
7
10
213405.00
20
-320842.00
11
214385.00
21
-320842.00
0
LINE
8
A-WALL
62
7
10
202185.00
20
-320142.00
11
202485.00
21
-320142.00
0
LINE
8
A-WALL
62
7
10
182327.00
20
-319542.00
11
187227.00
21
-319542.00
0
LINE
8
A-WALL
62
7
10
187427.00
20
-319542.00
11
187827.00
21
-319542.00
0
LINE
8
A-WALL
62
7
10
188677.00
20
-319542.00
11
189127.00
21
-319542.00
0
LINE
8
A-WALL
62
7
10
203485.00
20
-319542.00
11
204385.00
21
-319542.00
0
LINE
8
A-WALL
62
7
10
205335.00
20
-319542.00
11
210085.00
21
-319542.00
0
LINE
8
A-WALL
62
7
10
211185.00
20
-319542.00
11
213085.00
21
-319542.00
0
LINE
8
A-WALL
62
7
10
214885.00
20
-319542.00
11
215785.00
21
-319542.00
0
LINE
8
A-WALL
62
7
10
203485.00
20
-319422.00
11
204385.00
21
-319422.00
0
LINE
8
A-WALL
62
7
10
205335.00
20
-319422.00
11
205985.00
21
-319422.00
0
LINE
8
A-WALL
62
7
10
182327.00
20
-319342.00
11
186327.00
21
-319342.00
0
LINE
8
A-WALL
62
7
10
187427.00
20
-319342.00
11
187827.00
21
-319342.00
0
LINE
8
A-WALL
62
7
10
188677.00
20
-319342.00
11
189127.00
21
-319342.00
0
LINE
8
A-WALL
62
7
10
206185.00
20
-319342.00
11
210085.00
21
-319342.00
0
LINE
8
A-WALL
62
7
10
211185.00
20
-319342.00
11
213085.00
21
-319342.00
0
LINE
8
A-WALL
62
7
10
214385.00
20
-319342.00
11
214685.00
21
-319342.00
0
LINE
8
A-WALL
62
7
10
214885.00
20
-319342.00
11
215785.00
21
-319342.00
0
LINE
8
A-WALL
62
7
10
141119.00
20
-318917.00
11
141769.00
21
-318917.00
0
LINE
8
A-WALL
62
7
10
144969.00
20
-318917.00
11
145619.00
21
-318917.00
0
LINE
8
A-WALL
62
7
10
167727.00
20
-318917.00
11
169527.00
21
-318917.00
0
LINE
8
A-WALL
62
7
10
198785.00
20
-318917.00
11
200585.00
21
-318917.00
0
LINE
8
A-WALL
62
7
10
200785.00
20
-318917.00
11
201185.00
21
-318917.00
0
LINE
8
A-WALL
62
7
10
141119.00
20
-318692.00
11
141769.00
21
-318692.00
0
LINE
8
A-WALL
62
7
10
144969.00
20
-318692.00
11
145619.00
21
-318692.00
0
LINE
8
A-WALL
62
7
10
152819.00
20
-318692.00
11
153119.00
21
-318692.00
0
LINE
8
A-WALL
62
7
10
167527.00
20
-318692.00
11
169527.00
21
-318692.00
0
LINE
8
A-WALL
62
7
10
198585.00
20
-318692.00
11
201185.00
21
-318692.00
0
LINE
8
A-WALL
62
7
10
201385.00
20
-318692.00
11
202485.00
21
-318692.00
0
LINE
8
A-WALL
62
7
10
213385.00
20
-318342.00
11
214685.00
21
-318342.00
0
LINE
8
A-WALL
62
7
10
213185.00
20
-318142.00
11
214685.00
21
-318142.00
0
LINE
8
A-WALL
62
7
10
206185.00
20
-316862.00
11
208285.00
21
-316862.00
0
LINE
8
A-WALL
62
7
10
209185.00
20
-316862.00
11
209885.00
21
-316862.00
0
LINE
8
A-WALL
62
7
10
188027.00
20
-316477.00
11
189127.00
21
-316477.00
0
LINE
8
A-WALL
62
7
10
206185.00
20
-316477.00
11
208285.00
21
-316477.00
0
LINE
8
A-WALL
62
7
10
209185.00
20
-316477.00
11
209885.00
21
-316477.00
0
LINE
8
A-WALL
62
7
10
188027.00
20
-316277.00
11
189127.00
21
-316277.00
0
LINE
8
A-WALL
62
7
10
201385.00
20
-315942.00
11
202485.00
21
-315942.00
0
LINE
8
A-WALL
62
7
10
179027.00
20
-315742.00
11
180727.00
21
-315742.00
0
LINE
8
A-WALL
62
7
10
181577.00
20
-315742.00
11
182127.00
21
-315742.00
0
LINE
8
A-WALL
62
7
10
179027.00
20
-315342.00
11
180727.00
21
-315342.00
0
LINE
8
A-WALL
62
7
10
181577.00
20
-315342.00
11
182127.00
21
-315342.00
0
LINE
8
A-WALL
62
7
10
175127.00
20
-315042.00
11
176027.00
21
-315042.00
0
LINE
8
A-WALL
62
7
10
206185.00
20
-315042.00
11
209885.00
21
-315042.00
0
LINE
8
A-WALL
62
7
10
210585.00
20
-315042.00
11
211585.00
21
-315042.00
0
LINE
8
A-WALL
62
7
10
212085.00
20
-315042.00
11
212885.00
21
-315042.00
0
LINE
8
A-WALL
62
7
10
214885.00
20
-315042.00
11
219085.00
21
-315042.00
0
LINE
8
A-WALL
62
7
10
175127.00
20
-314842.00
11
176027.00
21
-314842.00
0
LINE
8
A-WALL
62
7
10
205985.00
20
-314842.00
11
209885.00
21
-314842.00
0
LINE
8
A-WALL
62
7
10
210585.00
20
-314842.00
11
211585.00
21
-314842.00
0
LINE
8
A-WALL
62
7
10
212085.00
20
-314842.00
11
212885.00
21
-314842.00
0
LINE
8
A-WALL
62
7
10
214885.00
20
-314842.00
11
219085.00
21
-314842.00
0
LINE
8
A-WALL
62
7
10
179027.00
20
-313177.00
11
182127.00
21
-313177.00
0
LINE
8
A-WALL
62
7
10
210085.00
20
-313177.00
11
213185.00
21
-313177.00
0
LINE
8
A-WALL
62
7
10
213315.00
20
-313177.00
11
219085.00
21
-313177.00
0
LINE
8
A-WALL
62
7
10
179027.00
20
-312977.00
11
182127.00
21
-312977.00
0
LINE
8
A-WALL
62
7
10
210085.00
20
-312977.00
11
219085.00
21
-312977.00
0
LINE
8
A-WALL
62
7
10
141119.00
20
-315742.00
11
141119.00
21
-315342.00
0
LINE
8
A-WALL
62
7
10
141769.00
20
-318917.00
11
141769.00
21
-318692.00
0
LINE
8
A-WALL
62
7
10
144969.00
20
-318917.00
11
144969.00
21
-318692.00
0
LINE
8
A-WALL
62
7
10
145619.00
20
-318692.00
11
145619.00
21
-315942.00
0
LINE
8
A-WALL
62
7
10
145719.00
20
-318692.00
11
145719.00
21
-315942.00
0
LINE
8
A-WALL
62
7
10
147219.00
20
-323242.00
11
147219.00
21
-321992.00
0
LINE
8
A-WALL
62
7
10
148319.00
20
-323242.00
11
148319.00
21
-321992.00
0
LINE
8
A-WALL
62
7
10
152819.00
20
-319342.00
11
152819.00
21
-318692.00
0
LINE
8
A-WALL
62
7
10
154119.00
20
-323242.00
11
154119.00
21
-322192.00
0
LINE
8
A-WALL
62
7
10
154319.00
20
-323242.00
11
154319.00
21
-322192.00
0
LINE
8
A-WALL
62
7
10
167527.00
20
-324942.00
11
167527.00
21
-318692.00
0
LINE
8
A-WALL
62
7
10
167727.00
20
-324742.00
11
167727.00
21
-318692.00
0
LINE
8
A-WALL
62
7
10
168627.00
20
-318917.00
11
168627.00
21
-318692.00
0
LINE
8
A-WALL
62
7
10
175127.00
20
-315342.00
11
175127.00
21
-315042.00
0
LINE
8
A-WALL
62
7
10
176427.00
20
-323242.00
11
176427.00
21
-321992.00
0
LINE
8
A-WALL
62
7
10
177527.00
20
-323242.00
11
177527.00
21
-321992.00
0
LINE
8
A-WALL
62
7
10
179027.00
20
-324942.00
11
179027.00
21
-324092.00
0
LINE
8
A-WALL
62
7
10
179027.00
20
-314842.00
11
179027.00
21
-312977.00
0
LINE
8
A-WALL
62
7
10
179227.00
20
-314842.00
11
179227.00
21
-313177.00
0
LINE
8
A-WALL
62
7
10
180727.00
20
-324942.00
11
180727.00
21
-323442.00
0
LINE
8
A-WALL
62
7
10
180727.00
20
-315742.00
11
180727.00
21
-315342.00
0
LINE
8
A-WALL
62
7
10
180847.00
20
-324942.00
11
180847.00
21
-323442.00
0
LINE
8
A-WALL
62
7
10
181577.00
20
-315742.00
11
181577.00
21
-315342.00
0
LINE
8
A-WALL
62
7
10
182127.00
20
-316837.00
11
182127.00
21
-316477.00
0
LINE
8
A-WALL
62
7
10
182327.00
20
-316837.37
11
182327.00
21
-316477.00
0
LINE
8
A-WALL
62
7
10
183327.00
20
-324942.00
11
183327.00
21
-323842.00
0
LINE
8
A-WALL
62
7
10
183327.00
20
-316837.00
11
183327.00
21
-316477.00
0
LINE
8
A-WALL
62
7
10
183527.00
20
-324742.00
11
183527.00
21
-323842.00
0
LINE
8
A-WALL
62
7
10
183527.00
20
-316837.00
11
183527.00
21
-316477.00
0
LINE
8
A-WALL
62
7
10
189127.00
20
-319542.00
11
189127.00
21
-316277.00
0
LINE
8
A-WALL
62
7
10
198585.00
20
-324942.00
11
198585.00
21
-318692.00
0
LINE
8
A-WALL
62
7
10
198785.00
20
-324742.00
11
198785.00
21
-318917.00
0
LINE
8
A-WALL
62
7
10
200585.00
20
-324942.00
11
200585.00
21
-318692.00
0
LINE
8
A-WALL
62
7
10
200785.00
20
-324742.00
11
200785.00
21
-318917.00
0
LINE
8
A-WALL
62
7
10
201185.00
20
-317692.00
11
201185.00
21
-316992.00
0
LINE
8
A-WALL
62
7
10
201385.00
20
-317692.00
11
201385.00
21
-316992.00
0
LINE
8
A-WALL
62
7
10
202185.00
20
-320142.00
11
202185.00
21
-319542.00
0
LINE
8
A-WALL
62
7
10
202485.00
20
-324742.00
11
202485.00
21
-324042.00
0
LINE
8
A-WALL
62
7
10
202485.00
20
-320142.00
11
202485.00
21
-319422.00
0
LINE
8
A-WALL
62
7
10
204185.00
20
-319422.00
11
204185.00
21
-318917.00
0
LINE
8
A-WALL
62
7
10
204185.00
20
-317842.00
11
204185.00
21
-317042.00
0
LINE
8
A-WALL
62
7
10
204385.00
20
-319542.00
11
204385.00
21
-318917.00
0
LINE
8
A-WALL
62
7
10
204385.00
20
-317842.00
11
204385.00
21
-317042.00
0
LINE
8
A-WALL
62
7
10
205985.00
20
-318042.00
11
205985.00
21
-316477.00
0
LINE
8
A-WALL
62
7
10
205985.00
20
-315742.00
11
205985.00
21
-314842.00
0
LINE
8
A-WALL
62
7
10
206185.00
20
-318042.00
11
206185.00
21
-316477.00
0
LINE
8
A-WALL
62
7
10
206185.00
20
-315742.00
11
206185.00
21
-314842.00
0
LINE
8
A-WALL
62
7
10
207485.00
20
-323242.00
11
207485.00
21
-321992.00
0
LINE
8
A-WALL
62
7
10
208285.00
20
-316862.00
11
208285.00
21
-316477.00
0
LINE
8
A-WALL
62
7
10
208585.00
20
-323242.00
11
208585.00
21
-321992.00
0
LINE
8
A-WALL
62
7
10
209185.00
20
-316862.00
11
209185.00
21
-316477.00
0
LINE
8
A-WALL
62
7
10
210085.00
20
-314842.00
11
210085.00
21
-312977.00
0
LINE
8
A-WALL
62
7
10
211585.00
20
-324942.00
11
211585.00
21
-322542.00
0
LINE
8
A-WALL
62
7
10
211705.00
20
-324942.00
11
211705.00
21
-322662.00
0
LINE
8
A-WALL
62
7
10
212085.00
20
-321542.00
11
212085.00
21
-321042.00
0
LINE
8
A-WALL
62
7
10
212205.00
20
-321542.00
11
212205.00
21
-321042.00
0
LINE
8
A-WALL
62
7
10
213135.00
20
-325242.00
11
213135.00
21
-324942.00
0
LINE
8
A-WALL
62
7
10
213185.00
20
-319342.00
11
213185.00
21
-318142.00
0
LINE
8
A-WALL
62
7
10
213185.00
20
-314842.00
11
213185.00
21
-312977.00
0
LINE
8
A-WALL
62
7
10
213255.00
20
-313942.00
11
213255.00
21
-312977.00
0
LINE
8
A-WALL
62
7
10
213315.00
20
-313942.00
11
213315.00
21
-313177.00
0
LINE
8
A-WALL
62
7
10
213385.00
20
-319342.00
11
213385.00
21
-318342.00
0
LINE
8
A-WALL
62
7
10
213385.00
20
-314842.00
11
213385.00
21
-313177.00
0
LINE
8
A-WALL
62
7
10
214385.00
20
-320842.00
11
214385.00
21
-319342.00
0
LINE
8
A-WALL
62
7
10
214585.00
20
-320842.00
11
214585.00
21
-319542.00
0
LINE
8
A-WALL
62
7
10
214585.00
20
-318127.00
11
214585.00
21
-315342.00
0
LINE
8
A-WALL
62
7
10
214685.00
20
-318127.00
11
214685.00
21
-316477.00
0
LINE
8
A-WALL
62
7
10
214685.00
20
-316277.00
11
214685.00
21
-315342.00
0
LINE
8
A-WALL
62
7
10
214885.00
20
-318127.00
11
214885.00
21
-316477.00
0
LINE
8
A-WALL
62
7
10
214885.00
20
-316277.00
11
214885.00
21
-315342.00
0
LINE
8
A-WALL
62
7
10
219085.00
20
-315042.00
11
219085.00
21
-312977.00
0
ENDSEC
0
EOF