0
SECTION
2
HEADER
9
$ACADVER
1
AC1009
0
ENDSEC
0
SECTION
2
TABLES
0
TABLE
2
LAYER
70
5
0
LAYER
2
0
70
0
62
7
6
CONTINUOUS
0
LAYER
2
A-AXIS
70
0
62
3
6
CENTER2
0
LAYER
2
A-AXIS-SUB
70
0
62
6
6
CENTER
0
LAYER
2
A-AXIS-LABEL
70
0
62
7
6
CONTINUOUS
0
LAYER
2
A-AXIS-DIM
70
0
62
4
6
CONTINUOUS
0
ENDTAB
0
ENDSEC
0
SECTION
2
ENTITIES
0
LINE
8
A-AXIS
62
3
10
167527.00
20
-326322.00
11
167527.00
21
-312097.00
0
LINE
8
A-AXIS
62
3
10
170127.00
20
-326322.00
11
170127.00
21
-312097.00
0
LINE
8
A-AXIS
62
3
10
174827.00
20
-326322.00
11
174827.00
21
-312097.00
0
LINE
8
A-AXIS
62
3
10
178827.00
20
-326322.00
11
178827.00
21
-312097.00
0
LINE
8
A-AXIS
62
3
10
180727.00
20
-326322.00
11
180727.00
21
-312097.00
0
LINE
8
A-AXIS
62
3
10
182127.00
20
-326322.00
11
182127.00
21
-312097.00
0
LINE
8
A-AXIS
62
3
10
183327.00
20
-326322.00
11
183327.00
21
-312097.00
0
LINE
8
A-AXIS
62
3
10
187227.00
20
-326322.00
11
187227.00
21
-312097.00
0
LINE
8
A-AXIS
62
3
10
189127.00
20
-326322.00
11
189127.00
21
-312097.00
0
LINE
8
A-AXIS-SUB
62
6
10
167727.00
20
-326322.00
11
167727.00
21
-312097.00
0
LINE
8
A-AXIS-SUB
62
6
10
170327.00
20
-326322.00
11
170327.00
21
-312097.00
0
LINE
8
A-AXIS-SUB
62
6
10
174927.00
20
-326322.00
11
174927.00
21
-312097.00
0
LINE
8
A-AXIS-SUB
62
6
10
175127.00
20
-326322.00
11
175127.00
21
-312097.00
0
LINE
8
A-AXIS-SUB
62
6
10
178927.00
20
-326322.00
11
178927.00
21
-312097.00
0
LINE
8
A-AXIS-SUB
62
6
10
179027.00
20
-326322.00
11
179027.00
21
-312097.00
0
LINE
8
A-AXIS-SUB
62
6
10
179227.00
20
-326322.00
11
179227.00
21
-312097.00
0
LINE
8
A-AXIS-SUB
62
6
10
180847.00
20
-326322.00
11
180847.00
21
-312097.00
0
LINE
8
A-AXIS-SUB
62
6
10
182327.00
20
-326322.00
11
182327.00
21
-312097.00
0
LINE
8
A-AXIS-SUB
62
6
10
183527.00
20
-326322.00
11
183527.00
21
-312097.00
0
LINE
8
A-AXIS-SUB
62
6
10
187427.00
20
-326322.00
11
187427.00
21
-312097.00
0
LINE
8
A-AXIS-SUB
62
6
10
187827.00
20
-326322.00
11
187827.00
21
-312097.00
0
LINE
8
A-AXIS-SUB
62
6
10
188027.00
20
-326322.00
11
188027.00
21
-312097.00
0
LINE
8
A-AXIS
62
3
10
166447.00
20
-325242.00
11
190207.00
21
-325242.00
0
LINE
8
A-AXIS
62
3
10
166447.00
20
-323442.00
11
190207.00
21
-323442.00
0
LINE
8
A-AXIS
62
3
10
166447.00
20
-319542.00
11
190207.00
21
-319542.00
0
LINE
8
A-AXIS
62
3
10
166447.00
20
-316477.00
11
190207.00
21
-316477.00
0
LINE
8
A-AXIS
62
3
10
166447.00
20
-313177.00
11
190207.00
21
-313177.00
0
LINE
8
A-AXIS-SUB
62
6
10
166447.00
20
-324942.00
11
190207.00
21
-324942.00
0
LINE
8
A-AXIS-SUB
62
6
10
166447.00
20
-324742.00
11
190207.00
21
-324742.00
0
LINE
8
A-AXIS-SUB
62
6
10
166447.00
20
-323242.00
11
190207.00
21
-323242.00
0
LINE
8
A-AXIS-SUB
62
6
10
166447.00
20
-319422.00
11
190207.00
21
-319422.00
0
LINE
8
A-AXIS-SUB
62
6
10
166447.00
20
-319342.00
11
190207.00
21
-319342.00
0
LINE
8
A-AXIS-SUB
62
6
10
166447.00
20
-318917.00
11
190207.00
21
-318917.00
0
LINE
8
A-AXIS-SUB
62
6
10
166447.00
20
-318692.00
11
190207.00
21
-318692.00
0
LINE
8
A-AXIS-SUB
62
6
10
166447.00
20
-316277.00
11
190207.00
21
-316277.00
0
LINE
8
A-AXIS-SUB
62
6
10
166447.00
20
-315942.00
11
190207.00
21
-315942.00
0
LINE
8
A-AXIS-SUB
62
6
10
166447.00
20
-315742.00
11
190207.00
21
-315742.00
0
LINE
8
A-AXIS-SUB
62
6
10
166447.00
20
-315342.00
11
190207.00
21
-315342.00
0
LINE
8
A-AXIS-SUB
62
6
10
166447.00
20
-315142.00
11
190207.00
21
-315142.00
0
LINE
8
A-AXIS-SUB
62
6
10
166447.00
20
-315042.00
11
190207.00
21
-315042.00
0
LINE
8
A-AXIS-SUB
62
6
10
166447.00
20
-314842.00
11
190207.00
21
-314842.00
0
LINE
8
A-AXIS-SUB
62
6
10
166447.00
20
-312977.00
11
190207.00
21
-312977.00
0
CIRCLE
8
A-AXIS-LABEL
10
167527.00
20
-326922.00
40
300.00
0
CIRCLE
8
A-AXIS-LABEL
10
167527.00
20
-311497.00
40
300.00
0
CIRCLE
8
A-AXIS-LABEL
10
170127.00
20
-326922.00
40
300.00
0
CIRCLE
8
A-AXIS-LABEL
10
170127.00
20
-311497.00
40
300.00
0
CIRCLE
8
A-AXIS-LABEL
10
174827.00
20
-326922.00
40
300.00
0
CIRCLE
8
A-AXIS-LABEL
10
174827.00
20
-311497.00
40
300.00
0
CIRCLE
8
A-AXIS-LABEL
10
178827.00
20
-326922.00
40
300.00
0
CIRCLE
8
A-AXIS-LABEL
10
178827.00
20
-311497.00
40
300.00
0
CIRCLE
8
A-AXIS-LABEL
10
180727.00
20
-326922.00
40
300.00
0
CIRCLE
8
A-AXIS-LABEL
10
180727.00
20
-311497.00
40
300.00
0
CIRCLE
8
A-AXIS-LABEL
10
182127.00
20
-326922.00
40
300.00
0
CIRCLE
8
A-AXIS-LABEL
10
182127.00
20
-311497.00
40
300.00
0
CIRCLE
8
A-AXIS-LABEL
10
183327.00
20
-326922.00
40
300.00
0
CIRCLE
8
A-AXIS-LABEL
10
183327.00
20
-311497.00
40
300.00
0
CIRCLE
8
A-AXIS-LABEL
10
187227.00
20
-326922.00
40
300.00
0
CIRCLE
8
A-AXIS-LABEL
10
187227.00
20
-311497.00
40
300.00
0
CIRCLE
8
A-AXIS-LABEL
10
189127.00
20
-326922.00
40
300.00
0
CIRCLE
8
A-AXIS-LABEL
10
189127.00
20
-311497.00
40
300.00
0
LINE
8
A-AXIS-DIM
10
167527.00
20
-327822.00
11
167527.00
21
-327522.00
0
LINE
8
A-AXIS-DIM
10
170127.00
20
-327822.00
11
170127.00
21
-327522.00
0
LINE
8
A-AXIS-DIM
10
174827.00
20
-327822.00
11
174827.00
21
-327522.00
0
LINE
8
A-AXIS-DIM
10
178827.00
20
-327822.00
11
178827.00
21
-327522.00
0
LINE
8
A-AXIS-DIM
10
180727.00
20
-327822.00
11
180727.00
21
-327522.00
0
LINE
8
A-AXIS-DIM
10
182127.00
20
-327822.00
11
182127.00
21
-327522.00
0
LINE
8
A-AXIS-DIM
10
183327.00
20
-327822.00
11
183327.00
21
-327522.00
0
LINE
8
A-AXIS-DIM
10
187227.00
20
-327822.00
11
187227.00
21
-327522.00
0
LINE
8
A-AXIS-DIM
10
189127.00
20
-327822.00
11
189127.00
21
-327522.00
0
LINE
8
A-AXIS-DIM
10
167527.00
20
-328122.00
11
189127.00
21
-328122.00
0
LINE
8
A-AXIS-DIM
10
167314.90
20
-328334.10
11
167739.10
21
-327909.90
0
LINE
8
A-AXIS-DIM
10
188914.90
20
-328334.10
11
189339.10
21
-327909.90
0
ENDSEC
0
EOF