0
SECTION
2
HEADER
9
$ACADVER
1
AC1009
0
ENDSEC
0
SECTION
2
TABLES
0
TABLE
2
LAYER
70
5
0
LAYER
2
0
70
0
62
7
6
CONTINUOUS
0
LAYER
2
A-AXIS
70
0
62
3
6
CENTER2
0
LAYER
2
A-AXIS-SUB
70
0
62
6
6
CENTER
0
LAYER
2
A-AXIS-LABEL
70
0
62
7
6
CONTINUOUS
0
LAYER
2
A-AXIS-DIM
70
0
62
4
6
CONTINUOUS
0
ENDTAB
0
ENDSEC
0
SECTION
2
ENTITIES
0
LINE
8
A-AXIS
62
3
10
138319.00
20
-329240.30
11
138319.00
21
-309178.70
0
LINE
8
A-AXIS
62
3
10
140319.00
20
-329240.30
11
140319.00
21
-309178.70
0
LINE
8
A-AXIS
62
3
10
145619.00
20
-329240.30
11
145619.00
21
-309178.70
0
LINE
8
A-AXIS
62
3
10
149619.00
20
-329240.30
11
149619.00
21
-309178.70
0
LINE
8
A-AXIS
62
3
10
152019.00
20
-329240.30
11
152019.00
21
-309178.70
0
LINE
8
A-AXIS
62
3
10
154119.00
20
-329240.30
11
154119.00
21
-309178.70
0
LINE
8
A-AXIS
62
3
10
157119.00
20
-329240.30
11
157119.00
21
-309178.70
0
LINE
8
A-AXIS
62
3
10
158019.00
20
-329240.30
11
158019.00
21
-309178.70
0
LINE
8
A-AXIS
62
3
10
167527.00
20
-329240.30
11
167527.00
21
-309178.70
0
LINE
8
A-AXIS
62
3
10
170127.00
20
-329240.30
11
170127.00
21
-309178.70
0
LINE
8
A-AXIS
62
3
10
174827.00
20
-329240.30
11
174827.00
21
-309178.70
0
LINE
8
A-AXIS
62
3
10
178827.00
20
-329240.30
11
178827.00
21
-309178.70
0
LINE
8
A-AXIS
62
3
10
180727.00
20
-329240.30
11
180727.00
21
-309178.70
0
LINE
8
A-AXIS
62
3
10
182127.00
20
-329240.30
11
182127.00
21
-309178.70
0
LINE
8
A-AXIS
62
3
10
183327.00
20
-329240.30
11
183327.00
21
-309178.70
0
LINE
8
A-AXIS
62
3
10
187227.00
20
-329240.30
11
187227.00
21
-309178.70
0
LINE
8
A-AXIS
62
3
10
189127.00
20
-329240.30
11
189127.00
21
-309178.70
0
LINE
8
A-AXIS
62
3
10
200585.00
20
-329240.30
11
200585.00
21
-309178.70
0
LINE
8
A-AXIS
62
3
10
204185.00
20
-329240.30
11
204185.00
21
-309178.70
0
LINE
8
A-AXIS
62
3
10
205985.00
20
-329240.30
11
205985.00
21
-309178.70
0
LINE
8
A-AXIS
62
3
10
209885.00
20
-329240.30
11
209885.00
21
-309178.70
0
LINE
8
A-AXIS
62
3
10
211585.00
20
-329240.30
11
211585.00
21
-309178.70
0
LINE
8
A-AXIS
62
3
10
214385.00
20
-329240.30
11
214385.00
21
-309178.70
0
LINE
8
A-AXIS
62
3
10
218285.00
20
-329240.30
11
218285.00
21
-309178.70
0
LINE
8
A-AXIS-SUB
62
6
10
138519.00
20
-329240.30
11
138519.00
21
-309178.70
0
LINE
8
A-AXIS-SUB
62
6
10
140544.00
20
-329240.30
11
140544.00
21
-309178.70
0
LINE
8
A-AXIS-SUB
62
6
10
140919.00
20
-329240.30
11
140919.00
21
-309178.70
0
LINE
8
A-AXIS-SUB
62
6
10
141119.00
20
-329240.30
11
141119.00
21
-309178.70
0
LINE
8
A-AXIS-SUB
62
6
10
145719.00
20
-329240.30
11
145719.00
21
-309178.70
0
LINE
8
A-AXIS-SUB
62
6
10
145944.00
20
-329240.30
11
145944.00
21
-309178.70
0
LINE
8
A-AXIS-SUB
62
6
10
149844.00
20
-329240.30
11
149844.00
21
-309178.70
0
LINE
8
A-AXIS-SUB
62
6
10
152219.00
20
-329240.30
11
152219.00
21
-309178.70
0
LINE
8
A-AXIS-SUB
62
6
10
152819.00
20
-329240.30
11
152819.00
21
-309178.70
0
LINE
8
A-AXIS-SUB
62
6
10
154319.00
20
-329240.30
11
154319.00
21
-309178.70
0
LINE
8
A-AXIS-SUB
62
6
10
158219.00
20
-329240.30
11
158219.00
21
-309178.70
0
LINE
8
A-AXIS-SUB
62
6
10
167727.00
20
-329240.30
11
167727.00
21
-309178.70
0
LINE
8
A-AXIS-SUB
62
6
10
170327.00
20
-329240.30
11
170327.00
21
-309178.70
0
LINE
8
A-AXIS-SUB
62
6
10
174927.00
20
-329240.30
11
174927.00
21
-309178.70
0
LINE
8
A-AXIS-SUB
62
6
10
175127.00
20
-329240.30
11
175127.00
21
-309178.70
0
LINE
8
A-AXIS-SUB
62
6
10
178927.00
20
-329240.30
11
178927.00
21
-309178.70
0
LINE
8
A-AXIS-SUB
62
6
10
179027.00
20
-329240.30
11
179027.00
21
-309178.70
0
LINE
8
A-AXIS-SUB
62
6
10
179227.00
20
-329240.30
11
179227.00
21
-309178.70
0
LINE
8
A-AXIS-SUB
62
6
10
180847.00
20
-329240.30
11
180847.00
21
-309178.70
0
LINE
8
A-AXIS-SUB
62
6
10
182327.00
20
-329240.30
11
182327.00
21
-309178.70
0
LINE
8
A-AXIS-SUB
62
6
10
183527.00
20
-329240.30
11
183527.00
21
-309178.70
0
LINE
8
A-AXIS-SUB
62
6
10
187427.00
20
-329240.30
11
187427.00
21
-309178.70
0
LINE
8
A-AXIS-SUB
62
6
10
187827.00
20
-329240.30
11
187827.00
21
-309178.70
0
LINE
8
A-AXIS-SUB
62
6
10
188027.00
20
-329240.30
11
188027.00
21
-309178.70
0
LINE
8
A-AXIS-SUB
62
6
10
200785.00
20
-329240.30
11
200785.00
21
-309178.70
0
LINE
8
A-AXIS-SUB
62
6
10
201185.00
20
-329240.30
11
201185.00
21
-309178.70
0
LINE
8
A-AXIS-SUB
62
6
10
201385.00
20
-329240.30
11
201385.00
21
-309178.70
0
LINE
8
A-AXIS-SUB
62
6
10
202185.00
20
-329240.30
11
202185.00
21
-309178.70
0
LINE
8
A-AXIS-SUB
62
6
10
202485.00
20
-329240.30
11
202485.00
21
-309178.70
0
LINE
8
A-AXIS-SUB
62
6
10
204385.00
20
-329240.30
11
204385.00
21
-309178.70
0
LINE
8
A-AXIS-SUB
62
6
10
206185.00
20
-329240.30
11
206185.00
21
-309178.70
0
LINE
8
A-AXIS-SUB
62
6
10
210085.00
20
-329240.30
11
210085.00
21
-309178.70
0
LINE
8
A-AXIS-SUB
62
6
10
211705.00
20
-329240.30
11
211705.00
21
-309178.70
0
LINE
8
A-AXIS-SUB
62
6
10
214585.00
20
-329240.30
11
214585.00
21
-309178.70
0
LINE
8
A-AXIS-SUB
62
6
10
214685.00
20
-329240.30
11
214685.00
21
-309178.70
0
LINE
8
A-AXIS-SUB
62
6
10
214885.00
20
-329240.30
11
214885.00
21
-309178.70
0
LINE
8
A-AXIS-SUB
62
6
10
218485.00
20
-329240.30
11
218485.00
21
-309178.70
0
LINE
8
A-AXIS-SUB
62
6
10
219085.00
20
-329240.30
11
219085.00
21
-309178.70
0
LINE
8
A-AXIS
62
3
10
134320.70
20
-325242.00
11
222283.30
21
-325242.00
0
LINE
8
A-AXIS
62
3
10
134320.70
20
-323442.00
11
222283.30
21
-323442.00
0
LINE
8
A-AXIS
62
3
10
134320.70
20
-319542.00
11
222283.30
21
-319542.00
0
LINE
8
A-AXIS
62
3
10
134320.70
20
-316477.00
11
222283.30
21
-316477.00
0
LINE
8
A-AXIS
62
3
10
134320.70
20
-313177.00
11
222283.30
21
-313177.00
0
LINE
8
A-AXIS-SUB
62
6
10
134320.70
20
-324942.00
11
222283.30
21
-324942.00
0
LINE
8
A-AXIS-SUB
62
6
10
134320.70
20
-324742.00
11
222283.30
21
-324742.00
0
LINE
8
A-AXIS-SUB
62
6
10
134320.70
20
-323242.00
11
222283.30
21
-323242.00
0
LINE
8
A-AXIS-SUB
62
6
10
134320.70
20
-319422.00
11
222283.30
21
-319422.00
0
LINE
8
A-AXIS-SUB
62
6
10
134320.70
20
-319342.00
11
222283.30
21
-319342.00
0
LINE
8
A-AXIS-SUB
62
6
10
134320.70
20
-318917.00
11
222283.30
21
-318917.00
0
LINE
8
A-AXIS-SUB
62
6
10
134320.70
20
-318692.00
11
222283.30
21
-318692.00
0
LINE
8
A-AXIS-SUB
62
6
10
134320.70
20
-316277.00
11
222283.30
21
-316277.00
0
LINE
8
A-AXIS-SUB
62
6
10
134320.70
20
-315942.00
11
222283.30
21
-315942.00
0
LINE
8
A-AXIS-SUB
62
6
10
134320.70
20
-315742.00
11
222283.30
21
-315742.00
0
LINE
8
A-AXIS-SUB
62
6
10
134320.70
20
-315342.00
11
222283.30
21
-315342.00
0
LINE
8
A-AXIS-SUB
62
6
10
134320.70
20
-315142.00
11
222283.30
21
-315142.00
0
LINE
8
A-AXIS-SUB
62
6
10
134320.70
20
-315042.00
11
222283.30
21
-315042.00
0
LINE
8
A-AXIS-SUB
62
6
10
134320.70
20
-314842.00
11
222283.30
21
-314842.00
0
LINE
8
A-AXIS-SUB
62
6
10
134320.70
20
-312977.00
11
222283.30
21
-312977.00
0
CIRCLE
8
A-AXIS-LABEL
10
138319.00
20
-329840.30
40
300.00
0
CIRCLE
8
A-AXIS-LABEL
10
138319.00
20
-308578.70
40
300.00
0
CIRCLE
8
A-AXIS-LABEL
10
140319.00
20
-329840.30
40
300.00
0
CIRCLE
8
A-AXIS-LABEL
10
140319.00
20
-308578.70
40
300.00
0
CIRCLE
8
A-AXIS-LABEL
10
145619.00
20
-329840.30
40
300.00
0
CIRCLE
8
A-AXIS-LABEL
10
145619.00
20
-308578.70
40
300.00
0
CIRCLE
8
A-AXIS-LABEL
10
149619.00
20
-329840.30
40
300.00
0
CIRCLE
8
A-AXIS-LABEL
10
149619.00
20
-308578.70
40
300.00
0
CIRCLE
8
A-AXIS-LABEL
10
152019.00
20
-329840.30
40
300.00
0
CIRCLE
8
A-AXIS-LABEL
10
152019.00
20
-308578.70
40
300.00
0
CIRCLE
8
A-AXIS-LABEL
10
154119.00
20
-329840.30
40
300.00
0
CIRCLE
8
A-AXIS-LABEL
10
154119.00
20
-308578.70
40
300.00
0
CIRCLE
8
A-AXIS-LABEL
10
157119.00
20
-329840.30
40
300.00
0
CIRCLE
8
A-AXIS-LABEL
10
157119.00
20
-308578.70
40
300.00
0
CIRCLE
8
A-AXIS-LABEL
10
158019.00
20
-329840.30
40
300.00
0
CIRCLE
8
A-AXIS-LABEL
10
158019.00
20
-308578.70
40
300.00
0
CIRCLE
8
A-AXIS-LABEL
10
167527.00
20
-329840.30
40
300.00
0
CIRCLE
8
A-AXIS-LABEL
10
167527.00
20
-308578.70
40
300.00
0
CIRCLE
8
A-AXIS-LABEL
10
170127.00
20
-329840.30
40
300.00
0
CIRCLE
8
A-AXIS-LABEL
10
170127.00
20
-308578.70
40
300.00
0
CIRCLE
8
A-AXIS-LABEL
10
174827.00
20
-329840.30
40
300.00
0
CIRCLE
8
A-AXIS-LABEL
10
174827.00
20
-308578.70
40
300.00
0
CIRCLE
8
A-AXIS-LABEL
10
178827.00
20
-329840.30
40
300.00
0
CIRCLE
8
A-AXIS-LABEL
10
178827.00
20
-308578.70
40
300.00
0
CIRCLE
8
A-AXIS-LABEL
10
180727.00
20
-329840.30
40
300.00
0
CIRCLE
8
A-AXIS-LABEL
10
180727.00
20
-308578.70
40
300.00
0
CIRCLE
8
A-AXIS-LABEL
10
182127.00
20
-329840.30
40
300.00
0
CIRCLE
8
A-AXIS-LABEL
10
182127.00
20
-308578.70
40
300.00
0
CIRCLE
8
A-AXIS-LABEL
10
183327.00
20
-329840.30
40
300.00
0
CIRCLE
8
A-AXIS-LABEL
10
183327.00
20
-308578.70
40
300.00
0
CIRCLE
8
A-AXIS-LABEL
10
187227.00
20
-329840.30
40
300.00
0
CIRCLE
8
A-AXIS-LABEL
10
187227.00
20
-308578.70
40
300.00
0
CIRCLE
8
A-AXIS-LABEL
10
189127.00
20
-329840.30
40
300.00
0
CIRCLE
8
A-AXIS-LABEL
10
189127.00
20
-308578.70
40
300.00
0
CIRCLE
8
A-AXIS-LABEL
10
200585.00
20
-329840.30
40
300.00
0
CIRCLE
8
A-AXIS-LABEL
10
200585.00
20
-308578.70
40
300.00
0
CIRCLE
8
A-AXIS-LABEL
10
204185.00
20
-329840.30
40
300.00
0
CIRCLE
8
A-AXIS-LABEL
10
204185.00
20
-308578.70
40
300.00
0
CIRCLE
8
A-AXIS-LABEL
10
205985.00
20
-329840.30
40
300.00
0
CIRCLE
8
A-AXIS-LABEL
10
205985.00
20
-308578.70
40
300.00
0
CIRCLE
8
A-AXIS-LABEL
10
209885.00
20
-329840.30
40
300.00
0
CIRCLE
8
A-AXIS-LABEL
10
209885.00
20
-308578.70
40
300.00
0
CIRCLE
8
A-AXIS-LABEL
10
211585.00
20
-329840.30
40
300.00
0
CIRCLE
8
A-AXIS-LABEL
10
211585.00
20
-308578.70
40
300.00
0
CIRCLE
8
A-AXIS-LABEL
10
214385.00
20
-329840.30
40
300.00
0
CIRCLE
8
A-AXIS-LABEL
10
214385.00
20
-308578.70
40
300.00
0
CIRCLE
8
A-AXIS-LABEL
10
218285.00
20
-329840.30
40
300.00
0
CIRCLE
8
A-AXIS-LABEL
10
218285.00
20
-308578.70
40
300.00
0
LINE
8
A-AXIS-DIM
10
138319.00
20
-330740.30
11
138319.00
21
-330440.30
0
LINE
8
A-AXIS-DIM
10
140319.00
20
-330740.30
11
140319.00
21
-330440.30
0
LINE
8
A-AXIS-DIM
10
145619.00
20
-330740.30
11
145619.00
21
-330440.30
0
LINE
8
A-AXIS-DIM
10
149619.00
20
-330740.30
11
149619.00
21
-330440.30
0
LINE
8
A-AXIS-DIM
10
152019.00
20
-330740.30
11
152019.00
21
-330440.30
0
LINE
8
A-AXIS-DIM
10
154119.00
20
-330740.30
11
154119.00
21
-330440.30
0
LINE
8
A-AXIS-DIM
10
157119.00
20
-330740.30
11
157119.00
21
-330440.30
0
LINE
8
A-AXIS-DIM
10
158019.00
20
-330740.30
11
158019.00
21
-330440.30
0
LINE
8
A-AXIS-DIM
10
167527.00
20
-330740.30
11
167527.00
21
-330440.30
0
LINE
8
A-AXIS-DIM
10
170127.00
20
-330740.30
11
170127.00
21
-330440.30
0
LINE
8
A-AXIS-DIM
10
174827.00
20
-330740.30
11
174827.00
21
-330440.30
0
LINE
8
A-AXIS-DIM
10
178827.00
20
-330740.30
11
178827.00
21
-330440.30
0
LINE
8
A-AXIS-DIM
10
180727.00
20
-330740.30
11
180727.00
21
-330440.30
0
LINE
8
A-AXIS-DIM
10
182127.00
20
-330740.30
11
182127.00
21
-330440.30
0
LINE
8
A-AXIS-DIM
10
183327.00
20
-330740.30
11
183327.00
21
-330440.30
0
LINE
8
A-AXIS-DIM
10
187227.00
20
-330740.30
11
187227.00
21
-330440.30
0
LINE
8
A-AXIS-DIM
10
189127.00
20
-330740.30
11
189127.00
21
-330440.30
0
LINE
8
A-AXIS-DIM
10
200585.00
20
-330740.30
11
200585.00
21
-330440.30
0
LINE
8
A-AXIS-DIM
10
204185.00
20
-330740.30
11
204185.00
21
-330440.30
0
LINE
8
A-AXIS-DIM
10
205985.00
20
-330740.30
11
205985.00
21
-330440.30
0
LINE
8
A-AXIS-DIM
10
209885.00
20
-330740.30
11
209885.00
21
-330440.30
0
LINE
8
A-AXIS-DIM
10
211585.00
20
-330740.30
11
211585.00
21
-330440.30
0
LINE
8
A-AXIS-DIM
10
214385.00
20
-330740.30
11
214385.00
21
-330440.30
0
LINE
8
A-AXIS-DIM
10
218285.00
20
-330740.30
11
218285.00
21
-330440.30
0
LINE
8
A-AXIS-DIM
10
138319.00
20
-331040.30
11
158019.00
21
-331040.30
0
LINE
8
A-AXIS-DIM
10
138106.90
20
-331252.40
11
138531.10
21
-330828.20
0
LINE
8
A-AXIS-DIM
10
157806.90
20
-331252.40
11
158231.10
21
-330828.20
0
LINE
8
A-AXIS-DIM
10
167527.00
20
-331040.30
11
189127.00
21
-331040.30
0
LINE
8
A-AXIS-DIM
10
167314.90
20
-331252.40
11
167739.10
21
-330828.20
0
LINE
8
A-AXIS-DIM
10
188914.90
20
-331252.40
11
189339.10
21
-330828.20
0
LINE
8
A-AXIS-DIM
10
200585.00
20
-331040.30
11
218285.00
21
-331040.30
0
LINE
8
A-AXIS-DIM
10
200372.90
20
-331252.40
11
200797.10
21
-330828.20
0
LINE
8
A-AXIS-DIM
10
218072.90
20
-331252.40
11
218497.10
21
-330828.20
0
ENDSEC
0
EOF