0
SECTION
2
HEADER
9
$ACADVER
1
AC1009
0
ENDSEC
0
SECTION
2
TABLES
0
TABLE
2
LAYER
70
4
0
LAYER
2
0
70
0
62
7
6
CONTINUOUS
0
LAYER
2
A-AXIS
70
0
62
3
6
CENTER
0
LAYER
2
A-AXIS-LABEL
70
0
62
7
6
CONTINUOUS
0
LAYER
2
A-AXIS-DIM
70
0
62
4
6
CONTINUOUS
0
ENDTAB
0
ENDSEC
0
SECTION
2
ENTITIES
0
LINE
8
A-AXIS
62
3
10
138319.00
20
-316652.00
11
138319.00
21
-312802.00
0
LINE
8
A-AXIS
62
3
10
138519.00
20
-316652.00
11
138519.00
21
-312802.00
0
LINE
8
A-AXIS
62
3
10
140319.00
20
-316652.00
11
140319.00
21
-312802.00
0
LINE
8
A-AXIS
62
3
10
140544.00
20
-316652.00
11
140544.00
21
-312802.00
0
LINE
8
A-AXIS
62
3
10
140919.00
20
-316652.00
11
140919.00
21
-312802.00
0
LINE
8
A-AXIS
62
3
10
141119.00
20
-316652.00
11
141119.00
21
-312802.00
0
LINE
8
A-AXIS
62
3
10
145619.00
20
-316652.00
11
145619.00
21
-312802.00
0
LINE
8
A-AXIS
62
3
10
145719.00
20
-316652.00
11
145719.00
21
-312802.00
0
LINE
8
A-AXIS
62
3
10
145944.00
20
-316652.00
11
145944.00
21
-312802.00
0
LINE
8
A-AXIS
62
3
10
149619.00
20
-316652.00
11
149619.00
21
-312802.00
0
LINE
8
A-AXIS
62
3
10
149844.00
20
-316652.00
11
149844.00
21
-312802.00
0
LINE
8
A-AXIS
62
3
10
152019.00
20
-316652.00
11
152019.00
21
-312802.00
0
LINE
8
A-AXIS
62
3
10
152219.00
20
-316652.00
11
152219.00
21
-312802.00
0
LINE
8
A-AXIS
62
3
10
152819.00
20
-316652.00
11
152819.00
21
-312802.00
0
LINE
8
A-AXIS
62
3
10
154119.00
20
-316652.00
11
154119.00
21
-312802.00
0
LINE
8
A-AXIS
62
3
10
154319.00
20
-316652.00
11
154319.00
21
-312802.00
0
LINE
8
A-AXIS
62
3
10
157119.00
20
-316652.00
11
157119.00
21
-312802.00
0
LINE
8
A-AXIS
62
3
10
158019.00
20
-316652.00
11
158019.00
21
-312802.00
0
LINE
8
A-AXIS
62
3
10
158219.00
20
-316652.00
11
158219.00
21
-312802.00
0
LINE
8
A-AXIS
62
3
10
137324.00
20
-316477.00
11
159214.00
21
-316477.00
0
LINE
8
A-AXIS
62
3
10
137324.00
20
-316277.00
11
159214.00
21
-316277.00
0
LINE
8
A-AXIS
62
3
10
137324.00
20
-315942.00
11
159214.00
21
-315942.00
0
LINE
8
A-AXIS
62
3
10
137324.00
20
-315742.00
11
159214.00
21
-315742.00
0
LINE
8
A-AXIS
62
3
10
137324.00
20
-315342.00
11
159214.00
21
-315342.00
0
LINE
8
A-AXIS
62
3
10
137324.00
20
-315142.00
11
159214.00
21
-315142.00
0
LINE
8
A-AXIS
62
3
10
137324.00
20
-315042.00
11
159214.00
21
-315042.00
0
LINE
8
A-AXIS
62
3
10
137324.00
20
-314842.00
11
159214.00
21
-314842.00
0
LINE
8
A-AXIS
62
3
10
137324.00
20
-313177.00
11
159214.00
21
-313177.00
0
LINE
8
A-AXIS
62
3
10
137324.00
20
-312977.00
11
159214.00
21
-312977.00
0
CIRCLE
8
A-AXIS-LABEL
10
138319.00
20
-317252.00
40
300.00
0
CIRCLE
8
A-AXIS-LABEL
10
138319.00
20
-312202.00
40
300.00
0
CIRCLE
8
A-AXIS-LABEL
10
138519.00
20
-317252.00
40
300.00
0
CIRCLE
8
A-AXIS-LABEL
10
138519.00
20
-312202.00
40
300.00
0
CIRCLE
8
A-AXIS-LABEL
10
140319.00
20
-317252.00
40
300.00
0
CIRCLE
8
A-AXIS-LABEL
10
140319.00
20
-312202.00
40
300.00
0
CIRCLE
8
A-AXIS-LABEL
10
140544.00
20
-317252.00
40
300.00
0
CIRCLE
8
A-AXIS-LABEL
10
140544.00
20
-312202.00
40
300.00
0
CIRCLE
8
A-AXIS-LABEL
10
140919.00
20
-317252.00
40
300.00
0
CIRCLE
8
A-AXIS-LABEL
10
140919.00
20
-312202.00
40
300.00
0
CIRCLE
8
A-AXIS-LABEL
10
141119.00
20
-317252.00
40
300.00
0
CIRCLE
8
A-AXIS-LABEL
10
141119.00
20
-312202.00
40
300.00
0
CIRCLE
8
A-AXIS-LABEL
10
145619.00
20
-317252.00
40
300.00
0
CIRCLE
8
A-AXIS-LABEL
10
145619.00
20
-312202.00
40
300.00
0
CIRCLE
8
A-AXIS-LABEL
10
145719.00
20
-317252.00
40
300.00
0
CIRCLE
8
A-AXIS-LABEL
10
145719.00
20
-312202.00
40
300.00
0
CIRCLE
8
A-AXIS-LABEL
10
145944.00
20
-317252.00
40
300.00
0
CIRCLE
8
A-AXIS-LABEL
10
145944.00
20
-312202.00
40
300.00
0
CIRCLE
8
A-AXIS-LABEL
10
149619.00
20
-317252.00
40
300.00
0
CIRCLE
8
A-AXIS-LABEL
10
149619.00
20
-312202.00
40
300.00
0
CIRCLE
8
A-AXIS-LABEL
10
149844.00
20
-317252.00
40
300.00
0
CIRCLE
8
A-AXIS-LABEL
10
149844.00
20
-312202.00
40
300.00
0
CIRCLE
8
A-AXIS-LABEL
10
152019.00
20
-317252.00
40
300.00
0
CIRCLE
8
A-AXIS-LABEL
10
152019.00
20
-312202.00
40
300.00
0
CIRCLE
8
A-AXIS-LABEL
10
152219.00
20
-317252.00
40
300.00
0
CIRCLE
8
A-AXIS-LABEL
10
152219.00
20
-312202.00
40
300.00
0
CIRCLE
8
A-AXIS-LABEL
10
152819.00
20
-317252.00
40
300.00
0
CIRCLE
8
A-AXIS-LABEL
10
152819.00
20
-312202.00
40
300.00
0
CIRCLE
8
A-AXIS-LABEL
10
154119.00
20
-317252.00
40
300.00
0
CIRCLE
8
A-AXIS-LABEL
10
154119.00
20
-312202.00
40
300.00
0
CIRCLE
8
A-AXIS-LABEL
10
154319.00
20
-317252.00
40
300.00
0
CIRCLE
8
A-AXIS-LABEL
10
154319.00
20
-312202.00
40
300.00
0
CIRCLE
8
A-AXIS-LABEL
10
157119.00
20
-317252.00
40
300.00
0
CIRCLE
8
A-AXIS-LABEL
10
157119.00
20
-312202.00
40
300.00
0
CIRCLE
8
A-AXIS-LABEL
10
158019.00
20
-317252.00
40
300.00
0
CIRCLE
8
A-AXIS-LABEL
10
158019.00
20
-312202.00
40
300.00
0
CIRCLE
8
A-AXIS-LABEL
10
158219.00
20
-317252.00
40
300.00
0
CIRCLE
8
A-AXIS-LABEL
10
158219.00
20
-312202.00
40
300.00
0
CIRCLE
8
A-AXIS-LABEL
10
136724.00
20
-316477.00
40
300.00
0
CIRCLE
8
A-AXIS-LABEL
10
159814.00
20
-316477.00
40
300.00
0
CIRCLE
8
A-AXIS-LABEL
10
136724.00
20
-316277.00
40
300.00
0
CIRCLE
8
A-AXIS-LABEL
10
159814.00
20
-316277.00
40
300.00
0
CIRCLE
8
A-AXIS-LABEL
10
136724.00
20
-315942.00
40
300.00
0
CIRCLE
8
A-AXIS-LABEL
10
159814.00
20
-315942.00
40
300.00
0
CIRCLE
8
A-AXIS-LABEL
10
136724.00
20
-315742.00
40
300.00
0
CIRCLE
8
A-AXIS-LABEL
10
159814.00
20
-315742.00
40
300.00
0
CIRCLE
8
A-AXIS-LABEL
10
136724.00
20
-315342.00
40
300.00
0
CIRCLE
8
A-AXIS-LABEL
10
159814.00
20
-315342.00
40
300.00
0
CIRCLE
8
A-AXIS-LABEL
10
136724.00
20
-315142.00
40
300.00
0
CIRCLE
8
A-AXIS-LABEL
10
159814.00
20
-315142.00
40
300.00
0
CIRCLE
8
A-AXIS-LABEL
10
136724.00
20
-315042.00
40
300.00
0
CIRCLE
8
A-AXIS-LABEL
10
159814.00
20
-315042.00
40
300.00
0
CIRCLE
8
A-AXIS-LABEL
10
136724.00
20
-314842.00
40
300.00
0
CIRCLE
8
A-AXIS-LABEL
10
159814.00
20
-314842.00
40
300.00
0
CIRCLE
8
A-AXIS-LABEL
10
136724.00
20
-313177.00
40
300.00
0
CIRCLE
8
A-AXIS-LABEL
10
159814.00
20
-313177.00
40
300.00
0
CIRCLE
8
A-AXIS-LABEL
10
136724.00
20
-312977.00
40
300.00
0
CIRCLE
8
A-AXIS-LABEL
10
159814.00
20
-312977.00
40
300.00
0
LINE
8
A-AXIS-DIM
10
138319.00
20
-318152.00
11
138319.00
21
-317852.00
0
LINE
8
A-AXIS-DIM
10
138519.00
20
-318152.00
11
138519.00
21
-317852.00
0
LINE
8
A-AXIS-DIM
10
140319.00
20
-318152.00
11
140319.00
21
-317852.00
0
LINE
8
A-AXIS-DIM
10
140544.00
20
-318152.00
11
140544.00
21
-317852.00
0
LINE
8
A-AXIS-DIM
10
140919.00
20
-318152.00
11
140919.00
21
-317852.00
0
LINE
8
A-AXIS-DIM
10
141119.00
20
-318152.00
11
141119.00
21
-317852.00
0
LINE
8
A-AXIS-DIM
10
145619.00
20
-318152.00
11
145619.00
21
-317852.00
0
LINE
8
A-AXIS-DIM
10
145719.00
20
-318152.00
11
145719.00
21
-317852.00
0
LINE
8
A-AXIS-DIM
10
145944.00
20
-318152.00
11
145944.00
21
-317852.00
0
LINE
8
A-AXIS-DIM
10
149619.00
20
-318152.00
11
149619.00
21
-317852.00
0
LINE
8
A-AXIS-DIM
10
149844.00
20
-318152.00
11
149844.00
21
-317852.00
0
LINE
8
A-AXIS-DIM
10
152019.00
20
-318152.00
11
152019.00
21
-317852.00
0
LINE
8
A-AXIS-DIM
10
152219.00
20
-318152.00
11
152219.00
21
-317852.00
0
LINE
8
A-AXIS-DIM
10
152819.00
20
-318152.00
11
152819.00
21
-317852.00
0
LINE
8
A-AXIS-DIM
10
154119.00
20
-318152.00
11
154119.00
21
-317852.00
0
LINE
8
A-AXIS-DIM
10
154319.00
20
-318152.00
11
154319.00
21
-317852.00
0
LINE
8
A-AXIS-DIM
10
157119.00
20
-318152.00
11
157119.00
21
-317852.00
0
LINE
8
A-AXIS-DIM
10
158019.00
20
-318152.00
11
158019.00
21
-317852.00
0
LINE
8
A-AXIS-DIM
10
158219.00
20
-318152.00
11
158219.00
21
-317852.00
0
ENDSEC
0
EOF