<svg xmlns="http://www.w3.org/2000/svg" viewBox="0 0 1000 700">
<rect width="100%" height="100%" fill="#f8f9fa"/>
<text x="50" y="30" font-size="16" font-weight="bold">轴网系统</text>
<g stroke="#e0e0e0" stroke-width="0.5">
<line x1="0" y1="0" x2="0" y2="700"/>
<line x1="50" y1="0" x2="50" y2="700"/>
<line x1="100" y1="0" x2="100" y2="700"/>
<line x1="150" y1="0" x2="150" y2="700"/>
<line x1="200" y1="0" x2="200" y2="700"/>
<line x1="250" y1="0" x2="250" y2="700"/>
<line x1="300" y1="0" x2="300" y2="700"/>
<line x1="350" y1="0" x2="350" y2="700"/>
<line x1="400" y1="0" x2="400" y2="700"/>
<line x1="450" y1="0" x2="450" y2="700"/>
<line x1="500" y1="0" x2="500" y2="700"/>
<line x1="550" y1="0" x2="550" y2="700"/>
<line x1="600" y1="0" x2="600" y2="700"/>
<line x1="650" y1="0" x2="650" y2="700"/>
<line x1="700" y1="0" x2="700" y2="700"/>
<line x1="750" y1="0" x2="750" y2="700"/>
<line x1="800" y1="0" x2="800" y2="700"/>
<line x1="850" y1="0" x2="850" y2="700"/>
<line x1="900" y1="0" x2="900" y2="700"/>
<line x1="950" y1="0" x2="950" y2="700"/>
<line x1="0" y1="0" x2="1000" y2="0"/>
<line x1="0" y1="50" x2="1000" y2="50"/>
<line x1="0" y1="100" x2="1000" y2="100"/>
<line x1="0" y1="150" x2="1000" y2="150"/>
<line x1="0" y1="200" x2="1000" y2="200"/>
<line x1="0" y1="250" x2="1000" y2="250"/>
<line x1="0" y1="300" x2="1000" y2="300"/>
<line x1="0" y1="350" x2="1000" y2="350"/>
<line x1="0" y1="400" x2="1000" y2="400"/>
<line x1="0" y1="450" x2="1000" y2="450"/>
<line x1="0" y1="500" x2="1000" y2="500"/>
<line x1="0" y1="550" x2="1000" y2="550"/>
<line x1="0" y1="600" x2="1000" y2="600"/>
<line x1="0" y1="650" x2="1000" y2="650"/>
</g>
<line x1="112" y1="119" x2="112" y2="581" stroke="#e74c3c" stroke-width="1.5" stroke-dasharray="8,4"/>
<line x1="114" y1="119" x2="114" y2="581" stroke="#e74c3c" stroke-width="1.5" stroke-dasharray="8,4"/>
<line x1="131" y1="119" x2="131" y2="581" stroke="#e74c3c" stroke-width="1.5" stroke-dasharray="8,4"/>
<line x1="133" y1="119" x2="133" y2="581" stroke="#e74c3c" stroke-width="1.5" stroke-dasharray="8,4"/>
<line x1="137" y1="119" x2="137" y2="581" stroke="#e74c3c" stroke-width="1.5" stroke-dasharray="8,4"/>
<line x1="139" y1="119" x2="139" y2="581" stroke="#e74c3c" stroke-width="1.5" stroke-dasharray="8,4"/>
<line x1="182" y1="119" x2="182" y2="581" stroke="#e74c3c" stroke-width="1.5" stroke-dasharray="8,4"/>
<line x1="183" y1="119" x2="183" y2="581" stroke="#e74c3c" stroke-width="1.5" stroke-dasharray="8,4"/>
<line x1="185" y1="119" x2="185" y2="581" stroke="#e74c3c" stroke-width="1.5" stroke-dasharray="8,4"/>
<line x1="221" y1="119" x2="221" y2="581" stroke="#e74c3c" stroke-width="1.5" stroke-dasharray="8,4"/>
<line x1="223" y1="119" x2="223" y2="581" stroke="#e74c3c" stroke-width="1.5" stroke-dasharray="8,4"/>
<line x1="244" y1="119" x2="244" y2="581" stroke="#e74c3c" stroke-width="1.5" stroke-dasharray="8,4"/>
<line x1="246" y1="119" x2="246" y2="581" stroke="#e74c3c" stroke-width="1.5" stroke-dasharray="8,4"/>
<line x1="251" y1="119" x2="251" y2="581" stroke="#e74c3c" stroke-width="1.5" stroke-dasharray="8,4"/>
<line x1="264" y1="119" x2="264" y2="581" stroke="#e74c3c" stroke-width="1.5" stroke-dasharray="8,4"/>
<line x1="266" y1="119" x2="266" y2="581" stroke="#e74c3c" stroke-width="1.5" stroke-dasharray="8,4"/>
<line x1="293" y1="119" x2="293" y2="581" stroke="#e74c3c" stroke-width="1.5" stroke-dasharray="8,4"/>
<line x1="301" y1="119" x2="301" y2="581" stroke="#e74c3c" stroke-width="1.5" stroke-dasharray="8,4"/>
<line x1="303" y1="119" x2="303" y2="581" stroke="#e74c3c" stroke-width="1.5" stroke-dasharray="8,4"/>
<line x1="393" y1="119" x2="393" y2="581" stroke="#e74c3c" stroke-width="1.5" stroke-dasharray="8,4"/>
<line x1="395" y1="119" x2="395" y2="581" stroke="#e74c3c" stroke-width="1.5" stroke-dasharray="8,4"/>
<line x1="418" y1="119" x2="418" y2="581" stroke="#e74c3c" stroke-width="1.5" stroke-dasharray="8,4"/>
<line x1="420" y1="119" x2="420" y2="581" stroke="#e74c3c" stroke-width="1.5" stroke-dasharray="8,4"/>
<line x1="463" y1="119" x2="463" y2="581" stroke="#e74c3c" stroke-width="1.5" stroke-dasharray="8,4"/>
<line x1="464" y1="119" x2="464" y2="581" stroke="#e74c3c" stroke-width="1.5" stroke-dasharray="8,4"/>
<line x1="466" y1="119" x2="466" y2="581" stroke="#e74c3c" stroke-width="1.5" stroke-dasharray="8,4"/>
<line x1="501" y1="119" x2="501" y2="581" stroke="#e74c3c" stroke-width="1.5" stroke-dasharray="8,4"/>
<line x1="502" y1="119" x2="502" y2="581" stroke="#e74c3c" stroke-width="1.5" stroke-dasharray="8,4"/>
<line x1="503" y1="119" x2="503" y2="581" stroke="#e74c3c" stroke-width="1.5" stroke-dasharray="8,4"/>
<line x1="505" y1="119" x2="505" y2="581" stroke="#e74c3c" stroke-width="1.5" stroke-dasharray="8,4"/>
<line x1="519" y1="119" x2="519" y2="581" stroke="#e74c3c" stroke-width="1.5" stroke-dasharray="8,4"/>
<line x1="521" y1="119" x2="521" y2="581" stroke="#e74c3c" stroke-width="1.5" stroke-dasharray="8,4"/>
<line x1="533" y1="119" x2="533" y2="581" stroke="#e74c3c" stroke-width="1.5" stroke-dasharray="8,4"/>
<line x1="535" y1="119" x2="535" y2="581" stroke="#e74c3c" stroke-width="1.5" stroke-dasharray="8,4"/>
<line x1="544" y1="119" x2="544" y2="581" stroke="#e74c3c" stroke-width="1.5" stroke-dasharray="8,4"/>
<line x1="546" y1="119" x2="546" y2="581" stroke="#e74c3c" stroke-width="1.5" stroke-dasharray="8,4"/>
<line x1="582" y1="119" x2="582" y2="581" stroke="#e74c3c" stroke-width="1.5" stroke-dasharray="8,4"/>
<line x1="584" y1="119" x2="584" y2="581" stroke="#e74c3c" stroke-width="1.5" stroke-dasharray="8,4"/>
<line x1="588" y1="119" x2="588" y2="581" stroke="#e74c3c" stroke-width="1.5" stroke-dasharray="8,4"/>
<line x1="590" y1="119" x2="590" y2="581" stroke="#e74c3c" stroke-width="1.5" stroke-dasharray="8,4"/>
<line x1="600" y1="119" x2="600" y2="581" stroke="#e74c3c" stroke-width="1.5" stroke-dasharray="8,4"/>
<line x1="710" y1="119" x2="710" y2="581" stroke="#e74c3c" stroke-width="1.5" stroke-dasharray="8,4"/>
<line x1="712" y1="119" x2="712" y2="581" stroke="#e74c3c" stroke-width="1.5" stroke-dasharray="8,4"/>
<line x1="716" y1="119" x2="716" y2="581" stroke="#e74c3c" stroke-width="1.5" stroke-dasharray="8,4"/>
<line x1="718" y1="119" x2="718" y2="581" stroke="#e74c3c" stroke-width="1.5" stroke-dasharray="8,4"/>
<line x1="726" y1="119" x2="726" y2="581" stroke="#e74c3c" stroke-width="1.5" stroke-dasharray="8,4"/>
<line x1="728" y1="119" x2="728" y2="581" stroke="#e74c3c" stroke-width="1.5" stroke-dasharray="8,4"/>
<line x1="745" y1="119" x2="745" y2="581" stroke="#e74c3c" stroke-width="1.5" stroke-dasharray="8,4"/>
<line x1="747" y1="119" x2="747" y2="581" stroke="#e74c3c" stroke-width="1.5" stroke-dasharray="8,4"/>
<line x1="762" y1="119" x2="762" y2="581" stroke="#e74c3c" stroke-width="1.5" stroke-dasharray="8,4"/>
<line x1="764" y1="119" x2="764" y2="581" stroke="#e74c3c" stroke-width="1.5" stroke-dasharray="8,4"/>
<line x1="800" y1="119" x2="800" y2="581" stroke="#e74c3c" stroke-width="1.5" stroke-dasharray="8,4"/>
<line x1="801" y1="119" x2="801" y2="581" stroke="#e74c3c" stroke-width="1.5" stroke-dasharray="8,4"/>
<line x1="816" y1="119" x2="816" y2="581" stroke="#e74c3c" stroke-width="1.5" stroke-dasharray="8,4"/>
<line x1="817" y1="119" x2="817" y2="581" stroke="#e74c3c" stroke-width="1.5" stroke-dasharray="8,4"/>
<line x1="843" y1="119" x2="843" y2="581" stroke="#e74c3c" stroke-width="1.5" stroke-dasharray="8,4"/>
<line x1="845" y1="119" x2="845" y2="581" stroke="#e74c3c" stroke-width="1.5" stroke-dasharray="8,4"/>
<line x1="846" y1="119" x2="846" y2="581" stroke="#e74c3c" stroke-width="1.5" stroke-dasharray="8,4"/>
<line x1="848" y1="119" x2="848" y2="581" stroke="#e74c3c" stroke-width="1.5" stroke-dasharray="8,4"/>
<line x1="880" y1="119" x2="880" y2="581" stroke="#e74c3c" stroke-width="1.5" stroke-dasharray="8,4"/>
<line x1="882" y1="119" x2="882" y2="581" stroke="#e74c3c" stroke-width="1.5" stroke-dasharray="8,4"/>
<line x1="888" y1="119" x2="888" y2="581" stroke="#e74c3c" stroke-width="1.5" stroke-dasharray="8,4"/>
<line x1="112" y1="119" x2="888" y2="119" stroke="#3498db" stroke-width="1.5" stroke-dasharray="8,4"/>
<line x1="112" y1="146" x2="888" y2="146" stroke="#3498db" stroke-width="1.5" stroke-dasharray="8,4"/>
<line x1="112" y1="190" x2="888" y2="190" stroke="#3498db" stroke-width="1.5" stroke-dasharray="8,4"/>
<line x1="112" y1="216" x2="888" y2="216" stroke="#3498db" stroke-width="1.5" stroke-dasharray="8,4"/>
<line x1="112" y1="269" x2="888" y2="269" stroke="#3498db" stroke-width="1.5" stroke-dasharray="8,4"/>
<line x1="112" y1="295" x2="888" y2="295" stroke="#3498db" stroke-width="1.5" stroke-dasharray="8,4"/>
<line x1="112" y1="308" x2="888" y2="308" stroke="#3498db" stroke-width="1.5" stroke-dasharray="8,4"/>
<line x1="112" y1="335" x2="888" y2="335" stroke="#3498db" stroke-width="1.5" stroke-dasharray="8,4"/>
<line x1="112" y1="554" x2="888" y2="554" stroke="#3498db" stroke-width="1.5" stroke-dasharray="8,4"/>
<line x1="112" y1="581" x2="888" y2="581" stroke="#3498db" stroke-width="1.5" stroke-dasharray="8,4"/>
<circle cx="112" cy="149" r="14" fill="white" stroke="#e74c3c" stroke-width="1.5"/>
<text x="112" y="153" text-anchor="middle" font-size="10" fill="#333">1</text>
<circle cx="112" cy="551" r="14" fill="white" stroke="#e74c3c" stroke-width="1.5"/>
<text x="112" y="555" text-anchor="middle" font-size="10" fill="#333">1</text>
<circle cx="114" cy="149" r="14" fill="white" stroke="#e74c3c" stroke-width="1.5"/>
<text x="114" y="153" text-anchor="middle" font-size="10" fill="#333">2</text>
<circle cx="114" cy="551" r="14" fill="white" stroke="#e74c3c" stroke-width="1.5"/>
<text x="114" y="555" text-anchor="middle" font-size="10" fill="#333">2</text>
<circle cx="131" cy="149" r="14" fill="white" stroke="#e74c3c" stroke-width="1.5"/>
<text x="131" y="153" text-anchor="middle" font-size="10" fill="#333">3</text>
<circle cx="131" cy="551" r="14" fill="white" stroke="#e74c3c" stroke-width="1.5"/>
<text x="131" y="555" text-anchor="middle" font-size="10" fill="#333">3</text>
<circle cx="133" cy="149" r="14" fill="white" stroke="#e74c3c" stroke-width="1.5"/>
<text x="133" y="153" text-anchor="middle" font-size="10" fill="#333">4</text>
<circle cx="133" cy="551" r="14" fill="white" stroke="#e74c3c" stroke-width="1.5"/>
<text x="133" y="555" text-anchor="middle" font-size="10" fill="#333">4</text>
<circle cx="137" cy="149" r="14" fill="white" stroke="#e74c3c" stroke-width="1.5"/>
<text x="137" y="153" text-anchor="middle" font-size="10" fill="#333">5</text>
<circle cx="137" cy="551" r="14" fill="white" stroke="#e74c3c" stroke-width="1.5"/>
<text x="137" y="555" text-anchor="middle" font-size="10" fill="#333">5</text>
<circle cx="139" cy="149" r="14" fill="white" stroke="#e74c3c" stroke-width="1.5"/>
<text x="139" y="153" text-anchor="middle" font-size="10" fill="#333">6</text>
<circle cx="139" cy="551" r="14" fill="white" stroke="#e74c3c" stroke-width="1.5"/>
<text x="139" y="555" text-anchor="middle" font-size="10" fill="#333">6</text>
<circle cx="182" cy="149" r="14" fill="white" stroke="#e74c3c" stroke-width="1.5"/>
<text x="182" y="153" text-anchor="middle" font-size="10" fill="#333">7</text>
<circle cx="182" cy="551" r="14" fill="white" stroke="#e74c3c" stroke-width="1.5"/>
<text x="182" y="555" text-anchor="middle" font-size="10" fill="#333">7</text>
<circle cx="183" cy="149" r="14" fill="white" stroke="#e74c3c" stroke-width="1.5"/>
<text x="183" y="153" text-anchor="middle" font-size="10" fill="#333">8</text>
<circle cx="183" cy="551" r="14" fill="white" stroke="#e74c3c" stroke-width="1.5"/>
<text x="183" y="555" text-anchor="middle" font-size="10" fill="#333">8</text>
<circle cx="185" cy="149" r="14" fill="white" stroke="#e74c3c" stroke-width="1.5"/>
<text x="185" y="153" text-anchor="middle" font-size="10" fill="#333">9</text>
<circle cx="185" cy="551" r="14" fill="white" stroke="#e74c3c" stroke-width="1.5"/>
<text x="185" y="555" text-anchor="middle" font-size="10" fill="#333">9</text>
<circle cx="221" cy="149" r="14" fill="white" stroke="#e74c3c" stroke-width="1.5"/>
<text x="221" y="153" text-anchor="middle" font-size="10" fill="#333">10</text>
<circle cx="221" cy="551" r="14" fill="white" stroke="#e74c3c" stroke-width="1.5"/>
<text x="221" y="555" text-anchor="middle" font-size="10" fill="#333">10</text>
<circle cx="223" cy="149" r="14" fill="white" stroke="#e74c3c" stroke-width="1.5"/>
<text x="223" y="153" text-anchor="middle" font-size="10" fill="#333">11</text>
<circle cx="223" cy="551" r="14" fill="white" stroke="#e74c3c" stroke-width="1.5"/>
<text x="223" y="555" text-anchor="middle" font-size="10" fill="#333">11</text>
<circle cx="244" cy="149" r="14" fill="white" stroke="#e74c3c" stroke-width="1.5"/>
<text x="244" y="153" text-anchor="middle" font-size="10" fill="#333">12</text>
<circle cx="244" cy="551" r="14" fill="white" stroke="#e74c3c" stroke-width="1.5"/>
<text x="244" y="555" text-anchor="middle" font-size="10" fill="#333">12</text>
<circle cx="246" cy="149" r="14" fill="white" stroke="#e74c3c" stroke-width="1.5"/>
<text x="246" y="153" text-anchor="middle" font-size="10" fill="#333">13</text>
<circle cx="246" cy="551" r="14" fill="white" stroke="#e74c3c" stroke-width="1.5"/>
<text x="246" y="555" text-anchor="middle" font-size="10" fill="#333">13</text>
<circle cx="251" cy="149" r="14" fill="white" stroke="#e74c3c" stroke-width="1.5"/>
<text x="251" y="153" text-anchor="middle" font-size="10" fill="#333">14</text>
<circle cx="251" cy="551" r="14" fill="white" stroke="#e74c3c" stroke-width="1.5"/>
<text x="251" y="555" text-anchor="middle" font-size="10" fill="#333">14</text>
<circle cx="264" cy="149" r="14" fill="white" stroke="#e74c3c" stroke-width="1.5"/>
<text x="264" y="153" text-anchor="middle" font-size="10" fill="#333">15</text>
<circle cx="264" cy="551" r="14" fill="white" stroke="#e74c3c" stroke-width="1.5"/>
<text x="264" y="555" text-anchor="middle" font-size="10" fill="#333">15</text>
<circle cx="266" cy="149" r="14" fill="white" stroke="#e74c3c" stroke-width="1.5"/>
<text x="266" y="153" text-anchor="middle" font-size="10" fill="#333">16</text>
<circle cx="266" cy="551" r="14" fill="white" stroke="#e74c3c" stroke-width="1.5"/>
<text x="266" y="555" text-anchor="middle" font-size="10" fill="#333">16</text>
<circle cx="293" cy="149" r="14" fill="white" stroke="#e74c3c" stroke-width="1.5"/>
<text x="293" y="153" text-anchor="middle" font-size="10" fill="#333">17</text>
<circle cx="293" cy="551" r="14" fill="white" stroke="#e74c3c" stroke-width="1.5"/>
<text x="293" y="555" text-anchor="middle" font-size="10" fill="#333">17</text>
<circle cx="301" cy="149" r="14" fill="white" stroke="#e74c3c" stroke-width="1.5"/>
<text x="301" y="153" text-anchor="middle" font-size="10" fill="#333">18</text>
<circle cx="301" cy="551" r="14" fill="white" stroke="#e74c3c" stroke-width="1.5"/>
<text x="301" y="555" text-anchor="middle" font-size="10" fill="#333">18</text>
<circle cx="303" cy="149" r="14" fill="white" stroke="#e74c3c" stroke-width="1.5"/>
<text x="303" y="153" text-anchor="middle" font-size="10" fill="#333">19</text>
<circle cx="303" cy="551" r="14" fill="white" stroke="#e74c3c" stroke-width="1.5"/>
<text x="303" y="555" text-anchor="middle" font-size="10" fill="#333">19</text>
<circle cx="393" cy="149" r="14" fill="white" stroke="#e74c3c" stroke-width="1.5"/>
<text x="393" y="153" text-anchor="middle" font-size="10" fill="#333">20</text>
<circle cx="393" cy="551" r="14" fill="white" stroke="#e74c3c" stroke-width="1.5"/>
<text x="393" y="555" text-anchor="middle" font-size="10" fill="#333">20</text>
<circle cx="395" cy="149" r="14" fill="white" stroke="#e74c3c" stroke-width="1.5"/>
<text x="395" y="153" text-anchor="middle" font-size="10" fill="#333">21</text>
<circle cx="395" cy="551" r="14" fill="white" stroke="#e74c3c" stroke-width="1.5"/>
<text x="395" y="555" text-anchor="middle" font-size="10" fill="#333">21</text>
<circle cx="418" cy="149" r="14" fill="white" stroke="#e74c3c" stroke-width="1.5"/>
<text x="418" y="153" text-anchor="middle" font-size="10" fill="#333">22</text>
<circle cx="418" cy="551" r="14" fill="white" stroke="#e74c3c" stroke-width="1.5"/>
<text x="418" y="555" text-anchor="middle" font-size="10" fill="#333">22</text>
<circle cx="420" cy="149" r="14" fill="white" stroke="#e74c3c" stroke-width="1.5"/>
<text x="420" y="153" text-anchor="middle" font-size="10" fill="#333">23</text>
<circle cx="420" cy="551" r="14" fill="white" stroke="#e74c3c" stroke-width="1.5"/>
<text x="420" y="555" text-anchor="middle" font-size="10" fill="#333">23</text>
<circle cx="463" cy="149" r="14" fill="white" stroke="#e74c3c" stroke-width="1.5"/>
<text x="463" y="153" text-anchor="middle" font-size="10" fill="#333">24</text>
<circle cx="463" cy="551" r="14" fill="white" stroke="#e74c3c" stroke-width="1.5"/>
<text x="463" y="555" text-anchor="middle" font-size="10" fill="#333">24</text>
<circle cx="464" cy="149" r="14" fill="white" stroke="#e74c3c" stroke-width="1.5"/>
<text x="464" y="153" text-anchor="middle" font-size="10" fill="#333">25</text>
<circle cx="464" cy="551" r="14" fill="white" stroke="#e74c3c" stroke-width="1.5"/>
<text x="464" y="555" text-anchor="middle" font-size="10" fill="#333">25</text>
<circle cx="466" cy="149" r="14" fill="white" stroke="#e74c3c" stroke-width="1.5"/>
<text x="466" y="153" text-anchor="middle" font-size="10" fill="#333">26</text>
<circle cx="466" cy="551" r="14" fill="white" stroke="#e74c3c" stroke-width="1.5"/>
<text x="466" y="555" text-anchor="middle" font-size="10" fill="#333">26</text>
<circle cx="501" cy="149" r="14" fill="white" stroke="#e74c3c" stroke-width="1.5"/>
<text x="501" y="153" text-anchor="middle" font-size="10" fill="#333">27</text>
<circle cx="501" cy="551" r="14" fill="white" stroke="#e74c3c" stroke-width="1.5"/>
<text x="501" y="555" text-anchor="middle" font-size="10" fill="#333">27</text>
<circle cx="502" cy="149" r="14" fill="white" stroke="#e74c3c" stroke-width="1.5"/>
<text x="502" y="153" text-anchor="middle" font-size="10" fill="#333">28</text>
<circle cx="502" cy="551" r="14" fill="white" stroke="#e74c3c" stroke-width="1.5"/>
<text x="502" y="555" text-anchor="middle" font-size="10" fill="#333">28</text>
<circle cx="503" cy="149" r="14" fill="white" stroke="#e74c3c" stroke-width="1.5"/>
<text x="503" y="153" text-anchor="middle" font-size="10" fill="#333">29</text>
<circle cx="503" cy="551" r="14" fill="white" stroke="#e74c3c" stroke-width="1.5"/>
<text x="503" y="555" text-anchor="middle" font-size="10" fill="#333">29</text>
<circle cx="505" cy="149" r="14" fill="white" stroke="#e74c3c" stroke-width="1.5"/>
<text x="505" y="153" text-anchor="middle" font-size="10" fill="#333">30</text>
<circle cx="505" cy="551" r="14" fill="white" stroke="#e74c3c" stroke-width="1.5"/>
<text x="505" y="555" text-anchor="middle" font-size="10" fill="#333">30</text>
<circle cx="519" cy="149" r="14" fill="white" stroke="#e74c3c" stroke-width="1.5"/>
<text x="519" y="153" text-anchor="middle" font-size="10" fill="#333">31</text>
<circle cx="519" cy="551" r="14" fill="white" stroke="#e74c3c" stroke-width="1.5"/>
<text x="519" y="555" text-anchor="middle" font-size="10" fill="#333">31</text>
<circle cx="521" cy="149" r="14" fill="white" stroke="#e74c3c" stroke-width="1.5"/>
<text x="521" y="153" text-anchor="middle" font-size="10" fill="#333">32</text>
<circle cx="521" cy="551" r="14" fill="white" stroke="#e74c3c" stroke-width="1.5"/>
<text x="521" y="555" text-anchor="middle" font-size="10" fill="#333">32</text>
<circle cx="533" cy="149" r="14" fill="white" stroke="#e74c3c" stroke-width="1.5"/>
<text x="533" y="153" text-anchor="middle" font-size="10" fill="#333">33</text>
<circle cx="533" cy="551" r="14" fill="white" stroke="#e74c3c" stroke-width="1.5"/>
<text x="533" y="555" text-anchor="middle" font-size="10" fill="#333">33</text>
<circle cx="535" cy="149" r="14" fill="white" stroke="#e74c3c" stroke-width="1.5"/>
<text x="535" y="153" text-anchor="middle" font-size="10" fill="#333">34</text>
<circle cx="535" cy="551" r="14" fill="white" stroke="#e74c3c" stroke-width="1.5"/>
<text x="535" y="555" text-anchor="middle" font-size="10" fill="#333">34</text>
<circle cx="544" cy="149" r="14" fill="white" stroke="#e74c3c" stroke-width="1.5"/>
<text x="544" y="153" text-anchor="middle" font-size="10" fill="#333">35</text>
<circle cx="544" cy="551" r="14" fill="white" stroke="#e74c3c" stroke-width="1.5"/>
<text x="544" y="555" text-anchor="middle" font-size="10" fill="#333">35</text>
<circle cx="546" cy="149" r="14" fill="white" stroke="#e74c3c" stroke-width="1.5"/>
<text x="546" y="153" text-anchor="middle" font-size="10" fill="#333">36</text>
<circle cx="546" cy="551" r="14" fill="white" stroke="#e74c3c" stroke-width="1.5"/>
<text x="546" y="555" text-anchor="middle" font-size="10" fill="#333">36</text>
<circle cx="582" cy="149" r="14" fill="white" stroke="#e74c3c" stroke-width="1.5"/>
<text x="582" y="153" text-anchor="middle" font-size="10" fill="#333">37</text>
<circle cx="582" cy="551" r="14" fill="white" stroke="#e74c3c" stroke-width="1.5"/>
<text x="582" y="555" text-anchor="middle" font-size="10" fill="#333">37</text>
<circle cx="584" cy="149" r="14" fill="white" stroke="#e74c3c" stroke-width="1.5"/>
<text x="584" y="153" text-anchor="middle" font-size="10" fill="#333">38</text>
<circle cx="584" cy="551" r="14" fill="white" stroke="#e74c3c" stroke-width="1.5"/>
<text x="584" y="555" text-anchor="middle" font-size="10" fill="#333">38</text>
<circle cx="588" cy="149" r="14" fill="white" stroke="#e74c3c" stroke-width="1.5"/>
<text x="588" y="153" text-anchor="middle" font-size="10" fill="#333">39</text>
<circle cx="588" cy="551" r="14" fill="white" stroke="#e74c3c" stroke-width="1.5"/>
<text x="588" y="555" text-anchor="middle" font-size="10" fill="#333">39</text>
<circle cx="590" cy="149" r="14" fill="white" stroke="#e74c3c" stroke-width="1.5"/>
<text x="590" y="153" text-anchor="middle" font-size="10" fill="#333">40</text>
<circle cx="590" cy="551" r="14" fill="white" stroke="#e74c3c" stroke-width="1.5"/>
<text x="590" y="555" text-anchor="middle" font-size="10" fill="#333">40</text>
<circle cx="600" cy="149" r="14" fill="white" stroke="#e74c3c" stroke-width="1.5"/>
<text x="600" y="153" text-anchor="middle" font-size="10" fill="#333">41</text>
<circle cx="600" cy="551" r="14" fill="white" stroke="#e74c3c" stroke-width="1.5"/>
<text x="600" y="555" text-anchor="middle" font-size="10" fill="#333">41</text>
<circle cx="710" cy="149" r="14" fill="white" stroke="#e74c3c" stroke-width="1.5"/>
<text x="710" y="153" text-anchor="middle" font-size="10" fill="#333">42</text>
<circle cx="710" cy="551" r="14" fill="white" stroke="#e74c3c" stroke-width="1.5"/>
<text x="710" y="555" text-anchor="middle" font-size="10" fill="#333">42</text>
<circle cx="712" cy="149" r="14" fill="white" stroke="#e74c3c" stroke-width="1.5"/>
<text x="712" y="153" text-anchor="middle" font-size="10" fill="#333">43</text>
<circle cx="712" cy="551" r="14" fill="white" stroke="#e74c3c" stroke-width="1.5"/>
<text x="712" y="555" text-anchor="middle" font-size="10" fill="#333">43</text>
<circle cx="716" cy="149" r="14" fill="white" stroke="#e74c3c" stroke-width="1.5"/>
<text x="716" y="153" text-anchor="middle" font-size="10" fill="#333">44</text>
<circle cx="716" cy="551" r="14" fill="white" stroke="#e74c3c" stroke-width="1.5"/>
<text x="716" y="555" text-anchor="middle" font-size="10" fill="#333">44</text>
<circle cx="718" cy="149" r="14" fill="white" stroke="#e74c3c" stroke-width="1.5"/>
<text x="718" y="153" text-anchor="middle" font-size="10" fill="#333">45</text>
<circle cx="718" cy="551" r="14" fill="white" stroke="#e74c3c" stroke-width="1.5"/>
<text x="718" y="555" text-anchor="middle" font-size="10" fill="#333">45</text>
<circle cx="726" cy="149" r="14" fill="white" stroke="#e74c3c" stroke-width="1.5"/>
<text x="726" y="153" text-anchor="middle" font-size="10" fill="#333">46</text>
<circle cx="726" cy="551" r="14" fill="white" stroke="#e74c3c" stroke-width="1.5"/>
<text x="726" y="555" text-anchor="middle" font-size="10" fill="#333">46</text>
<circle cx="728" cy="149" r="14" fill="white" stroke="#e74c3c" stroke-width="1.5"/>
<text x="728" y="153" text-anchor="middle" font-size="10" fill="#333">47</text>
<circle cx="728" cy="551" r="14" fill="white" stroke="#e74c3c" stroke-width="1.5"/>
<text x="728" y="555" text-anchor="middle" font-size="10" fill="#333">47</text>
<circle cx="745" cy="149" r="14" fill="white" stroke="#e74c3c" stroke-width="1.5"/>
<text x="745" y="153" text-anchor="middle" font-size="10" fill="#333">48</text>
<circle cx="745" cy="551" r="14" fill="white" stroke="#e74c3c" stroke-width="1.5"/>
<text x="745" y="555" text-anchor="middle" font-size="10" fill="#333">48</text>
<circle cx="747" cy="149" r="14" fill="white" stroke="#e74c3c" stroke-width="1.5"/>
<text x="747" y="153" text-anchor="middle" font-size="10" fill="#333">49</text>
<circle cx="747" cy="551" r="14" fill="white" stroke="#e74c3c" stroke-width="1.5"/>
<text x="747" y="555" text-anchor="middle" font-size="10" fill="#333">49</text>
<circle cx="762" cy="149" r="14" fill="white" stroke="#e74c3c" stroke-width="1.5"/>
<text x="762" y="153" text-anchor="middle" font-size="10" fill="#333">50</text>
<circle cx="762" cy="551" r="14" fill="white" stroke="#e74c3c" stroke-width="1.5"/>
<text x="762" y="555" text-anchor="middle" font-size="10" fill="#333">50</text>
<circle cx="764" cy="149" r="14" fill="white" stroke="#e74c3c" stroke-width="1.5"/>
<text x="764" y="153" text-anchor="middle" font-size="10" fill="#333">51</text>
<circle cx="764" cy="551" r="14" fill="white" stroke="#e74c3c" stroke-width="1.5"/>
<text x="764" y="555" text-anchor="middle" font-size="10" fill="#333">51</text>
<circle cx="800" cy="149" r="14" fill="white" stroke="#e74c3c" stroke-width="1.5"/>
<text x="800" y="153" text-anchor="middle" font-size="10" fill="#333">52</text>
<circle cx="800" cy="551" r="14" fill="white" stroke="#e74c3c" stroke-width="1.5"/>
<text x="800" y="555" text-anchor="middle" font-size="10" fill="#333">52</text>
<circle cx="801" cy="149" r="14" fill="white" stroke="#e74c3c" stroke-width="1.5"/>
<text x="801" y="153" text-anchor="middle" font-size="10" fill="#333">53</text>
<circle cx="801" cy="551" r="14" fill="white" stroke="#e74c3c" stroke-width="1.5"/>
<text x="801" y="555" text-anchor="middle" font-size="10" fill="#333">53</text>
<circle cx="816" cy="149" r="14" fill="white" stroke="#e74c3c" stroke-width="1.5"/>
<text x="816" y="153" text-anchor="middle" font-size="10" fill="#333">54</text>
<circle cx="816" cy="551" r="14" fill="white" stroke="#e74c3c" stroke-width="1.5"/>
<text x="816" y="555" text-anchor="middle" font-size="10" fill="#333">54</text>
<circle cx="817" cy="149" r="14" fill="white" stroke="#e74c3c" stroke-width="1.5"/>
<text x="817" y="153" text-anchor="middle" font-size="10" fill="#333">55</text>
<circle cx="817" cy="551" r="14" fill="white" stroke="#e74c3c" stroke-width="1.5"/>
<text x="817" y="555" text-anchor="middle" font-size="10" fill="#333">55</text>
<circle cx="843" cy="149" r="14" fill="white" stroke="#e74c3c" stroke-width="1.5"/>
<text x="843" y="153" text-anchor="middle" font-size="10" fill="#333">56</text>
<circle cx="843" cy="551" r="14" fill="white" stroke="#e74c3c" stroke-width="1.5"/>
<text x="843" y="555" text-anchor="middle" font-size="10" fill="#333">56</text>
<circle cx="845" cy="149" r="14" fill="white" stroke="#e74c3c" stroke-width="1.5"/>
<text x="845" y="153" text-anchor="middle" font-size="10" fill="#333">57</text>
<circle cx="845" cy="551" r="14" fill="white" stroke="#e74c3c" stroke-width="1.5"/>
<text x="845" y="555" text-anchor="middle" font-size="10" fill="#333">57</text>
<circle cx="846" cy="149" r="14" fill="white" stroke="#e74c3c" stroke-width="1.5"/>
<text x="846" y="153" text-anchor="middle" font-size="10" fill="#333">58</text>
<circle cx="846" cy="551" r="14" fill="white" stroke="#e74c3c" stroke-width="1.5"/>
<text x="846" y="555" text-anchor="middle" font-size="10" fill="#333">58</text>
<circle cx="848" cy="149" r="14" fill="white" stroke="#e74c3c" stroke-width="1.5"/>
<text x="848" y="153" text-anchor="middle" font-size="10" fill="#333">59</text>
<circle cx="848" cy="551" r="14" fill="white" stroke="#e74c3c" stroke-width="1.5"/>
<text x="848" y="555" text-anchor="middle" font-size="10" fill="#333">59</text>
<circle cx="880" cy="149" r="14" fill="white" stroke="#e74c3c" stroke-width="1.5"/>
<text x="880" y="153" text-anchor="middle" font-size="10" fill="#333">60</text>
<circle cx="880" cy="551" r="14" fill="white" stroke="#e74c3c" stroke-width="1.5"/>
<text x="880" y="555" text-anchor="middle" font-size="10" fill="#333">60</text>
<circle cx="882" cy="149" r="14" fill="white" stroke="#e74c3c" stroke-width="1.5"/>
<text x="882" y="153" text-anchor="middle" font-size="10" fill="#333">61</text>
<circle cx="882" cy="551" r="14" fill="white" stroke="#e74c3c" stroke-width="1.5"/>
<text x="882" y="555" text-anchor="middle" font-size="10" fill="#333">61</text>
<circle cx="888" cy="149" r="14" fill="white" stroke="#e74c3c" stroke-width="1.5"/>
<text x="888" y="153" text-anchor="middle" font-size="10" fill="#333">62</text>
<circle cx="888" cy="551" r="14" fill="white" stroke="#e74c3c" stroke-width="1.5"/>
<text x="888" y="555" text-anchor="middle" font-size="10" fill="#333">62</text>
<circle cx="72" cy="119" r="14" fill="white" stroke="#3498db" stroke-width="1.5"/>
<text x="72" y="123" text-anchor="middle" font-size="10" fill="#333">A</text>
<circle cx="928" cy="119" r="14" fill="white" stroke="#3498db" stroke-width="1.5"/>
<text x="928" y="123" text-anchor="middle" font-size="10" fill="#333">A</text>
<circle cx="72" cy="146" r="14" fill="white" stroke="#3498db" stroke-width="1.5"/>
<text x="72" y="150" text-anchor="middle" font-size="10" fill="#333">B</text>
<circle cx="928" cy="146" r="14" fill="white" stroke="#3498db" stroke-width="1.5"/>
<text x="928" y="150" text-anchor="middle" font-size="10" fill="#333">B</text>
<circle cx="72" cy="190" r="14" fill="white" stroke="#3498db" stroke-width="1.5"/>
<text x="72" y="194" text-anchor="middle" font-size="10" fill="#333">C</text>
<circle cx="928" cy="190" r="14" fill="white" stroke="#3498db" stroke-width="1.5"/>
<text x="928" y="194" text-anchor="middle" font-size="10" fill="#333">C</text>
<circle cx="72" cy="216" r="14" fill="white" stroke="#3498db" stroke-width="1.5"/>
<text x="72" y="220" text-anchor="middle" font-size="10" fill="#333">D</text>
<circle cx="928" cy="216" r="14" fill="white" stroke="#3498db" stroke-width="1.5"/>
<text x="928" y="220" text-anchor="middle" font-size="10" fill="#333">D</text>
<circle cx="72" cy="269" r="14" fill="white" stroke="#3498db" stroke-width="1.5"/>
<text x="72" y="273" text-anchor="middle" font-size="10" fill="#333">E</text>
<circle cx="928" cy="269" r="14" fill="white" stroke="#3498db" stroke-width="1.5"/>
<text x="928" y="273" text-anchor="middle" font-size="10" fill="#333">E</text>
<circle cx="72" cy="295" r="14" fill="white" stroke="#3498db" stroke-width="1.5"/>
<text x="72" y="299" text-anchor="middle" font-size="10" fill="#333">F</text>
<circle cx="928" cy="295" r="14" fill="white" stroke="#3498db" stroke-width="1.5"/>
<text x="928" y="299" text-anchor="middle" font-size="10" fill="#333">F</text>
<circle cx="72" cy="308" r="14" fill="white" stroke="#3498db" stroke-width="1.5"/>
<text x="72" y="312" text-anchor="middle" font-size="10" fill="#333">G</text>
<circle cx="928" cy="308" r="14" fill="white" stroke="#3498db" stroke-width="1.5"/>
<text x="928" y="312" text-anchor="middle" font-size="10" fill="#333">G</text>
<circle cx="72" cy="335" r="14" fill="white" stroke="#3498db" stroke-width="1.5"/>
<text x="72" y="339" text-anchor="middle" font-size="10" fill="#333">H</text>
<circle cx="928" cy="335" r="14" fill="white" stroke="#3498db" stroke-width="1.5"/>
<text x="928" y="339" text-anchor="middle" font-size="10" fill="#333">H</text>
<circle cx="72" cy="554" r="14" fill="white" stroke="#3498db" stroke-width="1.5"/>
<text x="72" y="558" text-anchor="middle" font-size="10" fill="#333">I</text>
<circle cx="928" cy="554" r="14" fill="white" stroke="#3498db" stroke-width="1.5"/>
<text x="928" y="558" text-anchor="middle" font-size="10" fill="#333">I</text>
<circle cx="72" cy="581" r="14" fill="white" stroke="#3498db" stroke-width="1.5"/>
<text x="72" y="585" text-anchor="middle" font-size="10" fill="#333">J</text>
<circle cx="928" cy="581" r="14" fill="white" stroke="#3498db" stroke-width="1.5"/>
<text x="928" y="585" text-anchor="middle" font-size="10" fill="#333">J</text>
<text x="207" y="179" text-anchor="middle" font-size="11" fill="#e74c3c">A区 19900mm (19轴)</text>
<text x="508" y="204" text-anchor="middle" font-size="11" fill="#9b59b6">B区 21600mm (22轴)</text>
<text x="790" y="229" text-anchor="middle" font-size="11" fill="#2ecc71">C区 18500mm (21轴)</text>
<text x="50" y="680" font-size="11" fill="#666">总跨度: X=80766mm × Y=3500mm | 轴线数: 62V × 10H</text>
</svg>