<svg xmlns="http://www.w3.org/2000/svg" viewBox="0 0 1000 700">
<rect width="100%" height="100%" fill="#f8f9fa"/>
<text x="50" y="30" font-size="16" font-weight="bold">B区轴网</text>
<g stroke="#e0e0e0" stroke-width="0.5">
<line x1="0" y1="0" x2="0" y2="700"/>
<line x1="50" y1="0" x2="50" y2="700"/>
<line x1="100" y1="0" x2="100" y2="700"/>
<line x1="150" y1="0" x2="150" y2="700"/>
<line x1="200" y1="0" x2="200" y2="700"/>
<line x1="250" y1="0" x2="250" y2="700"/>
<line x1="300" y1="0" x2="300" y2="700"/>
<line x1="350" y1="0" x2="350" y2="700"/>
<line x1="400" y1="0" x2="400" y2="700"/>
<line x1="450" y1="0" x2="450" y2="700"/>
<line x1="500" y1="0" x2="500" y2="700"/>
<line x1="550" y1="0" x2="550" y2="700"/>
<line x1="600" y1="0" x2="600" y2="700"/>
<line x1="650" y1="0" x2="650" y2="700"/>
<line x1="700" y1="0" x2="700" y2="700"/>
<line x1="750" y1="0" x2="750" y2="700"/>
<line x1="800" y1="0" x2="800" y2="700"/>
<line x1="850" y1="0" x2="850" y2="700"/>
<line x1="900" y1="0" x2="900" y2="700"/>
<line x1="950" y1="0" x2="950" y2="700"/>
<line x1="0" y1="0" x2="1000" y2="0"/>
<line x1="0" y1="50" x2="1000" y2="50"/>
<line x1="0" y1="100" x2="1000" y2="100"/>
<line x1="0" y1="150" x2="1000" y2="150"/>
<line x1="0" y1="200" x2="1000" y2="200"/>
<line x1="0" y1="250" x2="1000" y2="250"/>
<line x1="0" y1="300" x2="1000" y2="300"/>
<line x1="0" y1="350" x2="1000" y2="350"/>
<line x1="0" y1="400" x2="1000" y2="400"/>
<line x1="0" y1="450" x2="1000" y2="450"/>
<line x1="0" y1="500" x2="1000" y2="500"/>
<line x1="0" y1="550" x2="1000" y2="550"/>
<line x1="0" y1="600" x2="1000" y2="600"/>
<line x1="0" y1="650" x2="1000" y2="650"/>
</g>
<line x1="112" y1="119" x2="112" y2="581" stroke="#e74c3c" stroke-width="1.5" stroke-dasharray="8,4"/>
<line x1="119" y1="119" x2="119" y2="581" stroke="#e74c3c" stroke-width="1.5" stroke-dasharray="8,4"/>
<line x1="205" y1="119" x2="205" y2="581" stroke="#e74c3c" stroke-width="1.5" stroke-dasharray="8,4"/>
<line x1="213" y1="119" x2="213" y2="581" stroke="#e74c3c" stroke-width="1.5" stroke-dasharray="8,4"/>
<line x1="374" y1="119" x2="374" y2="581" stroke="#e74c3c" stroke-width="1.5" stroke-dasharray="8,4"/>
<line x1="378" y1="119" x2="378" y2="581" stroke="#e74c3c" stroke-width="1.5" stroke-dasharray="8,4"/>
<line x1="385" y1="119" x2="385" y2="581" stroke="#e74c3c" stroke-width="1.5" stroke-dasharray="8,4"/>
<line x1="518" y1="119" x2="518" y2="581" stroke="#e74c3c" stroke-width="1.5" stroke-dasharray="8,4"/>
<line x1="522" y1="119" x2="522" y2="581" stroke="#e74c3c" stroke-width="1.5" stroke-dasharray="8,4"/>
<line x1="525" y1="119" x2="525" y2="581" stroke="#e74c3c" stroke-width="1.5" stroke-dasharray="8,4"/>
<line x1="532" y1="119" x2="532" y2="581" stroke="#e74c3c" stroke-width="1.5" stroke-dasharray="8,4"/>
<line x1="586" y1="119" x2="586" y2="581" stroke="#e74c3c" stroke-width="1.5" stroke-dasharray="8,4"/>
<line x1="591" y1="119" x2="591" y2="581" stroke="#e74c3c" stroke-width="1.5" stroke-dasharray="8,4"/>
<line x1="636" y1="119" x2="636" y2="581" stroke="#e74c3c" stroke-width="1.5" stroke-dasharray="8,4"/>
<line x1="644" y1="119" x2="644" y2="581" stroke="#e74c3c" stroke-width="1.5" stroke-dasharray="8,4"/>
<line x1="680" y1="119" x2="680" y2="581" stroke="#e74c3c" stroke-width="1.5" stroke-dasharray="8,4"/>
<line x1="687" y1="119" x2="687" y2="581" stroke="#e74c3c" stroke-width="1.5" stroke-dasharray="8,4"/>
<line x1="820" y1="119" x2="820" y2="581" stroke="#e74c3c" stroke-width="1.5" stroke-dasharray="8,4"/>
<line x1="827" y1="119" x2="827" y2="581" stroke="#e74c3c" stroke-width="1.5" stroke-dasharray="8,4"/>
<line x1="841" y1="119" x2="841" y2="581" stroke="#e74c3c" stroke-width="1.5" stroke-dasharray="8,4"/>
<line x1="848" y1="119" x2="848" y2="581" stroke="#e74c3c" stroke-width="1.5" stroke-dasharray="8,4"/>
<line x1="888" y1="119" x2="888" y2="581" stroke="#e74c3c" stroke-width="1.5" stroke-dasharray="8,4"/>
<line x1="112" y1="119" x2="888" y2="119" stroke="#3498db" stroke-width="1.5" stroke-dasharray="8,4"/>
<line x1="112" y1="146" x2="888" y2="146" stroke="#3498db" stroke-width="1.5" stroke-dasharray="8,4"/>
<line x1="112" y1="190" x2="888" y2="190" stroke="#3498db" stroke-width="1.5" stroke-dasharray="8,4"/>
<line x1="112" y1="216" x2="888" y2="216" stroke="#3498db" stroke-width="1.5" stroke-dasharray="8,4"/>
<line x1="112" y1="269" x2="888" y2="269" stroke="#3498db" stroke-width="1.5" stroke-dasharray="8,4"/>
<line x1="112" y1="295" x2="888" y2="295" stroke="#3498db" stroke-width="1.5" stroke-dasharray="8,4"/>
<line x1="112" y1="308" x2="888" y2="308" stroke="#3498db" stroke-width="1.5" stroke-dasharray="8,4"/>
<line x1="112" y1="335" x2="888" y2="335" stroke="#3498db" stroke-width="1.5" stroke-dasharray="8,4"/>
<line x1="112" y1="554" x2="888" y2="554" stroke="#3498db" stroke-width="1.5" stroke-dasharray="8,4"/>
<line x1="112" y1="581" x2="888" y2="581" stroke="#3498db" stroke-width="1.5" stroke-dasharray="8,4"/>
<circle cx="112" cy="149" r="14" fill="white" stroke="#e74c3c" stroke-width="1.5"/>
<text x="112" y="153" text-anchor="middle" font-size="10" fill="#333">1</text>
<circle cx="112" cy="551" r="14" fill="white" stroke="#e74c3c" stroke-width="1.5"/>
<text x="112" y="555" text-anchor="middle" font-size="10" fill="#333">1</text>
<circle cx="119" cy="149" r="14" fill="white" stroke="#e74c3c" stroke-width="1.5"/>
<text x="119" y="153" text-anchor="middle" font-size="10" fill="#333">2</text>
<circle cx="119" cy="551" r="14" fill="white" stroke="#e74c3c" stroke-width="1.5"/>
<text x="119" y="555" text-anchor="middle" font-size="10" fill="#333">2</text>
<circle cx="205" cy="149" r="14" fill="white" stroke="#e74c3c" stroke-width="1.5"/>
<text x="205" y="153" text-anchor="middle" font-size="10" fill="#333">3</text>
<circle cx="205" cy="551" r="14" fill="white" stroke="#e74c3c" stroke-width="1.5"/>
<text x="205" y="555" text-anchor="middle" font-size="10" fill="#333">3</text>
<circle cx="213" cy="149" r="14" fill="white" stroke="#e74c3c" stroke-width="1.5"/>
<text x="213" y="153" text-anchor="middle" font-size="10" fill="#333">4</text>
<circle cx="213" cy="551" r="14" fill="white" stroke="#e74c3c" stroke-width="1.5"/>
<text x="213" y="555" text-anchor="middle" font-size="10" fill="#333">4</text>
<circle cx="374" cy="149" r="14" fill="white" stroke="#e74c3c" stroke-width="1.5"/>
<text x="374" y="153" text-anchor="middle" font-size="10" fill="#333">5</text>
<circle cx="374" cy="551" r="14" fill="white" stroke="#e74c3c" stroke-width="1.5"/>
<text x="374" y="555" text-anchor="middle" font-size="10" fill="#333">5</text>
<circle cx="378" cy="149" r="14" fill="white" stroke="#e74c3c" stroke-width="1.5"/>
<text x="378" y="153" text-anchor="middle" font-size="10" fill="#333">6</text>
<circle cx="378" cy="551" r="14" fill="white" stroke="#e74c3c" stroke-width="1.5"/>
<text x="378" y="555" text-anchor="middle" font-size="10" fill="#333">6</text>
<circle cx="385" cy="149" r="14" fill="white" stroke="#e74c3c" stroke-width="1.5"/>
<text x="385" y="153" text-anchor="middle" font-size="10" fill="#333">7</text>
<circle cx="385" cy="551" r="14" fill="white" stroke="#e74c3c" stroke-width="1.5"/>
<text x="385" y="555" text-anchor="middle" font-size="10" fill="#333">7</text>
<circle cx="518" cy="149" r="14" fill="white" stroke="#e74c3c" stroke-width="1.5"/>
<text x="518" y="153" text-anchor="middle" font-size="10" fill="#333">8</text>
<circle cx="518" cy="551" r="14" fill="white" stroke="#e74c3c" stroke-width="1.5"/>
<text x="518" y="555" text-anchor="middle" font-size="10" fill="#333">8</text>
<circle cx="522" cy="149" r="14" fill="white" stroke="#e74c3c" stroke-width="1.5"/>
<text x="522" y="153" text-anchor="middle" font-size="10" fill="#333">9</text>
<circle cx="522" cy="551" r="14" fill="white" stroke="#e74c3c" stroke-width="1.5"/>
<text x="522" y="555" text-anchor="middle" font-size="10" fill="#333">9</text>
<circle cx="525" cy="149" r="14" fill="white" stroke="#e74c3c" stroke-width="1.5"/>
<text x="525" y="153" text-anchor="middle" font-size="10" fill="#333">10</text>
<circle cx="525" cy="551" r="14" fill="white" stroke="#e74c3c" stroke-width="1.5"/>
<text x="525" y="555" text-anchor="middle" font-size="10" fill="#333">10</text>
<circle cx="532" cy="149" r="14" fill="white" stroke="#e74c3c" stroke-width="1.5"/>
<text x="532" y="153" text-anchor="middle" font-size="10" fill="#333">11</text>
<circle cx="532" cy="551" r="14" fill="white" stroke="#e74c3c" stroke-width="1.5"/>
<text x="532" y="555" text-anchor="middle" font-size="10" fill="#333">11</text>
<circle cx="586" cy="149" r="14" fill="white" stroke="#e74c3c" stroke-width="1.5"/>
<text x="586" y="153" text-anchor="middle" font-size="10" fill="#333">12</text>
<circle cx="586" cy="551" r="14" fill="white" stroke="#e74c3c" stroke-width="1.5"/>
<text x="586" y="555" text-anchor="middle" font-size="10" fill="#333">12</text>
<circle cx="591" cy="149" r="14" fill="white" stroke="#e74c3c" stroke-width="1.5"/>
<text x="591" y="153" text-anchor="middle" font-size="10" fill="#333">13</text>
<circle cx="591" cy="551" r="14" fill="white" stroke="#e74c3c" stroke-width="1.5"/>
<text x="591" y="555" text-anchor="middle" font-size="10" fill="#333">13</text>
<circle cx="636" cy="149" r="14" fill="white" stroke="#e74c3c" stroke-width="1.5"/>
<text x="636" y="153" text-anchor="middle" font-size="10" fill="#333">14</text>
<circle cx="636" cy="551" r="14" fill="white" stroke="#e74c3c" stroke-width="1.5"/>
<text x="636" y="555" text-anchor="middle" font-size="10" fill="#333">14</text>
<circle cx="644" cy="149" r="14" fill="white" stroke="#e74c3c" stroke-width="1.5"/>
<text x="644" y="153" text-anchor="middle" font-size="10" fill="#333">15</text>
<circle cx="644" cy="551" r="14" fill="white" stroke="#e74c3c" stroke-width="1.5"/>
<text x="644" y="555" text-anchor="middle" font-size="10" fill="#333">15</text>
<circle cx="680" cy="149" r="14" fill="white" stroke="#e74c3c" stroke-width="1.5"/>
<text x="680" y="153" text-anchor="middle" font-size="10" fill="#333">16</text>
<circle cx="680" cy="551" r="14" fill="white" stroke="#e74c3c" stroke-width="1.5"/>
<text x="680" y="555" text-anchor="middle" font-size="10" fill="#333">16</text>
<circle cx="687" cy="149" r="14" fill="white" stroke="#e74c3c" stroke-width="1.5"/>
<text x="687" y="153" text-anchor="middle" font-size="10" fill="#333">17</text>
<circle cx="687" cy="551" r="14" fill="white" stroke="#e74c3c" stroke-width="1.5"/>
<text x="687" y="555" text-anchor="middle" font-size="10" fill="#333">17</text>
<circle cx="820" cy="149" r="14" fill="white" stroke="#e74c3c" stroke-width="1.5"/>
<text x="820" y="153" text-anchor="middle" font-size="10" fill="#333">18</text>
<circle cx="820" cy="551" r="14" fill="white" stroke="#e74c3c" stroke-width="1.5"/>
<text x="820" y="555" text-anchor="middle" font-size="10" fill="#333">18</text>
<circle cx="827" cy="149" r="14" fill="white" stroke="#e74c3c" stroke-width="1.5"/>
<text x="827" y="153" text-anchor="middle" font-size="10" fill="#333">19</text>
<circle cx="827" cy="551" r="14" fill="white" stroke="#e74c3c" stroke-width="1.5"/>
<text x="827" y="555" text-anchor="middle" font-size="10" fill="#333">19</text>
<circle cx="841" cy="149" r="14" fill="white" stroke="#e74c3c" stroke-width="1.5"/>
<text x="841" y="153" text-anchor="middle" font-size="10" fill="#333">20</text>
<circle cx="841" cy="551" r="14" fill="white" stroke="#e74c3c" stroke-width="1.5"/>
<text x="841" y="555" text-anchor="middle" font-size="10" fill="#333">20</text>
<circle cx="848" cy="149" r="14" fill="white" stroke="#e74c3c" stroke-width="1.5"/>
<text x="848" y="153" text-anchor="middle" font-size="10" fill="#333">21</text>
<circle cx="848" cy="551" r="14" fill="white" stroke="#e74c3c" stroke-width="1.5"/>
<text x="848" y="555" text-anchor="middle" font-size="10" fill="#333">21</text>
<circle cx="888" cy="149" r="14" fill="white" stroke="#e74c3c" stroke-width="1.5"/>
<text x="888" y="153" text-anchor="middle" font-size="10" fill="#333">22</text>
<circle cx="888" cy="551" r="14" fill="white" stroke="#e74c3c" stroke-width="1.5"/>
<text x="888" y="555" text-anchor="middle" font-size="10" fill="#333">22</text>
<circle cx="72" cy="119" r="14" fill="white" stroke="#3498db" stroke-width="1.5"/>
<text x="72" y="123" text-anchor="middle" font-size="10" fill="#333">A</text>
<circle cx="928" cy="119" r="14" fill="white" stroke="#3498db" stroke-width="1.5"/>
<text x="928" y="123" text-anchor="middle" font-size="10" fill="#333">A</text>
<circle cx="72" cy="146" r="14" fill="white" stroke="#3498db" stroke-width="1.5"/>
<text x="72" y="150" text-anchor="middle" font-size="10" fill="#333">B</text>
<circle cx="928" cy="146" r="14" fill="white" stroke="#3498db" stroke-width="1.5"/>
<text x="928" y="150" text-anchor="middle" font-size="10" fill="#333">B</text>
<circle cx="72" cy="190" r="14" fill="white" stroke="#3498db" stroke-width="1.5"/>
<text x="72" y="194" text-anchor="middle" font-size="10" fill="#333">C</text>
<circle cx="928" cy="190" r="14" fill="white" stroke="#3498db" stroke-width="1.5"/>
<text x="928" y="194" text-anchor="middle" font-size="10" fill="#333">C</text>
<circle cx="72" cy="216" r="14" fill="white" stroke="#3498db" stroke-width="1.5"/>
<text x="72" y="220" text-anchor="middle" font-size="10" fill="#333">D</text>
<circle cx="928" cy="216" r="14" fill="white" stroke="#3498db" stroke-width="1.5"/>
<text x="928" y="220" text-anchor="middle" font-size="10" fill="#333">D</text>
<circle cx="72" cy="269" r="14" fill="white" stroke="#3498db" stroke-width="1.5"/>
<text x="72" y="273" text-anchor="middle" font-size="10" fill="#333">E</text>
<circle cx="928" cy="269" r="14" fill="white" stroke="#3498db" stroke-width="1.5"/>
<text x="928" y="273" text-anchor="middle" font-size="10" fill="#333">E</text>
<circle cx="72" cy="295" r="14" fill="white" stroke="#3498db" stroke-width="1.5"/>
<text x="72" y="299" text-anchor="middle" font-size="10" fill="#333">F</text>
<circle cx="928" cy="295" r="14" fill="white" stroke="#3498db" stroke-width="1.5"/>
<text x="928" y="299" text-anchor="middle" font-size="10" fill="#333">F</text>
<circle cx="72" cy="308" r="14" fill="white" stroke="#3498db" stroke-width="1.5"/>
<text x="72" y="312" text-anchor="middle" font-size="10" fill="#333">G</text>
<circle cx="928" cy="308" r="14" fill="white" stroke="#3498db" stroke-width="1.5"/>
<text x="928" y="312" text-anchor="middle" font-size="10" fill="#333">G</text>
<circle cx="72" cy="335" r="14" fill="white" stroke="#3498db" stroke-width="1.5"/>
<text x="72" y="339" text-anchor="middle" font-size="10" fill="#333">H</text>
<circle cx="928" cy="335" r="14" fill="white" stroke="#3498db" stroke-width="1.5"/>
<text x="928" y="339" text-anchor="middle" font-size="10" fill="#333">H</text>
<circle cx="72" cy="554" r="14" fill="white" stroke="#3498db" stroke-width="1.5"/>
<text x="72" y="558" text-anchor="middle" font-size="10" fill="#333">I</text>
<circle cx="928" cy="554" r="14" fill="white" stroke="#3498db" stroke-width="1.5"/>
<text x="928" y="558" text-anchor="middle" font-size="10" fill="#333">I</text>
<circle cx="72" cy="581" r="14" fill="white" stroke="#3498db" stroke-width="1.5"/>
<text x="72" y="585" text-anchor="middle" font-size="10" fill="#333">J</text>
<circle cx="928" cy="581" r="14" fill="white" stroke="#3498db" stroke-width="1.5"/>
<text x="928" y="585" text-anchor="middle" font-size="10" fill="#333">J</text>
<text x="542" y="179" text-anchor="middle" font-size="11" fill="#e74c3c">A区 21600mm (22轴)</text>
<text x="50" y="680" font-size="11" fill="#666">总跨度: X=21600mm × Y=3500mm | 轴线数: 22V × 10H</text>
</svg>