0
SECTION
2
HEADER
9
$ACADVER
1
AC1009
0
ENDSEC
0
SECTION
2
TABLES
0
TABLE
2
LAYER
70
4
0
LAYER
2
0
70
0
62
7
6
CONTINUOUS
0
LAYER
2
A-AXIS
70
0
62
3
6
CENTER
0
LAYER
2
A-AXIS-LABEL
70
0
62
7
6
CONTINUOUS
0
LAYER
2
A-AXIS-DIM
70
0
62
4
6
CONTINUOUS
0
ENDTAB
0
ENDSEC
0
SECTION
2
ENTITIES
0
LINE
8
A-AXIS
62
3
10
200585.00
20
-316652.00
11
200585.00
21
-312802.00
0
LINE
8
A-AXIS
62
3
10
200785.00
20
-316652.00
11
200785.00
21
-312802.00
0
LINE
8
A-AXIS
62
3
10
201185.00
20
-316652.00
11
201185.00
21
-312802.00
0
LINE
8
A-AXIS
62
3
10
201385.00
20
-316652.00
11
201385.00
21
-312802.00
0
LINE
8
A-AXIS
62
3
10
202185.00
20
-316652.00
11
202185.00
21
-312802.00
0
LINE
8
A-AXIS
62
3
10
202485.00
20
-316652.00
11
202485.00
21
-312802.00
0
LINE
8
A-AXIS
62
3
10
204185.00
20
-316652.00
11
204185.00
21
-312802.00
0
LINE
8
A-AXIS
62
3
10
204385.00
20
-316652.00
11
204385.00
21
-312802.00
0
LINE
8
A-AXIS
62
3
10
205985.00
20
-316652.00
11
205985.00
21
-312802.00
0
LINE
8
A-AXIS
62
3
10
206185.00
20
-316652.00
11
206185.00
21
-312802.00
0
LINE
8
A-AXIS
62
3
10
209885.00
20
-316652.00
11
209885.00
21
-312802.00
0
LINE
8
A-AXIS
62
3
10
210085.00
20
-316652.00
11
210085.00
21
-312802.00
0
LINE
8
A-AXIS
62
3
10
211585.00
20
-316652.00
11
211585.00
21
-312802.00
0
LINE
8
A-AXIS
62
3
10
211705.00
20
-316652.00
11
211705.00
21
-312802.00
0
LINE
8
A-AXIS
62
3
10
214385.00
20
-316652.00
11
214385.00
21
-312802.00
0
LINE
8
A-AXIS
62
3
10
214585.00
20
-316652.00
11
214585.00
21
-312802.00
0
LINE
8
A-AXIS
62
3
10
214685.00
20
-316652.00
11
214685.00
21
-312802.00
0
LINE
8
A-AXIS
62
3
10
214885.00
20
-316652.00
11
214885.00
21
-312802.00
0
LINE
8
A-AXIS
62
3
10
218285.00
20
-316652.00
11
218285.00
21
-312802.00
0
LINE
8
A-AXIS
62
3
10
218485.00
20
-316652.00
11
218485.00
21
-312802.00
0
LINE
8
A-AXIS
62
3
10
219085.00
20
-316652.00
11
219085.00
21
-312802.00
0
LINE
8
A-AXIS
62
3
10
199660.00
20
-316477.00
11
220010.00
21
-316477.00
0
LINE
8
A-AXIS
62
3
10
199660.00
20
-316277.00
11
220010.00
21
-316277.00
0
LINE
8
A-AXIS
62
3
10
199660.00
20
-315942.00
11
220010.00
21
-315942.00
0
LINE
8
A-AXIS
62
3
10
199660.00
20
-315742.00
11
220010.00
21
-315742.00
0
LINE
8
A-AXIS
62
3
10
199660.00
20
-315342.00
11
220010.00
21
-315342.00
0
LINE
8
A-AXIS
62
3
10
199660.00
20
-315142.00
11
220010.00
21
-315142.00
0
LINE
8
A-AXIS
62
3
10
199660.00
20
-315042.00
11
220010.00
21
-315042.00
0
LINE
8
A-AXIS
62
3
10
199660.00
20
-314842.00
11
220010.00
21
-314842.00
0
LINE
8
A-AXIS
62
3
10
199660.00
20
-313177.00
11
220010.00
21
-313177.00
0
LINE
8
A-AXIS
62
3
10
199660.00
20
-312977.00
11
220010.00
21
-312977.00
0
CIRCLE
8
A-AXIS-LABEL
10
200585.00
20
-317252.00
40
300.00
0
CIRCLE
8
A-AXIS-LABEL
10
200585.00
20
-312202.00
40
300.00
0
CIRCLE
8
A-AXIS-LABEL
10
200785.00
20
-317252.00
40
300.00
0
CIRCLE
8
A-AXIS-LABEL
10
200785.00
20
-312202.00
40
300.00
0
CIRCLE
8
A-AXIS-LABEL
10
201185.00
20
-317252.00
40
300.00
0
CIRCLE
8
A-AXIS-LABEL
10
201185.00
20
-312202.00
40
300.00
0
CIRCLE
8
A-AXIS-LABEL
10
201385.00
20
-317252.00
40
300.00
0
CIRCLE
8
A-AXIS-LABEL
10
201385.00
20
-312202.00
40
300.00
0
CIRCLE
8
A-AXIS-LABEL
10
202185.00
20
-317252.00
40
300.00
0
CIRCLE
8
A-AXIS-LABEL
10
202185.00
20
-312202.00
40
300.00
0
CIRCLE
8
A-AXIS-LABEL
10
202485.00
20
-317252.00
40
300.00
0
CIRCLE
8
A-AXIS-LABEL
10
202485.00
20
-312202.00
40
300.00
0
CIRCLE
8
A-AXIS-LABEL
10
204185.00
20
-317252.00
40
300.00
0
CIRCLE
8
A-AXIS-LABEL
10
204185.00
20
-312202.00
40
300.00
0
CIRCLE
8
A-AXIS-LABEL
10
204385.00
20
-317252.00
40
300.00
0
CIRCLE
8
A-AXIS-LABEL
10
204385.00
20
-312202.00
40
300.00
0
CIRCLE
8
A-AXIS-LABEL
10
205985.00
20
-317252.00
40
300.00
0
CIRCLE
8
A-AXIS-LABEL
10
205985.00
20
-312202.00
40
300.00
0
CIRCLE
8
A-AXIS-LABEL
10
206185.00
20
-317252.00
40
300.00
0
CIRCLE
8
A-AXIS-LABEL
10
206185.00
20
-312202.00
40
300.00
0
CIRCLE
8
A-AXIS-LABEL
10
209885.00
20
-317252.00
40
300.00
0
CIRCLE
8
A-AXIS-LABEL
10
209885.00
20
-312202.00
40
300.00
0
CIRCLE
8
A-AXIS-LABEL
10
210085.00
20
-317252.00
40
300.00
0
CIRCLE
8
A-AXIS-LABEL
10
210085.00
20
-312202.00
40
300.00
0
CIRCLE
8
A-AXIS-LABEL
10
211585.00
20
-317252.00
40
300.00
0
CIRCLE
8
A-AXIS-LABEL
10
211585.00
20
-312202.00
40
300.00
0
CIRCLE
8
A-AXIS-LABEL
10
211705.00
20
-317252.00
40
300.00
0
CIRCLE
8
A-AXIS-LABEL
10
211705.00
20
-312202.00
40
300.00
0
CIRCLE
8
A-AXIS-LABEL
10
214385.00
20
-317252.00
40
300.00
0
CIRCLE
8
A-AXIS-LABEL
10
214385.00
20
-312202.00
40
300.00
0
CIRCLE
8
A-AXIS-LABEL
10
214585.00
20
-317252.00
40
300.00
0
CIRCLE
8
A-AXIS-LABEL
10
214585.00
20
-312202.00
40
300.00
0
CIRCLE
8
A-AXIS-LABEL
10
214685.00
20
-317252.00
40
300.00
0
CIRCLE
8
A-AXIS-LABEL
10
214685.00
20
-312202.00
40
300.00
0
CIRCLE
8
A-AXIS-LABEL
10
214885.00
20
-317252.00
40
300.00
0
CIRCLE
8
A-AXIS-LABEL
10
214885.00
20
-312202.00
40
300.00
0
CIRCLE
8
A-AXIS-LABEL
10
218285.00
20
-317252.00
40
300.00
0
CIRCLE
8
A-AXIS-LABEL
10
218285.00
20
-312202.00
40
300.00
0
CIRCLE
8
A-AXIS-LABEL
10
218485.00
20
-317252.00
40
300.00
0
CIRCLE
8
A-AXIS-LABEL
10
218485.00
20
-312202.00
40
300.00
0
CIRCLE
8
A-AXIS-LABEL
10
219085.00
20
-317252.00
40
300.00
0
CIRCLE
8
A-AXIS-LABEL
10
219085.00
20
-312202.00
40
300.00
0
CIRCLE
8
A-AXIS-LABEL
10
199060.00
20
-316477.00
40
300.00
0
CIRCLE
8
A-AXIS-LABEL
10
220610.00
20
-316477.00
40
300.00
0
CIRCLE
8
A-AXIS-LABEL
10
199060.00
20
-316277.00
40
300.00
0
CIRCLE
8
A-AXIS-LABEL
10
220610.00
20
-316277.00
40
300.00
0
CIRCLE
8
A-AXIS-LABEL
10
199060.00
20
-315942.00
40
300.00
0
CIRCLE
8
A-AXIS-LABEL
10
220610.00
20
-315942.00
40
300.00
0
CIRCLE
8
A-AXIS-LABEL
10
199060.00
20
-315742.00
40
300.00
0
CIRCLE
8
A-AXIS-LABEL
10
220610.00
20
-315742.00
40
300.00
0
CIRCLE
8
A-AXIS-LABEL
10
199060.00
20
-315342.00
40
300.00
0
CIRCLE
8
A-AXIS-LABEL
10
220610.00
20
-315342.00
40
300.00
0
CIRCLE
8
A-AXIS-LABEL
10
199060.00
20
-315142.00
40
300.00
0
CIRCLE
8
A-AXIS-LABEL
10
220610.00
20
-315142.00
40
300.00
0
CIRCLE
8
A-AXIS-LABEL
10
199060.00
20
-315042.00
40
300.00
0
CIRCLE
8
A-AXIS-LABEL
10
220610.00
20
-315042.00
40
300.00
0
CIRCLE
8
A-AXIS-LABEL
10
199060.00
20
-314842.00
40
300.00
0
CIRCLE
8
A-AXIS-LABEL
10
220610.00
20
-314842.00
40
300.00
0
CIRCLE
8
A-AXIS-LABEL
10
199060.00
20
-313177.00
40
300.00
0
CIRCLE
8
A-AXIS-LABEL
10
220610.00
20
-313177.00
40
300.00
0
CIRCLE
8
A-AXIS-LABEL
10
199060.00
20
-312977.00
40
300.00
0
CIRCLE
8
A-AXIS-LABEL
10
220610.00
20
-312977.00
40
300.00
0
LINE
8
A-AXIS-DIM
10
200585.00
20
-318152.00
11
200585.00
21
-317852.00
0
LINE
8
A-AXIS-DIM
10
200785.00
20
-318152.00
11
200785.00
21
-317852.00
0
LINE
8
A-AXIS-DIM
10
201185.00
20
-318152.00
11
201185.00
21
-317852.00
0
LINE
8
A-AXIS-DIM
10
201385.00
20
-318152.00
11
201385.00
21
-317852.00
0
LINE
8
A-AXIS-DIM
10
202185.00
20
-318152.00
11
202185.00
21
-317852.00
0
LINE
8
A-AXIS-DIM
10
202485.00
20
-318152.00
11
202485.00
21
-317852.00
0
LINE
8
A-AXIS-DIM
10
204185.00
20
-318152.00
11
204185.00
21
-317852.00
0
LINE
8
A-AXIS-DIM
10
204385.00
20
-318152.00
11
204385.00
21
-317852.00
0
LINE
8
A-AXIS-DIM
10
205985.00
20
-318152.00
11
205985.00
21
-317852.00
0
LINE
8
A-AXIS-DIM
10
206185.00
20
-318152.00
11
206185.00
21
-317852.00
0
LINE
8
A-AXIS-DIM
10
209885.00
20
-318152.00
11
209885.00
21
-317852.00
0
LINE
8
A-AXIS-DIM
10
210085.00
20
-318152.00
11
210085.00
21
-317852.00
0
LINE
8
A-AXIS-DIM
10
211585.00
20
-318152.00
11
211585.00
21
-317852.00
0
LINE
8
A-AXIS-DIM
10
211705.00
20
-318152.00
11
211705.00
21
-317852.00
0
LINE
8
A-AXIS-DIM
10
214385.00
20
-318152.00
11
214385.00
21
-317852.00
0
LINE
8
A-AXIS-DIM
10
214585.00
20
-318152.00
11
214585.00
21
-317852.00
0
LINE
8
A-AXIS-DIM
10
214685.00
20
-318152.00
11
214685.00
21
-317852.00
0
LINE
8
A-AXIS-DIM
10
214885.00
20
-318152.00
11
214885.00
21
-317852.00
0
LINE
8
A-AXIS-DIM
10
218285.00
20
-318152.00
11
218285.00
21
-317852.00
0
LINE
8
A-AXIS-DIM
10
218485.00
20
-318152.00
11
218485.00
21
-317852.00
0
LINE
8
A-AXIS-DIM
10
219085.00
20
-318152.00
11
219085.00
21
-317852.00
0
ENDSEC
0
EOF