<svg xmlns="http://www.w3.org/2000/svg" viewBox="0 0 1000 700">
<rect width="100%" height="100%" fill="#f8f9fa"/>
<text x="50" y="30" font-size="16" font-weight="bold">C区轴网</text>
<g stroke="#e0e0e0" stroke-width="0.5">
<line x1="0" y1="0" x2="0" y2="700"/>
<line x1="50" y1="0" x2="50" y2="700"/>
<line x1="100" y1="0" x2="100" y2="700"/>
<line x1="150" y1="0" x2="150" y2="700"/>
<line x1="200" y1="0" x2="200" y2="700"/>
<line x1="250" y1="0" x2="250" y2="700"/>
<line x1="300" y1="0" x2="300" y2="700"/>
<line x1="350" y1="0" x2="350" y2="700"/>
<line x1="400" y1="0" x2="400" y2="700"/>
<line x1="450" y1="0" x2="450" y2="700"/>
<line x1="500" y1="0" x2="500" y2="700"/>
<line x1="550" y1="0" x2="550" y2="700"/>
<line x1="600" y1="0" x2="600" y2="700"/>
<line x1="650" y1="0" x2="650" y2="700"/>
<line x1="700" y1="0" x2="700" y2="700"/>
<line x1="750" y1="0" x2="750" y2="700"/>
<line x1="800" y1="0" x2="800" y2="700"/>
<line x1="850" y1="0" x2="850" y2="700"/>
<line x1="900" y1="0" x2="900" y2="700"/>
<line x1="950" y1="0" x2="950" y2="700"/>
<line x1="0" y1="0" x2="1000" y2="0"/>
<line x1="0" y1="50" x2="1000" y2="50"/>
<line x1="0" y1="100" x2="1000" y2="100"/>
<line x1="0" y1="150" x2="1000" y2="150"/>
<line x1="0" y1="200" x2="1000" y2="200"/>
<line x1="0" y1="250" x2="1000" y2="250"/>
<line x1="0" y1="300" x2="1000" y2="300"/>
<line x1="0" y1="350" x2="1000" y2="350"/>
<line x1="0" y1="400" x2="1000" y2="400"/>
<line x1="0" y1="450" x2="1000" y2="450"/>
<line x1="0" y1="500" x2="1000" y2="500"/>
<line x1="0" y1="550" x2="1000" y2="550"/>
<line x1="0" y1="600" x2="1000" y2="600"/>
<line x1="0" y1="650" x2="1000" y2="650"/>
</g>
<line x1="112" y1="119" x2="112" y2="581" stroke="#e74c3c" stroke-width="1.5" stroke-dasharray="8,4"/>
<line x1="120" y1="119" x2="120" y2="581" stroke="#e74c3c" stroke-width="1.5" stroke-dasharray="8,4"/>
<line x1="137" y1="119" x2="137" y2="581" stroke="#e74c3c" stroke-width="1.5" stroke-dasharray="8,4"/>
<line x1="146" y1="119" x2="146" y2="581" stroke="#e74c3c" stroke-width="1.5" stroke-dasharray="8,4"/>
<line x1="179" y1="119" x2="179" y2="581" stroke="#e74c3c" stroke-width="1.5" stroke-dasharray="8,4"/>
<line x1="192" y1="119" x2="192" y2="581" stroke="#e74c3c" stroke-width="1.5" stroke-dasharray="8,4"/>
<line x1="263" y1="119" x2="263" y2="581" stroke="#e74c3c" stroke-width="1.5" stroke-dasharray="8,4"/>
<line x1="271" y1="119" x2="271" y2="581" stroke="#e74c3c" stroke-width="1.5" stroke-dasharray="8,4"/>
<line x1="339" y1="119" x2="339" y2="581" stroke="#e74c3c" stroke-width="1.5" stroke-dasharray="8,4"/>
<line x1="347" y1="119" x2="347" y2="581" stroke="#e74c3c" stroke-width="1.5" stroke-dasharray="8,4"/>
<line x1="502" y1="119" x2="502" y2="581" stroke="#e74c3c" stroke-width="1.5" stroke-dasharray="8,4"/>
<line x1="510" y1="119" x2="510" y2="581" stroke="#e74c3c" stroke-width="1.5" stroke-dasharray="8,4"/>
<line x1="573" y1="119" x2="573" y2="581" stroke="#e74c3c" stroke-width="1.5" stroke-dasharray="8,4"/>
<line x1="578" y1="119" x2="578" y2="581" stroke="#e74c3c" stroke-width="1.5" stroke-dasharray="8,4"/>
<line x1="691" y1="119" x2="691" y2="581" stroke="#e74c3c" stroke-width="1.5" stroke-dasharray="8,4"/>
<line x1="699" y1="119" x2="699" y2="581" stroke="#e74c3c" stroke-width="1.5" stroke-dasharray="8,4"/>
<line x1="703" y1="119" x2="703" y2="581" stroke="#e74c3c" stroke-width="1.5" stroke-dasharray="8,4"/>
<line x1="712" y1="119" x2="712" y2="581" stroke="#e74c3c" stroke-width="1.5" stroke-dasharray="8,4"/>
<line x1="854" y1="119" x2="854" y2="581" stroke="#e74c3c" stroke-width="1.5" stroke-dasharray="8,4"/>
<line x1="863" y1="119" x2="863" y2="581" stroke="#e74c3c" stroke-width="1.5" stroke-dasharray="8,4"/>
<line x1="888" y1="119" x2="888" y2="581" stroke="#e74c3c" stroke-width="1.5" stroke-dasharray="8,4"/>
<line x1="112" y1="119" x2="888" y2="119" stroke="#3498db" stroke-width="1.5" stroke-dasharray="8,4"/>
<line x1="112" y1="146" x2="888" y2="146" stroke="#3498db" stroke-width="1.5" stroke-dasharray="8,4"/>
<line x1="112" y1="190" x2="888" y2="190" stroke="#3498db" stroke-width="1.5" stroke-dasharray="8,4"/>
<line x1="112" y1="216" x2="888" y2="216" stroke="#3498db" stroke-width="1.5" stroke-dasharray="8,4"/>
<line x1="112" y1="269" x2="888" y2="269" stroke="#3498db" stroke-width="1.5" stroke-dasharray="8,4"/>
<line x1="112" y1="295" x2="888" y2="295" stroke="#3498db" stroke-width="1.5" stroke-dasharray="8,4"/>
<line x1="112" y1="308" x2="888" y2="308" stroke="#3498db" stroke-width="1.5" stroke-dasharray="8,4"/>
<line x1="112" y1="335" x2="888" y2="335" stroke="#3498db" stroke-width="1.5" stroke-dasharray="8,4"/>
<line x1="112" y1="554" x2="888" y2="554" stroke="#3498db" stroke-width="1.5" stroke-dasharray="8,4"/>
<line x1="112" y1="581" x2="888" y2="581" stroke="#3498db" stroke-width="1.5" stroke-dasharray="8,4"/>
<circle cx="112" cy="149" r="14" fill="white" stroke="#e74c3c" stroke-width="1.5"/>
<text x="112" y="153" text-anchor="middle" font-size="10" fill="#333">1</text>
<circle cx="112" cy="551" r="14" fill="white" stroke="#e74c3c" stroke-width="1.5"/>
<text x="112" y="555" text-anchor="middle" font-size="10" fill="#333">1</text>
<circle cx="120" cy="149" r="14" fill="white" stroke="#e74c3c" stroke-width="1.5"/>
<text x="120" y="153" text-anchor="middle" font-size="10" fill="#333">2</text>
<circle cx="120" cy="551" r="14" fill="white" stroke="#e74c3c" stroke-width="1.5"/>
<text x="120" y="555" text-anchor="middle" font-size="10" fill="#333">2</text>
<circle cx="137" cy="149" r="14" fill="white" stroke="#e74c3c" stroke-width="1.5"/>
<text x="137" y="153" text-anchor="middle" font-size="10" fill="#333">3</text>
<circle cx="137" cy="551" r="14" fill="white" stroke="#e74c3c" stroke-width="1.5"/>
<text x="137" y="555" text-anchor="middle" font-size="10" fill="#333">3</text>
<circle cx="146" cy="149" r="14" fill="white" stroke="#e74c3c" stroke-width="1.5"/>
<text x="146" y="153" text-anchor="middle" font-size="10" fill="#333">4</text>
<circle cx="146" cy="551" r="14" fill="white" stroke="#e74c3c" stroke-width="1.5"/>
<text x="146" y="555" text-anchor="middle" font-size="10" fill="#333">4</text>
<circle cx="179" cy="149" r="14" fill="white" stroke="#e74c3c" stroke-width="1.5"/>
<text x="179" y="153" text-anchor="middle" font-size="10" fill="#333">5</text>
<circle cx="179" cy="551" r="14" fill="white" stroke="#e74c3c" stroke-width="1.5"/>
<text x="179" y="555" text-anchor="middle" font-size="10" fill="#333">5</text>
<circle cx="192" cy="149" r="14" fill="white" stroke="#e74c3c" stroke-width="1.5"/>
<text x="192" y="153" text-anchor="middle" font-size="10" fill="#333">6</text>
<circle cx="192" cy="551" r="14" fill="white" stroke="#e74c3c" stroke-width="1.5"/>
<text x="192" y="555" text-anchor="middle" font-size="10" fill="#333">6</text>
<circle cx="263" cy="149" r="14" fill="white" stroke="#e74c3c" stroke-width="1.5"/>
<text x="263" y="153" text-anchor="middle" font-size="10" fill="#333">7</text>
<circle cx="263" cy="551" r="14" fill="white" stroke="#e74c3c" stroke-width="1.5"/>
<text x="263" y="555" text-anchor="middle" font-size="10" fill="#333">7</text>
<circle cx="271" cy="149" r="14" fill="white" stroke="#e74c3c" stroke-width="1.5"/>
<text x="271" y="153" text-anchor="middle" font-size="10" fill="#333">8</text>
<circle cx="271" cy="551" r="14" fill="white" stroke="#e74c3c" stroke-width="1.5"/>
<text x="271" y="555" text-anchor="middle" font-size="10" fill="#333">8</text>
<circle cx="339" cy="149" r="14" fill="white" stroke="#e74c3c" stroke-width="1.5"/>
<text x="339" y="153" text-anchor="middle" font-size="10" fill="#333">9</text>
<circle cx="339" cy="551" r="14" fill="white" stroke="#e74c3c" stroke-width="1.5"/>
<text x="339" y="555" text-anchor="middle" font-size="10" fill="#333">9</text>
<circle cx="347" cy="149" r="14" fill="white" stroke="#e74c3c" stroke-width="1.5"/>
<text x="347" y="153" text-anchor="middle" font-size="10" fill="#333">10</text>
<circle cx="347" cy="551" r="14" fill="white" stroke="#e74c3c" stroke-width="1.5"/>
<text x="347" y="555" text-anchor="middle" font-size="10" fill="#333">10</text>
<circle cx="502" cy="149" r="14" fill="white" stroke="#e74c3c" stroke-width="1.5"/>
<text x="502" y="153" text-anchor="middle" font-size="10" fill="#333">11</text>
<circle cx="502" cy="551" r="14" fill="white" stroke="#e74c3c" stroke-width="1.5"/>
<text x="502" y="555" text-anchor="middle" font-size="10" fill="#333">11</text>
<circle cx="510" cy="149" r="14" fill="white" stroke="#e74c3c" stroke-width="1.5"/>
<text x="510" y="153" text-anchor="middle" font-size="10" fill="#333">12</text>
<circle cx="510" cy="551" r="14" fill="white" stroke="#e74c3c" stroke-width="1.5"/>
<text x="510" y="555" text-anchor="middle" font-size="10" fill="#333">12</text>
<circle cx="573" cy="149" r="14" fill="white" stroke="#e74c3c" stroke-width="1.5"/>
<text x="573" y="153" text-anchor="middle" font-size="10" fill="#333">13</text>
<circle cx="573" cy="551" r="14" fill="white" stroke="#e74c3c" stroke-width="1.5"/>
<text x="573" y="555" text-anchor="middle" font-size="10" fill="#333">13</text>
<circle cx="578" cy="149" r="14" fill="white" stroke="#e74c3c" stroke-width="1.5"/>
<text x="578" y="153" text-anchor="middle" font-size="10" fill="#333">14</text>
<circle cx="578" cy="551" r="14" fill="white" stroke="#e74c3c" stroke-width="1.5"/>
<text x="578" y="555" text-anchor="middle" font-size="10" fill="#333">14</text>
<circle cx="691" cy="149" r="14" fill="white" stroke="#e74c3c" stroke-width="1.5"/>
<text x="691" y="153" text-anchor="middle" font-size="10" fill="#333">15</text>
<circle cx="691" cy="551" r="14" fill="white" stroke="#e74c3c" stroke-width="1.5"/>
<text x="691" y="555" text-anchor="middle" font-size="10" fill="#333">15</text>
<circle cx="699" cy="149" r="14" fill="white" stroke="#e74c3c" stroke-width="1.5"/>
<text x="699" y="153" text-anchor="middle" font-size="10" fill="#333">16</text>
<circle cx="699" cy="551" r="14" fill="white" stroke="#e74c3c" stroke-width="1.5"/>
<text x="699" y="555" text-anchor="middle" font-size="10" fill="#333">16</text>
<circle cx="703" cy="149" r="14" fill="white" stroke="#e74c3c" stroke-width="1.5"/>
<text x="703" y="153" text-anchor="middle" font-size="10" fill="#333">17</text>
<circle cx="703" cy="551" r="14" fill="white" stroke="#e74c3c" stroke-width="1.5"/>
<text x="703" y="555" text-anchor="middle" font-size="10" fill="#333">17</text>
<circle cx="712" cy="149" r="14" fill="white" stroke="#e74c3c" stroke-width="1.5"/>
<text x="712" y="153" text-anchor="middle" font-size="10" fill="#333">18</text>
<circle cx="712" cy="551" r="14" fill="white" stroke="#e74c3c" stroke-width="1.5"/>
<text x="712" y="555" text-anchor="middle" font-size="10" fill="#333">18</text>
<circle cx="854" cy="149" r="14" fill="white" stroke="#e74c3c" stroke-width="1.5"/>
<text x="854" y="153" text-anchor="middle" font-size="10" fill="#333">19</text>
<circle cx="854" cy="551" r="14" fill="white" stroke="#e74c3c" stroke-width="1.5"/>
<text x="854" y="555" text-anchor="middle" font-size="10" fill="#333">19</text>
<circle cx="863" cy="149" r="14" fill="white" stroke="#e74c3c" stroke-width="1.5"/>
<text x="863" y="153" text-anchor="middle" font-size="10" fill="#333">20</text>
<circle cx="863" cy="551" r="14" fill="white" stroke="#e74c3c" stroke-width="1.5"/>
<text x="863" y="555" text-anchor="middle" font-size="10" fill="#333">20</text>
<circle cx="888" cy="149" r="14" fill="white" stroke="#e74c3c" stroke-width="1.5"/>
<text x="888" y="153" text-anchor="middle" font-size="10" fill="#333">21</text>
<circle cx="888" cy="551" r="14" fill="white" stroke="#e74c3c" stroke-width="1.5"/>
<text x="888" y="555" text-anchor="middle" font-size="10" fill="#333">21</text>
<circle cx="72" cy="119" r="14" fill="white" stroke="#3498db" stroke-width="1.5"/>
<text x="72" y="123" text-anchor="middle" font-size="10" fill="#333">A</text>
<circle cx="928" cy="119" r="14" fill="white" stroke="#3498db" stroke-width="1.5"/>
<text x="928" y="123" text-anchor="middle" font-size="10" fill="#333">A</text>
<circle cx="72" cy="146" r="14" fill="white" stroke="#3498db" stroke-width="1.5"/>
<text x="72" y="150" text-anchor="middle" font-size="10" fill="#333">B</text>
<circle cx="928" cy="146" r="14" fill="white" stroke="#3498db" stroke-width="1.5"/>
<text x="928" y="150" text-anchor="middle" font-size="10" fill="#333">B</text>
<circle cx="72" cy="190" r="14" fill="white" stroke="#3498db" stroke-width="1.5"/>
<text x="72" y="194" text-anchor="middle" font-size="10" fill="#333">C</text>
<circle cx="928" cy="190" r="14" fill="white" stroke="#3498db" stroke-width="1.5"/>
<text x="928" y="194" text-anchor="middle" font-size="10" fill="#333">C</text>
<circle cx="72" cy="216" r="14" fill="white" stroke="#3498db" stroke-width="1.5"/>
<text x="72" y="220" text-anchor="middle" font-size="10" fill="#333">D</text>
<circle cx="928" cy="216" r="14" fill="white" stroke="#3498db" stroke-width="1.5"/>
<text x="928" y="220" text-anchor="middle" font-size="10" fill="#333">D</text>
<circle cx="72" cy="269" r="14" fill="white" stroke="#3498db" stroke-width="1.5"/>
<text x="72" y="273" text-anchor="middle" font-size="10" fill="#333">E</text>
<circle cx="928" cy="269" r="14" fill="white" stroke="#3498db" stroke-width="1.5"/>
<text x="928" y="273" text-anchor="middle" font-size="10" fill="#333">E</text>
<circle cx="72" cy="295" r="14" fill="white" stroke="#3498db" stroke-width="1.5"/>
<text x="72" y="299" text-anchor="middle" font-size="10" fill="#333">F</text>
<circle cx="928" cy="295" r="14" fill="white" stroke="#3498db" stroke-width="1.5"/>
<text x="928" y="299" text-anchor="middle" font-size="10" fill="#333">F</text>
<circle cx="72" cy="308" r="14" fill="white" stroke="#3498db" stroke-width="1.5"/>
<text x="72" y="312" text-anchor="middle" font-size="10" fill="#333">G</text>
<circle cx="928" cy="308" r="14" fill="white" stroke="#3498db" stroke-width="1.5"/>
<text x="928" y="312" text-anchor="middle" font-size="10" fill="#333">G</text>
<circle cx="72" cy="335" r="14" fill="white" stroke="#3498db" stroke-width="1.5"/>
<text x="72" y="339" text-anchor="middle" font-size="10" fill="#333">H</text>
<circle cx="928" cy="335" r="14" fill="white" stroke="#3498db" stroke-width="1.5"/>
<text x="928" y="339" text-anchor="middle" font-size="10" fill="#333">H</text>
<circle cx="72" cy="554" r="14" fill="white" stroke="#3498db" stroke-width="1.5"/>
<text x="72" y="558" text-anchor="middle" font-size="10" fill="#333">I</text>
<circle cx="928" cy="554" r="14" fill="white" stroke="#3498db" stroke-width="1.5"/>
<text x="928" y="558" text-anchor="middle" font-size="10" fill="#333">I</text>
<circle cx="72" cy="581" r="14" fill="white" stroke="#3498db" stroke-width="1.5"/>
<text x="72" y="585" text-anchor="middle" font-size="10" fill="#333">J</text>
<circle cx="928" cy="581" r="14" fill="white" stroke="#3498db" stroke-width="1.5"/>
<text x="928" y="585" text-anchor="middle" font-size="10" fill="#333">J</text>
<text x="461" y="179" text-anchor="middle" font-size="11" fill="#e74c3c">A区 18500mm (21轴)</text>
<text x="50" y="680" font-size="11" fill="#666">总跨度: X=18500mm × Y=3500mm | 轴线数: 21V × 10H</text>
</svg>