<?xml version="1.0" encoding="utf-8" ?>
<svg baseProfile="full" height="700px" version="1.1" width="900px" xmlns="http://www.w3.org/2000/svg" xmlns:ev="http://www.w3.org/2001/xml-events" xmlns:xlink="http://www.w3.org/1999/xlink"><defs /><rect fill="#f8f8f8" height="700" width="900" x="0" y="0" /><line stroke="#eee" stroke-width="0.3" x1="80.0" x2="80.0" y1="590.0" y2="-90.0" /><line stroke="#eee" stroke-width="0.3" x1="160.0" x2="160.0" y1="590.0" y2="-90.0" /><line stroke="#eee" stroke-width="0.3" x1="240.0" x2="240.0" y1="590.0" y2="-90.0" /><line stroke="#eee" stroke-width="0.3" x1="320.0" x2="320.0" y1="590.0" y2="-90.0" /><line stroke="#eee" stroke-width="0.3" x1="400.0" x2="400.0" y1="590.0" y2="-90.0" /><line stroke="#eee" stroke-width="0.3" x1="480.0" x2="480.0" y1="590.0" y2="-90.0" /><line stroke="#eee" stroke-width="0.3" x1="560.0" x2="560.0" y1="590.0" y2="-90.0" /><line stroke="#eee" stroke-width="0.3" x1="640.0" x2="640.0" y1="590.0" y2="-90.0" /><line stroke="#eee" stroke-width="0.3" x1="720.0" x2="720.0" y1="590.0" y2="-90.0" /><line stroke="#eee" stroke-width="0.3" x1="80.0" x2="720.0" y1="590.0" y2="590.0" /><line stroke="#eee" stroke-width="0.3" x1="80.0" x2="720.0" y1="510.0" y2="510.0" /><line stroke="#eee" stroke-width="0.3" x1="80.0" x2="720.0" y1="430.0" y2="430.0" /><line stroke="#eee" stroke-width="0.3" x1="80.0" x2="720.0" y1="350.0" y2="350.0" /><line stroke="#eee" stroke-width="0.3" x1="80.0" x2="720.0" y1="270.0" y2="270.0" /><line stroke="#eee" stroke-width="0.3" x1="80.0" x2="720.0" y1="190.0" y2="190.0" /><line stroke="#eee" stroke-width="0.3" x1="80.0" x2="720.0" y1="110.0" y2="110.0" /><line stroke="#eee" stroke-width="0.3" x1="80.0" x2="720.0" y1="30.0" y2="30.0" /><line stroke="#eee" stroke-width="0.3" x1="80.0" x2="720.0" y1="-50.0" y2="-50.0" /><rect fill="#f0f0f0" fill-opacity="0.7" height="352.0" stroke="#ccc" stroke-width="0.5" width="560.0" x="120.0" y="214.0" /><rect fill="#fafafa" fill-opacity="0.7" height="336.0" stroke="#ccc" stroke-width="0.5" width="520.0" x="128.0" y="222.0" /><rect fill="#e8f0f8" fill-opacity="0.7" height="280.0" stroke="#ccc" stroke-width="0.5" width="160.0" x="440.0" y="-90.0" /><rect fill="#f8f8f0" fill-opacity="0.7" height="160.0" stroke="#ccc" stroke-width="0.5" width="120.0" x="320.0" y="30.0" /><rect fill="#f8f8f0" fill-opacity="0.7" height="280.0" stroke="#ccc" stroke-width="0.5" width="120.0" x="320.0" y="-90.0" /><rect fill="#f0f8e8" fill-opacity="0.7" height="160.0" stroke="#ccc" stroke-width="0.5" width="240.0" x="480.0" y="430.0" /><line stroke="#000" stroke-width="2" x1="120.0" x2="680.0" y1="566.0" y2="566.0" /><line stroke="#000" stroke-width="2" x1="680.0" x2="680.0" y1="566.0" y2="214.0" /><line stroke="#000" stroke-width="2" x1="680.0" x2="120.0" y1="214.0" y2="214.0" /><line stroke="#000" stroke-width="2" x1="120.0" x2="120.0" y1="214.0" y2="566.0" /><line stroke="#888" stroke-dasharray="5,3" stroke-width="1.5" x1="128.0" x2="672.0" y1="558.0" y2="558.0" /><line stroke="#888" stroke-dasharray="5,3" stroke-width="1.5" x1="672.0" x2="672.0" y1="558.0" y2="222.0" /><line stroke="#888" stroke-dasharray="5,3" stroke-width="1.5" x1="672.0" x2="128.0" y1="222.0" y2="222.0" /><line stroke="#888" stroke-dasharray="5,3" stroke-width="1.5" x1="128.0" x2="128.0" y1="222.0" y2="558.0" /><line stroke="#000" stroke-width="2" x1="440.0" x2="600.0" y1="190.0" y2="190.0" /><line stroke="#000" stroke-width="2" x1="600.0" x2="600.0" y1="190.0" y2="-90.0" /><line stroke="#000" stroke-width="2" x1="600.0" x2="440.0" y1="-90.0" y2="-90.0" /><line stroke="#000" stroke-width="2" x1="440.0" x2="440.0" y1="-90.0" y2="190.0" /><line stroke="#000" stroke-width="2" x1="320.0" x2="320.0" y1="190.0" y2="-90.0" /><line stroke="#000" stroke-width="2" x1="480.0" x2="720.0" y1="590.0" y2="590.0" /><line stroke="#000" stroke-width="2" x1="720.0" x2="720.0" y1="590.0" y2="430.0" /><line stroke="#000" stroke-width="2" x1="720.0" x2="480.0" y1="430.0" y2="430.0" /><line stroke="#ccc" stroke-width="1" x1="80.0" x2="720.0" y1="590.0" y2="590.0" /><line stroke="#ccc" stroke-width="1" x1="720.0" x2="720.0" y1="590.0" y2="-90.0" /><line stroke="#ccc" stroke-width="1" x1="720.0" x2="80.0" y1="-90.0" y2="-90.0" /><line stroke="#ccc" stroke-width="1" x1="80.0" x2="80.0" y1="-90.0" y2="590.0" /><circle cx="400.0" cy="390.0" fill="#ffdd00" r="16" stroke="#cc9900" stroke-width="1" /><circle cx="400.0" cy="390.0" fill="white" fill-opacity="0.5" r="8" /><circle cx="400.0" cy="270.0" fill="#ffdd00" r="12" stroke="#cc9900" stroke-width="1" /><circle cx="400.0" cy="270.0" fill="white" fill-opacity="0.5" r="6" /><circle cx="136.0" cy="534.0" fill="#ffcc00" r="5" stroke="#cc9900" stroke-width="1" /><circle cx="136.0" cy="534.0" fill="white" fill-opacity="0.5" r="2" /><circle cx="664.0" cy="534.0" fill="#ffcc00" r="5" stroke="#cc9900" stroke-width="1" /><circle cx="664.0" cy="534.0" fill="white" fill-opacity="0.5" r="2" /><circle cx="664.0" cy="214.0" fill="#ffcc00" r="5" stroke="#cc9900" stroke-width="1" /><circle cx="664.0" cy="214.0" fill="white" fill-opacity="0.5" r="2" /><circle cx="136.0" cy="214.0" fill="#ffcc00" r="5" stroke="#cc9900" stroke-width="1" /><circle cx="136.0" cy="214.0" fill="white" fill-opacity="0.5" r="2" /><circle cx="376.0" cy="46.0" fill="#ffdd00" r="10" stroke="#cc9900" stroke-width="1" /><circle cx="376.0" cy="46.0" fill="white" fill-opacity="0.5" r="5" /><circle cx="600.0" cy="510.0" fill="#ffdd00" r="9" stroke="#cc9900" stroke-width="1" /><circle cx="600.0" cy="510.0" fill="white" fill-opacity="0.5" r="4" /><circle cx="520.0" cy="30.0" fill="#ffaa00" r="12" stroke="#cc9900" stroke-width="1" /><circle cx="520.0" cy="30.0" fill="white" fill-opacity="0.5" r="6" /><rect fill="#aaddff" height="15" stroke="#4488cc" stroke-width="1" width="96.0" x="352.0" y="210.0" /><text fill="#4488cc" font-size="7" text-anchor="middle" x="400.0" y="208.39999999999998">空调出风口</text><text fill="green" font-size="9" x="120.0" y="262.0">CL=2700</text><text fill="green" font-size="9" x="380.0" y="54.0">CL=2850</text><text fill="green" font-size="9" x="520.0" y="54.0">CL=2800</text><text fill="green" font-size="9" x="600.0" y="510.0">CL=2600</text><text fill="green" font-size="9" x="376.0" y="46.0">CL=2850</text><text fill="#555" font-size="9" text-anchor="middle" x="400.0" y="430.0">跌级吊顶区域</text><text fill="#555" font-size="9" text-anchor="middle" x="400.0" y="446.0">四周下降150mm</text><text fill="#555" font-size="9" text-anchor="middle" x="520.0" y="70.0">防水石膏板</text><text fill="#555" font-size="9" text-anchor="middle" x="520.0" y="86.0">防潮处理</text><text fill="#555" font-size="9" text-anchor="middle" x="600.0" y="526.0">铝扣板300×300</text><text fill="#555" font-size="9" text-anchor="middle" x="376.0" y="-34.0">石膏板平顶</text><text fill="#555" font-size="9" text-anchor="middle" x="120.0" y="-34.0">过道平顶</text><rect fill="#000" height="12" width="14" x="80" y="660" /><text font-size="9" x="98" y="670">吊顶轮廓</text><rect fill="#888" height="12" width="14" x="220" y="660" /><text font-size="9" x="238" y="670">跌级边线</text><rect fill="#ffcc00" height="12" width="14" x="360" y="660" /><text font-size="9" x="378" y="670">灯具</text><rect fill="#aaddff" height="12" width="14" x="500" y="660" /><text font-size="9" x="518" y="670">空调口</text><text font-size="14" font-weight="bold" text-anchor="middle" x="450" y="30">天花布置图 | 从下往上看 | CL=标高(距地高度)</text></svg>