0
SECTION
2
HEADER
0
ENDSEC
0
SECTION
2
TABLES
0
TABLE
2
LAYER
70
7
0
LAYER
2
A-CEIL
70
0
62
7
6
CONTINUOUS
370
13
0
LAYER
2
A-CEIL-D
70
0
62
2
6
DASHED
370
9
0
LAYER
2
A-LITE
70
0
62
6
6
CONTINUOUS
370
13
0
LAYER
2
A-AC
70
0
62
4
6
CONTINUOUS
370
13
0
LAYER
2
A-HATC
70
0
62
8
6
CONTINUOUS
370
9
0
LAYER
2
A-DIM
70
0
62
3
6
CONTINUOUS
370
13
0
LAYER
2
A-TEXT
70
0
62
7
6
CONTINUOUS
370
13
0
ENDTAB
0
ENDSEC
0
SECTION
2
ENTITIES
0
LINE
8
A-CEIL
10
500
20
300
11
7500
21
300
0
LINE
8
A-CEIL
10
7500
20
300
11
7500
21
4700
0
LINE
8
A-CEIL
10
7500
20
4700
11
500
21
4700
0
LINE
8
A-CEIL
10
500
20
4700
11
500
21
300
0
LINE
8
A-CEIL-D
10
600
20
400
11
7400
21
400
0
LINE
8
A-CEIL-D
10
7400
20
400
11
7400
21
4600
0
LINE
8
A-CEIL-D
10
7400
20
4600
11
600
21
4600
0
LINE
8
A-CEIL-D
10
600
20
4600
11
600
21
400
0
LINE
8
A-CEIL
10
4500
20
5000
11
6500
21
5000
0
LINE
8
A-CEIL
10
6500
20
5000
11
6500
21
8500
0
LINE
8
A-CEIL
10
6500
20
8500
11
4500
21
8500
0
LINE
8
A-CEIL
10
4500
20
8500
11
4500
21
5000
0
LINE
8
A-CEIL
10
3000
20
5000
11
3000
21
8500
0
LINE
8
A-CEIL
10
3000
20
8500
11
4500
21
8500
0
LINE
8
A-CEIL
10
5000
20
0
11
8000
21
0
0
LINE
8
A-CEIL
10
8000
20
0
11
8000
21
2000
0
LINE
8
A-CEIL
10
8000
20
2000
11
5000
21
2000
0
CIRCLE
8
A-LITE
10
4000
20
2500
40
200
0
CIRCLE
8
A-LITE
10
4000
20
2500
40
100
0
CIRCLE
8
A-LITE
10
4000
20
4000
40
150
0
CIRCLE
8
A-LITE
10
4000
20
4000
40
75
0
CIRCLE
8
A-LITE
10
700
20
700
40
50
0
CIRCLE
8
A-LITE
10
7300
20
700
40
50
0
CIRCLE
8
A-LITE
10
7300
20
4700
40
50
0
CIRCLE
8
A-LITE
10
700
20
4700
40
50
0
CIRCLE
8
A-LITE
10
3750
20
6700
40
120
0
CIRCLE
8
A-LITE
10
6500
20
1000
40
100
0
CIRCLE
8
A-LITE
10
5500
20
7000
40
150
0
CIRCLE
8
A-LITE
10
5500
20
7000
40
80
0
LINE
8
A-AC
10
3400
20
4800
11
4600
21
4800
0
LINE
8
A-AC
10
3400
20
4800
11
4600
21
4800
0
LINE
8
A-AC
10
3400
20
4800
11
4600
21
4800
0
LINE
8
A-AC
10
3400
20
4750
11
4600
21
4750
0
LINE
8
A-DIM
10
300
20
5000
11
300
21
5300
0
LINE
8
A-DIM
10
300
20
5300
11
250
21
5300
0
TEXT
8
A-TEXT
10
3500
20
2500
40
3
1
LED主灯 CL=2850
0
TEXT
8
A-TEXT
10
3500
20
3800
40
3
1
餐厅吊灯 CL=2500
0
TEXT
8
A-TEXT
10
3500
20
1400
40
3
1
跌级吊顶 CL=2700
0
TEXT
8
A-TEXT
10
5000
20
7200
40
3
1
浴霸
0
TEXT
8
A-TEXT
10
6000
20
800
40
3
1
吸顶灯
0
TEXT
8
A-TEXT
10
3200
20
6800
40
3
1
吸顶灯 CL=2850
0
TEXT
8
A-TEXT
10
2500
20
5700
40
3
1
阳角线
0
TEXT
8
A-TEXT
10
3500
20
5200
40
3
1
石膏板平顶 CL=2850
0
TEXT
8
A-TEXT
10
5000
20
6500
40
3
1
防水石膏板 CL=2800
0
TEXT
8
A-TEXT
10
6000
20
1200
40
3
1
铝扣板吊顶 CL=2600
0
LINE
8
A-CEIL
10
0
20
0
11
8000
21
0
0
LINE
8
A-CEIL
10
8000
20
0
11
8000
21
8500
0
LINE
8
A-CEIL
10
8000
20
8500
11
0
21
8500
0
LINE
8
A-CEIL
10
0
20
8500
11
0
21
0
0
ENDSEC
0
EOF