<svg xmlns="http://www.w3.org/2000/svg" width="1200" height="800" viewBox="0 0 1200 800">
<rect width="100%%" height="100%%" fill="#1a1a2e"/>
<text x="600" y="25" text-anchor="middle" fill="#e0e0e0" font-size="14" font-family="monospace">F4 入户层 (88 walls, 31 texts, 2 doors)</text>
<line x1="491.2" y1="481.0" x2="491.2" y2="445.0" stroke="#4fc3f7" stroke-width="2" opacity="0.8"/>
<line x1="488.7" y1="481.0" x2="488.7" y2="445.0" stroke="#4fc3f7" stroke-width="2" opacity="0.8"/>
<line x1="488.7" y1="445.0" x2="491.2" y2="445.0" stroke="#4fc3f7" stroke-width="2" opacity="0.8"/>
<line x1="488.7" y1="355.0" x2="491.2" y2="355.0" stroke="#4fc3f7" stroke-width="2" opacity="0.8"/>
<line x1="923.2" y1="382.0" x2="925.7" y2="382.0" stroke="#4fc3f7" stroke-width="2" opacity="0.8"/>
<line x1="948.7" y1="478.0" x2="948.7" y2="442.0" stroke="#4fc3f7" stroke-width="2" opacity="0.8"/>
<line x1="946.1" y1="478.0" x2="946.1" y2="442.0" stroke="#4fc3f7" stroke-width="2" opacity="0.8"/>
<line x1="1059.7" y1="463.0" x2="1059.7" y2="447.1" stroke="#4fc3f7" stroke-width="2" opacity="0.8"/>
<line x1="1057.1" y1="463.0" x2="1057.1" y2="447.1" stroke="#4fc3f7" stroke-width="2" opacity="0.8"/>
<line x1="887.4" y1="367.0" x2="887.4" y2="379.0" stroke="#4fc3f7" stroke-width="2" opacity="0.8"/>
<line x1="887.4" y1="421.0" x2="887.4" y2="433.0" stroke="#4fc3f7" stroke-width="2" opacity="0.8"/>
<line x1="884.9" y1="367.0" x2="884.9" y2="379.0" stroke="#4fc3f7" stroke-width="2" opacity="0.8"/>
<line x1="884.9" y1="421.0" x2="884.9" y2="433.0" stroke="#4fc3f7" stroke-width="2" opacity="0.8"/>
<line x1="884.9" y1="433.0" x2="887.4" y2="433.0" stroke="#4fc3f7" stroke-width="2" opacity="0.8"/>
<line x1="884.9" y1="421.0" x2="887.4" y2="421.0" stroke="#4fc3f7" stroke-width="2" opacity="0.8"/>
<line x1="884.9" y1="379.0" x2="887.4" y2="379.0" stroke="#4fc3f7" stroke-width="2" opacity="0.8"/>
<line x1="884.9" y1="475.0" x2="884.9" y2="433.0" stroke="#4fc3f7" stroke-width="2" opacity="0.8"/>
<line x1="885.8" y1="475.0" x2="885.8" y2="433.0" stroke="#4fc3f7" stroke-width="2" opacity="0.8"/>
<line x1="887.4" y1="433.0" x2="887.4" y2="475.0" stroke="#4fc3f7" stroke-width="2" opacity="0.8"/>
<line x1="886.6" y1="433.0" x2="886.6" y2="475.0" stroke="#4fc3f7" stroke-width="2" opacity="0.8"/>
<line x1="884.9" y1="421.0" x2="884.9" y2="379.0" stroke="#4fc3f7" stroke-width="2" opacity="0.8"/>
<line x1="887.4" y1="379.0" x2="887.4" y2="421.0" stroke="#4fc3f7" stroke-width="2" opacity="0.8"/>
<line x1="884.9" y1="367.0" x2="887.4" y2="367.0" stroke="#4fc3f7" stroke-width="2" opacity="0.8"/>
<line x1="1057.1" y1="447.1" x2="1059.7" y2="447.1" stroke="#4fc3f7" stroke-width="2" opacity="0.8"/>
<line x1="1058.0" y1="447.1" x2="1058.0" y2="348.1" stroke="#4fc3f7" stroke-width="2" opacity="0.8"/>
<line x1="1059.7" y1="447.1" x2="1059.7" y2="348.1" stroke="#4fc3f7" stroke-width="2" opacity="0.8"/>
<line x1="1058.8" y1="447.1" x2="1058.8" y2="348.1" stroke="#4fc3f7" stroke-width="2" opacity="0.8"/>
<line x1="1057.1" y1="448.0" x2="1038.0" y2="448.0" stroke="#4fc3f7" stroke-width="2" opacity="0.8"/>
<line x1="1057.1" y1="460.0" x2="1040.5" y2="460.0" stroke="#4fc3f7" stroke-width="2" opacity="0.8"/>
<line x1="1059.7" y1="463.0" x2="1057.1" y2="463.0" stroke="#4fc3f7" stroke-width="2" opacity="0.8"/>
<line x1="995.9" y1="371.2" x2="986.9" y2="371.2" stroke="#4fc3f7" stroke-width="2" opacity="0.8"/>
<line x1="975.5" y1="371.2" x2="948.7" y2="371.2" stroke="#4fc3f7" stroke-width="2" opacity="0.8"/>
<line x1="995.9" y1="364.0" x2="986.9" y2="364.0" stroke="#4fc3f7" stroke-width="2" opacity="0.8"/>
<line x1="975.5" y1="364.0" x2="948.7" y2="364.0" stroke="#4fc3f7" stroke-width="2" opacity="0.8"/>
<line x1="322.8" y1="532.0" x2="322.8" y2="348.1" stroke="#4fc3f7" stroke-width="2" opacity="0.8"/>
<line x1="325.3" y1="520.0" x2="325.3" y2="336.1" stroke="#4fc3f7" stroke-width="2" opacity="0.8"/>
<line x1="105.9" y1="433.0" x2="72.7" y2="433.0" stroke="#4fc3f7" stroke-width="2" opacity="0.8"/>
<line x1="118.7" y1="445.0" x2="116.1" y2="445.0" stroke="#4fc3f7" stroke-width="2" opacity="0.8"/>
<line x1="986.9" y1="364.0" x2="986.9" y2="371.2" stroke="#4fc3f7" stroke-width="2" opacity="0.8"/>
<line x1="975.5" y1="364.0" x2="975.5" y2="371.2" stroke="#4fc3f7" stroke-width="2" opacity="0.8"/>
<line x1="488.7" y1="445.0" x2="488.7" y2="355.0" stroke="#4fc3f7" stroke-width="2" opacity="0.8"/>
<line x1="489.6" y1="445.0" x2="489.6" y2="355.0" stroke="#4fc3f7" stroke-width="2" opacity="0.8"/>
<line x1="491.2" y1="355.0" x2="491.2" y2="445.0" stroke="#4fc3f7" stroke-width="2" opacity="0.8"/>
<line x1="490.3" y1="355.0" x2="490.3" y2="445.0" stroke="#4fc3f7" stroke-width="2" opacity="0.8"/>
<line x1="118.7" y1="445.0" x2="118.7" y2="481.0" stroke="#4fc3f7" stroke-width="2" opacity="0.8"/>
<line x1="116.1" y1="445.0" x2="116.1" y2="481.0" stroke="#4fc3f7" stroke-width="2" opacity="0.8"/>
<line x1="925.7" y1="382.0" x2="925.7" y2="430.0" stroke="#4fc3f7" stroke-width="2" opacity="0.8"/>
<line x1="923.2" y1="382.0" x2="923.2" y2="430.0" stroke="#4fc3f7" stroke-width="2" opacity="0.8"/>
<line x1="116.1" y1="445.0" x2="116.1" y2="340.0" stroke="#4fc3f7" stroke-width="2" opacity="0.8"/>
<line x1="105.9" y1="433.0" x2="105.9" y2="268.0" stroke="#4fc3f7" stroke-width="2" opacity="0.8"/>
<line x1="117.0" y1="445.0" x2="117.0" y2="340.0" stroke="#4fc3f7" stroke-width="2" opacity="0.8"/>
<line x1="118.7" y1="340.0" x2="118.7" y2="445.0" stroke="#4fc3f7" stroke-width="2" opacity="0.8"/>
<line x1="117.8" y1="340.0" x2="117.8" y2="445.0" stroke="#4fc3f7" stroke-width="2" opacity="0.8"/>
<line x1="176.1" y1="475.0" x2="176.1" y2="322.0" stroke="#4fc3f7" stroke-width="2" opacity="0.8"/>
<line x1="178.6" y1="475.0" x2="178.6" y2="322.0" stroke="#4fc3f7" stroke-width="2" opacity="0.8"/>
<line x1="695.3" y1="379.6" x2="697.9" y2="379.6" stroke="#4fc3f7" stroke-width="2" opacity="0.8"/>
<line x1="697.9" y1="379.6" x2="697.9" y2="348.1" stroke="#4fc3f7" stroke-width="2" opacity="0.8"/>
<line x1="695.3" y1="379.6" x2="695.3" y2="336.1" stroke="#4fc3f7" stroke-width="2" opacity="0.8"/>
<line x1="731.1" y1="336.1" x2="731.1" y2="375.1" stroke="#4fc3f7" stroke-width="2" opacity="0.8"/>
<line x1="728.5" y1="348.1" x2="728.5" y2="375.1" stroke="#4fc3f7" stroke-width="2" opacity="0.8"/>
<line x1="728.5" y1="375.1" x2="731.1" y2="375.1" stroke="#4fc3f7" stroke-width="2" opacity="0.8"/>
<line x1="729.4" y1="493.0" x2="729.4" y2="375.1" stroke="#4fc3f7" stroke-width="2" opacity="0.8"/>
<line x1="731.1" y1="493.0" x2="731.1" y2="375.1" stroke="#4fc3f7" stroke-width="2" opacity="0.8"/>
<line x1="730.2" y1="493.0" x2="730.2" y2="375.1" stroke="#4fc3f7" stroke-width="2" opacity="0.8"/>
<line x1="728.5" y1="493.0" x2="728.5" y2="375.1" stroke="#4fc3f7" stroke-width="2" opacity="0.8"/>
<line x1="948.7" y1="352.0" x2="946.1" y2="352.0" stroke="#4fc3f7" stroke-width="2" opacity="0.8"/>
<line x1="948.7" y1="442.0" x2="946.1" y2="442.0" stroke="#4fc3f7" stroke-width="2" opacity="0.8"/>
<line x1="946.1" y1="352.0" x2="946.1" y2="442.0" stroke="#4fc3f7" stroke-width="2" opacity="0.8"/>
<line x1="948.7" y1="442.0" x2="948.7" y2="352.0" stroke="#4fc3f7" stroke-width="2" opacity="0.8"/>
<line x1="1127.3" y1="532.0" x2="1127.3" y2="336.1" stroke="#4fc3f7" stroke-width="2" opacity="0.8"/>
<line x1="1124.7" y1="520.0" x2="1124.7" y2="348.1" stroke="#4fc3f7" stroke-width="2" opacity="0.8"/>
<line x1="641.8" y1="348.1" x2="641.8" y2="369.7" stroke="#4fc3f7" stroke-width="2" opacity="0.8"/>
<line x1="644.3" y1="348.1" x2="644.3" y2="362.5" stroke="#4fc3f7" stroke-width="2" opacity="0.8"/>
<line x1="644.7" y1="362.5" x2="644.7" y2="369.7" stroke="#4fc3f7" stroke-width="2" opacity="0.8"/>
<line x1="657.1" y1="348.1" x2="657.1" y2="362.5" stroke="#4fc3f7" stroke-width="2" opacity="0.8"/>
<line x1="656.7" y1="362.5" x2="656.7" y2="369.7" stroke="#4fc3f7" stroke-width="2" opacity="0.8"/>
<line x1="658.6" y1="348.1" x2="658.6" y2="369.7" stroke="#4fc3f7" stroke-width="2" opacity="0.8"/>
<line x1="656.7" y1="369.7" x2="658.6" y2="369.7" stroke="#4fc3f7" stroke-width="2" opacity="0.8"/>
<line x1="644.3" y1="369.7" x2="641.8" y2="369.7" stroke="#4fc3f7" stroke-width="2" opacity="0.8"/>
<line x1="644.3" y1="369.7" x2="644.7" y2="369.7" stroke="#4fc3f7" stroke-width="2" opacity="0.8"/>
<line x1="644.3" y1="362.5" x2="644.7" y2="362.5" stroke="#4fc3f7" stroke-width="2" opacity="0.8"/>
<line x1="656.7" y1="362.5" x2="657.1" y2="362.5" stroke="#4fc3f7" stroke-width="2" opacity="0.8"/>
<line x1="1057.1" y1="447.1" x2="1057.1" y2="348.1" stroke="#4fc3f7" stroke-width="2" opacity="0.8"/>
<line x1="923.2" y1="430.0" x2="923.2" y2="496.0" stroke="#4fc3f7" stroke-width="2" opacity="0.8"/>
<line x1="925.7" y1="430.0" x2="925.7" y2="496.0" stroke="#4fc3f7" stroke-width="2" opacity="0.8"/>
<line x1="923.2" y1="430.0" x2="925.7" y2="430.0" stroke="#4fc3f7" stroke-width="2" opacity="0.8"/>
<line x1="995.9" y1="371.2" x2="998.4" y2="371.2" stroke="#4fc3f7" stroke-width="2" opacity="0.8"/>
<line x1="1055.8" y1="447.1" x2="1055.8" y2="282.1" stroke="#4fc3f7" stroke-width="2" opacity="0.8"/>
<path d="M 976.1 362.6 A 10.6 10.6 0 0 1 986.6 362.6" fill="none" stroke="#e57373" stroke-width="2"/>
<path d="M 696.3 381.3 A 11.2 11.2 0 0 1 707.6 381.3" fill="none" stroke="#e57373" stroke-width="2"/>
<text x="520.2" y="435.5" fill="#ff7043" font-size="14" font-family="monospace">茶室</text>
<text x="572.1" y="403.9" fill="#81c784" font-size="10" font-family="monospace">岛台</text>
<text x="610.3" y="412.0" fill="#ff7043" font-size="14" font-family="monospace">挑空</text>
<text x="1012.5" y="423.5" fill="#ff7043" font-size="14" font-family="monospace">卧室一（主卧）</text>
<text x="971.7" y="437.0" fill="#ff7043" font-size="14" font-family="monospace">衣帽间</text>
<text x="1084.0" y="391.1" fill="#ff7043" font-size="14" font-family="monospace">景观阳台</text>
<text x="200.0" y="375.7" fill="#81c784" font-size="10" font-family="monospace">手工桌</text>
<text x="289.8" y="435.2" fill="#81c784" font-size="10" font-family="monospace">瑜伽垫</text>
<text x="928.4" y="388.4" fill="#ff7043" font-size="14" font-family="monospace">衣帽间</text>
<text x="891.6" y="378.4" fill="#81c784" font-size="10" font-family="monospace">淋浴</text>
<text x="146.0" y="405.3" fill="#81c784" font-size="10" font-family="monospace">岛台</text>
<text x="51.7" y="402.7" fill="#ff7043" font-size="14" font-family="monospace">院子</text>
<text x="1114.4" y="373.1" fill="#ff7043" font-size="14" font-family="monospace">绿植</text>
<text x="168.5" y="453.2" fill="#81c784" font-size="10" font-family="monospace">冰箱</text>
<text x="168.7" y="411.5" fill="#81c784" font-size="10" font-family="monospace">高柜\P烤箱</text>
<text x="168.3" y="374.0" fill="#81c784" font-size="10" font-family="monospace">高柜\P微波炉</text>
<text x="666.9" y="409.7" fill="#ff7043" font-size="14" font-family="monospace">玄关</text>
<text x="711.0" y="418.3" fill="#ff7043" font-size="14" font-family="monospace">门厅</text>
<text x="1061.1" y="385.5" fill="#81c784" font-size="10" font-family="monospace">电动伸缩遮阳棚</text>
<text x="901.2" y="400.2" fill="#81c784" font-size="10" font-family="monospace">移门</text>
<text x="676.1" y="365.5" fill="#81c784" font-size="10" font-family="monospace">鞋柜</text>
<text x="706.4" y="365.5" fill="#81c784" font-size="10" font-family="monospace">成品鞋柜</text>
<text x="291.6" y="357.2" fill="#81c784" font-size="10" font-family="monospace">墙面镜子</text>
<text x="320.8" y="424.3" fill="#81c784" font-size="10" font-family="monospace">墙面投影</text>
<text x="649.2" y="371.5" fill="#81c784" font-size="10" font-family="monospace">暗门</text>
<text x="646.5" y="437.6" fill="#81c784" font-size="10" font-family="monospace">大门中心线</text>
<text x="550.4" y="378.5" fill="#81c784" font-size="10" font-family="monospace">玻璃砖隔墙</text>
<text x="221.3" y="379.2" fill="#ff7043" font-size="14" font-family="monospace">手工区</text>
<text x="143.8" y="464.7" fill="#81c784" font-size="10" font-family="monospace">内嵌电磁炉</text>
<text x="121.9" y="404.3" fill="#81c784" font-size="10" font-family="monospace">净水</text>
<text x="144.9" y="443.7" fill="#81c784" font-size="10" font-family="monospace">绞肉机</text>
</svg>