<svg xmlns="http://www.w3.org/2000/svg" width="1200" height="800" viewBox="0 0 1200 800">
<rect width="100%" height="100%" fill="#1a1a2e"/>
<text x="600" y="25" text-anchor="middle" fill="#e0e0e0" font-size="14" font-family="monospace">课题011 — 第二层墙体骨架（LINE段）</text>
<line x1="637.0" y1="429.1" x2="637.0" y2="375.6" stroke="#4fc3f7" stroke-width="1.5" opacity="0.7"/>
<line x1="634.7" y1="429.1" x2="634.7" y2="369.3" stroke="#4fc3f7" stroke-width="1.5" opacity="0.7"/>
<line x1="661.9" y1="378.8" x2="661.9" y2="369.3" stroke="#4fc3f7" stroke-width="1.5" opacity="0.7"/>
<line x1="705.8" y1="344.2" x2="708.1" y2="344.2" stroke="#4fc3f7" stroke-width="1.5" opacity="0.7"/>
<line x1="708.1" y1="344.2" x2="708.1" y2="432.2" stroke="#4fc3f7" stroke-width="1.5" opacity="0.7"/>
<line x1="707.3" y1="344.2" x2="707.3" y2="432.2" stroke="#4fc3f7" stroke-width="1.5" opacity="0.7"/>
<line x1="705.8" y1="432.2" x2="705.8" y2="344.2" stroke="#4fc3f7" stroke-width="1.5" opacity="0.7"/>
<line x1="706.6" y1="432.2" x2="706.6" y2="344.2" stroke="#4fc3f7" stroke-width="1.5" opacity="0.7"/>
<line x1="974.3" y1="366.2" x2="976.7" y2="366.2" stroke="#4fc3f7" stroke-width="1.5" opacity="0.7"/>
<line x1="976.7" y1="369.3" x2="1004.2" y2="369.3" stroke="#4fc3f7" stroke-width="1.5" opacity="0.7"/>
<line x1="1016.0" y1="369.3" x2="1025.3" y2="369.3" stroke="#4fc3f7" stroke-width="1.5" opacity="0.7"/>
<line x1="1025.3" y1="369.3" x2="1026.4" y2="369.3" stroke="#4fc3f7" stroke-width="1.5" opacity="0.7"/>
<line x1="976.7" y1="375.6" x2="1004.2" y2="375.6" stroke="#4fc3f7" stroke-width="1.5" opacity="0.7"/>
<line x1="1016.0" y1="375.6" x2="1025.3" y2="375.6" stroke="#4fc3f7" stroke-width="1.5" opacity="0.7"/>
<line x1="1025.3" y1="375.6" x2="1026.4" y2="375.6" stroke="#4fc3f7" stroke-width="1.5" opacity="0.7"/>
<line x1="1030.0" y1="378.8" x2="1030.0" y2="369.3" stroke="#4fc3f7" stroke-width="1.5" opacity="0.7"/>
<line x1="1027.6" y1="378.8" x2="1027.6" y2="375.6" stroke="#4fc3f7" stroke-width="1.5" opacity="0.7"/>
<line x1="1073.9" y1="414.9" x2="1076.2" y2="414.9" stroke="#4fc3f7" stroke-width="1.5" opacity="0.7"/>
<line x1="1073.9" y1="358.3" x2="1076.2" y2="358.3" stroke="#4fc3f7" stroke-width="1.5" opacity="0.7"/>
<line x1="1073.9" y1="414.9" x2="1076.2" y2="414.9" stroke="#4fc3f7" stroke-width="1.5" opacity="0.7"/>
<line x1="1076.2" y1="358.3" x2="1076.2" y2="414.9" stroke="#4fc3f7" stroke-width="1.5" opacity="0.7"/>
<line x1="1016.0" y1="375.6" x2="1016.0" y2="369.3" stroke="#4fc3f7" stroke-width="1.5" opacity="0.7"/>
<line x1="1004.2" y1="375.6" x2="1004.2" y2="369.3" stroke="#4fc3f7" stroke-width="1.5" opacity="0.7"/>
<line x1="930.5" y1="488.9" x2="930.5" y2="364.6" stroke="#4fc3f7" stroke-width="1.5" opacity="0.7"/>
<line x1="928.1" y1="488.9" x2="928.1" y2="364.6" stroke="#4fc3f7" stroke-width="1.5" opacity="0.7"/>
<line x1="1082.1" y1="427.5" x2="1082.1" y2="345.7" stroke="#4fc3f7" stroke-width="1.5" opacity="0.7"/>
<line x1="1083.3" y1="430.7" x2="1083.3" y2="342.6" stroke="#4fc3f7" stroke-width="1.5" opacity="0.7"/>
<line x1="1076.2" y1="427.5" x2="1082.1" y2="427.5" stroke="#4fc3f7" stroke-width="1.5" opacity="0.7"/>
<line x1="1076.2" y1="345.7" x2="1082.1" y2="345.7" stroke="#4fc3f7" stroke-width="1.5" opacity="0.7"/>
<line x1="1073.9" y1="414.9" x2="1073.9" y2="358.3" stroke="#4fc3f7" stroke-width="1.5" opacity="0.7"/>
<line x1="658.4" y1="369.3" x2="657.2" y2="369.3" stroke="#4fc3f7" stroke-width="1.5" opacity="0.7"/>
<line x1="647.7" y1="369.3" x2="634.7" y2="369.3" stroke="#4fc3f7" stroke-width="1.5" opacity="0.7"/>
<line x1="634.7" y1="369.3" x2="620.4" y2="369.3" stroke="#4fc3f7" stroke-width="1.5" opacity="0.7"/>
<line x1="609.8" y1="369.3" x2="608.6" y2="369.3" stroke="#4fc3f7" stroke-width="1.5" opacity="0.7"/>
<line x1="608.6" y1="369.3" x2="606.2" y2="369.3" stroke="#4fc3f7" stroke-width="1.5" opacity="0.7"/>
<line x1="658.4" y1="375.6" x2="657.2" y2="375.6" stroke="#4fc3f7" stroke-width="1.5" opacity="0.7"/>
<line x1="647.7" y1="375.6" x2="637.0" y2="375.6" stroke="#4fc3f7" stroke-width="1.5" opacity="0.7"/>
<line x1="634.7" y1="373.1" x2="620.4" y2="373.1" stroke="#4fc3f7" stroke-width="1.5" opacity="0.7"/>
<line x1="609.8" y1="373.1" x2="608.6" y2="373.1" stroke="#4fc3f7" stroke-width="1.5" opacity="0.7"/>
<line x1="644.1" y1="364.6" x2="644.1" y2="369.3" stroke="#4fc3f7" stroke-width="1.5" opacity="0.7"/>
<line x1="646.5" y1="364.6" x2="646.5" y2="369.3" stroke="#4fc3f7" stroke-width="1.5" opacity="0.7"/>
<line x1="634.7" y1="422.8" x2="608.6" y2="422.8" stroke="#4fc3f7" stroke-width="1.5" opacity="0.7"/>
<line x1="609.8" y1="373.1" x2="609.8" y2="369.3" stroke="#4fc3f7" stroke-width="1.5" opacity="0.7"/>
<line x1="620.4" y1="373.1" x2="620.4" y2="369.3" stroke="#4fc3f7" stroke-width="1.5" opacity="0.7"/>
<line x1="1030.0" y1="369.3" x2="1030.0" y2="328.4" stroke="#4fc3f7" stroke-width="1.5" opacity="0.7"/>
<line x1="1027.6" y1="369.3" x2="1027.6" y2="322.2" stroke="#4fc3f7" stroke-width="1.5" opacity="0.7"/>
<line x1="930.5" y1="364.6" x2="928.1" y2="364.6" stroke="#4fc3f7" stroke-width="1.5" opacity="0.7"/>
<line x1="1030.0" y1="422.8" x2="1027.6" y2="422.8" stroke="#4fc3f7" stroke-width="1.5" opacity="0.7"/>
<line x1="1027.6" y1="422.8" x2="1014.8" y2="422.8" stroke="#4fc3f7" stroke-width="1.5" opacity="0.7"/>
<line x1="1004.2" y1="422.8" x2="994.4" y2="422.8" stroke="#4fc3f7" stroke-width="1.5" opacity="0.7"/>
<line x1="1027.6" y1="426.6" x2="1014.8" y2="426.6" stroke="#4fc3f7" stroke-width="1.5" opacity="0.7"/>
<line x1="1004.2" y1="426.6" x2="995.9" y2="426.6" stroke="#4fc3f7" stroke-width="1.5" opacity="0.7"/>
<line x1="1001.8" y1="391.4" x2="1001.8" y2="375.6" stroke="#4fc3f7" stroke-width="1.5" opacity="0.7"/>
<line x1="1000.4" y1="391.4" x2="1000.4" y2="375.6" stroke="#4fc3f7" stroke-width="1.5" opacity="0.7"/>
<line x1="1001.8" y1="391.4" x2="1000.4" y2="391.4" stroke="#4fc3f7" stroke-width="1.5" opacity="0.7"/>
<line x1="1001.8" y1="419.7" x2="1000.4" y2="419.7" stroke="#4fc3f7" stroke-width="1.5" opacity="0.7"/>
<line x1="359.6" y1="444.8" x2="359.6" y2="328.4" stroke="#4fc3f7" stroke-width="1.5" opacity="0.7"/>
<line x1="362.0" y1="451.1" x2="362.0" y2="322.2" stroke="#4fc3f7" stroke-width="1.5" opacity="0.7"/>
<line x1="311.6" y1="411.8" x2="315.8" y2="411.8" stroke="#4fc3f7" stroke-width="1.5" opacity="0.7"/>
<line x1="276.1" y1="415.6" x2="276.1" y2="411.8" stroke="#4fc3f7" stroke-width="1.5" opacity="0.7"/>
<line x1="286.7" y1="415.6" x2="286.7" y2="411.8" stroke="#4fc3f7" stroke-width="1.5" opacity="0.7"/>
<line x1="301.0" y1="411.8" x2="286.7" y2="411.8" stroke="#4fc3f7" stroke-width="1.5" opacity="0.7"/>
<line x1="276.1" y1="411.8" x2="262.4" y2="411.8" stroke="#4fc3f7" stroke-width="1.5" opacity="0.7"/>
<line x1="262.4" y1="411.8" x2="260.1" y2="411.8" stroke="#4fc3f7" stroke-width="1.5" opacity="0.7"/>
<line x1="301.0" y1="415.6" x2="290.9" y2="415.6" stroke="#4fc3f7" stroke-width="1.5" opacity="0.7"/>
<line x1="288.5" y1="415.6" x2="286.7" y2="415.6" stroke="#4fc3f7" stroke-width="1.5" opacity="0.7"/>
<line x1="276.1" y1="415.6" x2="262.4" y2="415.6" stroke="#4fc3f7" stroke-width="1.5" opacity="0.7"/>
<line x1="315.8" y1="444.8" x2="315.8" y2="411.8" stroke="#4fc3f7" stroke-width="1.5" opacity="0.7"/>
<line x1="301.0" y1="411.8" x2="301.0" y2="415.6" stroke="#4fc3f7" stroke-width="1.5" opacity="0.7"/>
<line x1="311.6" y1="415.6" x2="311.6" y2="411.8" stroke="#4fc3f7" stroke-width="1.5" opacity="0.7"/>
<line x1="474.7" y1="328.4" x2="474.7" y2="473.1" stroke="#4fc3f7" stroke-width="1.5" opacity="0.7"/>
<line x1="473.8" y1="328.4" x2="473.8" y2="473.1" stroke="#4fc3f7" stroke-width="1.5" opacity="0.7"/>
<line x1="472.3" y1="328.4" x2="472.3" y2="473.1" stroke="#4fc3f7" stroke-width="1.5" opacity="0.7"/>
<line x1="473.1" y1="328.4" x2="473.1" y2="473.1" stroke="#4fc3f7" stroke-width="1.5" opacity="0.7"/>
<line x1="652.4" y1="425.3" x2="661.9" y2="425.3" stroke="#4fc3f7" stroke-width="1.5" opacity="0.7"/>
<line x1="646.5" y1="364.6" x2="644.1" y2="364.6" stroke="#4fc3f7" stroke-width="1.5" opacity="0.7"/>
<line x1="311.6" y1="415.6" x2="313.4" y2="415.6" stroke="#4fc3f7" stroke-width="1.5" opacity="0.7"/>
<line x1="1001.8" y1="419.7" x2="1001.8" y2="422.8" stroke="#4fc3f7" stroke-width="1.5" opacity="0.7"/>
<line x1="1000.4" y1="419.7" x2="1000.4" y2="422.8" stroke="#4fc3f7" stroke-width="1.5" opacity="0.7"/>
<line x1="1004.2" y1="426.6" x2="1004.2" y2="422.8" stroke="#4fc3f7" stroke-width="1.5" opacity="0.7"/>
<line x1="1014.8" y1="426.6" x2="1014.8" y2="422.8" stroke="#4fc3f7" stroke-width="1.5" opacity="0.7"/>
<line x1="652.4" y1="425.3" x2="652.4" y2="429.1" stroke="#4fc3f7" stroke-width="1.5" opacity="0.7"/>
<line x1="116.7" y1="276.5" x2="116.7" y2="523.5" stroke="#4fc3f7" stroke-width="1.5" opacity="0.7"/>
<line x1="866.5" y1="473.1" x2="866.5" y2="328.4" stroke="#4fc3f7" stroke-width="1.5" opacity="0.7"/>
<line x1="865.6" y1="444.8" x2="865.6" y2="328.4" stroke="#4fc3f7" stroke-width="1.5" opacity="0.7"/>
<line x1="864.1" y1="473.1" x2="864.1" y2="328.4" stroke="#4fc3f7" stroke-width="1.5" opacity="0.7"/>
<line x1="864.9" y1="444.8" x2="864.9" y2="328.4" stroke="#4fc3f7" stroke-width="1.5" opacity="0.7"/>
<line x1="842.8" y1="309.6" x2="842.8" y2="492.0" stroke="#4fc3f7" stroke-width="1.5" opacity="0.7"/>
<line x1="840.4" y1="303.3" x2="840.4" y2="498.3" stroke="#4fc3f7" stroke-width="1.5" opacity="0.7"/>
<line x1="866.5" y1="353.6" x2="864.1" y2="353.6" stroke="#4fc3f7" stroke-width="1.5" opacity="0.7"/>
<line x1="1025.3" y1="375.6" x2="1025.3" y2="369.3" stroke="#4fc3f7" stroke-width="1.5" opacity="0.7"/>
<line x1="657.2" y1="369.3" x2="657.2" y2="375.6" stroke="#4fc3f7" stroke-width="1.5" opacity="0.7"/>
<line x1="647.7" y1="369.3" x2="647.7" y2="375.6" stroke="#4fc3f7" stroke-width="1.5" opacity="0.7"/>
<line x1="647.7" y1="369.3" x2="657.2" y2="369.3" stroke="#4fc3f7" stroke-width="1.5" opacity="0.7"/>
<line x1="657.2" y1="375.6" x2="647.7" y2="375.6" stroke="#4fc3f7" stroke-width="1.5" opacity="0.7"/>
<line x1="883.0" y1="347.3" x2="886.6" y2="347.3" stroke="#4fc3f7" stroke-width="1.5" opacity="0.7"/>
<line x1="288.5" y1="411.8" x2="290.9" y2="411.8" stroke="#4fc3f7" stroke-width="1.5" opacity="0.7"/>
<line x1="232.8" y1="399.8" x2="232.8" y2="395.1" stroke="#4fc3f7" stroke-width="1.5" opacity="0.7"/>
<line x1="243.5" y1="399.8" x2="243.5" y2="395.1" stroke="#4fc3f7" stroke-width="1.5" opacity="0.7"/>
<line x1="232.8" y1="399.8" x2="243.5" y2="399.8" stroke="#4fc3f7" stroke-width="1.5" opacity="0.7"/>
<line x1="243.5" y1="395.1" x2="232.8" y2="395.1" stroke="#4fc3f7" stroke-width="1.5" opacity="0.7"/>
<line x1="231.6" y1="405.5" x2="244.7" y2="444.8" stroke="#4fc3f7" stroke-width="1.5" opacity="0.7"/>
<line x1="244.7" y1="405.5" x2="231.6" y2="444.8" stroke="#4fc3f7" stroke-width="1.5" opacity="0.7"/>
<line x1="260.1" y1="411.8" x2="259.5" y2="411.8" stroke="#4fc3f7" stroke-width="1.5" opacity="0.7"/>
<line x1="250.0" y1="411.8" x2="249.4" y2="411.8" stroke="#4fc3f7" stroke-width="1.5" opacity="0.7"/>
<line x1="260.1" y1="415.6" x2="259.5" y2="415.6" stroke="#4fc3f7" stroke-width="1.5" opacity="0.7"/>
<line x1="250.0" y1="415.6" x2="249.4" y2="415.6" stroke="#4fc3f7" stroke-width="1.5" opacity="0.7"/>
<line x1="259.5" y1="415.6" x2="259.5" y2="411.8" stroke="#4fc3f7" stroke-width="1.5" opacity="0.7"/>
<line x1="250.0" y1="415.6" x2="250.0" y2="411.8" stroke="#4fc3f7" stroke-width="1.5" opacity="0.7"/>
<line x1="661.9" y1="429.1" x2="661.9" y2="425.3" stroke="#4fc3f7" stroke-width="1.5" opacity="0.7"/>
<line x1="579.0" y1="399.8" x2="579.0" y2="395.1" stroke="#4fc3f7" stroke-width="1.5" opacity="0.7"/>
<line x1="589.6" y1="399.8" x2="589.6" y2="395.1" stroke="#4fc3f7" stroke-width="1.5" opacity="0.7"/>
<line x1="579.0" y1="399.8" x2="589.6" y2="399.8" stroke="#4fc3f7" stroke-width="1.5" opacity="0.7"/>
<line x1="589.6" y1="395.1" x2="579.0" y2="395.1" stroke="#4fc3f7" stroke-width="1.5" opacity="0.7"/>
<line x1="577.8" y1="405.5" x2="590.8" y2="444.8" stroke="#4fc3f7" stroke-width="1.5" opacity="0.7"/>
<line x1="590.8" y1="405.5" x2="577.8" y2="444.8" stroke="#4fc3f7" stroke-width="1.5" opacity="0.7"/>
<line x1="947.0" y1="399.8" x2="947.0" y2="395.1" stroke="#4fc3f7" stroke-width="1.5" opacity="0.7"/>
<line x1="957.7" y1="399.8" x2="957.7" y2="395.1" stroke="#4fc3f7" stroke-width="1.5" opacity="0.7"/>
<line x1="947.0" y1="399.8" x2="957.7" y2="399.8" stroke="#4fc3f7" stroke-width="1.5" opacity="0.7"/>
<line x1="957.7" y1="395.1" x2="947.0" y2="395.1" stroke="#4fc3f7" stroke-width="1.5" opacity="0.7"/>
<line x1="945.9" y1="405.5" x2="958.9" y2="444.8" stroke="#4fc3f7" stroke-width="1.5" opacity="0.7"/>
<line x1="958.9" y1="405.5" x2="945.9" y2="444.8" stroke="#4fc3f7" stroke-width="1.5" opacity="0.7"/>
</svg>