0
SECTION
2
HEADER
9
$ACADVER
1
AC1018
0
ENDSEC
0
SECTION
2
TABLES
0
TABLE
2
LAYER
70
5
0
LAYER
2
A-WALL
70
0
62
7
0
LAYER
2
A-WALL-H
70
0
62
8
0
LAYER
2
A-DOOR
70
0
62
4
0
LAYER
2
A-TEXT
70
0
62
3
0
LAYER
2
A-DIMS
70
0
62
2
0
ENDTAB
0
ENDSEC
0
SECTION
2
ENTITIES
0
LINE
8
A-WALL
10
186326.647
20
-319542.370
11
187226.647
21
-319542.370
0
LINE
8
A-WALL
10
186626.647
20
-316277.370
11
187826.647
21
-316277.370
0
LINE
8
A-WALL
10
182126.647
20
-316477.370
11
182326.647
21
-316477.370
0
LINE
8
A-WALL
10
186626.647
20
-316477.370
11
187726.647
21
-316477.370
0
LINE
8
A-WALL
10
182126.647
20
-312977.370
11
188026.647
21
-312977.370
0
LINE
8
A-WALL
10
182326.647
20
-313177.370
11
187826.647
21
-313177.370
0
LINE
8
A-WALL
10
183526.647
20
-323242.370
11
186026.647
21
-323242.370
0
LINE
8
A-WALL
10
186826.647
20
-323242.370
11
187226.647
21
-323242.370
0
LINE
8
A-WALL
10
183526.647
20
-323442.370
11
186026.647
21
-323442.370
0
LINE
8
A-WALL
10
186826.647
20
-323442.370
11
187426.647
21
-323442.370
0
LINE
8
A-WALL
10
169826.647
20
-324742.370
11
170926.647
21
-324742.370
0
LINE
8
A-WALL
10
173726.647
20
-324742.370
11
174826.647
21
-324742.370
0
LINE
8
A-WALL
10
179026.647
20
-325042.370
11
179726.647
21
-325042.370
0
LINE
8
A-WALL
10
180526.647
20
-325042.370
11
181976.647
21
-325042.370
0
LINE
8
A-WALL
10
182776.647
20
-325042.370
11
183226.647
21
-325042.370
0
LINE
8
A-WALL
10
169526.647
20
-324942.370
11
170926.647
21
-324942.370
0
LINE
8
A-WALL
10
173726.647
20
-324942.370
11
175126.647
21
-324942.370
0
LINE
8
A-WALL
10
178826.647
20
-325242.370
11
179726.647
21
-325242.370
0
LINE
8
A-WALL
10
180526.647
20
-325242.370
11
181976.647
21
-325242.370
0
LINE
8
A-WALL
10
182776.647
20
-325242.370
11
183526.647
21
-325242.370
0
LINE
8
A-WALL
10
170326.647
20
-315942.370
11
170926.647
21
-315942.370
0
LINE
8
A-WALL
10
170126.647
20
-315742.370
11
170726.647
21
-315742.370
0
LINE
8
A-WALL
10
170726.647
20
-315142.370
11
174926.647
21
-315142.370
0
LINE
8
A-WALL
10
170926.647
20
-315342.370
11
174926.647
21
-315342.370
0
LINE
8
A-WALL
10
174926.647
20
-314842.370
11
175226.647
21
-314842.370
0
LINE
8
A-WALL
10
176026.647
20
-314842.370
11
177026.647
21
-314842.370
0
LINE
8
A-WALL
10
177826.647
20
-314842.370
11
178926.647
21
-314842.370
0
LINE
8
A-WALL
10
175126.647
20
-315042.370
11
175226.647
21
-315042.370
0
LINE
8
A-WALL
10
176026.647
20
-315042.370
11
177026.647
21
-315042.370
0
LINE
8
A-WALL
10
177826.647
20
-315042.370
11
178926.647
21
-315042.370
0
LINE
8
A-WALL
10
167526.647
20
-324942.370
11
167526.647
21
-324142.370
0
LINE
8
A-WALL
10
167526.647
20
-319542.370
11
167526.647
21
-318742.370
0
LINE
8
A-WALL
10
167726.647
20
-324742.370
11
167726.647
21
-324142.370
0
LINE
8
A-WALL
10
167726.647
20
-319542.370
11
167726.647
21
-318942.370
0
LINE
8
A-WALL
10
170326.647
20
-318692.370
11
170326.647
21
-318092.370
0
LINE
8
A-WALL
10
170326.647
20
-316592.370
11
170326.647
21
-316042.370
0
LINE
8
A-WALL
10
170126.647
20
-318692.370
11
170126.647
21
-318092.370
0
LINE
8
A-WALL
10
170126.647
20
-316592.370
11
170126.647
21
-316042.370
0
LINE
8
A-WALL
10
170926.647
20
-315942.370
11
170926.647
21
-315342.370
0
LINE
8
A-WALL
10
170726.647
20
-315742.370
11
170726.647
21
-315142.370
0
LINE
8
A-WALL
10
175126.647
20
-318742.370
11
175126.647
21
-318642.370
0
LINE
8
A-WALL
10
175126.647
20
-316042.370
11
175126.647
21
-315042.370
0
LINE
8
A-WALL
10
175376.647
20
-315492.370
11
175376.647
21
-315042.370
0
LINE
8
A-WALL
10
175276.647
20
-315392.370
11
175276.647
21
-315042.370
0
LINE
8
A-WALL
10
174926.647
20
-318942.370
11
174926.647
21
-318642.370
0
LINE
8
A-WALL
10
174926.647
20
-316042.370
11
174926.647
21
-315342.370
0
LINE
8
A-WALL
10
174926.647
20
-315142.370
11
174926.647
21
-314842.370
0
LINE
8
A-WALL
10
175126.647
20
-324942.370
11
175126.647
21
-324642.370
0
LINE
8
A-WALL
10
174826.647
20
-324642.370
11
174826.647
21
-324442.370
0
LINE
8
A-WALL
10
179026.647
20
-325042.370
11
179026.647
21
-320842.370
0
LINE
8
A-WALL
10
180726.647
20
-325042.370
11
180726.647
21
-323642.370
0
LINE
8
A-WALL
10
180726.647
20
-322842.370
11
180726.647
21
-322742.370
0
LINE
8
A-WALL
10
180846.647
20
-325042.370
11
180846.647
21
-323642.370
0
LINE
8
A-WALL
10
180846.647
20
-322842.370
11
180846.647
21
-322742.370
0
LINE
8
A-WALL
10
178826.647
20
-324942.370
11
178826.647
21
-320842.370
0
LINE
8
A-WALL
10
182126.647
20
-316477.370
11
182126.647
21
-312977.370
0
LINE
8
A-WALL
10
182326.647
20
-316477.370
11
182326.647
21
-313177.370
0
LINE
8
A-WALL
10
188026.647
20
-313477.370
11
188026.647
21
-312977.370
0
LINE
8
A-WALL
10
187826.647
20
-316177.370
11
187826.647
21
-315977.370
0
LINE
8
A-WALL
10
187826.647
20
-313477.370
11
187826.647
21
-313177.370
0
LINE
8
A-WALL
10
170126.647
20
-318092.370
11
170326.647
21
-318092.370
0
LINE
8
A-WALL
10
170126.647
20
-316592.370
11
170326.647
21
-316592.370
0
LINE
8
A-WALL
10
169726.647
20
-318942.370
11
170326.647
21
-318942.370
0
LINE
8
A-WALL
10
169526.647
20
-318742.370
11
170126.647
21
-318742.370
0
LINE
8
A-WALL
10
170926.647
20
-324942.370
11
170926.647
21
-324742.370
0
LINE
8
A-WALL
10
173726.647
20
-324942.370
11
173726.647
21
-324742.370
0
LINE
8
A-WALL
10
170926.647
20
-324742.370
11
173726.647
21
-324742.370
0
LINE
8
A-WALL
10
170926.647
20
-324812.370
11
173726.647
21
-324812.370
0
LINE
8
A-WALL
10
170926.647
20
-324942.370
11
173726.647
21
-324942.370
0
LINE
8
A-WALL
10
170926.647
20
-324872.370
11
173726.647
21
-324872.370
0
LINE
8
A-WALL
10
174926.647
20
-324442.370
11
175126.647
21
-324442.370
0
LINE
8
A-WALL
10
179726.647
20
-325242.370
11
179726.647
21
-325042.370
0
LINE
8
A-WALL
10
180526.647
20
-325242.370
11
180526.647
21
-325042.370
0
LINE
8
A-WALL
10
179726.647
20
-325042.370
11
180526.647
21
-325042.370
0
LINE
8
A-WALL
10
179726.647
20
-325112.370
11
180526.647
21
-325112.370
0
LINE
8
A-WALL
10
180526.647
20
-325242.370
11
179726.647
21
-325242.370
0
LINE
8
A-WALL
10
180526.647
20
-325172.370
11
179726.647
21
-325172.370
0
LINE
8
A-WALL
10
181426.647
20
-322742.370
11
181426.647
21
-321042.370
0
LINE
8
A-WALL
10
181226.647
20
-322742.370
11
181226.647
21
-320842.370
0
LINE
8
A-WALL
10
181976.647
20
-325242.370
11
181976.647
21
-325042.370
0
LINE
8
A-WALL
10
182776.647
20
-325242.370
11
182776.647
21
-325042.370
0
LINE
8
A-WALL
10
183526.647
20
-325242.370
11
183526.647
21
-324642.370
0
LINE
8
A-WALL
10
183526.647
20
-323842.370
11
183526.647
21
-323442.370
0
LINE
8
A-WALL
10
183526.647
20
-323242.370
11
183526.647
21
-322742.370
0
LINE
8
A-WALL
10
183526.647
20
-321142.370
11
183526.647
21
-320842.370
0
LINE
8
A-WALL
10
183326.647
20
-325042.370
11
183326.647
21
-324642.370
0
LINE
8
A-WALL
10
183176.647
20
-325042.370
11
183176.647
21
-324592.370
0
LINE
8
A-WALL
10
183076.647
20
-325042.370
11
183076.647
21
-324492.370
0
LINE
8
A-WALL
10
183326.647
20
-323842.370
11
183326.647
21
-323242.370
0
LINE
8
A-WALL
10
181976.647
20
-325042.370
11
182776.647
21
-325042.370
0
LINE
8
A-WALL
10
181976.647
20
-325112.370
11
182776.647
21
-325112.370
0
LINE
8
A-WALL
10
182776.647
20
-325242.370
11
181976.647
21
-325242.370
0
LINE
8
A-WALL
10
182776.647
20
-325172.370
11
181976.647
21
-325172.370
0
LINE
8
A-WALL
10
187426.647
20
-323442.370
11
187426.647
21
-322842.370
0
LINE
8
A-WALL
10
187426.647
20
-320042.370
11
187426.647
21
-319342.370
0
LINE
8
A-WALL
10
187226.647
20
-323242.370
11
187226.647
21
-322842.370
0
LINE
8
A-WALL
10
187226.647
20
-320042.370
11
187226.647
21
-319542.370
0
LINE
8
A-WALL
10
186826.647
20
-323442.370
11
186826.647
21
-323242.370
0
LINE
8
A-WALL
10
186026.647
20
-323442.370
11
186026.647
21
-323242.370
0
LINE
8
A-WALL
10
186026.647
20
-323242.370
11
186826.647
21
-323242.370
0
LINE
8
A-WALL
10
186026.647
20
-323312.370
11
186826.647
21
-323312.370
0
LINE
8
A-WALL
10
186826.647
20
-323442.370
11
186026.647
21
-323442.370
0
LINE
8
A-WALL
10
186826.647
20
-323372.370
11
186026.647
21
-323372.370
0
LINE
8
A-WALL
10
187226.647
20
-322842.370
11
187426.647
21
-322842.370
0
LINE
8
A-WALL
10
187226.647
20
-320042.370
11
187426.647
21
-320042.370
0
LINE
8
A-WALL
10
187426.647
20
-320042.370
11
187426.647
21
-322842.370
0
LINE
8
A-WALL
10
187356.647
20
-320042.370
11
187356.647
21
-322842.370
0
LINE
8
A-WALL
10
187226.647
20
-322842.370
11
187226.647
21
-320042.370
0
LINE
8
A-WALL
10
187296.647
20
-322842.370
11
187296.647
21
-320042.370
0
LINE
8
A-WALL
10
187826.647
20
-315977.370
11
188026.647
21
-315977.370
0
LINE
8
A-WALL
10
187826.647
20
-313477.370
11
188026.647
21
-313477.370
0
LINE
8
A-WALL
10
178926.647
20
-315042.370
11
178926.647
21
-315142.370
0
LINE
8
A-WALL
10
179026.647
20
-315042.370
11
179026.647
21
-315142.370
0
LINE
8
A-WALL
10
177826.647
20
-314842.370
11
177826.647
21
-315042.370
0
LINE
8
A-WALL
10
177026.647
20
-314842.370
11
177026.647
21
-315042.370
0
LINE
8
A-WALL
10
177026.647
20
-314842.370
11
177826.647
21
-314842.370
0
LINE
8
A-WALL
10
173926.647
20
-314042.370
11
178026.647
21
-314042.370
0
LINE
8
A-WALL
10
177026.647
20
-314912.370
11
177826.647
21
-314912.370
0
LINE
8
A-WALL
10
177826.647
20
-315042.370
11
177026.647
21
-315042.370
0
LINE
8
A-WALL
10
177826.647
20
-314972.370
11
177026.647
21
-314972.370
0
LINE
8
A-WALL
10
171976.647
20
-315142.370
11
171976.647
21
-314742.370
0
LINE
8
A-WALL
10
172176.647
20
-315142.370
11
172176.647
21
-314942.370
0
LINE
8
A-WALL
10
173076.647
20
-315142.370
11
173076.647
21
-314942.370
0
LINE
8
A-WALL
10
173276.647
20
-315142.370
11
173276.647
21
-314742.370
0
LINE
8
A-WALL
10
172176.647
20
-314942.370
11
173076.647
21
-314942.370
0
LINE
8
A-WALL
10
171976.647
20
-314742.370
11
173276.647
21
-314742.370
0
LINE
8
A-WALL
10
169526.647
20
-324942.370
11
167526.647
21
-324942.370
0
LINE
8
A-WALL
10
169526.647
20
-324742.370
11
167726.647
21
-324742.370
0
LINE
8
A-WALL
10
169526.647
20
-318742.370
11
168626.647
21
-318742.370
0
LINE
8
A-WALL
10
168026.647
20
-318742.370
11
167526.647
21
-318742.370
0
LINE
8
A-WALL
10
169526.647
20
-318942.370
11
168626.647
21
-318942.370
0
LINE
8
A-WALL
10
168026.647
20
-318942.370
11
167726.647
21
-318942.370
0
LINE
8
A-WALL
10
175126.647
20
-324642.370
11
178826.647
21
-324642.370
0
LINE
8
A-WALL
10
175126.647
20
-324572.370
11
178826.647
21
-324572.370
0
LINE
8
A-WALL
10
186926.647
20
-319542.370
11
186926.647
21
-319342.370
0
LINE
8
A-WALL
10
187226.647
20
-319842.370
11
187426.647
21
-319842.370
0
LINE
8
A-WALL
10
186926.647
20
-323242.370
11
186926.647
21
-323442.370
0
LINE
8
A-WALL
10
187226.647
20
-322942.370
11
187426.647
21
-322942.370
0
LINE
8
A-WALL
10
183526.647
20
-323842.370
11
183526.647
21
-324642.370
0
LINE
8
A-WALL
10
183326.647
20
-324642.370
11
183326.647
21
-323842.370
0
LINE
8
A-WALL
10
209885.347
20
-320742.370
11
210085.347
21
-320742.370
0
LINE
8
A-WALL
10
210085.347
20
-320842.370
11
212405.347
21
-320842.370
0
LINE
8
A-WALL
10
213405.347
20
-320842.370
11
214185.347
21
-320842.370
0
LINE
8
A-WALL
10
214185.347
20
-320842.370
11
214285.347
21
-320842.370
0
LINE
8
A-WALL
10
210085.347
20
-321042.370
11
212405.347
21
-321042.370
0
LINE
8
A-WALL
10
213405.347
20
-321042.370
11
214185.347
21
-321042.370
0
LINE
8
A-WALL
10
214185.347
20
-321042.370
11
214285.347
21
-321042.370
0
LINE
8
A-WALL
10
214385.347
20
-319342.370
11
214685.347
21
-319342.370
0
LINE
8
A-WALL
10
215785.347
20
-319342.370
11
217085.347
21
-319342.370
0
LINE
8
A-WALL
10
214685.347
20
-319292.370
11
214885.347
21
-319292.370
0
LINE
8
A-WALL
10
217885.347
20
-319342.370
11
218485.347
21
-319342.370
0
LINE
8
A-WALL
10
214585.347
20
-319542.370
11
214685.347
21
-319542.370
0
LINE
8
A-WALL
10
214685.347
20
-319542.370
11
214935.347
21
-319542.370
0
LINE
8
A-WALL
10
215785.347
20
-319542.370
11
217085.347
21
-319542.370
0
LINE
8
A-WALL
10
217885.347
20
-319542.370
11
218285.347
21
-319542.370
0
LINE
8
A-WALL
10
219985.347
20
-316477.370
11
218885.347
21
-316477.370
0
LINE
8
A-WALL
10
214585.347
20
-323242.370
11
217085.347
21
-323242.370
0
LINE
8
A-WALL
10
217885.347
20
-323242.370
11
218285.347
21
-323242.370
0
LINE
8
A-WALL
10
214585.347
20
-323442.370
11
217085.347
21
-323442.370
0
LINE
8
A-WALL
10
217885.347
20
-323442.370
11
218485.347
21
-323442.370
0
LINE
8
A-WALL
10
202485.347
20
-324742.370
11
202585.347
21
-324742.370
0
LINE
8
A-WALL
10
203385.347
20
-324742.370
11
204985.347
21
-324742.370
0
LINE
8
A-WALL
10
205785.347
20
-324742.370
11
205985.347
21
-324742.370
0
LINE
8
A-WALL
10
210085.347
20
-325042.370
11
210785.347
21
-325042.370
0
LINE
8
A-WALL
10
211585.347
20
-325042.370
11
212385.347
21
-325042.370
0
LINE
8
A-WALL
10
213835.347
20
-325042.370
11
214385.347
21
-325042.370
0
LINE
8
A-WALL
10
202485.347
20
-324942.370
11
202585.347
21
-324942.370
0
LINE
8
A-WALL
10
203385.347
20
-324942.370
11
204985.347
21
-324942.370
0
LINE
8
A-WALL
10
205785.347
20
-324942.370
11
206185.347
21
-324942.370
0
LINE
8
A-WALL
10
209885.347
20
-325242.370
11
210785.347
21
-325242.370
0
LINE
8
A-WALL
10
211585.347
20
-325242.370
11
212385.347
21
-325242.370
0
LINE
8
A-WALL
10
213835.347
20
-325242.370
11
214585.347
21
-325242.370
0
LINE
8
A-WALL
10
209785.347
20
-318942.370
11
210085.347
21
-318942.370
0
LINE
8
A-WALL
10
209785.347
20
-318742.370
11
209885.347
21
-318742.370
0
LINE
8
A-WALL
10
201385.347
20
-315942.370
11
204785.347
21
-315942.370
0
LINE
8
A-WALL
10
204185.347
20
-317042.370
11
204385.347
21
-317042.370
0
LINE
8
A-WALL
10
205285.347
20
-315942.370
11
205885.347
21
-315942.370
0
LINE
8
A-WALL
10
201185.347
20
-315742.370
11
204785.347
21
-315742.370
0
LINE
8
A-WALL
10
205285.347
20
-315742.370
11
205885.347
21
-315742.370
0
LINE
8
A-WALL
10
205985.347
20
-314842.370
11
206285.347
21
-314842.370
0
LINE
8
A-WALL
10
207035.347
20
-314842.370
11
208435.347
21
-314842.370
0
LINE
8
A-WALL
10
209185.347
20
-314842.370
11
209885.347
21
-314842.370
0
LINE
8
A-WALL
10
211385.347
20
-314842.370
11
212085.347
21
-314842.370
0
LINE
8
A-WALL
10
212885.347
20
-314842.370
11
214885.347
21
-314842.370
0
LINE
8
A-WALL
10
206185.347
20
-315042.370
11
206285.347
21
-315042.370
0
LINE
8
A-WALL
10
207035.347
20
-315042.370
11
208435.347
21
-315042.370
0
LINE
8
A-WALL
10
209185.347
20
-315042.370
11
209885.347
21
-315042.370
0
LINE
8
A-WALL
10
211385.347
20
-315042.370
11
212085.347
21
-315042.370
0
LINE
8
A-WALL
10
212885.347
20
-315042.370
11
214685.347
21
-315042.370
0
LINE
8
A-WALL
10
206185.347
20
-318642.370
11
206185.347
21
-318042.370
0
LINE
8
A-WALL
10
206185.347
20
-316542.370
11
206185.347
21
-316042.370
0
LINE
8
A-WALL
10
205985.347
20
-318642.370
11
205985.347
21
-318042.370
0
LINE
8
A-WALL
10
205985.347
20
-316542.370
11
205985.347
21
-316042.370
0
LINE
8
A-WALL
10
205985.347
20
-315742.370
11
205985.347
21
-314842.370
0
LINE
8
A-WALL
10
206185.347
20
-324942.370
11
206185.347
21
-324642.370
0
LINE
8
A-WALL
10
210085.347
20
-325042.370
11
210085.347
21
-320742.370
0
LINE
8
A-WALL
10
209885.347
20
-324942.370
11
209885.347
21
-320742.370
0
LINE
8
A-WALL
10
211385.347
20
-315042.370
11
211385.347
21
-314842.370
0
LINE
8
A-WALL
10
212085.347
20
-315042.370
11
212085.347
21
-314842.370
0
LINE
8
A-WALL
10
210585.347
20
-315042.370
11
210585.347
21
-314842.370
0
LINE
8
A-WALL
10
214885.347
20
-318392.370
11
214885.347
21
-318127.370
0
LINE
8
A-WALL
10
214885.347
20
-315377.370
11
214885.347
21
-314842.370
0
LINE
8
A-WALL
10
214685.347
20
-319542.370
11
214685.347
21
-319292.370
0
LINE
8
A-WALL
10
214685.347
20
-318392.370
11
214685.347
21
-318127.370
0
LINE
8
A-WALL
10
214685.347
20
-315377.370
11
214685.347
21
-315042.370
0
LINE
8
A-WALL
10
210785.347
20
-325242.370
11
210785.347
21
-325042.370
0
LINE
8
A-WALL
10
211585.347
20
-325242.370
11
211585.347
21
-325042.370
0
LINE
8
A-WALL
10
210785.347
20
-325042.370
11
211585.347
21
-325042.370
0
LINE
8
A-WALL
10
210785.347
20
-325112.370
11
211585.347
21
-325112.370
0
LINE
8
A-WALL
10
211585.347
20
-325242.370
11
210785.347
21
-325242.370
0
LINE
8
A-WALL
10
211585.347
20
-325172.370
11
210785.347
21
-325172.370
0
LINE
8
A-WALL
10
212385.347
20
-325242.370
11
212385.347
21
-325042.370
0
LINE
8
A-WALL
10
213835.347
20
-325242.370
11
213835.347
21
-325042.370
0
LINE
8
A-WALL
10
214585.347
20
-325242.370
11
214585.347
21
-324642.370
0
LINE
8
A-WALL
10
214585.347
20
-323842.370
11
214585.347
21
-323442.370
0
LINE
8
A-WALL
10
214585.347
20
-321142.370
11
214585.347
21
-320842.370
0
LINE
8
A-WALL
10
214385.347
20
-325042.370
11
214385.347
21
-324642.370
0
LINE
8
A-WALL
10
214385.347
20
-323842.370
11
214385.347
21
-323242.370
0
LINE
8
A-WALL
10
214385.347
20
-321142.370
11
214385.347
21
-321042.370
0
LINE
8
A-WALL
10
212385.347
20
-325042.370
11
213135.347
21
-325042.370
0
LINE
8
A-WALL
10
212385.347
20
-325112.370
11
213135.347
21
-325112.370
0
LINE
8
A-WALL
10
213135.347
20
-325242.370
11
212385.347
21
-325242.370
0
LINE
8
A-WALL
10
213135.347
20
-325172.370
11
212385.347
21
-325172.370
0
LINE
8
A-WALL
10
218485.347
20
-323442.370
11
218485.347
21
-322292.370
0
LINE
8
A-WALL
10
218485.347
20
-320492.370
11
218485.347
21
-319342.370
0
LINE
8
A-WALL
10
218285.347
20
-323242.370
11
218285.347
21
-322292.370
0
LINE
8
A-WALL
10
218285.347
20
-320492.370
11
218285.347
21
-319542.370
0
LINE
8
A-WALL
10
217885.347
20
-323442.370
11
217885.347
21
-323242.370
0
LINE
8
A-WALL
10
217085.347
20
-323442.370
11
217085.347
21
-323242.370
0
LINE
8
A-WALL
10
217085.347
20
-323242.370
11
217885.347
21
-323242.370
0
LINE
8
A-WALL
10
217085.347
20
-323312.370
11
217885.347
21
-323312.370
0
LINE
8
A-WALL
10
217885.347
20
-323442.370
11
217085.347
21
-323442.370
0
LINE
8
A-WALL
10
217885.347
20
-323372.370
11
217085.347
21
-323372.370
0
LINE
8
A-WALL
10
218285.347
20
-322292.370
11
218485.347
21
-322292.370
0
LINE
8
A-WALL
10
218285.347
20
-320492.370
11
218485.347
21
-320492.370
0
LINE
8
A-WALL
10
218285.347
20
-322292.370
11
218485.347
21
-322292.370
0
LINE
8
A-WALL
10
218485.347
20
-320492.370
11
218485.347
21
-322292.370
0
LINE
8
A-WALL
10
213405.347
20
-321042.370
11
213405.347
21
-320842.370
0
LINE
8
A-WALL
10
212405.347
20
-321042.370
11
212405.347
21
-320842.370
0
LINE
8
A-WALL
10
219085.347
20
-312977.370
11
219085.347
21
-315042.370
0
LINE
8
A-WALL
10
219015.347
20
-313047.370
11
219015.347
21
-314972.370
0
LINE
8
A-WALL
10
201385.347
20
-315942.370
11
201385.347
21
-316092.370
0
LINE
8
A-WALL
10
201385.347
20
-316792.370
11
201385.347
21
-316992.370
0
LINE
8
A-WALL
10
201385.347
20
-317692.370
11
201385.347
21
-317892.370
0
LINE
8
A-WALL
10
201385.347
20
-318592.370
11
201385.347
21
-318742.370
0
LINE
8
A-WALL
10
201185.347
20
-315742.370
11
201185.347
21
-316092.370
0
LINE
8
A-WALL
10
201185.347
20
-316792.370
11
201185.347
21
-316992.370
0
LINE
8
A-WALL
10
201185.347
20
-317692.370
11
201185.347
21
-317892.370
0
LINE
8
A-WALL
10
201185.347
20
-318592.370
11
201185.347
21
-318942.370
0
LINE
8
A-WALL
10
201185.347
20
-318592.370
11
201385.347
21
-318592.370
0
LINE
8
A-WALL
10
201185.347
20
-317892.370
11
201385.347
21
-317892.370
0
LINE
8
A-WALL
10
201185.347
20
-317692.370
11
201385.347
21
-317692.370
0
LINE
8
A-WALL
10
201185.347
20
-316992.370
11
201385.347
21
-316992.370
0
LINE
8
A-WALL
10
201185.347
20
-318592.370
11
201185.347
21
-317892.370
0
LINE
8
A-WALL
10
201255.347
20
-318592.370
11
201255.347
21
-317892.370
0
LINE
8
A-WALL
10
201385.347
20
-317892.370
11
201385.347
21
-318592.370
0
LINE
8
A-WALL
10
201315.347
20
-317892.370
11
201315.347
21
-318592.370
0
LINE
8
A-WALL
10
201185.347
20
-317692.370
11
201185.347
21
-316992.370
0
LINE
8
A-WALL
10
201385.347
20
-316992.370
11
201385.347
21
-317692.370
0
LINE
8
A-WALL
10
201185.347
20
-316792.370
11
201385.347
21
-316792.370
0
LINE
8
A-WALL
10
201185.347
20
-316092.370
11
201385.347
21
-316092.370
0
LINE
8
A-WALL
10
201185.347
20
-316792.370
11
201185.347
21
-316092.370
0
LINE
8
A-WALL
10
201255.347
20
-316792.370
11
201255.347
21
-316092.370
0
LINE
8
A-WALL
10
201385.347
20
-316092.370
11
201385.347
21
-316792.370
0
LINE
8
A-WALL
10
201315.347
20
-316092.370
11
201315.347
21
-316792.370
0
LINE
8
A-WALL
10
206185.347
20
-324642.370
11
206185.347
21
-320692.370
0
LINE
8
A-WALL
10
206185.347
20
-319692.370
11
206185.347
21
-319142.370
0
LINE
8
A-WALL
10
206185.347
20
-319142.370
11
206185.347
21
-318942.370
0
LINE
8
A-WALL
10
205985.347
20
-324642.370
11
205985.347
21
-320692.370
0
LINE
8
A-WALL
10
205985.347
20
-319692.370
11
205985.347
21
-319142.370
0
LINE
8
A-WALL
10
205985.347
20
-319142.370
11
205985.347
21
-318942.370
0
LINE
8
A-WALL
10
204785.347
20
-315942.370
11
204785.347
21
-315742.370
0
LINE
8
A-WALL
10
205285.347
20
-315942.370
11
205285.347
21
-315742.370
0
LINE
8
A-WALL
10
204785.347
20
-315742.370
11
205285.347
21
-315742.370
0
LINE
8
A-WALL
10
205285.347
20
-315942.370
11
204785.347
21
-315942.370
0
LINE
8
A-WALL
10
206185.347
20
-315042.370
11
206185.347
21
-315742.370
0
LINE
8
A-WALL
10
210185.347
20
-314842.370
11
210585.347
21
-314842.370
0
LINE
8
A-WALL
10
210585.347
20
-315042.370
11
210185.347
21
-315042.370
0
LINE
8
A-WALL
10
202585.347
20
-324942.370
11
202585.347
21
-324742.370
0
LINE
8
A-WALL
10
203385.347
20
-324942.370
11
203385.347
21
-324742.370
0
LINE
8
A-WALL
10
202585.347
20
-324742.370
11
203385.347
21
-324742.370
0
LINE
8
A-WALL
10
203385.347
20
-324942.370
11
202585.347
21
-324942.370
0
LINE
8
A-WALL
10
204985.347
20
-324942.370
11
204985.347
21
-324742.370
0
LINE
8
A-WALL
10
205785.347
20
-324942.370
11
205785.347
21
-324742.370
0
LINE
8
A-WALL
10
204985.347
20
-324742.370
11
205785.347
21
-324742.370
0
LINE
8
A-WALL
10
205785.347
20
-324942.370
11
204985.347
21
-324942.370
0
LINE
8
A-WALL
10
210585.347
20
-314842.370
11
211385.347
21
-314842.370
0
LINE
8
A-WALL
10
211385.347
20
-315042.370
11
210585.347
21
-315042.370
0
LINE
8
A-WALL
10
212885.347
20
-315042.370
11
212885.347
21
-314842.370
0
LINE
8
A-WALL
10
212085.347
20
-314842.370
11
212885.347
21
-314842.370
0
LINE
8
A-WALL
10
212885.347
20
-315042.370
11
212085.347
21
-315042.370
0
LINE
8
A-WALL
10
217085.347
20
-319342.370
11
217085.347
21
-319542.370
0
LINE
8
A-WALL
10
217885.347
20
-319542.370
11
217885.347
21
-319342.370
0
LINE
8
A-WALL
10
217985.347
20
-319542.370
11
217985.347
21
-319342.370
0
LINE
8
A-WALL
10
217085.347
20
-319542.370
11
217085.347
21
-319342.370
0
LINE
8
A-WALL
10
217085.347
20
-319342.370
11
217885.347
21
-319342.370
0
LINE
8
A-WALL
10
217085.347
20
-319412.370
11
217885.347
21
-319412.370
0
LINE
8
A-WALL
10
217885.347
20
-319542.370
11
217085.347
21
-319542.370
0
LINE
8
A-WALL
10
217885.347
20
-319472.370
11
217085.347
21
-319472.370
0
LINE
8
A-WALL
10
218985.347
20
-322692.370
11
218985.347
21
-320092.370
0
LINE
8
A-WALL
10
219085.347
20
-322792.370
11
219085.347
21
-319992.370
0
LINE
8
A-WALL
10
218485.347
20
-322692.370
11
218985.347
21
-322692.370
0
LINE
8
A-WALL
10
218485.347
20
-322792.370
11
219085.347
21
-322792.370
0
LINE
8
A-WALL
10
218485.347
20
-320092.370
11
218985.347
21
-320092.370
0
LINE
8
A-WALL
10
218485.347
20
-319992.370
11
219085.347
21
-319992.370
0
LINE
8
A-WALL
10
218285.347
20
-322292.370
11
218285.347
21
-320492.370
0
LINE
8
A-WALL
10
218285.347
20
-319842.370
11
218485.347
21
-319842.370
0
LINE
8
A-WALL
10
217985.347
20
-323242.370
11
217985.347
21
-323442.370
0
LINE
8
A-WALL
10
218285.347
20
-322942.370
11
218485.347
21
-322942.370
0
LINE
8
A-WALL
10
214685.347
20
-318127.370
11
214885.347
21
-318127.370
0
LINE
8
A-WALL
10
214755.347
20
-318127.370
11
214755.347
21
-316477.370
0
LINE
8
A-WALL
10
214885.347
20
-318127.370
11
214885.347
21
-316477.370
0
LINE
8
A-WALL
10
214815.347
20
-318127.370
11
214815.347
21
-316477.370
0
LINE
8
A-WALL
10
220185.347
20
-316277.370
11
219085.347
21
-316277.370
0
LINE
8
A-WALL
10
218885.347
20
-314842.370
11
218885.347
21
-313177.370
0
LINE
8
A-WALL
10
218955.347
20
-314912.370
11
218955.347
21
-313107.370
0
LINE
8
A-WALL
10
218885.347
20
-313177.370
11
213385.347
21
-313177.370
0
LINE
8
A-WALL
10
218955.347
20
-313107.370
11
213315.347
21
-313107.370
0
LINE
8
A-WALL
10
219085.347
20
-312977.370
11
213185.347
21
-312977.370
0
LINE
8
A-WALL
10
219015.347
20
-313047.370
11
213255.347
21
-313047.370
0
LINE
8
A-WALL
10
213385.347
20
-314842.370
11
213385.347
21
-313177.370
0
LINE
8
A-WALL
10
213315.347
20
-313942.370
11
213315.347
21
-313107.370
0
LINE
8
A-WALL
10
213185.347
20
-314842.370
11
213185.347
21
-312977.370
0
LINE
8
A-WALL
10
213255.347
20
-313942.370
11
213255.347
21
-313047.370
0
LINE
8
A-WALL
10
214385.347
20
-324642.370
11
214585.347
21
-324642.370
0
LINE
8
A-WALL
10
214385.347
20
-323842.370
11
214585.347
21
-323842.370
0
LINE
8
A-WALL
10
214585.347
20
-323842.370
11
214585.347
21
-324642.370
0
LINE
8
A-WALL
10
214515.347
20
-323842.370
11
214515.347
21
-324642.370
0
LINE
8
A-WALL
10
214385.347
20
-324642.370
11
214385.347
21
-323842.370
0
LINE
8
A-WALL
10
214455.347
20
-324642.370
11
214455.347
21
-323842.370
0
LINE
8
A-WALL
10
179026.647
20
-312977.370
11
179026.647
21
-313177.370
0
LINE
8
A-WALL
10
179026.647
20
-313177.370
11
182126.647
21
-313177.370
0
LINE
8
A-WALL
10
179026.647
20
-312977.370
11
182126.647
21
-312977.370
0
LINE
8
A-WALL
10
175126.647
20
-324442.370
11
178826.647
21
-324442.370
0
LINE
8
A-WALL
10
175126.647
20
-324512.370
11
178826.647
21
-324512.370
0
LINE
8
A-WALL
10
183226.647
20
-320842.370
11
183126.647
21
-320842.370
0
LINE
8
A-WALL
10
182326.647
20
-320842.370
11
181226.647
21
-320842.370
0
LINE
8
A-WALL
10
181226.647
20
-320842.370
11
180026.647
21
-320842.370
0
LINE
8
A-WALL
10
179126.647
20
-320842.370
11
179026.647
21
-320842.370
0
LINE
8
A-WALL
10
179026.647
20
-320842.370
11
178826.647
21
-320842.370
0
LINE
8
A-WALL
10
183226.647
20
-321042.370
11
183126.647
21
-321042.370
0
LINE
8
A-WALL
10
182326.647
20
-321042.370
11
181426.647
21
-321042.370
0
LINE
8
A-WALL
10
181226.647
20
-320962.370
11
180026.647
21
-320962.370
0
LINE
8
A-WALL
10
179126.647
20
-320962.370
11
179026.647
21
-320962.370
0
LINE
8
A-WALL
10
182026.647
20
-319542.370
11
182026.647
21
-319692.370
0
LINE
8
A-WALL
10
182026.647
20
-320692.370
11
182026.647
21
-320842.370
0
LINE
8
A-WALL
10
182226.647
20
-319542.370
11
182226.647
21
-319692.370
0
LINE
8
A-WALL
10
182226.647
20
-320692.370
11
182226.647
21
-320842.370
0
LINE
8
A-WALL
10
182326.647
20
-319542.370
11
186326.647
21
-319542.370
0
LINE
8
A-WALL
10
182326.647
20
-319342.370
11
186326.647
21
-319342.370
0
LINE
8
A-WALL
10
186526.647
20
-319342.370
11
186926.647
21
-319342.370
0
LINE
8
A-WALL
10
178926.647
20
-315142.370
11
178926.647
21
-315642.370
0
LINE
8
A-WALL
10
179226.647
20
-313892.370
11
179226.647
21
-313177.370
0
LINE
8
A-WALL
10
179156.647
20
-313892.370
11
179156.647
21
-313177.370
0
LINE
8
A-WALL
10
179026.647
20
-313892.370
11
179026.647
21
-313177.370
0
LINE
8
A-WALL
10
178026.647
20
-314042.370
11
178026.647
21
-313177.370
0
LINE
8
A-WALL
10
179096.647
20
-313892.370
11
179096.647
21
-313177.370
0
LINE
8
A-WALL
10
178926.647
20
-315642.370
11
179026.647
21
-315642.370
0
LINE
8
A-WALL
10
179026.647
20
-315642.370
11
180626.647
21
-315642.370
0
LINE
8
A-WALL
10
181576.647
20
-315522.370
11
182126.647
21
-315522.370
0
LINE
8
A-WALL
10
181576.647
20
-315642.370
11
182126.647
21
-315642.370
0
LINE
8
A-WALL
10
179026.647
20
-315522.370
11
180626.647
21
-315522.370
0
LINE
8
A-WALL
10
180626.647
20
-315642.370
11
180626.647
21
-315522.370
0
LINE
8
A-WALL
10
183326.647
20
-323242.370
11
183326.647
21
-322742.370
0
LINE
8
A-WALL
10
181426.647
20
-322742.370
11
181226.647
21
-322742.370
0
LINE
8
A-WALL
10
181226.647
20
-322742.370
11
179026.647
21
-322742.370
0
LINE
8
A-WALL
10
180846.647
20
-322842.370
11
180726.647
21
-322842.370
0
LINE
8
A-WALL
10
180846.647
20
-323642.370
11
180726.647
21
-323642.370
0
LINE
8
A-WALL
10
181226.647
20
-322542.370
11
179026.647
21
-322542.370
0
LINE
8
A-WALL
10
179126.647
20
-320962.370
11
179126.647
21
-320842.370
0
LINE
8
A-WALL
10
180026.647
20
-320962.370
11
180026.647
21
-320842.370
0
LINE
8
A-WALL
10
179126.647
20
-324152.370
11
179026.647
21
-324152.370
0
LINE
8
A-WALL
10
179126.647
20
-324452.370
11
179026.647
21
-324452.370
0
LINE
8
A-WALL
10
179126.647
20
-324092.370
11
179026.647
21
-324092.370
0
LINE
8
A-WALL
10
217085.347
20
-315042.370
11
219085.347
21
-315042.370
0
LINE
8
A-WALL
10
217085.347
20
-314972.370
11
219015.347
21
-314972.370
0
LINE
8
A-WALL
10
217085.347
20
-314842.370
11
218885.347
21
-314842.370
0
LINE
8
A-WALL
10
217085.347
20
-314912.370
11
218955.347
21
-314912.370
0
LINE
8
A-WALL
10
213085.347
20
-319542.370
11
211185.347
21
-319542.370
0
LINE
8
A-WALL
10
210085.347
20
-319642.370
11
209885.347
21
-319642.370
0
LINE
8
A-WALL
10
210185.347
20
-319542.370
11
206185.347
21
-319542.370
0
LINE
8
A-WALL
10
213085.347
20
-319342.370
11
211185.347
21
-319342.370
0
LINE
8
A-WALL
10
210185.347
20
-319342.370
11
206185.347
21
-319342.370
0
LINE
8
A-WALL
10
211185.347
20
-319342.370
11
211185.347
21
-319542.370
0
LINE
8
A-WALL
10
214685.347
20
-318142.370
11
213185.347
21
-318142.370
0
LINE
8
A-WALL
10
214685.347
20
-318342.370
11
213385.347
21
-318342.370
0
LINE
8
A-WALL
10
214885.347
20
-318392.370
11
214685.347
21
-318392.370
0
LINE
8
A-WALL
10
214585.347
20
-320842.370
11
214585.347
21
-319542.370
0
LINE
8
A-WALL
10
214385.347
20
-320842.370
11
214385.347
21
-319342.370
0
LINE
8
A-WALL
10
206185.347
20
-319692.370
11
205985.347
21
-319692.370
0
LINE
8
A-WALL
10
206185.347
20
-320692.370
11
205985.347
21
-320692.370
0
LINE
8
A-WALL
10
213385.347
20
-319242.370
11
213385.347
21
-318342.370
0
LINE
8
A-WALL
10
213185.347
20
-319242.370
11
213185.347
21
-318142.370
0
LINE
8
A-WALL
10
209885.347
20
-316862.370
11
209185.347
21
-316862.370
0
LINE
8
A-WALL
10
208285.347
20
-316862.370
11
206185.347
21
-316862.370
0
LINE
8
A-WALL
10
209885.347
20
-316742.370
11
209185.347
21
-316742.370
0
LINE
8
A-WALL
10
208285.347
20
-316742.370
11
206185.347
21
-316742.370
0
LINE
8
A-WALL
10
214585.347
20
-322542.370
11
214385.347
21
-322542.370
0
LINE
8
A-WALL
10
214385.347
20
-322542.370
11
213305.347
21
-322542.370
0
LINE
8
A-WALL
10
212405.347
20
-322542.370
11
211585.347
21
-322542.370
0
LINE
8
A-WALL
10
214385.347
20
-322662.370
11
213305.347
21
-322662.370
0
LINE
8
A-WALL
10
212405.347
20
-322662.370
11
211705.347
21
-322662.370
0
LINE
8
A-WALL
10
214385.347
20
-323242.370
11
214385.347
21
-322542.370
0
LINE
8
A-WALL
10
214585.347
20
-323242.370
11
214585.347
21
-322542.370
0
LINE
8
A-WALL
10
211705.347
20
-325042.370
11
211705.347
21
-322662.370
0
LINE
8
A-WALL
10
212205.347
20
-321542.370
11
212205.347
21
-321042.370
0
LINE
8
A-WALL
10
211585.347
20
-325042.370
11
211585.347
21
-322542.370
0
LINE
8
A-WALL
10
212085.347
20
-321542.370
11
212085.347
21
-321042.370
0
LINE
8
A-WALL
10
212205.347
20
-321542.370
11
212085.347
21
-321542.370
0
LINE
8
A-WALL
10
212205.347
20
-322442.370
11
212085.347
21
-322442.370
0
LINE
8
A-WALL
10
140619.330
20
-324742.370
11
141919.330
21
-324742.370
0
LINE
8
A-WALL
10
144319.330
20
-324742.370
11
145619.330
21
-324742.370
0
LINE
8
A-WALL
10
140619.330
20
-324942.370
11
141919.330
21
-324942.370
0
LINE
8
A-WALL
10
144319.330
20
-324942.370
11
145619.330
21
-324942.370
0
LINE
8
A-WALL
10
137519.330
20
-325742.370
11
145919.330
21
-325742.370
0
LINE
8
A-WALL
10
149919.330
20
-325242.370
11
152219.330
21
-325242.370
0
LINE
8
A-WALL
10
149869.330
20
-314842.370
11
153019.330
21
-314842.370
0
LINE
8
A-WALL
10
145819.330
20
-315042.370
11
145969.330
21
-315042.370
0
LINE
8
A-WALL
10
149869.330
20
-315042.370
11
152819.330
21
-315042.370
0
LINE
8
A-WALL
10
152819.330
20
-316477.370
11
157119.330
21
-316477.370
0
LINE
8
A-WALL
10
157119.330
20
-319542.370
11
158019.330
21
-319542.370
0
LINE
8
A-WALL
10
154119.330
20
-323242.370
11
158019.330
21
-323242.370
0
LINE
8
A-WALL
10
149919.330
20
-325042.370
11
154119.330
21
-325042.370
0
LINE
8
A-WALL
10
152219.330
20
-325242.370
11
154319.330
21
-325242.370
0
LINE
8
A-WALL
10
154319.330
20
-323442.370
11
158219.330
21
-323442.370
0
LINE
8
A-WALL
10
157319.330
20
-319342.370
11
158219.330
21
-319342.370
0
LINE
8
A-WALL
10
153019.330
20
-316277.370
11
157319.330
21
-316277.370
0
LINE
8
A-WALL
10
145619.330
20
-315142.370
11
145619.330
21
-314842.370
0
LINE
8
A-WALL
10
152819.330
20
-316477.370
11
152819.330
21
-315042.370
0
LINE
8
A-WALL
10
157119.330
20
-319542.370
11
157119.330
21
-316477.370
0
LINE
8
A-WALL
10
158019.330
20
-323242.370
11
158019.330
21
-319542.370
0
LINE
8
A-WALL
10
154119.330
20
-325042.370
11
154119.330
21
-323242.370
0
LINE
8
A-WALL
10
154319.330
20
-325242.370
11
154319.330
21
-323442.370
0
LINE
8
A-WALL
10
158219.330
20
-323442.370
11
158219.330
21
-319342.370
0
LINE
8
A-WALL
10
157319.330
20
-319342.370
11
157319.330
21
-316277.370
0
LINE
8
A-WALL
10
153019.330
20
-316277.370
11
153019.330
21
-314842.370
0
LINE
8
A-WALL
10
145919.330
20
-324942.370
11
145919.330
21
-324642.370
0
LINE
8
A-WALL
10
149819.330
20
-325042.370
11
149819.330
21
-322192.370
0
LINE
8
A-WALL
10
149619.330
20
-324942.370
11
149619.330
21
-324642.370
0
LINE
8
A-WALL
10
149619.330
20
-324442.370
11
149619.330
21
-322192.370
0
LINE
8
A-WALL
10
140519.330
20
-318942.370
11
141119.330
21
-318942.370
0
LINE
8
A-WALL
10
140319.330
20
-318742.370
11
140919.330
21
-318742.370
0
LINE
8
A-WALL
10
141919.330
20
-324942.370
11
141919.330
21
-324742.370
0
LINE
8
A-WALL
10
144319.330
20
-324942.370
11
144319.330
21
-324742.370
0
LINE
8
A-WALL
10
141919.330
20
-324742.370
11
144319.330
21
-324742.370
0
LINE
8
A-WALL
10
141919.330
20
-324812.370
11
144319.330
21
-324812.370
0
LINE
8
A-WALL
10
141919.330
20
-324942.370
11
144319.330
21
-324942.370
0
LINE
8
A-WALL
10
141919.330
20
-324872.370
11
144319.330
21
-324872.370
0
LINE
8
A-WALL
10
145719.330
20
-324442.370
11
149619.330
21
-324442.370
0
LINE
8
A-WALL
10
145919.330
20
-324642.370
11
149619.330
21
-324642.370
0
LINE
8
A-WALL
10
140319.330
20
-324942.370
11
139819.330
21
-324942.370
0
LINE
8
A-WALL
10
138919.330
20
-324942.370
11
138619.330
21
-324942.370
0
LINE
8
A-WALL
10
138519.330
20
-324292.370
11
138319.330
21
-324292.370
0
LINE
8
A-WALL
10
140319.330
20
-324742.370
11
139819.330
21
-324742.370
0
LINE
8
A-WALL
10
138919.330
20
-324742.370
11
138619.330
21
-324742.370
0
LINE
8
A-WALL
10
139819.330
20
-324942.370
11
139819.330
21
-324742.370
0
LINE
8
A-WALL
10
138919.330
20
-324742.370
11
138919.330
21
-324942.370
0
LINE
8
A-WALL
10
141119.330
20
-315742.370
11
141119.330
21
-315342.370
0
LINE
8
A-WALL
10
140919.330
20
-315742.370
11
140919.330
21
-315142.370
0
LINE
8
A-WALL
10
138519.330
20
-324292.370
11
138519.330
21
-324642.370
0
LINE
8
A-WALL
10
138319.330
20
-324642.370
11
138319.330
21
-324292.370
0
LINE
8
A-WALL
10
140319.330
20
-318892.370
11
139819.330
21
-318892.370
0
LINE
8
A-WALL
10
138919.330
20
-318892.370
11
138619.330
21
-318892.370
0
LINE
8
A-WALL
10
141219.330
20
-318692.370
11
139819.330
21
-318692.370
0
LINE
8
A-WALL
10
138919.330
20
-318692.370
11
138319.330
21
-318692.370
0
LINE
8
A-WALL
10
140119.330
20
-317892.370
11
137519.330
21
-317892.370
0
LINE
8
A-WALL
10
141119.330
20
-318092.370
11
140919.330
21
-318092.370
0
LINE
8
A-WALL
10
138319.330
20
-319292.370
11
138319.330
21
-319092.370
0
LINE
8
A-WALL
10
138519.330
20
-319292.370
11
138519.330
21
-319092.370
0
LINE
8
A-WALL
10
138519.330
20
-319292.370
11
138319.330
21
-319292.370
0
LINE
8
A-WALL
10
138319.330
20
-318792.370
11
138319.330
21
-318692.370
0
LINE
8
A-WALL
10
141119.330
20
-315342.370
11
145619.330
21
-315342.370
0
LINE
8
A-WALL
10
140919.330
20
-315142.370
11
145619.330
21
-315142.370
0
LINE
8
A-WALL
10
153969.330
20
-322192.370
11
154319.330
21
-322192.370
0
LINE
8
A-WALL
10
145619.330
20
-315692.370
11
145619.330
21
-315342.370
0
LINE
8
A-WALL
10
145719.330
20
-315692.370
11
145719.330
21
-315342.370
0
LINE
8
A-WALL
10
150969.330
20
-322312.370
11
150969.330
21
-322192.370
0
LINE
8
A-WALL
10
151869.330
20
-322312.370
11
151869.330
21
-322192.370
0
LINE
8
A-WALL
10
153069.330
20
-322192.370
11
151869.330
21
-322192.370
0
LINE
8
A-WALL
10
150969.330
20
-322192.370
11
149819.330
21
-322192.370
0
LINE
8
A-WALL
10
149819.330
20
-322192.370
11
149619.330
21
-322192.370
0
LINE
8
A-WALL
10
153069.330
20
-322312.370
11
152219.330
21
-322312.370
0
LINE
8
A-WALL
10
152019.330
20
-322312.370
11
151869.330
21
-322312.370
0
LINE
8
A-WALL
10
150969.330
20
-322312.370
11
149819.330
21
-322312.370
0
LINE
8
A-WALL
10
154319.330
20
-323242.370
11
154319.330
21
-322192.370
0
LINE
8
A-WALL
10
153069.330
20
-322192.370
11
153069.330
21
-322312.370
0
LINE
8
A-WALL
10
145619.330
20
-318942.370
11
144969.330
21
-318942.370
0
LINE
8
A-WALL
10
154119.330
20
-323242.370
11
154119.330
21
-322312.370
0
LINE
8
A-WALL
10
153969.330
20
-322312.370
11
153969.330
21
-322192.370
0
LINE
8
A-WALL
10
145719.330
20
-324442.370
11
145719.330
21
-324642.370
0
LINE
8
A-WALL
10
167526.647
20
-319542.370
11
167726.647
21
-319542.370
0
LINE
8
A-WALL
10
167526.647
20
-324142.370
11
167726.647
21
-324142.370
0
LINE
8
A-WALL
10
167726.647
20
-319542.370
11
167726.647
21
-324142.370
0
LINE
8
A-WALL
10
167656.647
20
-319542.370
11
167656.647
21
-324142.370
0
LINE
8
A-WALL
10
167526.647
20
-319542.370
11
167526.647
21
-324142.370
0
LINE
8
A-WALL
10
167596.647
20
-319542.370
11
167596.647
21
-324142.370
0
LINE
8
A-WALL
10
182726.647
20
-322622.370
11
183526.647
21
-322622.370
0
LINE
8
A-WALL
10
183326.647
20
-322742.370
11
183526.647
21
-322742.370
0
LINE
8
A-WALL
10
179126.647
20
-324942.370
11
179126.647
21
-324092.370
0
LINE
8
A-WALL
10
182226.647
20
-320692.370
11
182026.647
21
-320692.370
0
LINE
8
A-WALL
10
182226.647
20
-319692.370
11
182026.647
21
-319692.370
0
LINE
8
A-WALL
10
206185.347
20
-324642.370
11
209885.347
21
-324642.370
0
LINE
8
A-WALL
10
206185.347
20
-324572.370
11
209885.347
21
-324572.370
0
LINE
8
A-WALL
10
206185.347
20
-324442.370
11
209885.347
21
-324442.370
0
LINE
8
A-WALL
10
206185.347
20
-324512.370
11
209885.347
21
-324512.370
0
LINE
8
A-WALL
10
207035.347
20
-315042.370
11
207035.347
21
-314842.370
0
LINE
8
A-WALL
10
208435.347
20
-315042.370
11
208435.347
21
-314842.370
0
LINE
8
A-WALL
10
206285.347
20
-315042.370
11
206285.347
21
-314842.370
0
LINE
8
A-WALL
10
206285.347
20
-314842.370
11
207035.347
21
-314842.370
0
LINE
8
A-WALL
10
206285.347
20
-314912.370
11
207035.347
21
-314912.370
0
LINE
8
A-WALL
10
207035.347
20
-315042.370
11
206285.347
21
-315042.370
0
LINE
8
A-WALL
10
207035.347
20
-314972.370
11
206285.347
21
-314972.370
0
LINE
8
A-WALL
10
153969.330
20
-322312.370
11
154119.330
21
-322312.370
0
LINE
8
A-WALL
10
209185.347
20
-316742.370
11
209185.347
21
-316862.370
0
LINE
8
A-WALL
10
208285.347
20
-316742.370
11
208285.347
21
-316862.370
0
LINE
8
A-WALL
10
212205.347
20
-322442.370
11
212205.347
21
-322542.370
0
LINE
8
A-WALL
10
212085.347
20
-322442.370
11
212085.347
21
-322542.370
0
LINE
8
A-WALL
10
212405.347
20
-322662.370
11
212405.347
21
-322542.370
0
LINE
8
A-WALL
10
213305.347
20
-322662.370
11
213305.347
21
-322542.370
0
LINE
8
A-WALL
10
182726.647
20
-322742.370
11
183326.647
21
-322742.370
0
LINE
8
A-WALL
10
182726.647
20
-322622.370
11
182726.647
21
-322742.370
0
LINE
8
A-WALL
10
137519.330
20
-317892.370
11
137519.330
21
-325742.370
0
LINE
8
A-WALL
10
217085.347
20
-315042.370
11
217085.347
21
-314842.370
0
LINE
8
A-WALL
10
188026.647
20
-313477.370
11
188026.647
21
-315977.370
0
LINE
8
A-WALL
10
187826.647
20
-315977.370
11
187826.647
21
-313477.370
0
LINE
8
A-WALL
10
170126.647
20
-318092.370
11
170126.647
21
-316592.370
0
LINE
8
A-WALL
10
170196.647
20
-318092.370
11
170196.647
21
-316592.370
0
LINE
8
A-WALL
10
170326.647
20
-316592.370
11
170326.647
21
-318092.370
0
LINE
8
A-WALL
10
170256.647
20
-316592.370
11
170256.647
21
-318092.370
0
LINE
8
A-WALL
10
141119.330
20
-318092.370
11
141119.330
21
-318692.370
0
LINE
8
A-WALL
10
140919.330
20
-318092.370
11
140919.330
21
-318692.370
0
LINE
8
A-WALL
10
140919.330
20
-315142.370
11
140919.330
21
-312562.370
0
LINE
8
A-WALL
10
149469.330
20
-314842.370
11
145619.330
21
-314842.370
0
LINE
8
A-WALL
10
149469.330
20
-315042.370
11
145969.330
21
-315042.370
0
LINE
8
A-WALL
10
170726.647
20
-315142.370
11
170726.647
21
-312977.370
0
LINE
8
A-WALL
10
179026.647
20
-313177.370
11
170926.647
21
-313177.370
0
LINE
8
A-WALL
10
179026.647
20
-312977.370
11
170726.647
21
-312977.370
0
LINE
8
A-WALL
10
179226.647
20
-313892.370
11
179026.647
21
-313892.370
0
LINE
8
A-WALL
10
179026.647
20
-313892.370
11
179026.647
21
-314842.370
0
LINE
8
A-WALL
10
179226.647
20
-313892.370
11
179226.647
21
-314842.370
0
LINE
8
A-WALL
10
170926.647
20
-315142.370
11
170926.647
21
-313177.370
0
LINE
8
A-WALL
10
188026.647
20
-315977.370
11
188026.647
21
-316177.370
0
LINE
8
A-WALL
10
204785.347
20
-315812.370
11
205285.347
21
-315812.370
0
LINE
8
A-WALL
10
205285.347
20
-315872.370
11
204785.347
21
-315872.370
0
LINE
8
A-WALL
10
202385.347
20
-319542.370
11
202385.347
21
-318742.370
0
LINE
8
A-WALL
10
202585.347
20
-319542.370
11
202585.347
21
-319422.370
0
LINE
8
A-WALL
10
203485.347
20
-319542.370
11
203485.347
21
-319422.370
0
LINE
8
A-WALL
10
202185.347
20
-319542.370
11
202185.347
21
-318942.370
0
LINE
8
A-WALL
10
201485.347
20
-318742.370
11
202385.347
21
-318742.370
0
LINE
8
A-WALL
10
201485.347
20
-318942.370
11
202185.347
21
-318942.370
0
LINE
8
A-WALL
10
200785.347
20
-324142.370
11
200785.347
21
-319542.370
0
LINE
8
A-WALL
10
200715.347
20
-323242.370
11
200715.347
21
-319542.370
0
LINE
8
A-WALL
10
200585.347
20
-324142.370
11
200585.347
21
-319542.370
0
LINE
8
A-WALL
10
200655.347
20
-323242.370
11
200655.347
21
-319542.370
0
LINE
8
A-WALL
10
201185.347
20
-318742.370
11
200585.347
21
-318742.370
0
LINE
8
A-WALL
10
201185.347
20
-318942.370
11
200785.347
21
-318942.370
0
LINE
8
A-WALL
10
202185.347
20
-324942.370
11
200585.347
21
-324942.370
0
LINE
8
A-WALL
10
202185.347
20
-324742.370
11
200785.347
21
-324742.370
0
LINE
8
A-WALL
10
200785.347
20
-324142.370
11
200585.347
21
-324142.370
0
LINE
8
A-WALL
10
202385.347
20
-319422.370
11
202585.347
21
-319422.370
0
LINE
8
A-WALL
10
203485.347
20
-319422.370
11
204435.347
21
-319422.370
0
LINE
8
A-WALL
10
205335.347
20
-319422.370
11
205985.347
21
-319422.370
0
LINE
8
A-WALL
10
202385.347
20
-319542.370
11
202585.347
21
-319542.370
0
LINE
8
A-WALL
10
203485.347
20
-319542.370
11
204435.347
21
-319542.370
0
LINE
8
A-WALL
10
205335.347
20
-319542.370
11
205985.347
21
-319542.370
0
LINE
8
A-WALL
10
204385.347
20
-315942.370
11
204385.347
21
-317042.370
0
LINE
8
A-WALL
10
204385.347
20
-317042.370
11
204385.347
21
-317842.370
0
LINE
8
A-WALL
10
204185.347
20
-315942.370
11
204185.347
21
-317042.370
0
LINE
8
A-WALL
10
204185.347
20
-317042.370
11
204185.347
21
-317842.370
0
LINE
8
A-WALL
10
205335.347
20
-319542.370
11
205335.347
21
-319422.370
0
LINE
8
A-WALL
10
204435.347
20
-319542.370
11
204435.347
21
-319422.370
0
LINE
8
A-WALL
10
201485.347
20
-316042.370
11
202385.347
21
-316042.370
0
LINE
8
A-WALL
10
202385.347
20
-316042.370
11
202385.347
21
-315942.370
0
LINE
8
A-WALL
10
202285.347
20
-316042.370
11
202285.347
21
-315942.370
0
LINE
8
A-WALL
10
202385.347
20
-318742.370
11
202385.347
21
-318642.370
0
LINE
8
A-WALL
10
202235.347
20
-318742.370
11
202235.347
21
-318642.370
0
LINE
8
A-WALL
10
201485.347
20
-318642.370
11
202385.347
21
-318642.370
0
LINE
8
A-WALL
10
140919.330
20
-318092.370
11
140919.330
21
-316342.370
0
LINE
8
A-WALL
10
140119.330
20
-317892.370
11
140119.330
21
-315142.370
0
LINE
8
A-WALL
10
140989.330
20
-318092.370
11
140989.330
21
-316342.370
0
LINE
8
A-WALL
10
141119.330
20
-316342.370
11
141119.330
21
-318092.370
0
LINE
8
A-WALL
10
141049.330
20
-316342.370
11
141049.330
21
-318092.370
0
LINE
8
A-WALL
10
140919.330
20
-316042.370
11
140919.330
21
-316342.370
0
LINE
8
A-WALL
10
140919.330
20
-316342.370
11
141119.330
21
-316342.370
0
LINE
8
A-WALL
10
141119.330
20
-316342.370
11
141119.330
21
-316042.370
0
LINE
8
A-WALL
10
141769.330
20
-318692.370
11
141769.330
21
-318942.370
0
LINE
8
A-WALL
10
144969.330
20
-318692.370
11
144969.330
21
-318942.370
0
LINE
8
A-WALL
10
141769.330
20
-318692.370
11
141219.330
21
-318692.370
0
LINE
8
A-WALL
10
141769.330
20
-318942.370
11
141219.330
21
-318942.370
0
LINE
8
A-WALL
10
145619.330
20
-318692.370
11
144969.330
21
-318692.370
0
LINE
8
A-WALL
10
145619.330
20
-318592.370
11
145619.330
21
-316042.370
0
LINE
8
A-WALL
10
145819.330
20
-318592.370
11
145819.330
21
-316042.370
0
LINE
8
A-WALL
10
141219.330
20
-315742.370
11
141219.330
21
-315342.370
0
LINE
8
A-WALL
10
186926.647
20
-319342.370
11
187426.647
21
-319342.370
0
LINE
8
A-WALL
10
186326.647
20
-317002.370
11
186526.647
21
-317002.370
0
LINE
8
A-WALL
10
186526.647
20
-319342.370
11
186526.647
21
-318817.370
0
LINE
8
A-WALL
10
186526.647
20
-317002.370
11
186526.647
21
-316477.370
0
LINE
8
A-WALL
10
186326.647
20
-319542.370
11
186326.647
21
-318817.370
0
LINE
8
A-WALL
10
186326.647
20
-317002.370
11
186326.647
21
-316277.370
0
LINE
8
A-WALL
10
186326.647
20
-318817.370
11
186526.647
21
-318817.370
0
LINE
8
A-WALL
10
187426.647
20
-319542.370
11
187676.647
21
-319542.370
0
LINE
8
A-WALL
10
188676.647
20
-319542.370
11
189126.647
21
-319542.370
0
LINE
8
A-WALL
10
187426.647
20
-319342.370
11
187676.647
21
-319342.370
0
LINE
8
A-WALL
10
188676.647
20
-319342.370
11
188926.647
21
-319342.370
0
LINE
8
A-WALL
10
188026.647
20
-316277.370
11
188676.647
21
-316277.370
0
LINE
8
A-WALL
10
188026.647
20
-316347.370
11
188676.647
21
-316347.370
0
LINE
8
A-WALL
10
188676.647
20
-316277.370
11
189126.647
21
-316277.370
0
LINE
8
A-WALL
10
188026.647
20
-316477.370
11
188676.647
21
-316477.370
0
LINE
8
A-WALL
10
188026.647
20
-316407.370
11
188676.647
21
-316407.370
0
LINE
8
A-WALL
10
188676.647
20
-316477.370
11
188926.647
21
-316477.370
0
LINE
8
A-WALL
10
189126.647
20
-316277.370
11
189126.647
21
-316927.370
0
LINE
8
A-WALL
10
189126.647
20
-318892.370
11
189126.647
21
-319542.370
0
LINE
8
A-WALL
10
188926.647
20
-316477.370
11
188926.647
21
-316927.370
0
LINE
8
A-WALL
10
188926.647
20
-318892.370
11
188926.647
21
-319342.370
0
LINE
8
A-WALL
10
187676.647
20
-319542.370
11
187676.647
21
-319342.370
0
LINE
8
A-WALL
10
188926.647
20
-316927.370
11
189126.647
21
-316927.370
0
LINE
8
A-WALL
10
188926.647
20
-318892.370
11
189126.647
21
-318892.370
0
LINE
8
A-WALL
10
188996.647
20
-318892.370
11
188996.647
21
-316927.370
0
LINE
8
A-WALL
10
189126.647
20
-318892.370
11
189126.647
21
-316927.370
0
LINE
8
A-WALL
10
189056.647
20
-318892.370
11
189056.647
21
-316927.370
0
LINE
8
A-WALL
10
188676.647
20
-316477.370
11
188676.647
21
-316277.370
0
LINE
8
A-WALL
10
188676.647
20
-319342.370
11
188676.647
21
-319542.370
0
LINE
8
A-WALL
10
210085.347
20
-314842.370
11
210085.347
21
-312977.370
0
LINE
8
A-WALL
10
210285.347
20
-314842.370
11
210285.347
21
-313177.370
0
LINE
8
A-WALL
10
213185.347
20
-312977.370
11
210085.347
21
-312977.370
0
LINE
8
A-WALL
10
213185.347
20
-313177.370
11
210285.347
21
-313177.370
0
LINE
8
A-WALL
10
213185.347
20
-313942.370
11
213385.347
21
-313942.370
0
LINE
8
A-WALL
10
198785.347
20
-318942.370
11
198785.347
21
-324742.370
0
LINE
8
A-WALL
10
198585.347
20
-318742.370
11
198585.347
21
-324942.370
0
LINE
8
A-WALL
10
200585.347
20
-318742.370
11
198585.347
21
-318742.370
0
LINE
8
A-WALL
10
200585.347
20
-318942.370
11
198785.347
21
-318942.370
0
LINE
8
A-WALL
10
200585.347
20
-324942.370
11
198585.347
21
-324942.370
0
LINE
8
A-WALL
10
200585.347
20
-324742.370
11
198785.347
21
-324742.370
0
LINE
8
A-WALL
10
200585.347
20
-319542.370
11
200585.347
21
-318742.370
0
LINE
8
A-WALL
10
200585.347
20
-324142.370
11
200585.347
21
-324942.370
0
LINE
8
A-WALL
10
186326.647
20
-316277.370
11
183826.647
21
-316277.370
0
LINE
8
A-WALL
10
186326.647
20
-316477.370
11
183826.647
21
-316477.370
0
LINE
8
A-WALL
10
183326.647
20
-316277.370
11
183326.647
21
-316477.370
0
LINE
8
A-WALL
10
183576.647
20
-316477.370
11
183326.647
21
-316477.370
0
LINE
8
A-WALL
10
183326.647
20
-316277.370
11
183576.647
21
-316277.370
0
LINE
8
A-WALL
10
188926.647
20
-318892.370
11
188926.647
21
-316927.370
0
LINE
8
A-WALL
10
200785.347
20
-319542.370
11
200585.347
21
-319542.370
0
LINE
8
A-WALL
10
200785.347
20
-320342.370
11
200585.347
21
-320342.370
0
LINE
8
A-WALL
10
200785.347
20
-319542.370
11
200785.347
21
-318942.370
0
LINE
8
A-WALL
10
200785.347
20
-324142.370
11
200785.347
21
-324742.370
0
LINE
8
A-WALL
10
179126.647
20
-324452.370
11
179026.647
21
-324152.370
0
LINE
8
A-WALL
10
179026.647
20
-324452.370
11
179126.647
21
-324152.370
0
LINE
8
A-WALL
10
201985.347
20
-316042.370
11
201985.347
21
-315942.370
0
LINE
8
A-WALL
10
201985.347
20
-315942.370
11
202285.347
21
-316042.370
0
LINE
8
A-WALL
10
202285.347
20
-315942.370
11
201985.347
21
-316042.370
0
LINE
8
A-WALL
10
201485.347
20
-318642.370
11
202235.347
21
-318742.370
0
LINE
8
A-WALL
10
200785.347
20
-323242.370
11
200585.347
21
-323242.370
0
LINE
8
A-WALL
10
174926.647
20
-324442.370
11
174926.647
21
-324642.370
0
LINE
8
A-WALL
10
174926.647
20
-324442.370
11
174826.647
21
-324442.370
0
LINE
8
A-WALL
10
214935.347
20
-319542.370
11
214935.347
21
-319342.370
0
LINE
8
A-WALL
10
215785.347
20
-319542.370
11
215785.347
21
-319342.370
0
LINE
8
A-WALL
10
214935.347
20
-319342.370
11
215785.347
21
-319342.370
0
LINE
8
A-WALL
10
214935.347
20
-319542.370
11
215785.347
21
-319542.370
0
LINE
8
A-WALL
10
214185.347
20
-321042.370
11
214185.347
21
-320842.370
0
LINE
8
A-WALL
10
205985.347
20
-319142.370
11
206185.347
21
-319142.370
0
LINE
8
A-WALL
10
175226.647
20
-314842.370
11
175226.647
21
-315042.370
0
LINE
8
A-WALL
10
176026.647
20
-314842.370
11
176026.647
21
-315042.370
0
LINE
8
A-WALL
10
175226.647
20
-314842.370
11
176026.647
21
-314842.370
0
LINE
8
A-WALL
10
175226.647
20
-315042.370
11
176026.647
21
-315042.370
0
LINE
8
A-WALL
10
175126.647
20
-315392.370
11
175276.647
21
-315392.370
0
LINE
8
A-WALL
10
175126.647
20
-315492.370
11
175376.647
21
-315492.370
0
LINE
8
A-WALL
10
206185.347
20
-316542.370
11
205985.347
21
-316542.370
0
LINE
8
A-WALL
10
206185.347
20
-318042.370
11
205985.347
21
-318042.370
0
LINE
8
A-WALL
10
205985.347
20
-316542.370
11
205985.347
21
-318042.370
0
LINE
8
A-WALL
10
206185.347
20
-318042.370
11
206185.347
21
-316542.370
0
LINE
8
A-WALL
10
168026.647
20
-318942.370
11
168026.647
21
-318742.370
0
LINE
8
A-WALL
10
168626.647
20
-318942.370
11
168626.647
21
-318742.370
0
LINE
8
A-WALL
10
168026.647
20
-318742.370
11
168626.647
21
-318742.370
0
LINE
8
A-WALL
10
168026.647
20
-318812.370
11
168626.647
21
-318812.370
0
LINE
8
A-WALL
10
168626.647
20
-318942.370
11
168026.647
21
-318942.370
0
LINE
8
A-WALL
10
168626.647
20
-318872.370
11
168026.647
21
-318872.370
0
LINE
8
A-WALL
10
210185.347
20
-319342.370
11
210185.347
21
-319542.370
0
LINE
8
A-WALL
10
213135.347
20
-325042.370
11
213135.347
21
-325242.370
0
LINE
8
A-WALL
10
213135.347
20
-325242.370
11
213835.347
21
-325242.370
0
LINE
8
A-WALL
10
213835.347
20
-325042.370
11
213135.347
21
-325042.370
0
LINE
8
A-WALL
10
183126.647
20
-320842.370
11
183126.647
21
-321042.370
0
LINE
8
A-WALL
10
182326.647
20
-320842.370
11
182326.647
21
-321042.370
0
LINE
8
A-WALL
10
182326.647
20
-320842.370
11
183126.647
21
-320842.370
0
LINE
8
A-WALL
10
183126.647
20
-321042.370
11
182326.647
21
-321042.370
0
LINE
8
A-WALL
10
183326.647
20
-323842.370
11
183526.647
21
-323842.370
0
LINE
8
A-WALL
10
183526.647
20
-324642.370
11
183326.647
21
-324642.370
0
LINE
8
A-WALL
10
202185.347
20
-319542.370
11
202385.347
21
-319542.370
0
LINE
8
A-WALL
10
219085.347
20
-316277.370
11
219085.347
21
-312977.370
0
LINE
8
A-WALL
10
220185.347
20
-319542.370
11
220185.347
21
-316277.370
0
LINE
8
A-WALL
10
219985.347
20
-319342.370
11
219985.347
21
-316477.370
0
LINE
8
A-WALL
10
213185.347
20
-312977.370
11
219085.347
21
-312977.370
0
LINE
8
A-WALL
10
213185.347
20
-313177.370
11
218885.347
21
-313177.370
0
LINE
8
A-WALL
10
218885.347
20
-316477.370
11
218885.347
21
-313177.370
0
LINE
8
A-WALL
10
140519.330
20
-324642.370
11
140519.330
21
-324142.370
0
LINE
8
A-WALL
10
140519.330
20
-319542.370
11
140519.330
21
-318942.370
0
LINE
8
A-WALL
10
140319.330
20
-324642.370
11
140319.330
21
-324142.370
0
LINE
8
A-WALL
10
140319.330
20
-319542.370
11
140319.330
21
-318942.370
0
LINE
8
A-WALL
10
140319.330
20
-324142.370
11
140519.330
21
-324142.370
0
LINE
8
A-WALL
10
140319.330
20
-319542.370
11
140519.330
21
-319542.370
0
LINE
8
A-WALL
10
213185.347
20
-313177.370
11
213185.347
21
-312977.370
0
LINE
8
A-WALL
10
217085.347
20
-314842.370
11
214885.347
21
-314842.370
0
LINE
8
A-WALL
10
217085.347
20
-315042.370
11
214885.347
21
-315042.370
0
LINE
8
A-WALL
10
183326.647
20
-324592.370
11
183176.647
21
-324592.370
0
LINE
8
A-WALL
10
183326.647
20
-324492.370
11
183076.647
21
-324492.370
0
LINE
8
A-WALL
10
182126.647
20
-316477.370
11
182126.647
21
-316837.370
0
LINE
8
A-WALL
10
182326.647
20
-316477.370
11
182326.647
21
-316717.370
0
LINE
8
A-WALL
10
182356.647
20
-316717.370
11
182356.647
21
-316837.370
0
LINE
8
A-WALL
10
183326.647
20
-316477.370
11
183326.647
21
-316717.370
0
LINE
8
A-WALL
10
183296.647
20
-316717.370
11
183296.647
21
-316837.370
0
LINE
8
A-WALL
10
183446.647
20
-316477.370
11
183446.647
21
-316837.370
0
LINE
8
A-WALL
10
183296.647
20
-316837.370
11
183446.647
21
-316837.370
0
LINE
8
A-WALL
10
182326.647
20
-316837.370
11
182126.647
21
-316837.370
0
LINE
8
A-WALL
10
145619.330
20
-324642.370
11
145619.330
21
-324442.370
0
LINE
8
A-WALL
10
145719.330
20
-324442.370
11
145619.330
21
-324442.370
0
LINE
8
A-WALL
10
218485.347
20
-319342.370
11
219985.347
21
-319342.370
0
LINE
8
A-WALL
10
218485.347
20
-319542.370
11
220185.347
21
-319542.370
0
LINE
8
A-WALL
10
140919.330
20
-315142.370
11
140119.330
21
-315142.370
0
LINE
8
A-WALL
10
152819.330
20
-318592.370
11
153119.330
21
-318592.370
0
LINE
8
A-WALL
10
152919.330
20
-318692.370
11
153119.330
21
-318692.370
0
LINE
8
A-WALL
10
153119.330
20
-318692.370
11
153119.330
21
-318592.370
0
LINE
8
A-WALL
10
152819.330
20
-319242.370
11
152819.330
21
-318592.370
0
LINE
8
A-WALL
10
152919.330
20
-319242.370
11
152919.330
21
-318692.370
0
LINE
8
A-WALL
10
202385.347
20
-324642.370
11
202385.347
21
-324042.370
0
LINE
8
A-WALL
10
202185.347
20
-324642.370
11
202185.347
21
-324042.370
0
LINE
8
A-WALL
10
202185.347
20
-324042.370
11
202385.347
21
-324042.370
0
LINE
8
A-WALL
10
202185.347
20
-319542.370
11
202185.347
21
-320142.370
0
LINE
8
A-WALL
10
202185.347
20
-320142.370
11
202485.347
21
-320142.370
0
LINE
8
A-WALL
10
202485.347
20
-319542.370
11
202485.347
21
-320142.370
0
LINE
8
A-WALL
10
202385.347
20
-324042.370
11
202485.347
21
-324042.370
0
LINE
8
A-WALL
10
202485.347
20
-324642.370
11
202485.347
21
-324042.370
0
LINE
8
A-WALL
10
175126.647
20
-324642.370
11
175126.647
21
-324442.370
0
LINE
8
A-WALL
10
181576.647
20
-315522.370
11
181576.647
21
-315642.370
0
LINE
8
A-WALL
10
210085.347
20
-319642.370
11
210085.347
21
-319542.370
0
LINE
8
A-WALL
10
209885.347
20
-319642.370
11
209885.347
21
-319542.370
0
LINE
8
A-WALL
10
214685.347
20
-318127.370
11
214685.347
21
-316477.370
0
LINE
8
A-WALL
10
204185.347
20
-317842.370
11
204185.347
21
-318942.370
0
LINE
8
A-WALL
10
204385.347
20
-317842.370
11
204385.347
21
-318942.370
0
LINE
8
A-WALL
10
204185.347
20
-317842.370
11
204385.347
21
-317842.370
0
LINE
8
A-WALL
10
204385.347
20
-318942.370
11
204185.347
21
-318942.370
0
LINE
8
A-WALL
10
204185.347
20
-318942.370
11
204185.347
21
-319422.370
0
LINE
8
A-WALL
10
204385.347
20
-318942.370
11
204385.347
21
-319422.370
0
LINE
8
A-WALL
10
209885.347
20
-316862.370
11
209885.347
21
-315142.370
0
LINE
8
A-WALL
10
210085.347
20
-316862.370
11
210085.347
21
-315142.370
0
LINE
8
A-WALL
10
209885.347
20
-316862.370
11
210085.347
21
-316862.370
0
LINE
8
A-WALL
10
209185.347
20
-315042.370
11
209185.347
21
-314842.370
0
LINE
8
A-WALL
10
208435.347
20
-314842.370
11
209185.347
21
-314842.370
0
LINE
8
A-WALL
10
208435.347
20
-314912.370
11
209185.347
21
-314912.370
0
LINE
8
A-WALL
10
209185.347
20
-315042.370
11
208435.347
21
-315042.370
0
LINE
8
A-WALL
10
209185.347
20
-314972.370
11
208435.347
21
-314972.370
0
LINE
8
A-WALL
10
152219.330
20
-325042.370
11
152219.330
21
-322192.370
0
LINE
8
A-WALL
10
152019.330
20
-325042.370
11
152019.330
21
-322192.370
0
LINE
8
A-WALL
10
152019.330
20
-322192.370
11
152219.330
21
-322192.370
0
LINE
8
A-WALL
10
147319.330
20
-321812.370
11
147319.330
21
-321662.370
0
LINE
8
A-WALL
10
148219.330
20
-321812.370
11
148219.330
21
-321662.370
0
LINE
8
A-WALL
10
147319.330
20
-321812.370
11
148219.330
21
-321812.370
0
LINE
8
A-WALL
10
148219.330
20
-321662.370
11
147319.330
21
-321662.370
0
LINE
8
A-WALL
10
147219.330
20
-321992.370
11
148319.330
21
-323242.370
0
LINE
8
A-WALL
10
148319.330
20
-321992.370
11
147219.330
21
-323242.370
0
LINE
8
A-WALL
10
149569.330
20
-322312.370
11
149569.330
21
-322192.370
0
LINE
8
A-WALL
10
148769.330
20
-322312.370
11
148769.330
21
-322192.370
0
LINE
8
A-WALL
10
214685.347
20
-315377.370
11
214885.347
21
-315377.370
0
LINE
8
A-WALL
10
214685.347
20
-315377.370
11
214685.347
21
-316177.370
0
LINE
8
A-WALL
10
214755.347
20
-315377.370
11
214755.347
21
-316177.370
0
LINE
8
A-WALL
10
214885.347
20
-315377.370
11
214885.347
21
-316177.370
0
LINE
8
A-WALL
10
214815.347
20
-315377.370
11
214815.347
21
-316177.370
0
LINE
8
A-WALL
10
183526.647
20
-322742.370
11
183526.647
21
-322622.370
0
LINE
8
A-WALL
10
214585.347
20
-318127.370
11
214585.347
21
-315377.370
0
LINE
8
A-WALL
10
139819.330
20
-318892.370
11
139819.330
21
-318692.370
0
LINE
8
A-WALL
10
138919.330
20
-318692.370
11
138919.330
21
-318892.370
0
LINE
8
A-WALL
10
176526.647
20
-321812.370
11
176526.647
21
-321662.370
0
LINE
8
A-WALL
10
177426.647
20
-321812.370
11
177426.647
21
-321662.370
0
LINE
8
A-WALL
10
176526.647
20
-321812.370
11
177426.647
21
-321812.370
0
LINE
8
A-WALL
10
177426.647
20
-321662.370
11
176526.647
21
-321662.370
0
LINE
8
A-WALL
10
176426.647
20
-321992.370
11
177526.647
21
-323242.370
0
LINE
8
A-WALL
10
177526.647
20
-321992.370
11
176426.647
21
-323242.370
0
LINE
8
A-WALL
10
207585.347
20
-321812.370
11
207585.347
21
-321662.370
0
LINE
8
A-WALL
10
208485.347
20
-321812.370
11
208485.347
21
-321662.370
0
LINE
8
A-WALL
10
207585.347
20
-321812.370
11
208485.347
21
-321812.370
0
LINE
8
A-WALL
10
208485.347
20
-321662.370
11
207585.347
21
-321662.370
0
LINE
8
A-WALL
10
207485.347
20
-321992.370
11
208585.347
21
-323242.370
0
LINE
8
A-WALL
10
208585.347
20
-321992.370
11
207485.347
21
-323242.370
0
ARC
8
A-DOOR
10
179174.147
20
-321004.870
40
827.806
50
268.442
51
1.558
0
ARC
8
A-DOOR
10
182249.147
20
-319739.870
40
927.773
50
268.610
51
1.390
0
ARC
8
A-DOOR
10
151821.830
20
-322334.870
40
827.806
50
178.442
51
271.558
0
ARC
8
A-DOOR
10
207204.086
20
-315343.632
40
569.597
50
217.114
51
273.146
0
ARC
8
A-DOOR
10
208332.847
20
-316719.870
40
827.806
50
358.442
51
91.558
0
ARC
8
A-DOOR
10
214810.347
20
-319267.370
40
875.357
50
358.363
51
91.637
0
ARC
8
A-DOOR
10
212452.847
20
-322704.870
40
827.806
50
268.442
51
1.558
0
ARC
8
A-DOOR
10
212062.847
20
-321589.870
40
827.806
50
178.442
51
271.558
0
ARC
8
A-DOOR
10
186404.763
20
-317030.669
40
878.943
50
178.610
51
271.390
0
ARC
8
A-DOOR
10
179101.647
20
-314817.370
40
925.338
50
88.452
51
181.548
0
ARC
8
A-DOOR
10
213266.086
20
-323579.834
40
753.105
50
272.227
51
313.661
0
ARC
8
A-DOOR
10
188688.795
20
-319506.473
40
1014.176
50
90.686
51
176.376
0
ARC
8
A-DOOR
10
186405.331
20
-318788.555
40
878.943
50
88.610
51
181.390
0
ARC
8
A-DOOR
10
205960.347
20
-319742.370
40
925.338
50
178.452
51
271.548
0
ARC
8
A-DOOR
10
212455.347
20
-321067.370
40
925.338
50
268.452
51
1.548
0
ARC
8
A-DOOR
10
213260.347
20
-314817.370
40
875.357
50
88.363
51
181.637
0
ARC
8
A-DOOR
10
180684.147
20
-322889.870
40
727.848
50
178.229
51
271.771
0
ARC
8
A-DOOR
10
200660.347
20
-324117.370
40
875.357
50
88.363
51
181.637
0
ARC
8
A-DOOR
10
210235.347
20
-319317.370
40
925.338
50
358.452
51
91.548
0
ARC
8
A-DOOR
10
148839.077
20
-322145.715
40
706.794
50
356.215
51
95.663
0
MTEXT
8
A-TEXT
10
-180588.779
20
-614982.108
40
140.000
1
淋浴
0
MTEXT
8
A-TEXT
10
389631.471
20
-565164.789
40
100.000
1
壁龛
0
MTEXT
8
A-TEXT
10
142738.953
20
-321590.124
40
140.000
1
餐厅
0
MTEXT
8
A-TEXT
10
180132.434
20
-321266.484
40
140.000
1
卫生间
0
MTEXT
8
A-TEXT
10
179840.703
20
-323265.039
40
140.000
1
卫生间
0
MTEXT
8
A-TEXT
10
185195.314
20
-320491.481
40
140.000
1
卧室
0
MTEXT
8
A-TEXT
10
155704.695
20
-319860.527
40
140.000
1
休闲区
0
MTEXT
8
A-TEXT
10
153070.827
20
-323494.584
40
140.000
1
卫生间
0
MTEXT
8
A-TEXT
10
150820.146
20
-323687.732
40
140.000
1
储藏间
0
MTEXT
8
A-TEXT
10
172597.185
20
-317933.583
40
140.000
1
茶室
0
MTEXT
8
A-TEXT
10
176739.680
20
-316120.804
40
140.000
1
早餐区
0
MTEXT
8
A-TEXT
10
179909.141
20
-314244.843
40
140.000
1
衣帽间
0
MTEXT
8
A-TEXT
10
146018.819
20
-321480.704
40
140.000
1
上17步
0
MTEXT
8
A-TEXT
10
156018.351
20
-321454.059
40
100.000
1
棋牌桌
0
MTEXT
8
A-TEXT
10
147032.020
20
-322188.374
40
140.000
1
电梯（井道净宽1.6米，净深1.58米）
0
MTEXT
8
A-TEXT
10
176662.351
20
-317407.743
40
100.000
1
岛台
0
MTEXT
8
A-TEXT
10
179658.977
20
-317542.633
40
140.000
1
挑空
0
MTEXT
8
A-TEXT
10
170643.135
20
-319201.848
40
100.000
1
TV
0
MTEXT
8
A-TEXT
10
179957.545
20
-324640.530
40
100.000
1
淋浴
0
MTEXT
8
A-TEXT
10
211189.056
20
-317734.864
40
140.000
1
卧室一（主卧）
0
MTEXT
8
A-TEXT
10
216083.469
20
-322166.302
40
140.000
1
卧室二
0
MTEXT
8
A-TEXT
10
175279.375
20
-321433.814
40
140.000
1
上21步
0
MTEXT
8
A-TEXT
10
178091.112
20
-322274.336
40
140.000
1
下17步
0
MTEXT
8
A-TEXT
10
209732.057
20
-321352.189
40
140.000
1
下21步
0
MTEXT
8
A-TEXT
10
206560.365
20
-315971.758
40
100.000
1
淋浴
0
MTEXT
8
A-TEXT
10
208164.877
20
-315520.510
40
140.000
1
卫生间
0
MTEXT
8
A-TEXT
10
212564.779
20
-324195.342
40
140.000
1
卫生间
0
MTEXT
8
A-TEXT
10
207986.787
20
-317958.676
40
140.000
1
衣帽间
0
MTEXT
8
A-TEXT
10
210824.698
20
-322723.197
40
140.000
1
衣帽间
0
MTEXT
8
A-TEXT
10
213712.924
20
-324112.952
40
100.000
1
淋浴
0
MTEXT
8
A-TEXT
10
216791.239
20
-317193.970
40
140.000
1
景观阳台
0
MTEXT
8
A-TEXT
10
215708.891
20
-314372.793
40
140.000
1
洗衣房
0
MTEXT
8
A-TEXT
10
139245.230
20
-321651.477
40
140.000
1
阳台
0
MTEXT
8
A-TEXT
10
145753.171
20
-320162.511
40
140.000
1
下3步
0
MTEXT
8
A-TEXT
10
151685.552
20
-320349.616
40
140.000
1
下3步
0
MTEXT
8
A-TEXT
10
216214.008
20
-313489.360
40
100.000
1
洗衣机
0
MTEXT
8
A-TEXT
10
216856.334
20
-313500.048
40
100.000
1
烘干机
0
MTEXT
8
A-TEXT
10
215144.760
20
-313489.360
40
100.000
1
洗衣机
0
MTEXT
8
A-TEXT
10
170961.684
20
-321874.163
40
140.000
1
客厅
0
MTEXT
8
A-TEXT
10
174795.732
20
-313692.418
40
100.000
1
院子
0
MTEXT
8
A-TEXT
10
147497.834
20
-316937.967
40
100.000
1
手工桌
0
MTEXT
8
A-TEXT
10
174372.096
20
-323603.590
40
100.000
1
钢琴
0
MTEXT
8
A-TEXT
10
154536.336
20
-317929.235
40
100.000
1
瑜伽垫
0
MTEXT
8
A-TEXT
10
212048.836
20
-323137.884
40
100.000
1
衣柜
0
MTEXT
8
A-TEXT
10
204591.825
20
-317148.674
40
140.000
1
衣帽间
0
MTEXT
8
A-TEXT
10
201709.440
20
-316982.564
40
100.000
1
淋浴
0
MTEXT
8
A-TEXT
10
204021.591
20
-320377.996
40
140.000
1
卧室三
0
MTEXT
8
A-TEXT
10
143188.786
20
-316213.515
40
140.000
1
厨房
0
MTEXT
8
A-TEXT
10
143263.325
20
-317431.488
40
100.000
1
岛台
0
MTEXT
8
A-TEXT
10
135873.500
20
-317387.622
40
140.000
1
院子
0
MTEXT
8
A-TEXT
10
219174.841
20
-316893.485
40
140.000
1
绿植
0
MTEXT
8
A-TEXT
10
178255.077
20
-315609.377
40
100.000
1
冰箱
0
MTEXT
8
A-TEXT
10
175419.497
20
-315612.886
40
100.000
1
高柜\P扫地机器人
0
MTEXT
8
A-TEXT
10
145024.112
20
-318229.094
40
100.000
1
冰箱
0
MTEXT
8
A-TEXT
10
145042.393
20
-317534.316
40
100.000
1
高柜\P烤箱
0
MTEXT
8
A-TEXT
10
145011.528
20
-316908.650
40
100.000
1
高柜\P微波炉
0
MTEXT
8
A-TEXT
10
184095.447
20
-317504.134
40
140.000
1
玄关
0
MTEXT
8
A-TEXT
10
187555.578
20
-317647.254
40
140.000
1
门厅
0
MTEXT
8
A-TEXT
10
155968.351
20
-323169.200
40
100.000
1
预留排风口
0
MTEXT
8
A-TEXT
10
213766.182
20
-314809.214
40
100.000
1
壁挂空调
0
MTEXT
8
A-TEXT
10
202932.124
20
-319540.732
40
100.000
1
暗门
0
MTEXT
8
A-TEXT
10
211380.771
20
-313893.857
40
140.000
1
露台
0
MTEXT
8
A-TEXT
10
217931.926
20
-313680.175
40
100.000
1
晾衣架
0
MTEXT
8
A-TEXT
10
217931.926
20
-314431.636
40
100.000
1
晾衣架
0
MTEXT
8
A-TEXT
10
214998.217
20
-317101.169
40
100.000
1
电动伸缩遮阳棚
0
MTEXT
8
A-TEXT
10
202465.687
20
-317346.482
40
100.000
1
移门
0
MTEXT
8
A-TEXT
10
199485.917
20
-321674.876
40
140.000
1
露台
0
MTEXT
8
A-TEXT
10
185058.578
20
-314486.823
40
140.000
1
车库
0
MTEXT
8
A-TEXT
10
181665.681
20
-322367.947
40
140.000
1
衣帽间
0
MTEXT
8
A-TEXT
10
184816.282
20
-316767.494
40
100.000
1
鞋柜
0
MTEXT
8
A-TEXT
10
184191.282
20
-319232.494
40
100.000
1
鞋柜
0
MTEXT
8
A-TEXT
10
187191.282
20
-316767.494
40
100.000
1
成品鞋柜
0
MTEXT
8
A-TEXT
10
178990.193
20
-324348.711
40
100.000
1
壁龛
0
MTEXT
8
A-TEXT
10
202002.655
20
-316067.470
40
100.000
1
壁龛
0
MTEXT
8
A-TEXT
10
201729.305
20
-318740.587
40
100.000
1
壁龛
0
MTEXT
8
A-TEXT
10
201304.386
20
-320483.787
40
140.000
1
休闲区
0
MTEXT
8
A-TEXT
10
172281.468
20
-314384.956
40
100.000
1
设备间
0
MTEXT
8
A-TEXT
10
154675.047
20
-316628.314
40
100.000
1
墙面镜子
0
MTEXT
8
A-TEXT
10
156967.005
20
-317748.068
40
100.000
1
墙面投影
0
MTEXT
8
A-TEXT
10
148579.151
20
-319214.805
40
100.000
1
顶面铜管挂绿植
0
MTEXT
8
A-TEXT
10
154443.186
20
-319691.677
40
100.000
1
顶面铜管挂绿植
0
MTEXT
8
A-TEXT
10
155951.942
20
-324094.857
40
140.000
1
车位
0
MTEXT
8
A-TEXT
10
200408.524
20
-320041.302
40
100.000
1
可开启窗
0
MTEXT
8
A-TEXT
10
212901.362
20
-313521.185
40
100.000
1
可开启窗
0
MTEXT
8
A-TEXT
10
218712.344
20
-314070.456
40
100.000
1
可开启窗
0
MTEXT
8
A-TEXT
10
181480.682
20
-313511.186
40
100.000
1
弱电机柜
0
MTEXT
8
A-TEXT
10
182349.818
20
-319250.009
40
60.000
1
强电箱
0
MTEXT
8
A-TEXT
10
209992.987
20
-319319.199
40
60.000
1
强电箱
0
MTEXT
8
A-TEXT
10
152111.690
20
-322535.541
40
60.000
1
强电箱
0
MTEXT
8
A-TEXT
10
204710.247
20
-319540.732
40
100.000
1
暗门
0
MTEXT
8
A-TEXT
10
182712.063
20
-316867.736
40
100.000
1
暗门
0
MTEXT
8
A-TEXT
10
176397.459
20
-314485.760
40
100.000
1
硬化地面
0
MTEXT
8
A-TEXT
10
147396.481
20
-318924.653
40
100.000
1
玻璃砖隔墙
0
MTEXT
8
A-TEXT
10
152941.354
20
-319043.663
40
100.000
1
洞洞板
0
MTEXT
8
A-TEXT
10
153869.578
20
-321343.515
40
100.000
1
玻璃砖隔墙
0
MTEXT
8
A-TEXT
10
182495.031
20
-317968.558
40
100.000
1
大门中心线
0
MTEXT
8
A-TEXT
10
188179.687
20
-320288.006
40
100.000
1
坡度
0
MTEXT
8
A-TEXT
10
176508.856
20
-318845.254
40
100.000
1
玻璃砖隔墙
0
MTEXT
8
A-TEXT
10
174962.922
20
-316983.382
40
100.000
1
玻璃砖隔墙
0
MTEXT
8
A-TEXT
10
170662.520
20
-319978.001
40
100.000
1
电视机中心线
0
MTEXT
8
A-TEXT
10
201467.176
20
-319336.065
40
100.000
1
书桌
0
MTEXT
8
A-TEXT
10
209809.716
20
-320141.131
40
140.000
1
门洞
0
MTEXT
8
A-TEXT
10
153674.006
20
-324830.865
40
100.000
1
小水池
0
MTEXT
8
A-TEXT
10
141247.021
20
-316438.381
40
100.000
1
洗碗机
0
MTEXT
8
A-TEXT
10
147758.461
20
-320421.637
40
140.000
1
电梯厅
0
MTEXT
8
A-TEXT
10
149162.644
20
-316995.136
40
140.000
1
手工区
0
MTEXT
8
A-TEXT
10
176811.992
20
-320297.733
40
140.000
1
电梯厅
0
MTEXT
8
A-TEXT
10
207743.080
20
-320026.527
40
140.000
1
电梯厅
0
MTEXT
8
A-TEXT
10
218128.392
20
-319310.415
40
100.000
1
水池
0
MTEXT
8
A-TEXT
10
153365.431
20
-322292.379
40
100.000
1
暗门
0
MTEXT
8
A-TEXT
10
145446.231
20
-323394.940
40
100.000
1
餐边柜
0
MTEXT
8
A-TEXT
10
143094.645
20
-318421.035
40
100.000
1
内嵌电磁炉
0
MTEXT
8
A-TEXT
10
145033.854
20
-316320.760
40
100.000
1
空气炸锅\P电饭锅
0
MTEXT
8
A-TEXT
10
141371.372
20
-317413.823
40
100.000
1
净水
0
MTEXT
8
A-TEXT
10
178067.068
20
-325058.661
40
100.000
1
预留水源\P预留充电桩
0
MTEXT
8
A-TEXT
10
177275.290
20
-315556.823
40
100.000
1
净水
0
MTEXT
8
A-TEXT
10
176282.516
20
-315520.061
40
100.000
1
咖啡机\P破壁机
0
MTEXT
8
A-TEXT
10
207371.250
20
-315306.775
40
100.000
1
电热毛巾架
0
MTEXT
8
A-TEXT
10
202429.629
20
-316206.775
40
100.000
1
电热毛巾架
0
MTEXT
8
A-TEXT
10
214127.438
20
-322826.001
40
100.000
1
电热毛巾架
0
MTEXT
8
A-TEXT
10
178179.995
20
-313533.684
40
100.000
1
预留水龙头
0
MTEXT
8
A-TEXT
10
213856.969
20
-314675.806
40
100.000
1
壁挂电动伸缩水管
0
MTEXT
8
A-TEXT
10
143180.417
20
-318070.032
40
100.000
1
绞肉机
0
MTEXT
8
A-TEXT
10
217336.679
20
-323119.379
40
100.000
1
书桌
0
MTEXT
8
A-TEXT
10
216167.982
20
-323080.773
40
100.000
1
五斗柜
0
MTEXT
8
A-TEXT
10
186243.542
20
-319836.770
40
100.000
1
书桌
0
MTEXT
8
A-TEXT
10
185046.338
20
-319874.546
40
100.000
1
五斗柜
0
MTEXT
8
A-TEXT
10
212148.036
20
-319062.120
40
100.000
1
书桌
0
MTEXT
8
A-TEXT
10
201373.445
20
-324539.992
40
100.000
1
五斗柜
0
MTEXT
8
A-TEXT
10
181093.281
20
-324395.786
40
100.000
1
电热毛巾架
0
MTEXT
8
A-TEXT
10
174394.199
20
-321981.802
40
100.000
1
留声机
0
MTEXT
8
A-TEXT
10
152243.552
20
-323562.707
40
100.000
1
扫地机器人
0
MTEXT
8
A-TEXT
10
154391.880
20
-323088.348
40
100.000
1
除湿机
0
MTEXT
8
A-TEXT
10
176239.338
20
-322188.374
40
140.000
1
电梯（井道净宽1.6米，净深1.58米）
0
MTEXT
8
A-TEXT
10
207298.038
20
-322188.374
40
140.000
1
电梯（井道净宽1.6米，净深1.58米）
0
ENDSEC
0
EOF