<?xml version="1.0" encoding="utf-8" ?>
<svg baseProfile="full" height="420px" version="1.1" width="820px" xmlns="http://www.w3.org/2000/svg" xmlns:ev="http://www.w3.org/2001/xml-events" xmlns:xlink="http://www.w3.org/1999/xlink"><defs /><rect fill="#f8f8f8" height="420" width="820" x="0" y="0" /><rect fill="white" height="256.5" stroke="#333" stroke-width="2" width="760.0" x="30.0" y="71.75" /><rect fill="#fafafa" height="256.5" stroke="#555" stroke-width="2" width="760.0" x="30.0" y="71.75" /><rect fill="#f0eeea" height="256.5" stroke="#999" stroke-width="0.5" width="380.0" x="30.0" y="71.75" /><rect fill="#faf8f5" height="256.5" stroke="#999" stroke-width="0.5" width="380.0" x="410.0" y="71.75" /><line stroke="#ddd" stroke-width="0.5" x1="49.0" x2="49.0" y1="285.5" y2="90.75" /><line stroke="#ddd" stroke-width="0.5" x1="66.1" x2="66.1" y1="285.5" y2="90.75" /><line stroke="#ddd" stroke-width="0.5" x1="83.2" x2="83.2" y1="285.5" y2="90.75" /><line stroke="#ddd" stroke-width="0.5" x1="100.3" x2="100.3" y1="285.5" y2="90.75" /><line stroke="#ddd" stroke-width="0.5" x1="117.4" x2="117.4" y1="285.5" y2="90.75" /><line stroke="#ddd" stroke-width="0.5" x1="134.5" x2="134.5" y1="285.5" y2="90.75" /><line stroke="#ddd" stroke-width="0.5" x1="151.6" x2="151.6" y1="285.5" y2="90.75" /><line stroke="#ddd" stroke-width="0.5" x1="168.7" x2="168.7" y1="285.5" y2="90.75" /><line stroke="#ddd" stroke-width="0.5" x1="185.8" x2="185.8" y1="285.5" y2="90.75" /><line stroke="#ddd" stroke-width="0.5" x1="202.9" x2="202.9" y1="285.5" y2="90.75" /><line stroke="#ddd" stroke-width="0.5" x1="220.0" x2="220.0" y1="285.5" y2="90.75" /><line stroke="#ddd" stroke-width="0.5" x1="237.1" x2="237.1" y1="285.5" y2="90.75" /><line stroke="#ddd" stroke-width="0.5" x1="254.2" x2="254.2" y1="285.5" y2="90.75" /><line stroke="#ddd" stroke-width="0.5" x1="271.3" x2="271.3" y1="285.5" y2="90.75" /><line stroke="#ddd" stroke-width="0.5" x1="288.4" x2="288.4" y1="285.5" y2="90.75" /><line stroke="#ddd" stroke-width="0.5" x1="305.5" x2="305.5" y1="285.5" y2="90.75" /><line stroke="#ddd" stroke-width="0.5" x1="322.6" x2="322.6" y1="285.5" y2="90.75" /><line stroke="#ddd" stroke-width="0.5" x1="339.7" x2="339.7" y1="285.5" y2="90.75" /><line stroke="#ddd" stroke-width="0.5" x1="356.8" x2="356.8" y1="285.5" y2="90.75" /><line stroke="#ddd" stroke-width="0.5" x1="373.9" x2="373.9" y1="285.5" y2="90.75" /><rect fill="#e8e0d8" height="23.75" stroke="#666" stroke-width="1.5" width="228.0" x="106.0" y="285.5" /><rect fill="#222" height="57.0" stroke="none" width="95.0" x="172.5" y="223.75" /><rect fill="none" height="57.0" stroke="#333" stroke-width="1" width="95.0" x="172.5" y="223.75" /><rect fill="#e0d8c8" height="71.25" stroke="#555" stroke-width="1.5" width="76.0" x="457.5" y="185.75" /><line stroke="#999" stroke-width="1" x1="495.5" x2="495.5" y1="76.5" y2="100.25" /><line stroke="#888" stroke-width="1.5" x1="481.25" x2="509.75" y1="100.25" y2="100.25" /><rect fill="#d8d0c0" height="85.5" stroke="#666" stroke-width="1.5" width="57.0" x="695.0" y="242.75" /><rect fill="#e8e0d0" height="57.0" stroke="#666" stroke-width="1.5" width="95.0" x="676.0" y="71.75" /><line stroke="#4a90d9" stroke-width="0.8" x1="30.0" x2="790.0" y1="337.75" y2="337.75" /><text fill="#4a90d9" font-size="11" text-anchor="middle" x="410.0" y="339.65">8000</text><text fill="#555" font-size="10" text-anchor="middle" x="220.0" y="83.15">电视背景墙 (格栅+石材)</text><text fill="#555" font-size="9" text-anchor="middle" x="220.0" y="282.65">悬空电视柜</text><text fill="#555" font-size="9" text-anchor="middle" x="495.5" y="178.15">餐桌</text><text fill="#555" font-size="9" text-anchor="middle" x="723.5" y="238.0">岛台</text><text fill="#333" font-size="13" font-weight="bold" text-anchor="middle" x="410" y="18">A立面 — 客厅电视背景墙</text><text fill="#888" font-size="9" text-anchor="middle" x="410" y="34">住宅改造 — 立面/节点图 | 比例示意</text></svg>