0
SECTION
2
HEADER
0
ENDSEC
0
SECTION
2
TABLES
0
TABLE
2
LAYER
70
8
0
LAYER
2
A-WALL
70
0
62
7
6
CONTINUOUS
370
30
0
LAYER
2
A-DOOR
70
0
62
4
6
CONTINUOUS
370
18
0
LAYER
2
A-WINDW
70
0
62
5
6
CONTINUOUS
370
13
0
LAYER
2
A-FURN
70
0
62
6
6
CONTINUOUS
370
13
0
LAYER
2
A-DIM
70
0
62
3
6
CONTINUOUS
370
13
0
LAYER
2
A-TEXT
70
0
62
7
6
CONTINUOUS
370
13
0
LAYER
2
A-HATCH
70
0
62
8
6
CONTINUOUS
370
9
0
LAYER
2
A-ELEV
70
0
62
6
6
CONTINUOUS
370
13
0
ENDTAB
0
ENDSEC
0
SECTION
2
ENTITIES
0
LINE
8
A-WALL
10
0
20
0
11
8000
21
0
0
LINE
8
A-WALL
10
0
20
2700
11
8000
21
2700
0
LINE
8
A-WALL
10
0
20
0
11
0
21
2700
0
LINE
8
A-WALL
10
8000
20
0
11
8000
21
2700
0
LINE
8
A-FURN
10
800
20
200
11
3200
21
200
0
LINE
8
A-FURN
10
800
20
200
11
800
21
450
0
LINE
8
A-FURN
10
3200
20
200
11
3200
21
450
0
LINE
8
A-FURN
10
800
20
450
11
3200
21
450
0
LINE
8
A-ELEV
10
1500
20
500
11
2500
21
500
0
LINE
8
A-ELEV
10
2500
20
500
11
2500
21
1100
0
LINE
8
A-ELEV
10
2500
20
1100
11
1500
21
1100
0
LINE
8
A-ELEV
10
1500
20
1100
11
1500
21
500
0
LINE
8
A-HATCH
10
400
20
450
11
400
21
2500
0
LINE
8
A-HATCH
10
520
20
450
11
520
21
2500
0
LINE
8
A-HATCH
10
640
20
450
11
640
21
2500
0
LINE
8
A-HATCH
10
3200
20
450
11
3200
21
2500
0
LINE
8
A-HATCH
10
3080
20
450
11
3080
21
2500
0
LINE
8
A-HATCH
10
2960
20
450
11
2960
21
2500
0
LINE
8
A-HATCH
10
0
20
2600
11
4000
21
2600
0
LINE
8
A-FURN
10
4500
20
750
11
5300
21
750
0
LINE
8
A-FURN
10
5300
20
750
11
5300
21
1500
0
LINE
8
A-FURN
10
5300
20
1500
11
4500
21
1500
0
LINE
8
A-FURN
10
4500
20
1500
11
4500
21
750
0
LINE
8
A-FURN
10
4900
20
2650
11
4900
21
2400
0
LINE
8
A-FURN
10
4750
20
2400
11
5050
21
2400
0
LINE
8
A-FURN
10
7000
20
0
11
7600
21
0
0
LINE
8
A-FURN
10
7600
20
0
11
7600
21
900
0
LINE
8
A-FURN
10
7600
20
900
11
7000
21
900
0
LINE
8
A-FURN
10
7000
20
900
11
7000
21
0
0
LINE
8
A-FURN
10
6800
20
2100
11
7800
21
2100
0
LINE
8
A-FURN
10
6800
20
2100
11
6800
21
2700
0
LINE
8
A-FURN
10
7800
20
2100
11
7800
21
2700
0
TEXT
8
A-TEXT
10
2000
20
2600
40
3.0
1
电视背景墙
0
TEXT
8
A-TEXT
10
2000
20
2550
40
3.0
1
格栅+石材
0
TEXT
8
A-TEXT
10
6000
20
2650
40
3.0
1
餐厅
0
TEXT
8
A-TEXT
10
7300
20
2650
40
3.0
1
开放式厨房方向
0
TEXT
8
A-TEXT
10
2000
20
450
40
3.0
1
悬空电视柜
0
TEXT
8
A-TEXT
10
5500
20
1600
40
3.0
1
餐桌
0
TEXT
8
A-TEXT
10
7300
20
950
40
3.0
1
岛台
0
LINE
8
A-DIM
10
8200
20
0
11
8200
21
2700
0
LINE
8
A-DIM
10
8100
20
2700
11
8300
21
2700
0
LINE
8
A-DIM
10
0
20
-200
11
8000
21
-200
0
ENDSEC
0
EOF