<?xml version="1.0" encoding="utf-8" ?>
<svg baseProfile="full" height="420px" version="1.1" width="820px" xmlns="http://www.w3.org/2000/svg" xmlns:ev="http://www.w3.org/2001/xml-events" xmlns:xlink="http://www.w3.org/1999/xlink"><defs /><rect fill="#f8f8f8" height="420" width="820" x="0" y="0" /><rect fill="white" height="339.99999999999994" stroke="#333" stroke-width="2" width="377.7777777777777" x="221.11111111111114" y="30.000000000000057" /><rect fill="#fafafa" height="339.99999999999994" stroke="#555" stroke-width="2" width="377.7777777777777" x="221.11111111111114" y="30.000000000000057" /><line stroke="#e8e8e8" stroke-width="0.5" x1="221.11111111111114" x2="221.11111111111114" y1="260.44444444444446" y2="92.96296296296299" /><line stroke="#e8e8e8" stroke-width="0.5" x1="246.29629629629633" x2="246.29629629629633" y1="260.44444444444446" y2="92.96296296296299" /><line stroke="#e8e8e8" stroke-width="0.5" x1="271.4814814814815" x2="271.4814814814815" y1="260.44444444444446" y2="92.96296296296299" /><line stroke="#e8e8e8" stroke-width="0.5" x1="296.6666666666667" x2="296.6666666666667" y1="260.44444444444446" y2="92.96296296296299" /><line stroke="#e8e8e8" stroke-width="0.5" x1="321.85185185185185" x2="321.85185185185185" y1="260.44444444444446" y2="92.96296296296299" /><line stroke="#e8e8e8" stroke-width="0.5" x1="347.03703703703707" x2="347.03703703703707" y1="260.44444444444446" y2="92.96296296296299" /><line stroke="#e8e8e8" stroke-width="0.5" x1="372.22222222222223" x2="372.22222222222223" y1="260.44444444444446" y2="92.96296296296299" /><line stroke="#e8e8e8" stroke-width="0.5" x1="397.4074074074074" x2="397.4074074074074" y1="260.44444444444446" y2="92.96296296296299" /><line stroke="#e8e8e8" stroke-width="0.5" x1="422.5925925925926" x2="422.5925925925926" y1="260.44444444444446" y2="92.96296296296299" /><line stroke="#e8e8e8" stroke-width="0.5" x1="447.7777777777778" x2="447.7777777777778" y1="260.44444444444446" y2="92.96296296296299" /><line stroke="#e8e8e8" stroke-width="0.5" x1="472.96296296296293" x2="472.96296296296293" y1="260.44444444444446" y2="92.96296296296299" /><line stroke="#e8e8e8" stroke-width="0.5" x1="498.14814814814815" x2="498.14814814814815" y1="260.44444444444446" y2="92.96296296296299" /><line stroke="#e8e8e8" stroke-width="0.5" x1="523.3333333333333" x2="523.3333333333333" y1="260.44444444444446" y2="92.96296296296299" /><line stroke="#e8e8e8" stroke-width="0.5" x1="548.5185185185185" x2="548.5185185185185" y1="260.44444444444446" y2="92.96296296296299" /><line stroke="#e8e8e8" stroke-width="0.5" x1="573.7037037037037" x2="573.7037037037037" y1="260.44444444444446" y2="92.96296296296299" /><line stroke="#e8e8e8" stroke-width="0.5" x1="221.11111111111114" x2="598.8888888888889" y1="260.44444444444446" y2="260.44444444444446" /><line stroke="#e8e8e8" stroke-width="0.5" x1="221.11111111111114" x2="598.8888888888889" y1="235.25925925925927" y2="235.25925925925927" /><line stroke="#e8e8e8" stroke-width="0.5" x1="221.11111111111114" x2="598.8888888888889" y1="210.07407407407408" y2="210.07407407407408" /><line stroke="#e8e8e8" stroke-width="0.5" x1="221.11111111111114" x2="598.8888888888889" y1="184.8888888888889" y2="184.8888888888889" /><line stroke="#e8e8e8" stroke-width="0.5" x1="221.11111111111114" x2="598.8888888888889" y1="159.70370370370372" y2="159.70370370370372" /><line stroke="#e8e8e8" stroke-width="0.5" x1="221.11111111111114" x2="598.8888888888889" y1="134.51851851851853" y2="134.51851851851853" /><line stroke="#e8e8e8" stroke-width="0.5" x1="221.11111111111114" x2="598.8888888888889" y1="109.33333333333337" y2="109.33333333333337" /><rect fill="#e0e0d8" height="107.03703703703702" stroke="#666" stroke-width="1.5" width="365.18518518518516" x="227.40740740740745" y="262.962962962963" /><rect fill="#c8c0b0" height="2.518518518518518" stroke="#666" stroke-width="0.8" width="365.18518518518516" x="227.40740740740745" y="260.44444444444446" /><rect fill="#333" fill-opacity="0.1" height="12.592592592592592" stroke="#999" stroke-width="0.5" width="100.74074074074073" x="258.8888888888889" y="262.962962962963" /><circle cx="274.0" cy="269.25925925925924" fill="#666" r="6" /><circle cx="336.962962962963" cy="269.25925925925924" fill="#666" r="6" /><circle cx="274.0" cy="269.25925925925924" fill="#666" r="6" /><circle cx="336.962962962963" cy="269.25925925925924" fill="#666" r="6" /><rect fill="#d0d0d0" height="11.333333333333332" stroke="#666" stroke-width="1" width="88.14814814814814" x="265.1851851851852" y="244.07407407407408" /><line stroke="#999" stroke-width="1.5" x1="309.2592592592593" x2="309.2592592592593" y1="244.07407407407408" y2="92.96296296296299" /><rect fill="#ccc" height="25.185185185185183" stroke="#999" stroke-width="1" width="7.5555555555555545" x="305.4814814814815" y="92.96296296296299" /><rect fill="#e8e8e8" height="15.111111111111109" stroke="#999" stroke-width="0.5" width="100.74074074074073" x="435.1851851851852" y="260.44444444444446" /><rect fill="#ddd" height="12.592592592592592" stroke="none" width="25.185185185185183" x="447.7777777777778" y="262.962962962963" /><rect fill="#ddd" height="12.592592592592592" stroke="none" width="25.185185185185183" x="498.14814814814815" y="262.962962962963" /><rect fill="#e0e0d8" height="50.37037037037037" stroke="#666" stroke-width="1.5" width="365.18518518518516" x="227.40740740740745" y="30.000000000000057" /><line stroke="#999" stroke-width="0.8" x1="347.03703703703707" x2="347.03703703703707" y1="42.59259259259261" y2="30.000000000000057" /><line stroke="#999" stroke-width="0.8" x1="472.96296296296293" x2="472.96296296296293" y1="42.59259259259261" y2="30.000000000000057" /><line stroke="#999" stroke-width="0.8" x1="227.40740740740745" x2="592.5925925925926" y1="67.77777777777783" y2="67.77777777777783" /><text fill="#555" font-size="9" text-anchor="middle" x="410.0" y="281.85185185185185">地柜 h=850</text><text fill="#555" font-size="9" text-anchor="middle" x="309.2592592592593" y="266.74074074074076">台式灶台</text><text fill="#555" font-size="9" text-anchor="middle" x="485.55555555555554" y="266.74074074074076">水槽</text><text fill="#555" font-size="9" text-anchor="middle" x="309.2592592592593" y="249.11111111111114">烟机</text><text fill="#555" font-size="9" text-anchor="middle" x="410.0" y="55.18518518518522">吊柜</text><text fill="#4a90d9" font-size="11" text-anchor="middle" x="410.0" y="382.5925925925926">3000</text><line stroke="#4a90d9" stroke-width="0.8" x1="221.11111111111114" x2="598.8888888888889" y1="380.0740740740741" y2="380.0740740740741" /><text fill="#333" font-size="13" font-weight="bold" text-anchor="middle" x="410" y="18">B立面 — 开放式厨房</text><text fill="#888" font-size="9" text-anchor="middle" x="410" y="34">住宅改造 — 立面/节点图 | 比例示意</text></svg>