0
SECTION
2
HEADER
0
ENDSEC
0
SECTION
2
TABLES
0
TABLE
2
LAYER
70
8
0
LAYER
2
A-WALL
70
0
62
7
6
CONTINUOUS
370
30
0
LAYER
2
A-DOOR
70
0
62
4
6
CONTINUOUS
370
18
0
LAYER
2
A-WINDW
70
0
62
5
6
CONTINUOUS
370
13
0
LAYER
2
A-FURN
70
0
62
6
6
CONTINUOUS
370
13
0
LAYER
2
A-DIM
70
0
62
3
6
CONTINUOUS
370
13
0
LAYER
2
A-TEXT
70
0
62
7
6
CONTINUOUS
370
13
0
LAYER
2
A-HATCH
70
0
62
8
6
CONTINUOUS
370
9
0
LAYER
2
A-ELEV
70
0
62
6
6
CONTINUOUS
370
13
0
ENDTAB
0
ENDSEC
0
SECTION
2
ENTITIES
0
LINE
8
A-WALL
10
0
20
0
11
3000
21
0
0
LINE
8
A-WALL
10
0
20
2700
11
3000
21
2700
0
LINE
8
A-WALL
10
0
20
0
11
0
21
2700
0
LINE
8
A-WALL
10
3000
20
0
11
3000
21
2700
0
LINE
8
A-FURN
10
50
20
0
11
2950
21
0
0
LINE
8
A-FURN
10
50
20
0
11
50
21
850
0
LINE
8
A-FURN
10
2950
20
0
11
2950
21
850
0
LINE
8
A-FURN
10
50
20
850
11
2950
21
850
0
LINE
8
A-FURN
10
50
20
850
11
2950
21
870
0
LINE
8
A-FURN
10
50
20
870
11
2950
21
870
0
LINE
8
A-FURN
10
300
20
850
11
1100
21
850
0
LINE
8
A-FURN
10
300
20
850
11
300
21
750
0
LINE
8
A-FURN
10
1100
20
850
11
1100
21
750
0
LINE
8
A-HATCH
10
480.0
20
800.0
11
471.9615242270663
21
830.0
0
LINE
8
A-HATCH
10
471.9615242270663
20
830.0
11
450.0
21
851.9615242270663
0
LINE
8
A-HATCH
10
450.0
20
851.9615242270663
11
420.0
21
860.0
0
LINE
8
A-HATCH
10
420.0
20
860.0
11
390.0
21
851.9615242270663
0
LINE
8
A-HATCH
10
390.0
20
851.9615242270663
11
368.0384757729337
21
830.0
0
LINE
8
A-HATCH
10
368.0384757729337
20
830.0
11
360.0
21
800.0
0
LINE
8
A-HATCH
10
360.0
20
800.0
11
368.0384757729337
21
770.0
0
LINE
8
A-HATCH
10
368.0384757729337
20
770.0
11
390.0
21
748.0384757729337
0
LINE
8
A-HATCH
10
390.0
20
748.0384757729337
11
420.0
21
740.0
0
LINE
8
A-HATCH
10
420.0
20
740.0
11
450.0
21
748.0384757729337
0
LINE
8
A-HATCH
10
450.0
20
748.0384757729337
11
471.9615242270663
21
770.0
0
LINE
8
A-HATCH
10
471.9615242270663
20
770.0
11
480.0
21
800.0
0
LINE
8
A-HATCH
10
980.0
20
800.0
11
971.9615242270663
21
830.0
0
LINE
8
A-HATCH
10
971.9615242270663
20
830.0
11
950.0
21
851.9615242270663
0
LINE
8
A-HATCH
10
950.0
20
851.9615242270663
11
920.0
21
860.0
0
LINE
8
A-HATCH
10
920.0
20
860.0
11
890.0
21
851.9615242270663
0
LINE
8
A-HATCH
10
890.0
20
851.9615242270663
11
868.0384757729337
21
830.0
0
LINE
8
A-HATCH
10
868.0384757729337
20
830.0
11
860.0
21
800.0
0
LINE
8
A-HATCH
10
860.0
20
800.0
11
868.0384757729337
21
770.0
0
LINE
8
A-HATCH
10
868.0384757729337
20
770.0
11
890.0
21
748.0384757729337
0
LINE
8
A-HATCH
10
890.0
20
748.0384757729337
11
920.0
21
740.0
0
LINE
8
A-HATCH
10
920.0
20
740.0
11
950.0
21
748.0384757729337
0
LINE
8
A-HATCH
10
950.0
20
748.0384757729337
11
971.9615242270663
21
770.0
0
LINE
8
A-HATCH
10
971.9615242270663
20
770.0
11
980.0
21
800.0
0
LINE
8
A-HATCH
10
480.0
20
800.0
11
471.9615242270663
21
830.0
0
LINE
8
A-HATCH
10
471.9615242270663
20
830.0
11
450.0
21
851.9615242270663
0
LINE
8
A-HATCH
10
450.0
20
851.9615242270663
11
420.0
21
860.0
0
LINE
8
A-HATCH
10
420.0
20
860.0
11
390.0
21
851.9615242270663
0
LINE
8
A-HATCH
10
390.0
20
851.9615242270663
11
368.0384757729337
21
830.0
0
LINE
8
A-HATCH
10
368.0384757729337
20
830.0
11
360.0
21
800.0
0
LINE
8
A-HATCH
10
360.0
20
800.0
11
368.0384757729337
21
770.0
0
LINE
8
A-HATCH
10
368.0384757729337
20
770.0
11
390.0
21
748.0384757729337
0
LINE
8
A-HATCH
10
390.0
20
748.0384757729337
11
420.0
21
740.0
0
LINE
8
A-HATCH
10
420.0
20
740.0
11
450.0
21
748.0384757729337
0
LINE
8
A-HATCH
10
450.0
20
748.0384757729337
11
471.9615242270663
21
770.0
0
LINE
8
A-HATCH
10
471.9615242270663
20
770.0
11
480.0
21
800.0
0
LINE
8
A-HATCH
10
980.0
20
800.0
11
971.9615242270663
21
830.0
0
LINE
8
A-HATCH
10
971.9615242270663
20
830.0
11
950.0
21
851.9615242270663
0
LINE
8
A-HATCH
10
950.0
20
851.9615242270663
11
920.0
21
860.0
0
LINE
8
A-HATCH
10
920.0
20
860.0
11
890.0
21
851.9615242270663
0
LINE
8
A-HATCH
10
890.0
20
851.9615242270663
11
868.0384757729337
21
830.0
0
LINE
8
A-HATCH
10
868.0384757729337
20
830.0
11
860.0
21
800.0
0
LINE
8
A-HATCH
10
860.0
20
800.0
11
868.0384757729337
21
770.0
0
LINE
8
A-HATCH
10
868.0384757729337
20
770.0
11
890.0
21
748.0384757729337
0
LINE
8
A-HATCH
10
890.0
20
748.0384757729337
11
920.0
21
740.0
0
LINE
8
A-HATCH
10
920.0
20
740.0
11
950.0
21
748.0384757729337
0
LINE
8
A-HATCH
10
950.0
20
748.0384757729337
11
971.9615242270663
21
770.0
0
LINE
8
A-HATCH
10
971.9615242270663
20
770.0
11
980.0
21
800.0
0
LINE
8
A-FURN
10
350
20
910
11
1050
21
910
0
LINE
8
A-FURN
10
350
20
910
11
350
21
1000
0
LINE
8
A-FURN
10
1050
20
910
11
1050
21
1000
0
LINE
8
A-FURN
10
350
20
1000
11
1050
21
1000
0
LINE
8
A-FURN
10
700
20
1000
11
700
21
2500
0
LINE
8
A-FURN
10
1700
20
870
11
2500
21
870
0
LINE
8
A-FURN
10
1700
20
870
11
1700
21
750
0
LINE
8
A-FURN
10
2500
20
870
11
2500
21
750
0
LINE
8
A-HATCH
10
1800
20
800
11
2000
21
800
0
LINE
8
A-HATCH
10
1800
20
800
11
1800
21
750
0
LINE
8
A-HATCH
10
2000
20
800
11
2000
21
750
0
LINE
8
A-HATCH
10
2200
20
800
11
2400
21
800
0
LINE
8
A-HATCH
10
2200
20
800
11
2200
21
750
0
LINE
8
A-HATCH
10
2400
20
800
11
2400
21
750
0
LINE
8
A-FURN
10
50
20
2200
11
2950
21
2200
0
LINE
8
A-FURN
10
50
20
2200
11
50
21
2600
0
LINE
8
A-FURN
10
2950
20
2200
11
2950
21
2600
0
LINE
8
A-FURN
10
50
20
2600
11
2950
21
2600
0
LINE
8
A-HATCH
10
1000
20
2200
11
1000
21
2600
0
LINE
8
A-HATCH
10
2000
20
2200
11
2000
21
2600
0
LINE
8
A-HATCH
10
50
20
2400
11
2950
21
2400
0
LINE
8
A-HATCH
10
50
20
870
11
50
21
2200
0
LINE
8
A-HATCH
10
250
20
870
11
250
21
2200
0
LINE
8
A-HATCH
10
450
20
870
11
450
21
2200
0
LINE
8
A-HATCH
10
650
20
870
11
650
21
2200
0
LINE
8
A-HATCH
10
850
20
870
11
850
21
2200
0
LINE
8
A-HATCH
10
1050
20
870
11
1050
21
2200
0
LINE
8
A-HATCH
10
1250
20
870
11
1250
21
2200
0
LINE
8
A-HATCH
10
1450
20
870
11
1450
21
2200
0
LINE
8
A-HATCH
10
1650
20
870
11
1650
21
2200
0
LINE
8
A-HATCH
10
1850
20
870
11
1850
21
2200
0
LINE
8
A-HATCH
10
2050
20
870
11
2050
21
2200
0
LINE
8
A-HATCH
10
2250
20
870
11
2250
21
2200
0
LINE
8
A-HATCH
10
2450
20
870
11
2450
21
2200
0
LINE
8
A-HATCH
10
2650
20
870
11
2650
21
2200
0
LINE
8
A-HATCH
10
2850
20
870
11
2850
21
2200
0
TEXT
8
A-TEXT
10
1500
20
700
40
3.0
1
地柜 h=850
0
TEXT
8
A-TEXT
10
1500
20
250
40
3.0
1
灶台
0
TEXT
8
A-TEXT
10
2100
20
700
40
3.0
1
水槽
0
TEXT
8
A-TEXT
10
1500
20
2250
40
3.0
1
吊柜
0
TEXT
8
A-TEXT
10
1500
20
1600
40
3.0
1
烟机
0
LINE
8
A-DIM
10
0
20
-200
11
3000
21
-200
0
LINE
8
A-DIM
10
3200
20
0
11
3200
21
2700
0
ENDSEC
0
EOF