0
SECTION
2
HEADER
0
ENDSEC
0
SECTION
2
TABLES
0
TABLE
2
LAYER
70
8
0
LAYER
2
A-WALL
70
0
62
7
6
CONTINUOUS
370
30
0
LAYER
2
A-DOOR
70
0
62
4
6
CONTINUOUS
370
18
0
LAYER
2
A-WINDW
70
0
62
5
6
CONTINUOUS
370
13
0
LAYER
2
A-FURN
70
0
62
6
6
CONTINUOUS
370
13
0
LAYER
2
A-DIM
70
0
62
3
6
CONTINUOUS
370
13
0
LAYER
2
A-TEXT
70
0
62
7
6
CONTINUOUS
370
13
0
LAYER
2
A-HATCH
70
0
62
8
6
CONTINUOUS
370
9
0
LAYER
2
A-ELEV
70
0
62
6
6
CONTINUOUS
370
13
0
ENDTAB
0
ENDSEC
0
SECTION
2
ENTITIES
0
LINE
8
A-WALL
10
0
20
0
11
2000
21
0
0
LINE
8
A-WALL
10
0
20
2700
11
2000
21
2700
0
LINE
8
A-WALL
10
0
20
0
11
0
21
2700
0
LINE
8
A-WALL
10
2000
20
0
11
2000
21
2700
0
LINE
8
A-WALL
10
900
20
0
11
900
21
2000
0
LINE
8
A-WALL
10
930
20
0
11
930
21
2000
0
LINE
8
A-HATCH
10
900
20
500
11
930
21
500
0
LINE
8
A-HATCH
10
900
20
1000
11
930
21
1000
0
LINE
8
A-HATCH
10
900
20
1500
11
930
21
1500
0
LINE
8
A-FURN
10
50
20
0
11
850
21
0
0
LINE
8
A-FURN
10
50
20
0
11
50
21
850
0
LINE
8
A-FURN
10
850
20
0
11
850
21
850
0
LINE
8
A-FURN
10
50
20
850
11
850
21
850
0
LINE
8
A-FURN
10
50
20
850
11
850
21
870
0
LINE
8
A-FURN
10
50
20
870
11
850
21
870
0
LINE
8
A-FURN
10
350
20
920
11
550
21
920
0
LINE
8
A-FURN
10
350
20
920
11
350
21
1020
0
LINE
8
A-FURN
10
550
20
920
11
550
21
1020
0
LINE
8
A-FURN
10
350
20
1020
11
550
21
1020
0
LINE
8
A-FURN
10
100
20
900
11
800
21
900
0
LINE
8
A-FURN
10
100
20
900
11
100
21
1300
0
LINE
8
A-FURN
10
800
20
900
11
800
21
1300
0
LINE
8
A-FURN
10
100
20
1300
11
800
21
1300
0
LINE
8
A-FURN
10
1700
20
1100
11
1700
21
2000
0
LINE
8
A-FURN
10
1650
20
2000
11
1750
21
2000
0
LINE
8
A-FURN
10
1200
20
400
11
1550
21
400
0
LINE
8
A-FURN
10
1200
20
400
11
1200
21
700
0
LINE
8
A-FURN
10
1550
20
400
11
1550
21
700
0
LINE
8
A-FURN
10
1200
20
700
11
1550
21
700
0
LINE
8
A-FURN
10
1200
20
700
11
1550
21
700
0
LINE
8
A-FURN
10
1200
20
700
11
1200
21
800
0
LINE
8
A-FURN
10
1550
20
700
11
1550
21
800
0
LINE
8
A-FURN
10
1200
20
800
11
1550
21
800
0
LINE
8
A-HATCH
10
0
20
300
11
2000
21
300
0
LINE
8
A-HATCH
10
0
20
600
11
2000
21
600
0
LINE
8
A-HATCH
10
0
20
900
11
2000
21
900
0
LINE
8
A-HATCH
10
0
20
1200
11
2000
21
1200
0
LINE
8
A-HATCH
10
0
20
1500
11
2000
21
1500
0
LINE
8
A-HATCH
10
0
20
1800
11
2000
21
1800
0
LINE
8
A-HATCH
10
0
20
2100
11
2000
21
2100
0
LINE
8
A-HATCH
10
0
20
2400
11
2000
21
2400
0
TEXT
8
A-TEXT
10
450
20
2650
40
3.0
1
洗手台
0
TEXT
8
A-TEXT
10
450
20
2600
40
3.0
1
台上盆
0
TEXT
8
A-TEXT
10
1375
20
2650
40
3.0
1
马桶
0
TEXT
8
A-TEXT
10
1700
20
2650
40
3.0
1
花洒
0
TEXT
8
A-TEXT
10
1000
20
2650
40
3.0
1
玻璃隔断
0
TEXT
8
A-TEXT
10
450
20
950
40
3.0
1
镜柜
0
LINE
8
A-DIM
10
0
20
-200
11
2000
21
-200
0
LINE
8
A-DIM
10
2200
20
0
11
2200
21
2700
0
ENDSEC
0
EOF