<?xml version="1.0" encoding="utf-8" ?>
<svg baseProfile="full" height="420px" version="1.1" width="820px" xmlns="http://www.w3.org/2000/svg" xmlns:ev="http://www.w3.org/2001/xml-events" xmlns:xlink="http://www.w3.org/1999/xlink"><defs /><rect fill="#f8f8f8" height="420" width="820" x="0" y="0" /><rect fill="white" height="339.99999999999994" stroke="#333" stroke-width="2" width="251.85185185185182" x="284.0740740740741" y="30.000000000000057" /><rect fill="#eaf6f0" height="339.99999999999994" stroke="#555" stroke-width="2" width="251.85185185185182" x="284.0740740740741" y="30.000000000000057" /><line stroke="#d0e0d8" stroke-width="0.3" x1="284.0740740740741" x2="535.9259259259259" y1="370.0" y2="370.0" /><line stroke="#d0e0d8" stroke-width="0.3" x1="284.0740740740741" x2="535.9259259259259" y1="351.1111111111111" y2="351.1111111111111" /><line stroke="#d0e0d8" stroke-width="0.3" x1="284.0740740740741" x2="535.9259259259259" y1="332.22222222222223" y2="332.22222222222223" /><line stroke="#d0e0d8" stroke-width="0.3" x1="284.0740740740741" x2="535.9259259259259" y1="313.3333333333333" y2="313.3333333333333" /><line stroke="#d0e0d8" stroke-width="0.3" x1="284.0740740740741" x2="535.9259259259259" y1="294.44444444444446" y2="294.44444444444446" /><line stroke="#d0e0d8" stroke-width="0.3" x1="284.0740740740741" x2="535.9259259259259" y1="275.55555555555554" y2="275.55555555555554" /><line stroke="#d0e0d8" stroke-width="0.3" x1="284.0740740740741" x2="535.9259259259259" y1="256.6666666666667" y2="256.6666666666667" /><line stroke="#d0e0d8" stroke-width="0.3" x1="284.0740740740741" x2="535.9259259259259" y1="237.7777777777778" y2="237.7777777777778" /><line stroke="#d0e0d8" stroke-width="0.3" x1="284.0740740740741" x2="535.9259259259259" y1="218.8888888888889" y2="218.8888888888889" /><line stroke="#d0e0d8" stroke-width="0.3" x1="284.0740740740741" x2="535.9259259259259" y1="200.00000000000003" y2="200.00000000000003" /><line stroke="#d0e0d8" stroke-width="0.3" x1="284.0740740740741" x2="535.9259259259259" y1="181.11111111111114" y2="181.11111111111114" /><line stroke="#d0e0d8" stroke-width="0.3" x1="284.0740740740741" x2="535.9259259259259" y1="162.22222222222226" y2="162.22222222222226" /><line stroke="#d0e0d8" stroke-width="0.3" x1="284.0740740740741" x2="535.9259259259259" y1="143.33333333333334" y2="143.33333333333334" /><line stroke="#d0e0d8" stroke-width="0.3" x1="284.0740740740741" x2="535.9259259259259" y1="124.44444444444446" y2="124.44444444444446" /><line stroke="#d0e0d8" stroke-width="0.3" x1="284.0740740740741" x2="535.9259259259259" y1="105.5555555555556" y2="105.5555555555556" /><line stroke="#d0e0d8" stroke-width="0.3" x1="284.0740740740741" x2="535.9259259259259" y1="86.66666666666669" y2="86.66666666666669" /><line stroke="#d0e0d8" stroke-width="0.3" x1="284.0740740740741" x2="535.9259259259259" y1="67.77777777777783" y2="67.77777777777783" /><line stroke="#d0e0d8" stroke-width="0.3" x1="284.0740740740741" x2="535.9259259259259" y1="48.888888888888914" y2="48.888888888888914" /><line stroke="#d0e0d8" stroke-width="0.3" x1="284.0740740740741" x2="284.0740740740741" y1="370.0" y2="30.000000000000057" /><line stroke="#d0e0d8" stroke-width="0.3" x1="321.85185185185185" x2="321.85185185185185" y1="370.0" y2="30.000000000000057" /><line stroke="#d0e0d8" stroke-width="0.3" x1="359.6296296296296" x2="359.6296296296296" y1="370.0" y2="30.000000000000057" /><line stroke="#d0e0d8" stroke-width="0.3" x1="397.4074074074074" x2="397.4074074074074" y1="370.0" y2="30.000000000000057" /><line stroke="#d0e0d8" stroke-width="0.3" x1="435.18518518518516" x2="435.18518518518516" y1="370.0" y2="30.000000000000057" /><line stroke="#d0e0d8" stroke-width="0.3" x1="472.96296296296293" x2="472.96296296296293" y1="370.0" y2="30.000000000000057" /><line stroke="#d0e0d8" stroke-width="0.3" x1="510.74074074074076" x2="510.74074074074076" y1="370.0" y2="30.000000000000057" /><line stroke="#88bbcc" stroke-width="2" x1="397.4074074074074" x2="397.4074074074074" y1="370.0" y2="118.14814814814818" /><line stroke="#88bbcc" stroke-width="2" x1="401.18518518518516" x2="401.18518518518516" y1="370.0" y2="118.14814814814818" /><line stroke="#aadddd" stroke-width="1" x1="399.2962962962963" x2="399.2962962962963" y1="307.03703703703707" y2="307.03703703703707" /><line stroke="#aadddd" stroke-width="1" x1="399.2962962962963" x2="399.2962962962963" y1="244.07407407407408" y2="244.07407407407408" /><line stroke="#aadddd" stroke-width="1" x1="399.2962962962963" x2="399.2962962962963" y1="181.11111111111114" y2="181.11111111111114" /><rect fill="#e0d8d0" height="107.03703703703702" stroke="#666" stroke-width="1.5" width="100.74074074074073" x="290.3703703703704" y="262.962962962963" /><rect fill="#d0c8b8" height="2.518518518518518" stroke="#666" stroke-width="0.8" width="100.74074074074073" x="290.3703703703704" y="260.44444444444446" /><rect fill="#f0f0f0" height="12.592592592592592" rx="3" stroke="#888" stroke-width="1" width="25.185185185185183" x="328.14814814814815" y="241.55555555555557" /><rect fill="#e8eef5" height="50.37037037037037" stroke="#888" stroke-width="1" width="88.14814814814814" x="296.6666666666667" y="206.2962962962963" /><line stroke="#999" stroke-width="0.8" x1="340.74074074074076" x2="340.74074074074076" y1="237.7777777777778" y2="231.4814814814815" /><rect fill="#f5f5f5" height="37.77777777777777" stroke="#777" stroke-width="1.5" width="44.07407407407407" x="435.18518518518516" y="281.85185185185185" /><rect fill="#ddd" height="12.592592592592592" stroke="#888" stroke-width="1" width="44.07407407407407" x="435.18518518518516" y="269.25925925925924" /><line stroke="#888" stroke-width="2" x1="498.14814814814815" x2="498.14814814814815" y1="231.4814814814815" y2="118.14814814814818" /><line stroke="#888" stroke-width="2" x1="491.85185185185185" x2="504.44444444444446" y1="118.14814814814818" y2="118.14814814814818" /><text fill="#555" font-size="9" text-anchor="middle" x="340.74074074074076" y="45.11111111111114">洗手台</text><text fill="#555" font-size="8" text-anchor="middle" x="340.74074074074076" y="234.0">台上盆</text><text fill="#555" font-size="8" text-anchor="middle" x="340.74074074074076" y="200.00000000000003">镜柜</text><text fill="#555" font-size="9" text-anchor="middle" x="457.2222222222222" y="45.11111111111114">马桶</text><text fill="#555" font-size="9" text-anchor="middle" x="498.14814814814815" y="45.11111111111114">花洒</text><text fill="#555" font-size="8" text-anchor="middle" x="399.2962962962963" y="45.11111111111114">玻璃隔断</text><text fill="#4a90d9" font-size="11" text-anchor="middle" x="410.0" y="382.5925925925926">2000</text><line stroke="#4a90d9" stroke-width="0.8" x1="284.0740740740741" x2="535.9259259259259" y1="380.0740740740741" y2="380.0740740740741" /><text fill="#333" font-size="13" font-weight="bold" text-anchor="middle" x="410" y="18">C立面 — 卫生间 (干湿分离)</text><text fill="#888" font-size="9" text-anchor="middle" x="410" y="34">住宅改造 — 立面/节点图 | 比例示意</text></svg>