<?xml version="1.0" encoding="utf-8" ?>
<svg baseProfile="full" height="420px" version="1.1" width="820px" xmlns="http://www.w3.org/2000/svg" xmlns:ev="http://www.w3.org/2001/xml-events" xmlns:xlink="http://www.w3.org/1999/xlink"><defs /><rect fill="#f8f8f8" height="420" width="820" x="0" y="0" /><rect fill="white" height="339.99999999999994" stroke="#333" stroke-width="2" width="440.7407407407407" x="189.62962962962965" y="30.000000000000057" /><rect fill="#f8f0ea" height="339.99999999999994" stroke="#555" stroke-width="2" width="440.7407407407407" x="189.62962962962965" y="30.000000000000057" /><rect fill="#f0e8e0" height="302.2222222222222" stroke="#666" stroke-width="2" width="428.1481481481481" x="195.92592592592595" y="55.18518518518522" /><rect fill="#ede5db" height="302.2222222222222" stroke="#999" stroke-width="1" width="151.1111111111111" x="195.92592592592595" y="55.18518518518522" /><line stroke="#888" stroke-width="3" x1="202.22222222222223" x2="334.44444444444446" y1="105.5555555555556" y2="105.5555555555556" /><line stroke="#999" stroke-width="1.5" x1="347.03703703703707" x2="347.03703703703707" y1="55.18518518518522" y2="357.4074074074074" /><rect fill="#f0e8e0" height="302.2222222222222" stroke="#999" stroke-width="1" width="119.62962962962962" x="353.33333333333337" y="55.18518518518522" /><line stroke="#888" stroke-width="2" x1="355.85185185185185" x2="456.5925925925926" y1="92.96296296296299" y2="92.96296296296299" /><line stroke="#888" stroke-width="2" x1="355.85185185185185" x2="456.5925925925926" y1="143.33333333333334" y2="143.33333333333334" /><line stroke="#888" stroke-width="2" x1="355.85185185185185" x2="456.5925925925926" y1="193.70370370370372" y2="193.70370370370372" /><line stroke="#888" stroke-width="2" x1="355.85185185185185" x2="456.5925925925926" y1="244.07407407407408" y2="244.07407407407408" /><line stroke="#999" stroke-width="1.5" x1="472.96296296296293" x2="472.96296296296293" y1="55.18518518518522" y2="357.4074074074074" /><rect fill="#ede5db" height="302.2222222222222" stroke="#999" stroke-width="1" width="132.2222222222222" x="479.25925925925924" y="55.18518518518522" /><line stroke="#888" stroke-width="3" x1="481.7777777777777" x2="595.1111111111111" y1="92.96296296296299" y2="92.96296296296299" /><line stroke="#888" stroke-width="1.5" x1="481.7777777777777" x2="595.1111111111111" y1="357.4074074074074" y2="357.4074074074074" /><line stroke="#888" stroke-width="1.5" x1="481.7777777777777" x2="595.1111111111111" y1="332.22222222222223" y2="332.22222222222223" /><line stroke="#888" stroke-width="1.5" x1="481.7777777777777" x2="595.1111111111111" y1="307.03703703703707" y2="307.03703703703707" /><rect fill="#e0d5c8" height="12.592592592592592" stroke="none" width="113.33333333333333" x="481.7777777777777" y="281.85185185185185" /><rect fill="none" height="12.592592592592592" stroke="#999" stroke-width="0.8" width="113.33333333333333" x="481.7777777777777" y="281.85185185185185" /><text fill="#555" font-size="9" text-anchor="middle" x="268.33333333333337" y="45.11111111111114">长衣挂衣区</text><text fill="#555" font-size="9" text-anchor="middle" x="410.0" y="45.11111111111114">层板储物区</text><text fill="#555" font-size="9" text-anchor="middle" x="548.5185185185185" y="45.11111111111114">三抽柜+短衣区</text><text fill="#666" font-size="8" text-anchor="middle" x="268.33333333333337" y="103.03703703703707">挂杆</text><text fill="#666" font-size="8" text-anchor="middle" x="410.0" y="140.81481481481484">可调节层板</text><text fill="#666" font-size="8" text-anchor="middle" x="548.5185185185185" y="300.74074074074076">抽屉 x3</text><text fill="#4a90d9" font-size="11" text-anchor="middle" x="410.0" y="382.5925925925926">3500</text><line stroke="#4a90d9" stroke-width="0.8" x1="189.62962962962965" x2="630.3703703703703" y1="380.0740740740741" y2="380.0740740740741" /><text fill="#333" font-size="13" font-weight="bold" text-anchor="middle" x="410" y="18">D立面 — 主卧衣帽间</text><text fill="#888" font-size="9" text-anchor="middle" x="410" y="34">住宅改造 — 立面/节点图 | 比例示意</text></svg>