<?xml version="1.0" encoding="utf-8" ?>
<svg baseProfile="full" height="700px" version="1.1" width="900px" xmlns="http://www.w3.org/2000/svg" xmlns:ev="http://www.w3.org/2001/xml-events" xmlns:xlink="http://www.w3.org/1999/xlink"><defs /><rect fill="#f8f8f8" height="700" width="900" x="0" y="0" /><line stroke="#eee" stroke-width="0.3" x1="80.0" x2="80.0" y1="590.0" y2="-90.0" /><line stroke="#eee" stroke-width="0.3" x1="160.0" x2="160.0" y1="590.0" y2="-90.0" /><line stroke="#eee" stroke-width="0.3" x1="240.0" x2="240.0" y1="590.0" y2="-90.0" /><line stroke="#eee" stroke-width="0.3" x1="320.0" x2="320.0" y1="590.0" y2="-90.0" /><line stroke="#eee" stroke-width="0.3" x1="400.0" x2="400.0" y1="590.0" y2="-90.0" /><line stroke="#eee" stroke-width="0.3" x1="480.0" x2="480.0" y1="590.0" y2="-90.0" /><line stroke="#eee" stroke-width="0.3" x1="560.0" x2="560.0" y1="590.0" y2="-90.0" /><line stroke="#eee" stroke-width="0.3" x1="640.0" x2="640.0" y1="590.0" y2="-90.0" /><line stroke="#eee" stroke-width="0.3" x1="720.0" x2="720.0" y1="590.0" y2="-90.0" /><line stroke="#eee" stroke-width="0.3" x1="80.0" x2="720.0" y1="590.0" y2="590.0" /><line stroke="#eee" stroke-width="0.3" x1="80.0" x2="720.0" y1="510.0" y2="510.0" /><line stroke="#eee" stroke-width="0.3" x1="80.0" x2="720.0" y1="430.0" y2="430.0" /><line stroke="#eee" stroke-width="0.3" x1="80.0" x2="720.0" y1="350.0" y2="350.0" /><line stroke="#eee" stroke-width="0.3" x1="80.0" x2="720.0" y1="270.0" y2="270.0" /><line stroke="#eee" stroke-width="0.3" x1="80.0" x2="720.0" y1="190.0" y2="190.0" /><line stroke="#eee" stroke-width="0.3" x1="80.0" x2="720.0" y1="110.0" y2="110.0" /><line stroke="#eee" stroke-width="0.3" x1="80.0" x2="720.0" y1="30.0" y2="30.0" /><line stroke="#eee" stroke-width="0.3" x1="80.0" x2="720.0" y1="-50.0" y2="-50.0" /><rect fill="#ffe0e0" fill-opacity="0.4" height="280.0" stroke="none" width="240.0" x="80.0" y="-90.0" /><text fill="#555" font-size="10" font-weight="bold" text-anchor="middle" x="200.0" y="42.0">卧室A</text><text fill="#555" font-size="8" font-weight="normal" text-anchor="middle" x="200.0" y="56.0">(改)</text><rect fill="#ffe0e0" fill-opacity="0.4" height="280.0" stroke="none" width="280.0" x="320.0" y="-90.0" /><text fill="#555" font-size="10" font-weight="bold" text-anchor="middle" x="460.0" y="42.0">卧室B</text><text fill="#555" font-size="8" font-weight="normal" text-anchor="middle" x="460.0" y="56.0">(改)</text><rect fill="#e0ffe0" fill-opacity="0.4" height="160.0" stroke="none" width="120.0" x="320.0" y="30.0" /><text fill="#555" font-size="10" font-weight="bold" text-anchor="middle" x="380.0" y="102.0">过道</text><rect fill="#e0e0ff" fill-opacity="0.4" height="280.0" stroke="none" width="160.0" x="440.0" y="-90.0" /><text fill="#555" font-size="10" font-weight="bold" text-anchor="middle" x="520.0" y="42.0">卫生间</text><text fill="#555" font-size="8" font-weight="normal" text-anchor="middle" x="520.0" y="56.0">(扩大)</text><rect fill="#ffe0ff" fill-opacity="0.4" height="280.0" stroke="none" width="120.0" x="600.0" y="-90.0" /><text fill="#555" font-size="10" font-weight="bold" text-anchor="middle" x="660.0" y="42.0">卧室B</text><rect fill="#fff0d0" fill-opacity="0.4" height="240.0" stroke="none" width="240.0" x="480.0" y="190.0" /><text fill="#555" font-size="10" font-weight="bold" text-anchor="middle" x="600.0" y="302.0">厨房</text><text fill="#555" font-size="8" font-weight="normal" text-anchor="middle" x="600.0" y="316.0">(改开放式)</text><rect fill="#f0fff0" fill-opacity="0.4" height="400.0" stroke="none" width="640.0" x="80.0" y="190.0" /><text fill="#555" font-size="10" font-weight="bold" text-anchor="middle" x="400.0" y="382.0">客厅+餐厅</text><line stroke="#ccaa00" stroke-dasharray="6,3" stroke-width="2.5" x1="80.0" x2="720.0" y1="590.0" y2="590.0" /><line stroke="#ccaa00" stroke-dasharray="6,3" stroke-width="2.5" x1="720.0" x2="720.0" y1="590.0" y2="-90.0" /><line stroke="#ccaa00" stroke-dasharray="6,3" stroke-width="2.5" x1="720.0" x2="80.0" y1="-90.0" y2="-90.0" /><line stroke="#ccaa00" stroke-dasharray="6,3" stroke-width="2.5" x1="80.0" x2="80.0" y1="-90.0" y2="590.0" /><line stroke="#ccaa00" stroke-dasharray="6,3" stroke-width="2.5" x1="80.0" x2="152.0" y1="190.0" y2="190.0" /><line stroke="#ccaa00" stroke-dasharray="6,3" stroke-width="2.5" x1="168.0" x2="320.0" y1="190.0" y2="190.0" /><line stroke="#ccaa00" stroke-dasharray="6,3" stroke-width="2.5" x1="320.0" x2="320.0" y1="190.0" y2="-90.0" /><line stroke="#ccaa00" stroke-dasharray="6,3" stroke-width="2.5" x1="600.0" x2="600.0" y1="190.0" y2="-90.0" /><line stroke="#ccaa00" stroke-dasharray="6,3" stroke-width="2.5" x1="80.0" x2="720.0" y1="590.0" y2="590.0" /><line stroke="red" stroke-dasharray="4,3" stroke-width="2.5" x1="320.0" x2="320.0" y1="190.0" y2="-90.0" /><line stroke="red" stroke-width="1.5" x1="317.6" x2="322.4" y1="51.200000000000045" y2="48.799999999999955" /><line stroke="red" stroke-width="1.5" x1="317.6" x2="322.4" y1="48.799999999999955" y2="51.200000000000045" /><text fill="red" font-size="10" text-anchor="middle" x="320.0" y="49.60000000000002">拆</text><line stroke="red" stroke-dasharray="4,3" stroke-width="2.5" x1="480.0" x2="480.0" y1="430.0" y2="190.0" /><line stroke="red" stroke-width="1.5" x1="477.6" x2="482.40000000000003" y1="311.2" y2="308.8" /><line stroke="red" stroke-width="1.5" x1="477.6" x2="482.40000000000003" y1="308.8" y2="311.2" /><text fill="red" font-size="10" text-anchor="middle" x="480.0" y="309.59999999999997">拆</text><line stroke="red" stroke-dasharray="4,3" stroke-width="2.5" x1="480.0" x2="720.0" y1="430.0" y2="430.0" /><line stroke="red" stroke-width="1.5" x1="597.6" x2="602.4" y1="431.2" y2="428.79999999999995" /><line stroke="red" stroke-width="1.5" x1="597.6" x2="602.4" y1="428.79999999999995" y2="431.2" /><text fill="red" font-size="10" text-anchor="middle" x="600.0" y="429.6">拆</text><line stroke="red" stroke-dasharray="4,3" stroke-width="2.5" x1="440.0" x2="440.0" y1="190.0" y2="30.0" /><line stroke="red" stroke-width="1.5" x1="437.6" x2="442.40000000000003" y1="111.19999999999999" y2="108.80000000000001" /><line stroke="red" stroke-width="1.5" x1="437.6" x2="442.40000000000003" y1="108.80000000000001" y2="111.19999999999999" /><text fill="red" font-size="10" text-anchor="middle" x="440.0" y="109.59999999999997">拆</text><line stroke="#00aaaa" stroke-width="3" x1="320.0" x2="440.0" y1="30.0" y2="30.0" /><line stroke="#00aaaa" stroke-width="3" x1="440.0" x2="440.0" y1="30.0" y2="-90.0" /><line stroke="#00aaaa" stroke-width="3" x1="320.0" x2="320.0" y1="190.0" y2="30.0" /><line stroke="#008888" stroke-width="2" x1="152.0" x2="168.0" y1="190.0" y2="190.0" /><line stroke="#008888" stroke-width="2" x1="320.0" x2="320.0" y1="230.0" y2="214.0" /><line stroke="#008888" stroke-width="2" x1="528.0" x2="544.0" y1="190.0" y2="190.0" /><line stroke="#0044aa" stroke-width="2" x1="120.0" x2="280.0" y1="586.0" y2="586.0" /><line stroke="#0044aa" stroke-width="2" x1="120.0" x2="280.0" y1="594.0" y2="594.0" /><text fill="#333" font-size="10" text-anchor="middle" x="360.0" y="54.0">拆除</text><text fill="#333" font-size="10" text-anchor="middle" x="360.0" y="78.0">打通→主卧</text><text fill="#333" font-size="10" text-anchor="middle" x="520.0" y="310.0">拆除</text><text fill="#333" font-size="10" text-anchor="middle" x="520.0" y="334.0">→开放式厨房</text><text fill="#333" font-size="10" text-anchor="middle" x="376.0" y="126.0">新建衣帽间</text><text fill="#333" font-size="10" text-anchor="middle" x="376.0" y="142.0">隔断</text><text fill="#333" font-size="10" text-anchor="middle" x="440.0" y="94.0">扩大卫生间</text><line stroke="green" stroke-width="1" x1="80.0" x2="720.0" y1="596.4" y2="596.4" /><text fill="green" font-size="10" text-anchor="middle" x="400.0" y="597.2">8000</text><line stroke="green" stroke-width="1" x1="75.2" x2="75.2" y1="590.0" y2="-90.0" /><text fill="green" font-size="10" text-anchor="end" x="74.8" y="250.0">8500</text><circle cx="80.0" cy="599.6" fill="white" r="8" stroke="green" stroke-width="1" /><text fill="green" font-size="8" text-anchor="middle" x="80.0" y="599.84">①</text><circle cx="320.0" cy="599.6" fill="white" r="8" stroke="green" stroke-width="1" /><text fill="green" font-size="8" text-anchor="middle" x="320.0" y="599.84">②</text><circle cx="440.0" cy="599.6" fill="white" r="8" stroke="green" stroke-width="1" /><text fill="green" font-size="8" text-anchor="middle" x="440.0" y="599.84">③</text><circle cx="600.0" cy="599.6" fill="white" r="8" stroke="green" stroke-width="1" /><text fill="green" font-size="8" text-anchor="middle" x="600.0" y="599.84">④</text><circle cx="720.0" cy="599.6" fill="white" r="8" stroke="green" stroke-width="1" /><text fill="green" font-size="8" text-anchor="middle" x="720.0" y="599.84">⑤</text><rect fill="#ccaa00" fill-opacity="0.8" height="12" width="16" x="80" y="660" /><text font-size="9" x="100" y="670">保留墙体 (EXST)</text><rect fill="red" fill-opacity="0.8" height="12" width="16" x="240" y="660" /><text font-size="9" x="260" y="670">拆除墙体 (DEMO)</text><rect fill="#00aaaa" fill-opacity="0.8" height="12" width="16" x="400" y="660" /><text font-size="9" x="420" y="670">新建墙体 (NEWW)</text><rect fill="#008888" fill-opacity="0.8" height="12" width="16" x="560" y="660" /><text font-size="9" x="580" y="670">门 (DOOR)</text><rect fill="#0044aa" fill-opacity="0.8" height="12" width="16" x="720" y="660" /><text font-size="9" x="740" y="670">窗 (WINDW)</text><text font-size="14" font-weight="bold" text-anchor="middle" x="450" y="30">住宅改造 — 拆砌墙图 | 比例示意 | 原始3房改2房+开放式厨房</text></svg>