0
SECTION
2
HEADER
0
ENDSEC
0
SECTION
2
TABLES
0
TABLE
2
LAYER
70
9
0
LAYER
2
A-WALL
70
0
62
6
6
CONTINUOUS
370
30
0
LAYER
2
A-COLU
70
0
62
8
6
CONTINUOUS
370
9
0
LAYER
2
A-DOOR
70
0
62
4
6
CONTINUOUS
370
18
0
LAYER
2
A-WINDW
70
0
62
5
6
CONTINUOUS
370
13
0
LAYER
2
A-AXIS
70
0
62
1
6
CENTER
370
13
0
LAYER
2
A-DIM
70
0
62
3
6
CONTINUOUS
370
13
0
LAYER
2
A-TEXT
70
0
62
7
6
CONTINUOUS
370
13
0
LAYER
2
A-HIDD
70
0
62
2
6
HIDDEN
370
13
0
LAYER
2
A-STAI
70
0
62
6
6
CONTINUOUS
370
18
0
ENDTAB
0
ENDSEC
0
SECTION
2
ENTITIES
0
LINE
8
A-WALL
10
0
20
6000
11
2000
21
6000
0
LINE
8
A-WALL
10
2000
20
6000
11
2000
21
0
0
LINE
8
A-WALL
10
2000
20
0
11
17900
21
0
0
LINE
8
A-WALL
10
17900
20
0
11
17900
21
6000
0
LINE
8
A-WALL
10
17900
20
6000
11
5900
21
6000
0
LINE
8
A-WALL
10
5900
20
6000
11
5900
21
8500
0
LINE
8
A-WALL
10
5900
20
8500
11
0
21
8500
0
LINE
8
A-WALL
10
0
20
8500
11
0
21
6000
0
LINE
8
A-WALL
10
2000
20
2300
11
5900
21
2300
0
LINE
8
A-WALL
10
0
20
6500
11
2000
21
6500
0
LINE
8
A-COLU
10
0
20
0
11
200
21
0
0
LINE
8
A-COLU
10
200
20
0
11
200
21
8500
0
LINE
8
A-COLU
10
200
20
8500
11
0
21
8500
0
LINE
8
A-COLU
10
0
20
8500
11
0
21
0
0
LINE
8
A-COLU
10
1800
20
0
11
2000
21
0
0
LINE
8
A-COLU
10
2000
20
0
11
2000
21
8500
0
LINE
8
A-COLU
10
2000
20
8500
11
1800
21
8500
0
LINE
8
A-COLU
10
1800
20
8500
11
1800
21
0
0
LINE
8
A-COLU
10
5700
20
0
11
5900
21
0
0
LINE
8
A-COLU
10
5900
20
0
11
5900
21
8500
0
LINE
8
A-COLU
10
5900
20
8500
11
5700
21
8500
0
LINE
8
A-COLU
10
5700
20
8500
11
5700
21
0
0
LINE
8
A-COLU
10
7500
20
0
11
7700
21
0
0
LINE
8
A-COLU
10
7700
20
0
11
7700
21
8500
0
LINE
8
A-COLU
10
7700
20
8500
11
7500
21
8500
0
LINE
8
A-COLU
10
7500
20
8500
11
7500
21
0
0
LINE
8
A-COLU
10
0
20
5800
11
17900
21
5800
0
LINE
8
A-COLU
10
17900
20
5800
11
17900
21
6000
0
LINE
8
A-COLU
10
17900
20
6000
11
0
21
6000
0
LINE
8
A-COLU
10
0
20
6000
11
0
21
5800
0
LINE
8
A-WINDW
10
200
20
8400
11
1320
21
8400
0
LINE
8
A-WINDW
10
200
20
8480
11
1320
21
8480
0
LINE
8
A-WINDW
10
200
20
8320
11
1320
21
8320
0
LINE
8
A-WINDW
10
3500
20
8400
11
4400
21
8400
0
LINE
8
A-WINDW
10
3500
20
8480
11
4400
21
8480
0
LINE
8
A-WINDW
10
3500
20
8320
11
4400
21
8320
0
LINE
8
A-WINDW
10
200
20
6000
11
1120
21
6000
0
LINE
8
A-WINDW
10
200
20
6080
11
1120
21
6080
0
LINE
8
A-WINDW
10
200
20
5920
11
1120
21
5920
0
LINE
8
A-WINDW
10
200
20
0
11
1120
21
0
0
LINE
8
A-WINDW
10
200
20
80
11
1120
21
80
0
LINE
8
A-WINDW
10
200
20
-80
11
1120
21
-80
0
LINE
8
A-WINDW
10
4980
20
0
11
5900
21
0
0
LINE
8
A-WINDW
10
4980
20
80
11
5900
21
80
0
LINE
8
A-WINDW
10
4980
20
-80
11
5900
21
-80
0
LINE
8
A-WINDW
10
6100
20
2800
11
7020
21
2800
0
LINE
8
A-WINDW
10
6100
20
2880
11
7020
21
2880
0
LINE
8
A-WINDW
10
6100
20
2720
11
7020
21
2720
0
LINE
8
A-DOOR
10
2000
20
4500
11
2000
21
3500
0
LINE
8
A-DOOR
10
5800
20
200
11
5800
21
1100
0
LINE
8
A-DOOR
10
200
20
6900
11
200
21
7800
0
LINE
8
A-STAI
10
6400
20
3000
11
7600
21
3000
0
LINE
8
A-STAI
10
6400
20
3120
11
7600
21
3120
0
LINE
8
A-STAI
10
6400
20
3240
11
7600
21
3240
0
LINE
8
A-STAI
10
6400
20
3360
11
7600
21
3360
0
LINE
8
A-STAI
10
6400
20
3480
11
7600
21
3480
0
LINE
8
A-STAI
10
6400
20
3600
11
7600
21
3600
0
LINE
8
A-STAI
10
6400
20
3720
11
7600
21
3720
0
LINE
8
A-STAI
10
6400
20
3840
11
7600
21
3840
0
LINE
8
A-STAI
10
6400
20
3960
11
7600
21
3960
0
LINE
8
A-STAI
10
6400
20
4080
11
7600
21
4080
0
LINE
8
A-STAI
10
6400
20
4200
11
7600
21
4200
0
LINE
8
A-STAI
10
6400
20
4320
11
7600
21
4320
0
LINE
8
A-STAI
10
6400
20
4440
11
7600
21
4440
0
LINE
8
A-STAI
10
6400
20
4560
11
7600
21
4560
0
LINE
8
A-STAI
10
6400
20
4680
11
7600
21
4680
0
LINE
8
A-STAI
10
6400
20
4800
11
7600
21
4800
0
LINE
8
A-STAI
10
6400
20
4920
11
7600
21
4920
0
LINE
8
A-STAI
10
6400
20
5040
11
7600
21
5040
0
LINE
8
A-STAI
10
6400
20
5160
11
7600
21
5160
0
LINE
8
A-STAI
10
6400
20
5280
11
7600
21
5280
0
LINE
8
A-STAI
10
6400
20
5400
11
7600
21
5400
0
LINE
8
A-HIDD
10
6400
20
4200
11
7600
21
4200
0
LINE
8
A-STAI
10
7500
20
3000
11
7500
21
5400
0
TEXT
8
A-TEXT
10
6600
20
4800
40
3
1
↑ 上
0
LINE
8
A-AXIS
10
2000
20
-300
11
2000
21
8800
0
CIRCLE
8
A-AXIS
10
2000
20
-400
40
150
0
TEXT
8
A-TEXT
10
1970
20
-410
40
150
1
J
0
CIRCLE
8
A-AXIS
10
2000
20
8900
40
150
0
TEXT
8
A-TEXT
10
1970
20
8890
40
150
1
J
0
LINE
8
A-AXIS
10
5700
20
-300
11
5700
21
8800
0
CIRCLE
8
A-AXIS
10
5700
20
-400
40
150
0
TEXT
8
A-TEXT
10
5670
20
-410
40
150
1
H
0
CIRCLE
8
A-AXIS
10
5700
20
8900
40
150
0
TEXT
8
A-TEXT
10
5670
20
8890
40
150
1
H
0
LINE
8
A-DIM
10
0
20
-200
11
17900
21
-200
0
TEXT
8
A-TEXT
10
8750
20
-250
40
3
1
17900
0
LINE
8
A-DIM
10
2000
20
-100
11
5900
21
-100
0
TEXT
8
A-TEXT
10
3750
20
-150
40
3
1
3700
0
TEXT
8
A-TEXT
10
200
20
6100
40
3
1
H高=3600
0
TEXT
8
A-TEXT
10
200
20
5900
40
3
1
H低=3100
0
TEXT
8
A-TEXT
10
6400
20
2800
40
3
1
下20步
0
TEXT
8
A-TEXT
10
400
20
8100
40
2.5
1
L=1120
0
TEXT
8
A-TEXT
10
3600
20
8100
40
2.5
1
L=900
0
TEXT
8
A-TEXT
10
300
20
5800
40
2.5
1
L=920 H=1450
0
TEXT
8
A-TEXT
10
300
20
500
40
2.5
1
L=920 H=1440
0
TEXT
8
A-TEXT
10
2100
20
4200
40
3
1
h=2240
0
TEXT
8
A-TEXT
10
2300
20
5000
40
2.5
1
强电箱
0
TEXT
8
A-TEXT
10
3500
20
4000
40
3.5
1
房间
0
TEXT
8
A-TEXT
10
3500
20
7500
40
3.5
1
阳台
0
ENDSEC
0
EOF