<?xml version="1.0" encoding="utf-8" ?>
<svg baseProfile="full" height="700px" version="1.1" width="1000px" xmlns="http://www.w3.org/2000/svg" xmlns:ev="http://www.w3.org/2001/xml-events" xmlns:xlink="http://www.w3.org/1999/xlink"><defs /><rect fill="#f8f8f8" height="700" width="1000" x="0" y="0" /><line stroke="#eee" stroke-width="0.2" x1="60.0" x2="60.0" y1="600.0" y2="217.5" /><line stroke="#eee" stroke-width="0.2" x1="105.0" x2="105.0" y1="600.0" y2="217.5" /><line stroke="#eee" stroke-width="0.2" x1="150.0" x2="150.0" y1="600.0" y2="217.5" /><line stroke="#eee" stroke-width="0.2" x1="195.0" x2="195.0" y1="600.0" y2="217.5" /><line stroke="#eee" stroke-width="0.2" x1="240.0" x2="240.0" y1="600.0" y2="217.5" /><line stroke="#eee" stroke-width="0.2" x1="285.0" x2="285.0" y1="600.0" y2="217.5" /><line stroke="#eee" stroke-width="0.2" x1="330.0" x2="330.0" y1="600.0" y2="217.5" /><line stroke="#eee" stroke-width="0.2" x1="375.0" x2="375.0" y1="600.0" y2="217.5" /><line stroke="#eee" stroke-width="0.2" x1="420.0" x2="420.0" y1="600.0" y2="217.5" /><line stroke="#eee" stroke-width="0.2" x1="465.0" x2="465.0" y1="600.0" y2="217.5" /><line stroke="#eee" stroke-width="0.2" x1="510.0" x2="510.0" y1="600.0" y2="217.5" /><line stroke="#eee" stroke-width="0.2" x1="555.0" x2="555.0" y1="600.0" y2="217.5" /><line stroke="#eee" stroke-width="0.2" x1="600.0" x2="600.0" y1="600.0" y2="217.5" /><line stroke="#eee" stroke-width="0.2" x1="645.0" x2="645.0" y1="600.0" y2="217.5" /><line stroke="#eee" stroke-width="0.2" x1="690.0" x2="690.0" y1="600.0" y2="217.5" /><line stroke="#eee" stroke-width="0.2" x1="735.0" x2="735.0" y1="600.0" y2="217.5" /><line stroke="#eee" stroke-width="0.2" x1="780.0" x2="780.0" y1="600.0" y2="217.5" /><line stroke="#eee" stroke-width="0.2" x1="825.0" x2="825.0" y1="600.0" y2="217.5" /><line stroke="#eee" stroke-width="0.2" x1="60.0" x2="865.5" y1="600.0" y2="600.0" /><line stroke="#eee" stroke-width="0.2" x1="60.0" x2="865.5" y1="555.0" y2="555.0" /><line stroke="#eee" stroke-width="0.2" x1="60.0" x2="865.5" y1="510.0" y2="510.0" /><line stroke="#eee" stroke-width="0.2" x1="60.0" x2="865.5" y1="465.0" y2="465.0" /><line stroke="#eee" stroke-width="0.2" x1="60.0" x2="865.5" y1="420.0" y2="420.0" /><line stroke="#eee" stroke-width="0.2" x1="60.0" x2="865.5" y1="375.0" y2="375.0" /><line stroke="#eee" stroke-width="0.2" x1="60.0" x2="865.5" y1="330.0" y2="330.0" /><line stroke="#eee" stroke-width="0.2" x1="60.0" x2="865.5" y1="285.0" y2="285.0" /><line stroke="#eee" stroke-width="0.2" x1="60.0" x2="865.5" y1="240.0" y2="240.0" /><line stroke="magenta" stroke-width="2.5" x1="60.0" x2="150.0" y1="330.0" y2="330.0" /><line stroke="magenta" stroke-width="2.5" x1="150.0" x2="150.0" y1="330.0" y2="600.0" /><line stroke="magenta" stroke-width="2.5" x1="150.0" x2="865.5" y1="600.0" y2="600.0" /><line stroke="magenta" stroke-width="2.5" x1="865.5" x2="865.5" y1="600.0" y2="330.0" /><line stroke="magenta" stroke-width="2.5" x1="865.5" x2="325.5" y1="330.0" y2="330.0" /><line stroke="magenta" stroke-width="2.5" x1="325.5" x2="325.5" y1="330.0" y2="217.5" /><line stroke="magenta" stroke-width="2.5" x1="325.5" x2="60.0" y1="217.5" y2="217.5" /><line stroke="magenta" stroke-width="2.5" x1="60.0" x2="60.0" y1="217.5" y2="330.0" /><line stroke="magenta" stroke-width="2.5" x1="150.0" x2="325.5" y1="496.5" y2="496.5" /><line stroke="magenta" stroke-width="2.5" x1="60.0" x2="150.0" y1="307.5" y2="307.5" /><rect fill="#bbb" height="382.5" stroke="#888" stroke-width="1" width="9.0" x="60.0" y="217.5" /><rect fill="#bbb" height="382.5" stroke="#888" stroke-width="1" width="9.0" x="141.0" y="217.5" /><rect fill="#bbb" height="382.5" stroke="#888" stroke-width="1" width="9.0" x="316.5" y="217.5" /><rect fill="#bbb" height="382.5" stroke="#888" stroke-width="1" width="9.0" x="397.5" y="217.5" /><rect fill="#bbb" height="9.0" stroke="#888" stroke-width="1" width="805.5" x="60.0" y="330.0" /><line stroke="blue" stroke-width="2" x1="69.0" x2="119.4" y1="218.40000000000003" y2="218.40000000000003" /><line stroke="blue" stroke-width="2" x1="69.0" x2="119.4" y1="225.60000000000002" y2="225.60000000000002" /><line stroke="blue" stroke-width="2" x1="217.5" x2="258.0" y1="218.40000000000003" y2="218.40000000000003" /><line stroke="blue" stroke-width="2" x1="217.5" x2="258.0" y1="225.60000000000002" y2="225.60000000000002" /><line stroke="blue" stroke-width="2" x1="69.0" x2="110.4" y1="326.40000000000003" y2="326.40000000000003" /><line stroke="blue" stroke-width="2" x1="69.0" x2="110.4" y1="333.6" y2="333.6" /><line stroke="blue" stroke-width="2" x1="69.0" x2="110.4" y1="596.4" y2="596.4" /><line stroke="blue" stroke-width="2" x1="69.0" x2="110.4" y1="603.6" y2="603.6" /><line stroke="blue" stroke-width="2" x1="284.1" x2="325.5" y1="596.4" y2="596.4" /><line stroke="blue" stroke-width="2" x1="284.1" x2="325.5" y1="603.6" y2="603.6" /><line stroke="blue" stroke-width="2" x1="334.5" x2="375.9" y1="470.4" y2="470.4" /><line stroke="blue" stroke-width="2" x1="334.5" x2="375.9" y1="477.6" y2="477.6" /><line stroke="cyan" stroke-width="2" x1="150.0" x2="150.0" y1="397.5" y2="442.5" /><line stroke="cyan" stroke-width="2" x1="321.0" x2="321.0" y1="591.0" y2="550.5" /><line stroke="cyan" stroke-width="2" x1="69.0" x2="69.0" y1="289.5" y2="249.0" /><line stroke="#888" stroke-width="0.8" x1="348.0" x2="402.0" y1="465.0" y2="465.0" /><line stroke="#888" stroke-width="0.8" x1="348.0" x2="402.0" y1="459.6" y2="459.6" /><line stroke="#888" stroke-width="0.8" x1="348.0" x2="402.0" y1="454.20000000000005" y2="454.20000000000005" /><line stroke="#888" stroke-width="0.8" x1="348.0" x2="402.0" y1="448.8" y2="448.8" /><line stroke="#888" stroke-width="0.8" x1="348.0" x2="402.0" y1="443.4" y2="443.4" /><line stroke="#888" stroke-width="0.8" x1="348.0" x2="402.0" y1="438.0" y2="438.0" /><line stroke="#888" stroke-width="0.8" x1="348.0" x2="402.0" y1="432.6" y2="432.6" /><line stroke="#888" stroke-width="0.8" x1="348.0" x2="402.0" y1="427.20000000000005" y2="427.20000000000005" /><line stroke="#888" stroke-width="0.8" x1="348.0" x2="402.0" y1="421.8" y2="421.8" /><line stroke="#888" stroke-width="0.8" x1="348.0" x2="402.0" y1="416.4" y2="416.4" /><line stroke="#888" stroke-width="0.8" x1="348.0" x2="402.0" y1="411.0" y2="411.0" /><line stroke="#888" stroke-width="0.8" x1="348.0" x2="402.0" y1="405.6" y2="405.6" /><line stroke="#888" stroke-width="0.8" x1="348.0" x2="402.0" y1="400.20000000000005" y2="400.20000000000005" /><line stroke="#888" stroke-width="0.8" x1="348.0" x2="402.0" y1="394.8" y2="394.8" /><line stroke="#888" stroke-width="0.8" x1="348.0" x2="402.0" y1="389.4" y2="389.4" /><line stroke="#888" stroke-width="0.8" x1="348.0" x2="402.0" y1="384.0" y2="384.0" /><line stroke="#888" stroke-width="0.8" x1="348.0" x2="402.0" y1="378.6" y2="378.6" /><line stroke="#888" stroke-width="0.8" x1="348.0" x2="402.0" y1="373.20000000000005" y2="373.20000000000005" /><line stroke="#888" stroke-width="0.8" x1="348.0" x2="402.0" y1="367.8" y2="367.8" /><line stroke="#888" stroke-width="0.8" x1="348.0" x2="402.0" y1="362.4" y2="362.4" /><line stroke="#888" stroke-width="0.8" x1="348.0" x2="402.0" y1="357.0" y2="357.0" /><line stroke="#888" stroke-width="2" x1="397.5" x2="397.5" y1="465.0" y2="357.0" /><text fill="red" font-size="9" x="352.5" y="384.0">↑ 上</text><line stroke="red" stroke-dasharray="10,5" stroke-width="0.8" x1="150.0" x2="150.0" y1="609.0" y2="208.5" /><circle cx="150.0" cy="613.5" fill="white" r="8" stroke="red" stroke-width="1" /><text fill="red" font-size="8" text-anchor="middle" x="146.0" y="613.635">J</text><circle cx="150.0" cy="204.0" fill="white" r="8" stroke="red" stroke-width="1" /><text fill="red" font-size="8" text-anchor="middle" x="146.0" y="204.135">J</text><line stroke="red" stroke-dasharray="10,5" stroke-width="0.8" x1="316.5" x2="316.5" y1="609.0" y2="208.5" /><circle cx="316.5" cy="613.5" fill="white" r="8" stroke="red" stroke-width="1" /><text fill="red" font-size="8" text-anchor="middle" x="312.5" y="613.635">H</text><circle cx="316.5" cy="204.0" fill="white" r="8" stroke="red" stroke-width="1" /><text fill="red" font-size="8" text-anchor="middle" x="312.5" y="204.135">H</text><line stroke="green" stroke-width="1" x1="60.0" x2="865.5" y1="605.4" y2="605.4" /><text fill="green" font-size="10" text-anchor="middle" x="462.75" y="605.85">17900</text><line stroke="green" stroke-width="1" x1="150.0" x2="325.5" y1="603.6" y2="603.6" /><text fill="green" font-size="9" text-anchor="middle" x="237.75" y="604.05">3700</text><text fill="green" font-family="sans-serif" font-size="9" x="462.75" y="312.0">H高=3600</text><text fill="green" font-family="sans-serif" font-size="9" x="462.75" y="348.0">H低=3100</text><text fill="blue" font-family="sans-serif" font-size="9" x="78.0" y="235.5">L=1120</text><text fill="blue" font-family="sans-serif" font-size="9" x="222.0" y="235.5">L=900</text><text fill="blue" font-family="sans-serif" font-size="9" x="73.5" y="339.0">L=920 H=1450</text><text fill="blue" font-family="sans-serif" font-size="9" x="73.5" y="577.5">L=920 H=1440</text><text fill="green" font-family="sans-serif" font-size="9" x="154.5" y="411.0">h=2240</text><text fill="#555" font-family="sans-serif" font-size="9" x="163.5" y="375.0">强电箱</text><text fill="#555" font-family="sans-serif" font-size="9" x="217.5" y="420.0">房间</text><text fill="#555" font-family="sans-serif" font-size="9" x="217.5" y="262.5">阳台</text><text fill="red" font-family="sans-serif" font-size="9" x="348.0" y="474.0">下20步</text><rect fill="magenta" height="12" stroke="#999" stroke-width="0.5" width="14" x="60" y="670" /><text font-size="8" x="78" y="680">墙体 A-WALL</text><rect fill="#bbb" height="12" stroke="#999" stroke-width="0.5" width="14" x="200" y="670" /><text font-size="8" x="218" y="680">结构柱 A-COLU</text><rect fill="blue" height="12" stroke="#999" stroke-width="0.5" width="14" x="340" y="670" /><text font-size="8" x="358" y="680">窗 A-WINDW</text><rect fill="cyan" height="12" stroke="#999" stroke-width="0.5" width="14" x="480" y="670" /><text font-size="8" x="498" y="680">门 A-DOOR</text><rect fill="red" height="12" stroke="#999" stroke-width="0.5" width="14" x="620" y="670" /><text font-size="8" x="638" y="680">轴线 A-AXIS</text><rect fill="green" height="12" stroke="#999" stroke-width="0.5" width="14" x="760" y="670" /><text font-size="8" x="778" y="680">尺寸标注 A-DIM</text><text font-size="13" font-weight="bold" text-anchor="middle" x="500" y="30">真实图纸重建 — 基于CAD截图分析 | 17900mm跨度 | J-H轴3700</text></svg>