<?xml version="1.0" encoding="utf-8" ?>
<svg baseProfile="full" height="500px" version="1.1" width="650px" xmlns="http://www.w3.org/2000/svg" xmlns:ev="http://www.w3.org/2001/xml-events" xmlns:xlink="http://www.w3.org/1999/xlink"><defs /><rect fill="#fafafa" height="500" width="650" x="0" y="0" /><text font-size="18" font-weight="bold" x="30" y="20">HATCH (H) — 填充命令</text><text font-size="12" x="30" y="50">用途: 封闭区域填充图案</text><text fill="#444" font-size="11" x="30" y="70">示例: H → 选图案(ANSI31) → 比例50 → 拾取内部点</text><text fill="#aa3333" font-size="11" x="30" y="90">常见错误: 边界不封闭导致无法填充</text><text fill="#666" font-size="10" x="30" y="110">小知识: HATCH还可以填充渐变色和纯色块</text><text font-size="12" font-weight="bold" x="30" y="140">练习题:</text><text fill="#336699" font-size="11" x="30" y="158">对墙体剖面填充（比例合适，不要过密或过疏）</text><line stroke="#ddd" stroke-width="0.5" x1="30" x2="600" y1="233" y2="233" /><line stroke="#ddd" stroke-width="0.5" x1="300" x2="300" y1="193" y2="283" /><rect fill="#ddd" height="70" stroke="#222" stroke-width="2" width="300" x="150" y="198" /><line stroke="#999" stroke-width="0.5" x1="150" x2="180" y1="198" y2="268" /><line stroke="#999" stroke-width="0.5" x1="165" x2="195" y1="198" y2="268" /><line stroke="#999" stroke-width="0.5" x1="180" x2="210" y1="198" y2="268" /><line stroke="#999" stroke-width="0.5" x1="195" x2="225" y1="198" y2="268" /><line stroke="#999" stroke-width="0.5" x1="210" x2="240" y1="198" y2="268" /><line stroke="#999" stroke-width="0.5" x1="225" x2="255" y1="198" y2="268" /><line stroke="#999" stroke-width="0.5" x1="240" x2="270" y1="198" y2="268" /><line stroke="#999" stroke-width="0.5" x1="255" x2="285" y1="198" y2="268" /><line stroke="#999" stroke-width="0.5" x1="270" x2="300" y1="198" y2="268" /><line stroke="#999" stroke-width="0.5" x1="285" x2="315" y1="198" y2="268" /><line stroke="#999" stroke-width="0.5" x1="300" x2="330" y1="198" y2="268" /><line stroke="#999" stroke-width="0.5" x1="315" x2="345" y1="198" y2="268" /><line stroke="#999" stroke-width="0.5" x1="330" x2="360" y1="198" y2="268" /><line stroke="#999" stroke-width="0.5" x1="345" x2="375" y1="198" y2="268" /><line stroke="#999" stroke-width="0.5" x1="360" x2="390" y1="198" y2="268" /><line stroke="#999" stroke-width="0.5" x1="375" x2="405" y1="198" y2="268" /><line stroke="#999" stroke-width="0.5" x1="390" x2="420" y1="198" y2="268" /><line stroke="#999" stroke-width="0.5" x1="405" x2="435" y1="198" y2="268" /><line stroke="#999" stroke-width="0.5" x1="420" x2="450" y1="198" y2="268" /><line stroke="#999" stroke-width="0.5" x1="435" x2="465" y1="198" y2="268" /><line stroke="#999" stroke-width="0.5" x1="450" x2="480" y1="198" y2="268" /><line stroke="#999" stroke-width="0.5" x1="465" x2="495" y1="198" y2="268" /><line stroke="#999" stroke-width="0.5" x1="480" x2="510" y1="198" y2="268" /><line stroke="#999" stroke-width="0.5" x1="495" x2="525" y1="198" y2="268" /></svg>