<?xml version="1.0" encoding="utf-8" ?>
<svg baseProfile="full" height="550px" version="1.1" width="750px" xmlns="http://www.w3.org/2000/svg" xmlns:ev="http://www.w3.org/2001/xml-events" xmlns:xlink="http://www.w3.org/1999/xlink"><defs /><rect fill="#f8f8f8" height="550" width="750" x="0" y="0" /><line stroke="#f0f0f0" stroke-width="0.5" x1="30" x2="30" y1="500" y2="50" /><line stroke="#f0f0f0" stroke-width="0.5" x1="130" x2="130" y1="500" y2="50" /><line stroke="#f0f0f0" stroke-width="0.5" x1="230" x2="230" y1="500" y2="50" /><line stroke="#f0f0f0" stroke-width="0.5" x1="330" x2="330" y1="500" y2="50" /><line stroke="#f0f0f0" stroke-width="0.5" x1="430" x2="430" y1="500" y2="50" /><line stroke="#f0f0f0" stroke-width="0.5" x1="530" x2="530" y1="500" y2="50" /><line stroke="#f0f0f0" stroke-width="0.5" x1="630" x2="630" y1="500" y2="50" /><line stroke="#f0f0f0" stroke-width="0.5" x1="730" x2="730" y1="500" y2="50" /><line stroke="#f0f0f0" stroke-width="0.5" x1="30" x2="730" y1="500" y2="500" /><line stroke="#f0f0f0" stroke-width="0.5" x1="30" x2="730" y1="450" y2="450" /><line stroke="#f0f0f0" stroke-width="0.5" x1="30" x2="730" y1="400" y2="400" /><line stroke="#f0f0f0" stroke-width="0.5" x1="30" x2="730" y1="350" y2="350" /><line stroke="#f0f0f0" stroke-width="0.5" x1="30" x2="730" y1="300" y2="300" /><line stroke="#f0f0f0" stroke-width="0.5" x1="30" x2="730" y1="250" y2="250" /><line stroke="#f0f0f0" stroke-width="0.5" x1="30" x2="730" y1="200" y2="200" /><line stroke="#f0f0f0" stroke-width="0.5" x1="30" x2="730" y1="150" y2="150" /><line stroke="#f0f0f0" stroke-width="0.5" x1="30" x2="730" y1="100" y2="100" /><line stroke="#f0f0f0" stroke-width="0.5" x1="30" x2="730" y1="50" y2="50" /><line stroke="#222" stroke-width="3" x1="130" x2="630" y1="450" y2="450" /><line stroke="#222" stroke-width="3" x1="630" x2="630" y1="450" y2="100" /><line stroke="#222" stroke-width="3" x1="630" x2="130" y1="100" y2="100" /><line stroke="#222" stroke-width="3" x1="130" x2="130" y1="100" y2="450" /><line stroke="#222" stroke-width="3" x1="390" x2="390" y1="450" y2="350" /><line stroke="#222" stroke-width="3" x1="390" x2="390" y1="300" y2="100" /><line stroke="#222" stroke-width="3" x1="130" x2="630" y1="250" y2="250" /><line stroke="#4a8" stroke-width="2" x1="430" x2="580" y1="445" y2="445" /><line stroke="#4a8" stroke-width="2" x1="430" x2="580" y1="455" y2="455" /><text fill="#4a8" font-size="9" x="500.0" y="450.0">窗</text><line stroke="#888" stroke-dasharray="4,2" stroke-width="1.5" x1="390" x2="390" y1="350" y2="300" /><circle cx="390" cy="350" fill="none" r="50" stroke="#4a8" stroke-width="0.5" /><path d="M 340.0,350.0 A 50,50 0 0,1 390.0,300.0" fill="none" stroke="#4a8" stroke-width="1" /><text fill="#4a8" font-size="9" x="395" y="325">门</text><text fill="#555" font-size="12" font-weight="bold" text-anchor="middle" x="260" y="350">客厅
260x200</text><text fill="#555" font-size="12" font-weight="bold" text-anchor="middle" x="510" y="350">卧室
240x200</text><text fill="#555" font-size="12" font-weight="bold" text-anchor="middle" x="260" y="175">厨房
260x150</text><line stroke="green" stroke-width="1" x1="130" x2="630" y1="520" y2="520" /><text fill="green" font-size="9" text-anchor="middle" x="380" y="522">500</text><line stroke="green" stroke-width="1" x1="0" x2="0" y1="450" y2="100" /><text fill="green" font-size="9" text-anchor="end" x="-5" y="275">350</text><line stroke="green" stroke-width="0.5" x1="130" x2="390" y1="540" y2="540" /><text fill="green" font-size="8" text-anchor="middle" x="260" y="542">260</text><line stroke="green" stroke-width="0.5" x1="390" x2="630" y1="540" y2="540" /><text fill="green" font-size="8" text-anchor="middle" x="510" y="542">240</text><text font-size="14" font-weight="bold" x="250" y="540">第一阶段实战：坐标系统综合训练</text><text fill="#999" font-size="9" x="100" y="520">绝对坐标(WCS)画墙体 → 相对坐标画门洞 → 极坐标画门弧</text></svg>