<?xml version="1.0" encoding="utf-8" ?>
<svg baseProfile="full" height="650px" version="1.1" width="850px" xmlns="http://www.w3.org/2000/svg" xmlns:ev="http://www.w3.org/2001/xml-events" xmlns:xlink="http://www.w3.org/1999/xlink"><defs /><rect fill="#f8f8f8" height="650" width="850" x="0" y="0" /><line stroke="#000" stroke-width="3" x1="50.0" x2="610.0" y1="570.0" y2="570.0" /><line stroke="#000" stroke-width="3" x1="610.0" x2="610.0" y1="570.0" y2="149.99999999999994" /><line stroke="#000" stroke-width="3" x1="610.0" x2="50.0" y1="149.99999999999994" y2="149.99999999999994" /><line stroke="#000" stroke-width="3" x1="50.0" x2="50.0" y1="149.99999999999994" y2="570.0" /><line stroke="#000" stroke-width="3" x1="260.0" x2="260.0" y1="570.0" y2="325.0" /><line stroke="#000" stroke-width="3" x1="435.00000000000006" x2="435.00000000000006" y1="570.0" y2="325.0" /><line stroke="#000" stroke-width="3" x1="50.0" x2="610.0" y1="325.0" y2="325.0" /><line stroke="#00a" stroke-width="2" x1="155.0" x2="225.00000000000003" y1="149.99999999999994" y2="149.99999999999994" /><line stroke="#00a" stroke-width="2" x1="470.00000000000006" x2="540.0" y1="149.99999999999994" y2="149.99999999999994" /><line stroke="#080" stroke-width="2" x1="260.0" x2="260.0" y1="465.0" y2="444.0" /><line stroke="#080" stroke-width="2" x1="435.00000000000006" x2="435.00000000000006" y1="430.0" y2="409.0" /><line stroke="green" stroke-width="1" x1="50.0" x2="610.0" y1="605.0" y2="605.0" /><text fill="#555" font-size="14" text-anchor="middle" x="155.0" y="465.0">卧室</text><text fill="#555" font-size="14" text-anchor="middle" x="347.5" y="465.0">客厅</text><text fill="#555" font-size="14" text-anchor="middle" x="522.5" y="465.0">厨房</text><text fill="#555" font-size="14" text-anchor="middle" x="330.0" y="233.99999999999994">阳台</text><line stroke="green" stroke-width="1" x1="50.0" x2="610.0" y1="50.0" y2="577.0" /><text fill="green" font-size="10" text-anchor="middle" x="330.0" y="578.4">8000</text><text fill="green" font-size="10" text-anchor="middle" x="44.4" y="360.0">6000</text><rect fill="#000" height="12" width="12" x="50" y="600" /><text font-size="9" x="65" y="610">墙体 A-WALL</text><rect fill="#080" height="12" width="12" x="230" y="600" /><text font-size="9" x="245" y="610">门 A-DOOR</text><rect fill="#00a" height="12" width="12" x="410" y="600" /><text font-size="9" x="425" y="610">窗 A-WINDW</text><rect fill="green" height="12" width="12" x="590" y="600" /><text font-size="9" x="605" y="610">标注 A-DIM</text><text font-size="16" font-weight="bold" text-anchor="middle" x="380" y="25">建筑平面图 实践 — 住宅平面</text></svg>