<?xml version="1.0" encoding="utf-8" ?>
<svg baseProfile="full" height="500px" version="1.1" width="600px" xmlns="http://www.w3.org/2000/svg" xmlns:ev="http://www.w3.org/2001/xml-events" xmlns:xlink="http://www.w3.org/1999/xlink"><defs /><rect fill="#f8f8f8" height="500" width="600" x="0" y="0" /><circle cx="50" cy="400" fill="red" r="4" /><text fill="red" font-size="10" x="50" y="420">(0,0)</text><line stroke="#ccc" stroke-dasharray="5,3" stroke-width="1" x1="50" x2="550" y1="400" y2="400" /><text fill="#999" font-size="9" x="550" y="395">X 轴 →</text><line stroke="#ccc" stroke-width="1" x1="150" x2="150" y1="395" y2="405" /><text fill="#999" font-size="7" x="145" y="415">100</text><line stroke="#ccc" stroke-width="1" x1="250" x2="250" y1="395" y2="405" /><text fill="#999" font-size="7" x="245" y="415">200</text><line stroke="#ccc" stroke-width="1" x1="350" x2="350" y1="395" y2="405" /><text fill="#999" font-size="7" x="345" y="415">300</text><line stroke="#ccc" stroke-width="1" x1="450" x2="450" y1="395" y2="405" /><text fill="#999" font-size="7" x="445" y="415">400</text><line stroke="#ccc" stroke-width="1" x1="550" x2="550" y1="395" y2="405" /><line stroke="#ccc" stroke-dasharray="5,3" stroke-width="1" x1="50" x2="50" y1="400" y2="50" /><text fill="#999" font-size="9" x="10" y="55">Y 轴 ↑</text><line stroke="#ccc" stroke-width="1" x1="45" x2="55" y1="350" y2="350" /><text fill="#999" font-size="7" x="20" y="353">50</text><line stroke="#ccc" stroke-width="1" x1="45" x2="55" y1="300" y2="300" /><text fill="#999" font-size="7" x="20" y="303">100</text><line stroke="#ccc" stroke-width="1" x1="45" x2="55" y1="250" y2="250" /><text fill="#999" font-size="7" x="20" y="253">150</text><line stroke="#ccc" stroke-width="1" x1="45" x2="55" y1="200" y2="200" /><text fill="#999" font-size="7" x="20" y="203">200</text><line stroke="#ccc" stroke-width="1" x1="45" x2="55" y1="150" y2="150" /><text fill="#999" font-size="7" x="20" y="153">250</text><line stroke="#ccc" stroke-width="1" x1="45" x2="55" y1="100" y2="100" /><text fill="#999" font-size="7" x="20" y="103">300</text><line stroke="#ccc" stroke-width="1" x1="45" x2="55" y1="50" y2="50" /><text fill="#999" font-size="7" x="20" y="53">350</text><line stroke="black" stroke-width="2.5" x1="150" x2="450" y1="300" y2="300" /><line stroke="black" stroke-width="2.5" x1="450" x2="450" y1="300" y2="50" /><line stroke="black" stroke-width="2.5" x1="450" x2="150" y1="50" y2="50" /><line stroke="black" stroke-width="2.5" x1="150" x2="150" y1="50" y2="300" /><text fill="#555" font-size="8" x="155" y="303">A(100,100)</text><text fill="#555" font-size="8" x="455" y="303">B(400,100)</text><text fill="#555" font-size="8" x="455" y="53">C(400,350)</text><text fill="#555" font-size="8" x="155" y="53">D(100,350)</text><text font-size="14" font-weight="bold" x="200" y="480">绝对坐标 (WCS) 绘图</text><text fill="#666" font-size="9" x="50" y="460">点A→B: (100,100) → (400,100)  向右300mm</text><text fill="#666" font-size="9" x="50" y="445">点B→C: (400,100) → (400,350)  向上250mm</text></svg>