<?xml version="1.0" encoding="utf-8" ?>
<svg baseProfile="full" height="550px" version="1.1" width="700px" xmlns="http://www.w3.org/2000/svg" xmlns:ev="http://www.w3.org/2001/xml-events" xmlns:xlink="http://www.w3.org/1999/xlink"><defs /><rect fill="white" height="550" width="700" x="0" y="0" /><text font-size="16" font-weight="bold" x="30" y="10">图层 (Layer) 训练 - 每个图层用不同颜色/线宽/线型</text><rect fill="#000000" height="12" width="20" x="30" y="35" /><line stroke="#000000" stroke-width="3" x1="55" x2="110" y1="41" y2="41" /><text fill="#333" font-size="10" x="115" y="45">A-WALL  (墙体)</text><rect fill="#666666" height="12" width="20" x="30" y="57" /><line stroke="#666666" stroke-width="1" x1="55" x2="110" y1="63" y2="63" /><text fill="#333" font-size="10" x="115" y="67">A-WALL-H  (墙体填充)</text><rect fill="#008888" height="12" width="20" x="30" y="79" /><line stroke="#008888" stroke-width="2" x1="55" x2="110" y1="85" y2="85" /><text fill="#333" font-size="10" x="115" y="89">A-DOOR  (门)</text><rect fill="#0044aa" height="12" width="20" x="30" y="101" /><line stroke="#0044aa" stroke-width="2" x1="55" x2="110" y1="107" y2="107" /><text fill="#333" font-size="10" x="115" y="111">A-WINDW  (窗)</text><rect fill="#cc00cc" height="12" width="20" x="30" y="123" /><line stroke="#cc00cc" stroke-width="1.5" x1="55" x2="110" y1="129" y2="129" /><text fill="#333" font-size="10" x="115" y="133">A-FURN  (家具)</text><rect fill="#008800" height="12" width="20" x="30" y="145" /><line stroke="#008800" stroke-width="1" x1="55" x2="110" y1="151" y2="151" /><text fill="#333" font-size="10" x="115" y="155">A-DIM  (标注)</text><rect fill="#000000" height="12" width="20" x="30" y="167" /><line stroke="#000000" stroke-width="1" x1="55" x2="110" y1="173" y2="173" /><text fill="#333" font-size="10" x="115" y="177">A-TEXT  (文字)</text><rect fill="#cc0000" height="12" width="20" x="30" y="189" /><line stroke="#cc0000" stroke-dasharray="7,4" stroke-width="0.5" x1="55" x2="110" y1="195" y2="195" /><text fill="#333" font-size="10" x="115" y="199">A-AXIS  (轴线)</text><rect fill="#ccaa00" height="12" width="20" x="30" y="211" /><line stroke="#ccaa00" stroke-dasharray="6,3,1,3" stroke-width="1" x1="55" x2="110" y1="217" y2="217" /><text fill="#333" font-size="10" x="115" y="221">A-HIDD  (隐藏线)</text><rect fill="#999999" height="12" width="20" x="30" y="233" /><line stroke="#999999" stroke-dasharray="3,4" stroke-width="0.5" x1="55" x2="110" y1="239" y2="239" /><text fill="#333" font-size="10" x="115" y="243">A-DOTE  (辅助线)</text><line stroke="#cc0000" stroke-dasharray="5,3" stroke-width="0.5" x1="280" x2="280" y1="260" y2="-190" /><line stroke="#cc0000" stroke-dasharray="5,3" stroke-width="0.5" x1="430" x2="430" y1="260" y2="-190" /><line stroke="#cc0000" stroke-dasharray="5,3" stroke-width="0.5" x1="630" x2="630" y1="260" y2="-190" /><line stroke="#cc0000" stroke-dasharray="5,3" stroke-width="0.5" x1="780" x2="780" y1="260" y2="-190" /><line stroke="#cc0000" stroke-dasharray="5,3" stroke-width="0.5" x1="230" x2="830" y1="210" y2="210" /><line stroke="#cc0000" stroke-dasharray="5,3" stroke-width="0.5" x1="230" x2="830" y1="10" y2="10" /><line stroke="#cc0000" stroke-dasharray="5,3" stroke-width="0.5" x1="230" x2="830" y1="-140" y2="-140" /><line stroke="#000000" stroke-width="3" x1="280" x2="780" y1="210" y2="210" /><line stroke="#000000" stroke-width="3" x1="780" x2="780" y1="210" y2="-140" /><line stroke="#000000" stroke-width="3" x1="780" x2="280" y1="-140" y2="-140" /><line stroke="#000000" stroke-width="3" x1="280" x2="280" y1="-140" y2="210" /><line stroke="#000000" stroke-width="3" x1="430" x2="430" y1="210" y2="10" /><line stroke="#000000" stroke-width="3" x1="280" x2="780" y1="10" y2="10" /><line stroke="#008888" stroke-width="2" x1="430" x2="430" y1="130" y2="80" /><path d="M 430,130 A 30,30 0 0,0 460,130" fill="none" stroke="#008888" stroke-width="1" /><line stroke="#0044aa" stroke-width="2" x1="530" x2="680" y1="218" y2="218" /><line stroke="#0044aa" stroke-width="2" x1="530" x2="680" y1="202" y2="202" /><line stroke="#0044aa" stroke-width="0.5" x1="530" x2="530" y1="218" y2="202" /><line stroke="#0044aa" stroke-width="0.5" x1="680" x2="680" y1="218" y2="202" /><rect fill="#f0c0f0" height="100" stroke="#cc00cc" stroke-width="1.5" width="150" x="530" y="-20" /><text fill="#aa00aa" font-size="11" text-anchor="middle" x="605" y="-70">床</text><rect fill="#f0c0f0" height="100" stroke="#cc00cc" stroke-width="1.5" width="130" x="280" y="-20" /><text fill="#aa00aa" font-size="11" text-anchor="middle" x="345" y="-70">沙发</text><rect fill="#f0c0f0" height="80" stroke="#cc00cc" stroke-width="1.5" width="100" x="310" y="210" /><text fill="#aa00aa" font-size="11" text-anchor="middle" x="360" y="170">餐桌</text><line stroke="#008800" stroke-width="1" x1="280" x2="780" y1="250" y2="250" /><text fill="#008800" font-size="10" text-anchor="middle" x="530" y="252">5000</text><line stroke="#008800" stroke-width="1" x1="280" x2="280" y1="245" y2="255" /><line stroke="#008800" stroke-width="1" x1="780" x2="780" y1="245" y2="255" /><text fill="#000000" font-size="14" text-anchor="middle" x="530" y="110">客厅+餐厅</text><text fill="#000000" font-size="14" text-anchor="middle" x="605" y="30">卧室</text><line stroke="#999999" stroke-dasharray="2,3" stroke-width="0.5" x1="430" x2="430" y1="160" y2="50" /></svg>