<?xml version="1.0" encoding="utf-8" ?>
<svg baseProfile="full" height="520px" version="1.1" width="650px" xmlns="http://www.w3.org/2000/svg" xmlns:ev="http://www.w3.org/2001/xml-events" xmlns:xlink="http://www.w3.org/1999/xlink"><defs /><rect fill="#f8f8f8" height="520" width="650" x="0" y="0" /><circle cx="150" cy="380" fill="none" r="150" stroke="#ddd" stroke-width="1" /><line stroke="#e0e0e0" stroke-dasharray="3,3" stroke-width="0.5" x1="150" x2="300.0" y1="380" y2="380.0" /><text fill="#999" font-size="9" x="302.0" y="383.0">0°</text><line stroke="#e0e0e0" stroke-dasharray="3,3" stroke-width="0.5" x1="150" x2="279.9038105676658" y1="380" y2="305.0" /><line stroke="#e0e0e0" stroke-dasharray="3,3" stroke-width="0.5" x1="150" x2="256.06601717798213" y1="380" y2="273.93398282201787" /><line stroke="#e0e0e0" stroke-dasharray="3,3" stroke-width="0.5" x1="150" x2="225.0" y1="380" y2="250.0961894323342" /><line stroke="#e0e0e0" stroke-dasharray="3,3" stroke-width="0.5" x1="150" x2="150.0" y1="380" y2="230.0" /><text fill="#999" font-size="9" x="142.0" y="223.0">90°</text><line stroke="#e0e0e0" stroke-dasharray="3,3" stroke-width="0.5" x1="150" x2="75.00000000000003" y1="380" y2="250.0961894323342" /><line stroke="#e0e0e0" stroke-dasharray="3,3" stroke-width="0.5" x1="150" x2="43.93398282201788" y1="380" y2="273.93398282201787" /><line stroke="#e0e0e0" stroke-dasharray="3,3" stroke-width="0.5" x1="150" x2="20.0961894323342" y1="380" y2="305.0" /><line stroke="#e0e0e0" stroke-dasharray="3,3" stroke-width="0.5" x1="150" x2="0.0" y1="380" y2="380.0" /><text fill="#999" font-size="9" x="-18.0" y="383.0">180°</text><line stroke="#e0e0e0" stroke-dasharray="3,3" stroke-width="0.5" x1="150" x2="20.0961894323342" y1="380" y2="455.0" /><line stroke="#e0e0e0" stroke-dasharray="3,3" stroke-width="0.5" x1="150" x2="43.93398282201785" y1="380" y2="486.06601717798213" /><line stroke="#e0e0e0" stroke-dasharray="3,3" stroke-width="0.5" x1="150" x2="74.99999999999993" y1="380" y2="509.9038105676658" /><line stroke="#e0e0e0" stroke-dasharray="3,3" stroke-width="0.5" x1="150" x2="149.99999999999997" y1="380" y2="530.0" /><text fill="#999" font-size="9" x="141.99999999999997" y="543.0">270°</text><line stroke="#e0e0e0" stroke-dasharray="3,3" stroke-width="0.5" x1="150" x2="225.0" y1="380" y2="509.9038105676658" /><line stroke="#e0e0e0" stroke-dasharray="3,3" stroke-width="0.5" x1="150" x2="256.0660171779821" y1="380" y2="486.06601717798213" /><line stroke="#e0e0e0" stroke-dasharray="3,3" stroke-width="0.5" x1="150" x2="279.90381056766574" y1="380" y2="455.00000000000006" /><circle cx="150" cy="380" fill="red" r="4" /><text fill="red" font-size="9" x="155" y="383">原点 (0,0)</text><line stroke="blue" stroke-width="2.5" x1="250.0" x2="180.90169943749476" y1="380.0" y2="284.89434837048464" /><text fill="blue" font-size="8" x="185.45084971874738" y="327.4471741852423">@100&lt;0°</text><line stroke="blue" stroke-width="2.5" x1="180.90169943749476" x2="69.09830056250527" y1="284.89434837048464" y2="321.2214747707527" /><text fill="blue" font-size="8" x="95.0" y="298.05791157061867">@100&lt;72°</text><line stroke="blue" stroke-width="2.5" x1="69.09830056250527" x2="69.09830056250526" y1="321.2214747707527" y2="438.7785252292473" /><text fill="blue" font-size="8" x="39.09830056250527" y="375.0">@100&lt;144°</text><line stroke="blue" stroke-width="2.5" x1="69.09830056250526" x2="180.90169943749473" y1="438.7785252292473" y2="475.10565162951536" /><text fill="blue" font-size="8" x="95.0" y="451.94208842938133">@100&lt;216°</text><line stroke="blue" stroke-width="2.5" x1="180.90169943749473" x2="250.0" y1="475.10565162951536" y2="380.0" /><text fill="blue" font-size="8" x="185.45084971874735" y="422.5528258147577">@100&lt;288°</text><text font-size="14" font-weight="bold" x="130" y="490">极坐标绘图: @距离&lt;角度</text><text fill="#666" font-size="9" x="50" y="470">从原点出发: @100&lt;0° → @100&lt;72° → @100&lt;144° → @100&lt;216° → @100&lt;288°</text><text fill="#666" font-size="9" x="50" y="455">极坐标非常适合画多边形、圆弧、旋转对称图形</text><text fill="#666" font-size="9" x="50" y="440">在CAD中: @100&lt;45 表示 距离100, 角度45度</text><text fill="#888" font-size="9" x="50" y="425">0° 为正右方, 逆时针为正角度</text></svg>