<?xml version="1.0" encoding="utf-8" ?>
<svg baseProfile="full" height="600px" version="1.1" width="750px" xmlns="http://www.w3.org/2000/svg" xmlns:ev="http://www.w3.org/2001/xml-events" xmlns:xlink="http://www.w3.org/1999/xlink"><defs /><rect fill="#f8f8f8" height="600" width="750" x="0" y="0" /><line stroke="#eee" stroke-width="0.3" x1="30" x2="30" y1="570" y2="20" /><line stroke="#eee" stroke-width="0.3" x1="80" x2="80" y1="570" y2="20" /><line stroke="#eee" stroke-width="0.3" x1="130" x2="130" y1="570" y2="20" /><line stroke="#eee" stroke-width="0.3" x1="180" x2="180" y1="570" y2="20" /><line stroke="#eee" stroke-width="0.3" x1="230" x2="230" y1="570" y2="20" /><line stroke="#eee" stroke-width="0.3" x1="280" x2="280" y1="570" y2="20" /><line stroke="#eee" stroke-width="0.3" x1="330" x2="330" y1="570" y2="20" /><line stroke="#eee" stroke-width="0.3" x1="380" x2="380" y1="570" y2="20" /><line stroke="#eee" stroke-width="0.3" x1="430" x2="430" y1="570" y2="20" /><line stroke="#eee" stroke-width="0.3" x1="480" x2="480" y1="570" y2="20" /><line stroke="#eee" stroke-width="0.3" x1="530" x2="530" y1="570" y2="20" /><line stroke="#eee" stroke-width="0.3" x1="580" x2="580" y1="570" y2="20" /><line stroke="#eee" stroke-width="0.3" x1="630" x2="630" y1="570" y2="20" /><line stroke="#eee" stroke-width="0.3" x1="680" x2="680" y1="570" y2="20" /><line stroke="#eee" stroke-width="0.3" x1="730" x2="730" y1="570" y2="20" /><line stroke="#eee" stroke-width="0.3" x1="30" x2="730" y1="570" y2="570" /><line stroke="#eee" stroke-width="0.3" x1="30" x2="730" y1="520" y2="520" /><line stroke="#eee" stroke-width="0.3" x1="30" x2="730" y1="470" y2="470" /><line stroke="#eee" stroke-width="0.3" x1="30" x2="730" y1="420" y2="420" /><line stroke="#eee" stroke-width="0.3" x1="30" x2="730" y1="370" y2="370" /><line stroke="#eee" stroke-width="0.3" x1="30" x2="730" y1="320" y2="320" /><line stroke="#eee" stroke-width="0.3" x1="30" x2="730" y1="270" y2="270" /><line stroke="#eee" stroke-width="0.3" x1="30" x2="730" y1="220" y2="220" /><line stroke="#eee" stroke-width="0.3" x1="30" x2="730" y1="170" y2="170" /><line stroke="#eee" stroke-width="0.3" x1="30" x2="730" y1="120" y2="120" /><line stroke="#eee" stroke-width="0.3" x1="30" x2="730" y1="70" y2="70" /><line stroke="#eee" stroke-width="0.3" x1="30" x2="730" y1="20" y2="20" /><line stroke="#222" stroke-width="2" x1="60" x2="230" y1="110" y2="110" /><text font-size="11" font-weight="bold" x="60" y="90">LINE 直线 (L)</text><text fill="#888" font-size="8" x="60" y="75">两点确定一条直线段</text><polyline fill="none" points="280,110 380,110 380,170 300,150" stroke="#222" stroke-width="2" /><text font-size="11" font-weight="bold" x="280" y="90">PLINE 多段线 (PL)</text><text fill="#888" font-size="8" x="280" y="75">连续线段+圆弧，整体编辑</text><circle cx="500" cy="140" fill="none" r="40" stroke="#222" stroke-width="2" /><text font-size="11" font-weight="bold" x="470" y="90">CIRCLE 圆 (C)</text><text fill="#888" font-size="8" x="470" y="75">圆心+半径</text><path d="M 610,460 A 50,50 0 0,1 660,400" fill="none" stroke="#222" stroke-width="2" /><text font-size="11" font-weight="bold" x="640" y="90">ARC 圆弧 (A)</text><text fill="#888" font-size="8" x="640" y="75">三点/起点圆心端点</text><path d="M 60,230 110,260 160,220 210,250 260,210" fill="none" stroke="#222" stroke-width="2" /><text font-size="11" font-weight="bold" x="60" y="200">SPLINE 样条曲线</text><text fill="#888" font-size="8" x="60" y="185">平滑连接点</text><ellipse cx="410" cy="240" fill="none" rx="60" ry="30" stroke="#222" stroke-width="2" /><text font-size="11" font-weight="bold" x="350" y="200">ELLIPSE 椭圆 (EL)</text><text fill="#888" font-size="8" x="370" y="185">长短轴</text><rect fill="#ddd" height="60" stroke="#222" stroke-width="1" width="80" x="510" y="270" /><line stroke="#999" stroke-width="0.5" x1="510" x2="510" y1="270" y2="270" /><line stroke="#999" stroke-width="0.5" x1="520" x2="510" y1="270" y2="260" /><line stroke="#999" stroke-width="0.5" x1="530" x2="510" y1="270" y2="250" /><line stroke="#999" stroke-width="0.5" x1="540" x2="510" y1="270" y2="240" /><line stroke="#999" stroke-width="0.5" x1="550" x2="510" y1="270" y2="230" /><line stroke="#999" stroke-width="0.5" x1="560" x2="510" y1="270" y2="220" /><text font-size="11" font-weight="bold" x="510" y="200">HATCH 填充 (H)</text><text fill="#888" font-size="8" x="510" y="185">封闭区域图案填充</text><rect fill="#e8e8ff" height="50" stroke="#222" stroke-width="1" width="50" x="630" y="270" /><circle cx="655" cy="245" fill="#ccf" r="10" stroke="#222" stroke-width="1" /><text font-size="11" font-weight="bold" x="630" y="200">BLOCK 块 (B)</text><text fill="#888" font-size="8" x="640" y="185">组合图块</text><text fill="#222" font-family="sans-serif" font-size="14" x="60" y="320">单行文字示例</text><text font-size="11" font-weight="bold" x="60" y="305">TEXT 单行文字</text><rect fill="#fafafa" height="45" stroke="#ddd" stroke-width="0.5" width="150" x="230" y="360" /><text fill="#222" font-size="11" x="235" y="345">这是一段多行文字</text><text fill="#555" font-size="9" x="235" y="330">可换行
可排版</text><text font-size="11" font-weight="bold" x="230" y="305">MTEXT 多行文字 (MT)</text><line stroke="green" stroke-width="1" x1="450" x2="530" y1="350" y2="350" /><line stroke="green" stroke-width="1" x1="450" x2="450" y1="355" y2="345" /><line stroke="green" stroke-width="1" x1="530" x2="530" y1="355" y2="345" /><text fill="green" font-size="10" text-anchor="middle" x="490" y="352">800</text><text font-size="11" font-weight="bold" x="450" y="330">DIMENSION 标注 (D)</text><polyline fill="none" points="630,330 590,350 580,350" stroke="green" stroke-width="1" /><text fill="green" font-size="8" text-anchor="end" x="570" y="352">引线说明</text><text font-size="11" font-weight="bold" x="590" y="325">LEADER 引线</text><rect fill="#f0f8ff" height="100" stroke="#888" stroke-width="1.5" width="200" x="60" y="520" /><text fill="#666" font-size="12" text-anchor="middle" x="160" y="470">布局视口</text><text fill="#999" font-size="9" text-anchor="middle" x="160" y="455">视口比例 1:50</text><text font-size="11" font-weight="bold" x="60" y="530">VIEWPORT 视口</text><rect fill="none" height="80" stroke="#222" stroke-width="2" width="120" x="310" y="520" /><text font-size="11" font-weight="bold" x="310" y="530">RECTANG 矩形 (REC)</text><polygon fill="none" points="510.0,510.0 548.0422606518061,482.3606797749979 533.511410091699,437.6393202250021 486.4885899083011,437.6393202250021 471.95773934819385,482.3606797749979" stroke="#222" stroke-width="2" /><text font-size="11" font-weight="bold" x="480" y="530">POLYGON 多边形</text><text font-size="16" font-weight="bold" text-anchor="middle" x="250" y="590">CAD 常见对象大全 — 第一阶段训练</text><text fill="#999" font-size="9" text-anchor="middle" x="250" y="575">共 15 种对象，每种可以存放于不同图层</text></svg>