<?xml version="1.0" encoding="utf-8" ?>
<svg baseProfile="full" height="500px" version="1.1" width="650px" xmlns="http://www.w3.org/2000/svg" xmlns:ev="http://www.w3.org/2001/xml-events" xmlns:xlink="http://www.w3.org/1999/xlink"><defs /><rect fill="#f8f8f8" height="500" width="650" x="0" y="0" /><line stroke="#eee" stroke-width="0.5" x1="25" x2="25" y1="25" y2="425" /><line stroke="#eee" stroke-width="0.5" x1="75" x2="75" y1="25" y2="425" /><line stroke="#eee" stroke-width="0.5" x1="125" x2="125" y1="25" y2="425" /><line stroke="#eee" stroke-width="0.5" x1="175" x2="175" y1="25" y2="425" /><line stroke="#eee" stroke-width="0.5" x1="225" x2="225" y1="25" y2="425" /><line stroke="#eee" stroke-width="0.5" x1="275" x2="275" y1="25" y2="425" /><line stroke="#eee" stroke-width="0.5" x1="325" x2="325" y1="25" y2="425" /><line stroke="#eee" stroke-width="0.5" x1="375" x2="375" y1="25" y2="425" /><line stroke="#eee" stroke-width="0.5" x1="425" x2="425" y1="25" y2="425" /><line stroke="#eee" stroke-width="0.5" x1="475" x2="475" y1="25" y2="425" /><line stroke="#eee" stroke-width="0.5" x1="525" x2="525" y1="25" y2="425" /><line stroke="#eee" stroke-width="0.5" x1="575" x2="575" y1="25" y2="425" /><line stroke="#eee" stroke-width="0.5" x1="625" x2="625" y1="25" y2="425" /><line stroke="#eee" stroke-width="0.5" x1="25" x2="625" y1="425" y2="425" /><line stroke="#eee" stroke-width="0.5" x1="25" x2="625" y1="375" y2="375" /><line stroke="#eee" stroke-width="0.5" x1="25" x2="625" y1="325" y2="325" /><line stroke="#eee" stroke-width="0.5" x1="25" x2="625" y1="275" y2="275" /><line stroke="#eee" stroke-width="0.5" x1="25" x2="625" y1="225" y2="225" /><line stroke="#eee" stroke-width="0.5" x1="25" x2="625" y1="175" y2="175" /><line stroke="#eee" stroke-width="0.5" x1="25" x2="625" y1="125" y2="125" /><line stroke="#eee" stroke-width="0.5" x1="25" x2="625" y1="75" y2="75" /><line stroke="#eee" stroke-width="0.5" x1="25" x2="625" y1="25" y2="25" /><circle cx="75" cy="375" fill="red" r="4" /><text fill="red" font-size="9" x="80" y="378">起点 (50,50)</text><line stroke="blue" stroke-width="2" x1="75" x2="275" y1="375" y2="375" /><text fill="blue" font-size="8" x="150.0" y="367.0">@200,0</text><line stroke="blue" stroke-width="2" x1="275" x2="275" y1="375" y2="225" /><text fill="blue" font-size="8" x="280.0" y="303.0">@0,150</text><line stroke="blue" stroke-width="2" x1="275" x2="175" y1="225" y2="225" /><text fill="blue" font-size="8" x="200.0" y="217.0">@-100,0</text><line stroke="blue" stroke-width="2" x1="175" x2="175" y1="225" y2="300" /><text fill="blue" font-size="8" x="180.0" y="265.5">@0,-75</text><circle cx="175" cy="300" fill="green" r="4" /><text fill="green" font-size="9" x="180" y="297">终点 (150,125)</text><text font-size="14" font-weight="bold" x="200" y="480">相对坐标训练  @X,Y</text><text fill="#666" font-size="9" x="50" y="460">从当前位置偏移: @200,0 → @0,150 → @-100,0 → @0,-75</text><text fill="#666" font-size="9" x="50" y="445">相对坐标 = 比绝对坐标更直观的绘图方式</text></svg>