<?xml version="1.0" encoding="utf-8" ?>
<svg baseProfile="full" height="700px" version="1.1" width="900px" xmlns="http://www.w3.org/2000/svg" xmlns:ev="http://www.w3.org/2001/xml-events" xmlns:xlink="http://www.w3.org/1999/xlink"><defs /><rect fill="#f8f8f8" height="700" width="900" x="0" y="0" /><line stroke="#eee" stroke-width="0.3" x1="80.0" x2="80.0" y1="590.0" y2="-90.0" /><line stroke="#eee" stroke-width="0.3" x1="160.0" x2="160.0" y1="590.0" y2="-90.0" /><line stroke="#eee" stroke-width="0.3" x1="240.0" x2="240.0" y1="590.0" y2="-90.0" /><line stroke="#eee" stroke-width="0.3" x1="320.0" x2="320.0" y1="590.0" y2="-90.0" /><line stroke="#eee" stroke-width="0.3" x1="400.0" x2="400.0" y1="590.0" y2="-90.0" /><line stroke="#eee" stroke-width="0.3" x1="480.0" x2="480.0" y1="590.0" y2="-90.0" /><line stroke="#eee" stroke-width="0.3" x1="560.0" x2="560.0" y1="590.0" y2="-90.0" /><line stroke="#eee" stroke-width="0.3" x1="640.0" x2="640.0" y1="590.0" y2="-90.0" /><line stroke="#eee" stroke-width="0.3" x1="720.0" x2="720.0" y1="590.0" y2="-90.0" /><line stroke="#eee" stroke-width="0.3" x1="80.0" x2="720.0" y1="590.0" y2="590.0" /><line stroke="#eee" stroke-width="0.3" x1="80.0" x2="720.0" y1="510.0" y2="510.0" /><line stroke="#eee" stroke-width="0.3" x1="80.0" x2="720.0" y1="430.0" y2="430.0" /><line stroke="#eee" stroke-width="0.3" x1="80.0" x2="720.0" y1="350.0" y2="350.0" /><line stroke="#eee" stroke-width="0.3" x1="80.0" x2="720.0" y1="270.0" y2="270.0" /><line stroke="#eee" stroke-width="0.3" x1="80.0" x2="720.0" y1="190.0" y2="190.0" /><line stroke="#eee" stroke-width="0.3" x1="80.0" x2="720.0" y1="110.0" y2="110.0" /><line stroke="#eee" stroke-width="0.3" x1="80.0" x2="720.0" y1="30.0" y2="30.0" /><line stroke="#eee" stroke-width="0.3" x1="80.0" x2="720.0" y1="-50.0" y2="-50.0" /><rect fill="#f5e6d0" height="400.0" stroke="#999" stroke-width="0.8" width="640.0" x="80.0" y="190.0" /><rect fill="#e8e0d0" height="160.0" stroke="#999" stroke-width="0.8" width="240.0" x="480.0" y="430.0" /><rect fill="#f5e6d0" height="280.0" stroke="#999" stroke-width="0.8" width="120.0" x="320.0" y="-90.0" /><rect fill="#d0d8e8" height="280.0" stroke="#999" stroke-width="0.8" width="160.0" x="440.0" y="-90.0" /><rect fill="#d8c8a0" height="280.0" stroke="#999" stroke-width="0.8" width="120.0" x="320.0" y="-90.0" /><rect fill="#f0e8e0" height="280.0" stroke="#999" stroke-width="0.8" width="240.0" x="80.0" y="-90.0" /><line stroke="#ddc" stroke-width="0.5" x1="80.0" x2="80.0" y1="590.0" y2="190.0" /><line stroke="#ddc" stroke-width="0.5" x1="144.0" x2="144.0" y1="590.0" y2="190.0" /><line stroke="#ddc" stroke-width="0.5" x1="208.0" x2="208.0" y1="590.0" y2="190.0" /><line stroke="#ddc" stroke-width="0.5" x1="272.0" x2="272.0" y1="590.0" y2="190.0" /><line stroke="#ddc" stroke-width="0.5" x1="336.0" x2="336.0" y1="590.0" y2="190.0" /><line stroke="#ddc" stroke-width="0.5" x1="400.0" x2="400.0" y1="590.0" y2="190.0" /><line stroke="#ddc" stroke-width="0.5" x1="464.0" x2="464.0" y1="590.0" y2="190.0" /><line stroke="#ddc" stroke-width="0.5" x1="528.0" x2="528.0" y1="590.0" y2="190.0" /><line stroke="#ddc" stroke-width="0.5" x1="592.0" x2="592.0" y1="590.0" y2="190.0" /><line stroke="#ddc" stroke-width="0.5" x1="656.0" x2="656.0" y1="590.0" y2="190.0" /><line stroke="#ddc" stroke-width="0.5" x1="720.0" x2="720.0" y1="590.0" y2="190.0" /><line stroke="#ddc" stroke-width="0.5" x1="80.0" x2="720.0" y1="590.0" y2="590.0" /><line stroke="#ddc" stroke-width="0.5" x1="80.0" x2="720.0" y1="526.0" y2="526.0" /><line stroke="#ddc" stroke-width="0.5" x1="80.0" x2="720.0" y1="462.0" y2="462.0" /><line stroke="#ddc" stroke-width="0.5" x1="80.0" x2="720.0" y1="398.0" y2="398.0" /><line stroke="#ddc" stroke-width="0.5" x1="80.0" x2="720.0" y1="334.0" y2="334.0" /><line stroke="#ddc" stroke-width="0.5" x1="80.0" x2="720.0" y1="270.0" y2="270.0" /><line stroke="#ddc" stroke-width="0.5" x1="80.0" x2="720.0" y1="206.0" y2="206.0" /><line stroke="#ccc" stroke-width="0.4" x1="480.0" x2="480.0" y1="590.0" y2="430.0" /><line stroke="#ccc" stroke-width="0.4" x1="528.0" x2="528.0" y1="590.0" y2="430.0" /><line stroke="#ccc" stroke-width="0.4" x1="576.0" x2="576.0" y1="590.0" y2="430.0" /><line stroke="#ccc" stroke-width="0.4" x1="624.0" x2="624.0" y1="590.0" y2="430.0" /><line stroke="#ccc" stroke-width="0.4" x1="672.0" x2="672.0" y1="590.0" y2="430.0" /><line stroke="#ccc" stroke-width="0.4" x1="720.0" x2="720.0" y1="590.0" y2="430.0" /><line stroke="#ccc" stroke-width="0.4" x1="480.0" x2="720.0" y1="590.0" y2="590.0" /><line stroke="#ccc" stroke-width="0.4" x1="480.0" x2="720.0" y1="542.0" y2="542.0" /><line stroke="#ccc" stroke-width="0.4" x1="480.0" x2="720.0" y1="494.0" y2="494.0" /><line stroke="#ccc" stroke-width="0.4" x1="480.0" x2="720.0" y1="446.0" y2="446.0" /><line stroke="#bbd" stroke-width="0.3" x1="440.0" x2="440.0" y1="190.0" y2="-90.0" /><line stroke="#bbd" stroke-width="0.3" x1="464.0" x2="464.0" y1="190.0" y2="-90.0" /><line stroke="#bbd" stroke-width="0.3" x1="488.0" x2="488.0" y1="190.0" y2="-90.0" /><line stroke="#bbd" stroke-width="0.3" x1="512.0" x2="512.0" y1="190.0" y2="-90.0" /><line stroke="#bbd" stroke-width="0.3" x1="536.0" x2="536.0" y1="190.0" y2="-90.0" /><line stroke="#bbd" stroke-width="0.3" x1="560.0" x2="560.0" y1="190.0" y2="-90.0" /><line stroke="#bbd" stroke-width="0.3" x1="584.0" x2="584.0" y1="190.0" y2="-90.0" /><line stroke="#bbd" stroke-width="0.3" x1="440.0" x2="600.0" y1="190.0" y2="190.0" /><line stroke="#bbd" stroke-width="0.3" x1="440.0" x2="600.0" y1="166.0" y2="166.0" /><line stroke="#bbd" stroke-width="0.3" x1="440.0" x2="600.0" y1="142.0" y2="142.0" /><line stroke="#bbd" stroke-width="0.3" x1="440.0" x2="600.0" y1="118.0" y2="118.0" /><line stroke="#bbd" stroke-width="0.3" x1="440.0" x2="600.0" y1="94.0" y2="94.0" /><line stroke="#bbd" stroke-width="0.3" x1="440.0" x2="600.0" y1="70.0" y2="70.0" /><line stroke="#bbd" stroke-width="0.3" x1="440.0" x2="600.0" y1="46.0" y2="46.0" /><line stroke="#bbd" stroke-width="0.3" x1="440.0" x2="600.0" y1="22.0" y2="22.0" /><line stroke="#bbd" stroke-width="0.3" x1="440.0" x2="600.0" y1="-2.0" y2="-2.0" /><line stroke="#bbd" stroke-width="0.3" x1="440.0" x2="600.0" y1="-26.0" y2="-26.0" /><line stroke="#bbd" stroke-width="0.3" x1="440.0" x2="600.0" y1="-50.0" y2="-50.0" /><line stroke="#bbd" stroke-width="0.3" x1="440.0" x2="600.0" y1="-74.0" y2="-74.0" /><line stroke="#ba9" stroke-width="0.4" x1="320.0" x2="352.0" y1="150.0" y2="158.0" /><line stroke="#ba9" stroke-width="0.4" x1="320.0" x2="352.0" y1="150.0" y2="142.0" /><line stroke="#ba9" stroke-width="0.4" x1="320.0" x2="352.0" y1="78.0" y2="86.0" /><line stroke="#ba9" stroke-width="0.4" x1="320.0" x2="352.0" y1="78.0" y2="70.0" /><line stroke="#ba9" stroke-width="0.4" x1="320.0" x2="352.0" y1="6.0" y2="14.0" /><line stroke="#ba9" stroke-width="0.4" x1="320.0" x2="352.0" y1="6.0" y2="-2.0" /><line stroke="#ba9" stroke-width="0.4" x1="320.0" x2="352.0" y1="-66.0" y2="-58.0" /><line stroke="#ba9" stroke-width="0.4" x1="320.0" x2="352.0" y1="-66.0" y2="-74.0" /><line stroke="#ba9" stroke-width="0.4" x1="356.0" x2="388.0" y1="150.0" y2="158.0" /><line stroke="#ba9" stroke-width="0.4" x1="356.0" x2="388.0" y1="150.0" y2="142.0" /><line stroke="#ba9" stroke-width="0.4" x1="356.0" x2="388.0" y1="78.0" y2="86.0" /><line stroke="#ba9" stroke-width="0.4" x1="356.0" x2="388.0" y1="78.0" y2="70.0" /><line stroke="#ba9" stroke-width="0.4" x1="356.0" x2="388.0" y1="6.0" y2="14.0" /><line stroke="#ba9" stroke-width="0.4" x1="356.0" x2="388.0" y1="6.0" y2="-2.0" /><line stroke="#ba9" stroke-width="0.4" x1="356.0" x2="388.0" y1="-66.0" y2="-58.0" /><line stroke="#ba9" stroke-width="0.4" x1="356.0" x2="388.0" y1="-66.0" y2="-74.0" /><line stroke="#ba9" stroke-width="0.4" x1="392.0" x2="424.0" y1="150.0" y2="158.0" /><line stroke="#ba9" stroke-width="0.4" x1="392.0" x2="424.0" y1="150.0" y2="142.0" /><line stroke="#ba9" stroke-width="0.4" x1="392.0" x2="424.0" y1="78.0" y2="86.0" /><line stroke="#ba9" stroke-width="0.4" x1="392.0" x2="424.0" y1="78.0" y2="70.0" /><line stroke="#ba9" stroke-width="0.4" x1="392.0" x2="424.0" y1="6.0" y2="14.0" /><line stroke="#ba9" stroke-width="0.4" x1="392.0" x2="424.0" y1="6.0" y2="-2.0" /><line stroke="#ba9" stroke-width="0.4" x1="392.0" x2="424.0" y1="-66.0" y2="-58.0" /><line stroke="#ba9" stroke-width="0.4" x1="392.0" x2="424.0" y1="-66.0" y2="-74.0" /><line stroke="#ba9" stroke-width="0.4" x1="428.0" x2="460.0" y1="150.0" y2="158.0" /><line stroke="#ba9" stroke-width="0.4" x1="428.0" x2="460.0" y1="150.0" y2="142.0" /><line stroke="#ba9" stroke-width="0.4" x1="428.0" x2="460.0" y1="78.0" y2="86.0" /><line stroke="#ba9" stroke-width="0.4" x1="428.0" x2="460.0" y1="78.0" y2="70.0" /><line stroke="#ba9" stroke-width="0.4" x1="428.0" x2="460.0" y1="6.0" y2="14.0" /><line stroke="#ba9" stroke-width="0.4" x1="428.0" x2="460.0" y1="6.0" y2="-2.0" /><line stroke="#ba9" stroke-width="0.4" x1="428.0" x2="460.0" y1="-66.0" y2="-58.0" /><line stroke="#ba9" stroke-width="0.4" x1="428.0" x2="460.0" y1="-66.0" y2="-74.0" /><polyline fill="none" points="200.0,582.0 224.0,582.0 212.0,583.6 224.0,582.0 212.0,580.4" stroke="#888" stroke-width="1" /><text fill="#888" font-size="8" x="184.0" y="582.4">铺装方向→</text><text fill="#444" font-size="12" font-weight="bold" text-anchor="middle" x="400.0" y="386.0">客厅餐厅</text><text fill="#888" font-size="9" text-anchor="middle" x="400.0" y="390.79999999999995">800×800地砖</text><text fill="#666" font-size="8" text-anchor="middle" x="400.0" y="392.0">40.0m²</text><text fill="#444" font-size="12" font-weight="bold" text-anchor="middle" x="600.0" y="506.0">厨房</text><text fill="#888" font-size="9" text-anchor="middle" x="600.0" y="510.8">600×600防滑砖</text><text fill="#666" font-size="8" text-anchor="middle" x="600.0" y="512.0">6.0m²</text><text fill="#444" font-size="12" font-weight="bold" text-anchor="middle" x="380.0" y="46.0">过道</text><text fill="#888" font-size="9" text-anchor="middle" x="380.0" y="50.799999999999955">800×800地砖</text><text fill="#666" font-size="8" text-anchor="middle" x="380.0" y="52.0">5.2m²</text><text fill="#444" font-size="12" font-weight="bold" text-anchor="middle" x="520.0" y="46.0">卫生间</text><text fill="#888" font-size="9" text-anchor="middle" x="520.0" y="50.799999999999955">300×300防滑砖</text><text fill="#666" font-size="8" text-anchor="middle" x="520.0" y="52.0">7.0m²</text><text fill="#444" font-size="12" font-weight="bold" text-anchor="middle" x="380.0" y="46.0">主卧</text><text fill="#888" font-size="9" text-anchor="middle" x="380.0" y="50.799999999999955">450×900实木地板</text><text fill="#666" font-size="8" text-anchor="middle" x="380.0" y="52.0">5.2m²</text><text fill="#444" font-size="12" font-weight="bold" text-anchor="middle" x="200.0" y="46.0">储物</text><text fill="#888" font-size="9" text-anchor="middle" x="200.0" y="50.799999999999955">800×800地砖</text><text fill="#666" font-size="8" text-anchor="middle" x="200.0" y="52.0">10.5m²</text><rect fill="#f5e6d0" height="12" stroke="#999" stroke-width="0.5" width="14" x="80" y="660" /><text font-size="9" x="98" y="670">地砖</text><rect fill="#d8c8a0" height="12" stroke="#999" stroke-width="0.5" width="14" x="200" y="660" /><text font-size="9" x="218" y="670">木地板</text><rect fill="#d0d8e8" height="12" stroke="#999" stroke-width="0.5" width="14" x="320" y="660" /><text font-size="9" x="338" y="670">防滑砖</text><text font-size="14" font-weight="bold" text-anchor="middle" x="450" y="30">地面铺装图 | 材料+面积+铺装方向</text></svg>