0
SECTION
2
HEADER
0
ENDSEC
0
SECTION
2
TABLES
0
TABLE
2
LAYER
70
5
0
LAYER
2
A-FLOR
70
0
62
7
6
CONTINUOUS
370
13
0
LAYER
2
A-HATC
70
0
62
8
6
CONTINUOUS
370
9
0
LAYER
2
A-DIM
70
0
62
3
6
CONTINUOUS
370
13
0
LAYER
2
A-TEXT
70
0
62
7
6
CONTINUOUS
370
13
0
LAYER
2
A-AREA
70
0
62
6
6
CONTINUOUS
370
13
0
ENDTAB
0
ENDSEC
0
SECTION
2
ENTITIES
0
LINE
8
A-FLOR
10
0
20
0
11
8000
21
0
0
LINE
8
A-FLOR
10
8000
20
0
11
8000
21
8500
0
LINE
8
A-FLOR
10
8000
20
8500
11
0
21
8500
0
LINE
8
A-FLOR
10
0
20
8500
11
0
21
0
0
LINE
8
A-FLOR
10
0
20
5000
11
8000
21
5000
0
LINE
8
A-FLOR
10
3000
20
5000
11
3000
21
8500
0
LINE
8
A-FLOR
10
4500
20
5000
11
4500
21
8500
0
LINE
8
A-FLOR
10
5000
20
0
11
5000
21
2000
0
TEXT
8
A-TEXT
10
3400
20
2600
40
3
1
客厅餐厅: 40.0m²
0
TEXT
8
A-TEXT
10
3400
20
2450
40
2.5
1
800×800地砖
0
TEXT
8
A-TEXT
10
5900
20
1100
40
3
1
厨房: 6.0m²
0
TEXT
8
A-TEXT
10
5900
20
950
40
2.5
1
600×600防滑砖
0
TEXT
8
A-TEXT
10
3150
20
6850
40
3
1
过道: 5.2m²
0
TEXT
8
A-TEXT
10
3150
20
6700
40
2.5
1
800×800地砖
0
TEXT
8
A-TEXT
10
4900
20
6850
40
3
1
卫生间: 7.0m²
0
TEXT
8
A-TEXT
10
4900
20
6700
40
2.5
1
300×300防滑砖
0
TEXT
8
A-TEXT
10
3150
20
6850
40
3
1
主卧: 5.2m²
0
TEXT
8
A-TEXT
10
3150
20
6700
40
2.5
1
450×900实木地板
0
TEXT
8
A-TEXT
10
900
20
6850
40
3
1
储物: 10.5m²
0
TEXT
8
A-TEXT
10
900
20
6700
40
2.5
1
800×800地砖
0
TEXT
8
A-TEXT
10
0
20
0
40
3
1
800×800地砖
0
TEXT
8
A-TEXT
10
0
20
-200
40
3
1
通铺 全屋对缝
0
TEXT
8
A-TEXT
10
5000
20
800
40
3
1
厨房
0
TEXT
8
A-TEXT
10
5000
20
600
40
3
1
600×600防滑砖
0
TEXT
8
A-TEXT
10
0
20
6500
40
3
1
过道
0
TEXT
8
A-TEXT
10
0
20
6300
40
3
1
800×800地砖
0
TEXT
8
A-TEXT
10
4500
20
6500
40
3
1
卫生间
0
TEXT
8
A-TEXT
10
4500
20
6300
40
3
1
300×300防滑砖
0
TEXT
8
A-TEXT
10
3000
20
6500
40
3
1
主卧
0
TEXT
8
A-TEXT
10
3000
20
6300
40
3
1
450×900实木地板
0
ENDSEC
0
EOF