0
SECTION
2
HEADER
9
$ACADVER
1
AC1027
9
$DWGCODEPAGE
3
gb2312
9
$INSUNITS
70
4
0
ENDSEC
0
SECTION
2
TABLES
0
TABLE
2
LAYER
70
3
0
LAYER
2
0
70
64
62
7
6
Continuous
370
-3
0
LAYER
2
A-新隔墙
70
64
62
4
6
Continuous
370
-3
0
LAYER
2
Defpoints
70
64
62
250
6
Continuous
370
-3
0
ENDTAB
0
ENDSEC
0
SECTION
2
BLOCKS
0
BLOCK
8
0
2
*Model_Space
70
0
10
0.0
20
0.0
0
ENDBLK
0
BLOCK
8
0
2
*Paper_Space
70
0
10
0.0
20
0.0
0
ENDBLK
0
BLOCK
8
Defpoints
2
_ArchTick
70
0
10
349765.515093445
20
-325823.973634718
0
ENDBLK
0
BLOCK
8
0
2
_DOT
70
0
10
-0.5
20
0.0
0
ENDBLK
0
ENDSEC
0
SECTION
2
ENTITIES
0
LINE
8
A-新隔墙
62
256
10
338362.96858813
20
-319483.915258865
30
0.0
11
338362.96858813
21
-324473.915258865
31
0.0
0
LINE
8
A-新隔墙
62
256
10
338762.96858813
20
-321433.915258865
30
0.0
11
338762.96858813
21
-324473.915258865
31
0.0
0
LINE
8
A-新隔墙
62
6
10
337217.652721805
20
-324473.915258865
30
0.0
11
347446.792056964
21
-324473.915258865
31
0.0
0
LINE
8
A-新隔墙
62
256
10
338762.96858813
20
-321433.915258865
30
0.0
11
339962.96858813
21
-321433.915258865
31
0.0
0
LINE
8
A-新隔墙
62
256
10
339962.96858813
20
-321433.915258865
30
0.0
11
339962.96858813
21
-324473.915258865
31
0.0
0
LINE
8
A-新隔墙
62
256
10
340542.96858813
20
-321433.915258865
30
0.0
11
340542.96858813
21
-324473.915258865
31
0.0
0
LINE
8
A-新隔墙
62
256
10
341752.96858813
20
-321433.915258865
30
0.0
11
341752.96858813
21
-324473.915258865
31
0.0
0
LINE
8
A-新隔墙
62
256
10
343112.96858813
20
-321433.915258865
30
0.0
11
343112.96858813
21
-324473.915258865
31
0.0
0
LINE
8
A-新隔墙
62
256
10
338362.96858813
20
-320783.915258865
30
0.0
11
346272.96858813
21
-320783.915258865
31
0.0
0
LINE
8
A-新隔墙
62
256
10
338362.96858813
20
-319483.915258865
30
0.0
11
346272.96858813
21
-319483.915258865
31
0.0
0
LINE
8
A-新隔墙
62
256
10
341752.96858813
20
-321433.915258865
30
0.0
11
340542.96858813
21
-321433.915258865
31
0.0
0
LINE
8
A-新隔墙
62
256
10
343112.96858813
20
-321433.915258865
30
0.0
11
344342.96858813
21
-321433.915258865
31
0.0
0
LINE
8
A-新隔墙
62
256
10
344342.96858813
20
-321433.915258865
30
0.0
11
344342.96858813
21
-324473.915258865
31
0.0
0
LINE
8
A-新隔墙
62
256
10
344782.96858813
20
-321433.915258865
30
0.0
11
344782.96858813
21
-324473.915258865
31
0.0
0
LINE
8
A-新隔墙
62
256
10
345992.96858813
20
-321433.915258865
30
0.0
11
345992.96858813
21
-324473.915258865
31
0.0
0
LINE
8
A-新隔墙
62
256
10
346272.96858813
20
-319483.915258865
30
0.0
11
346272.96858813
21
-324473.915258865
31
0.0
0
LINE
8
A-新隔墙
62
256
10
345992.96858813
20
-321433.915258865
30
0.0
11
344782.96858813
21
-321433.915258865
31
0.0
0
DIMENSION
8
A-新隔墙
62
256
2
*D2
3
HG-120
10
338762.96858813
20
-325049.091644931
11
338562.96858813
21
-324809.091644931
70
32
1

0
DIMENSION
8
A-新隔墙
62
256
2
*D3
3
HG-120
10
339962.96858813
20
-325049.091644931
11
339362.96858813
21
-324809.091644931
70
32
1

0
DIMENSION
8
A-新隔墙
62
256
2
*D4
3
HG-120
10
340542.96858813
20
-325049.091644931
11
340252.96858813
21
-324809.091644931
70
32
1

0
DIMENSION
8
A-新隔墙
62
256
2
*D5
3
HG-120
10
341752.96858813
20
-325049.091644931
11
341147.96858813
21
-324809.091644931
70
32
1

0
DIMENSION
8
A-新隔墙
62
256
2
*D6
3
HG-120
10
343112.96858813
20
-325049.091644931
11
342432.96858813
21
-324809.091644931
70
32
1

0
DIMENSION
8
A-新隔墙
62
256
2
*D7
3
HG-120
10
344342.96858813
20
-325049.091644931
11
343727.96858813
21
-324809.091644931
70
32
1

0
DIMENSION
8
A-新隔墙
62
256
2
*D8
3
HG-120
10
344782.96858813
20
-325049.091644931
11
344562.96858813
21
-324809.091644931
70
32
1

0
DIMENSION
8
A-新隔墙
62
256
2
*D9
3
HG-120
10
345992.96858813
20
-325049.091644931
11
345387.96858813
21
-324809.091644931
70
32
1

0
DIMENSION
8
A-新隔墙
62
256
2
*D10
3
HG-120
10
346272.96858813
20
-325049.091644931
11
346132.96858813
21
-324809.091644931
70
32
1

0
LWPOLYLINE
8
A-新隔墙
62
250
90
0
70
0
38
0.0
43
0.0
0
DIMENSION
8
A-新隔墙
62
256
2
*D11
3
HG-120
10
337926.32924877
20
-321433.915258865
11
337686.32924877
21
-322953.915258865
70
32
1

0
DIMENSION
8
A-新隔墙
62
256
2
*D12
3
HG-120
10
337926.32924877
20
-320783.915258865
11
337686.32924877
21
-321108.915258865
70
32
1

0
DIMENSION
8
A-新隔墙
62
256
2
*D13
3
HG-120
10
338362.96858813
20
-325823.973634718
11
342317.96858813
21
-325583.973634718
70
32
1

0
DIMENSION
8
A-新隔墙
62
256
2
*D14
3
HG-120
10
337293.839909493
20
-319483.915258865
11
337053.839909493
21
-321978.915258865
70
32
1

0
DIMENSION
8
A-新隔墙
62
256
2
*D15
3
HG-120
10
337926.32924877
20
-319483.915258865
11
337686.32924877
21
-320133.915258865
70
32
1

0
LINE
8
A-新隔墙
62
6
10
349044.331204097
20
-324473.915258865
30
0.0
11
358379.634065694
21
-324473.915258865
31
0.0
0
LINE
8
A-新隔墙
62
146
10
350545.515093445
20
-324393.915258865
30
0.0
11
352155.515093445
21
-324393.915258865
31
0.0
0
LINE
8
A-新隔墙
62
146
10
354035.515093445
20
-324393.915258865
30
0.0
11
356495.515093445
21
-324393.915258865
31
0.0
0
LINE
8
A-新隔墙
62
256
10
349765.515093445
20
-321493.915258865
30
0.0
11
357345.515093445
21
-321493.915258865
31
0.0
0
LINE
8
A-新隔墙
62
146
10
350545.515093445
20
-321573.915258865
30
0.0
11
356495.515093445
21
-321573.915258865
31
0.0
0
LINE
8
A-新隔墙
62
256
10
349765.515093445
20
-320013.915258865
30
0.0
11
357345.515093445
21
-320013.915258865
31
0.0
0
LINE
8
A-新隔墙
62
256
10
349765.515093445
20
-324473.915258865
30
0.0
11
349765.515093445
21
-321493.915258865
31
0.0
0
LINE
8
A-新隔墙
62
2
10
350465.515093445
20
-324473.915258865
30
0.0
11
350465.515093445
21
-321493.915258865
31
0.0
0
LINE
8
A-新隔墙
62
146
10
350545.515093445
20
-324473.915258865
30
0.0
11
350545.515093445
21
-321493.915258865
31
0.0
0
LINE
8
A-新隔墙
62
146
10
352155.515093445
20
-324473.915258865
30
0.0
11
352155.515093445
21
-321573.915258865
31
0.0
0
LINE
8
A-新隔墙
62
146
10
352235.515093445
20
-324473.915258865
30
0.0
11
352235.515093445
21
-321573.915258865
31
0.0
0
LINE
8
A-新隔墙
62
146
10
353955.515093445
20
-324473.915258865
30
0.0
11
353955.515093445
21
-321573.915258865
31
0.0
0
LINE
8
A-新隔墙
62
146
10
354035.515093445
20
-324473.915258865
30
0.0
11
354035.515093445
21
-321573.915258865
31
0.0
0
LINE
8
A-新隔墙
62
2
10
356575.515093445
20
-324473.915258865
30
0.0
11
356575.515093445
21
-321493.915258865
31
0.0
0
LINE
8
A-新隔墙
62
146
10
356495.515093445
20
-324473.915258865
30
0.0
11
356495.515093445
21
-321493.915258865
31
0.0
0
LINE
8
A-新隔墙
62
256
10
357345.515093445
20
-324473.915258865
30
0.0
11
357345.515093445
21
-321493.915258865
31
0.0
0
LINE
8
A-新隔墙
62
256
10
349765.515093445
20
-321493.915258865
30
0.0
11
349765.515093445
21
-320013.915258865
31
0.0
0
LINE
8
A-新隔墙
62
256
10
357345.515093445
20
-321493.915258865
30
0.0
11
357345.515093445
21
-320013.915258865
31
0.0
0
LINE
8
A-新隔墙
62
146
10
353095.515093445
20
-324473.915258865
30
0.0
11
353095.515093445
21
-321573.915258865
31
0.0
0
LWPOLYLINE
8
A-新隔墙
62
146
90
0
70
1
38
0.0
43
0.0
0
LWPOLYLINE
8
A-新隔墙
62
146
90
0
70
1
38
0.0
43
0.0
0
LWPOLYLINE
8
A-新隔墙
62
250
90
0
70
0
38
0.0
43
0.0
0
LWPOLYLINE
8
A-新隔墙
62
250
90
0
70
0
38
0.0
43
0.0
0
DIMENSION
8
A-新隔墙
62
256
2
*D16
3
HG-120
10
349094.582677813
20
-321493.915258865
11
348854.582677813
21
-322983.915258865
70
32
1

0
DIMENSION
8
A-新隔墙
62
256
2
*D17
3
HG-120
10
349094.582677813
20
-320013.915258865
11
348854.582677813
21
-320753.915258865
70
32
1

0
DIMENSION
8
A-新隔墙
62
256
2
*D18
3
HG-120
10
348602.108367657
20
-324473.915258865
11
348362.108367657
21
-322243.915258865
70
32
1

0
DIMENSION
8
A-新隔墙
62
256
2
*D19
3
HG-120
10
350465.515093445
20
-325049.091644931
11
350115.515093445
21
-324809.091644931
70
32
1

0
DIMENSION
8
A-新隔墙
62
256
2
*D20
3
HG-120
10
352155.515093445
20
-325049.091644931
11
351310.515093445
21
-324809.091644931
70
32
1

0
DIMENSION
8
A-新隔墙
62
256
2
*D21
3
HG-120
10
352235.515093445
20
-325049.091644931
11
352195.515093445
21
-324809.091644931
70
32
1

0
DIMENSION
8
A-新隔墙
62
256
2
*D22
3
HG-120
10
353955.515093445
20
-325049.091644931
11
353095.515093445
21
-324809.091644931
70
32
1

0
DIMENSION
8
A-新隔墙
62
256
2
*D23
3
HG-120
10
354035.515093445
20
-325049.091644931
11
353995.515093445
21
-324809.091644931
70
32
1

0
DIMENSION
8
A-新隔墙
62
256
2
*D24
3
HG-120
10
356575.515093445
20
-325049.091644931
11
355305.515093445
21
-324809.091644931
70
32
1

0
DIMENSION
8
A-新隔墙
62
256
2
*D25
3
HG-120
10
357345.515093445
20
-325049.091644931
11
356960.515093445
21
-324809.091644931
70
32
1

0
DIMENSION
8
A-新隔墙
62
256
2
*D26
3
HG-120
10
349765.515093445
20
-325823.973634718
11
353555.515093445
21
-325583.973634718
70
32
1

0
ENDSEC
0
EOF