  0
SECTION
  2
HEADER
  9
$ANGBASE
 50
0.0
  9
$ANGDIR
 70
0
  9
$AUNITS
 70
0
  9
$AUPREC
 70
3
  9
$ATTMODE
 70
1
  9
$DWGCODEPAGE
  3
gb2312
  9
$TDCREATE
 40
2458158.82016204
  9
$CECOLOR
 62
0
  9
$CELTSCALE
 40
0.01
  9
$CELWEIGHT
370
29
  9
$CLAYER
  8
A-新隔墙
  9
$CELTYPE
  6
ByBlock
  9
$CMLJUST
 70
0
  9
$CMLSCALE
 40
20.0
  9
$CMLSTYLE
  2
Standard
  9
$DIMSTYLE
  2
HG-120
  9
$LWDISPLAY
290
0
  9
$EXTNAMES
290
0
  9
$HANDSEED
  5
22C
  9
$INSUNITS
 70
4
  9
$LUNITS
 70
2
  9
$LUPREC
 70
4
  9
$LTSCALE
 40
100.0
  9
$MIRRTEXT
 70
0
  9
$INSBASE
 10
0.0
 20
0.0
 30
0.0
  9
$SPLINESEGS
 70
8
  9
$PSLTSCALE
 70
0
  9
$PDMODE
 70
35
  9
$PDSIZE
 40
0.0
  9
$PLINEGEN
 70
0
  9
$SURFU
 70
6
  9
$SURFV
 70
6
  9
$TEXTSIZE
 40
5.0
  9
$TEXTSTYLE
  7
DIM
  9
$TDINDWG
 40
2.85505476851852
  9
$TDUCREATE
 40
2461233.41408983
  9
$TDUUPDATE
 40
2461233.41408983
  9
$TDUPDATE
 40
2461229.78527903
  9
$ACADVER
  1
AC1027
  0
ENDSEC
  0
SECTION
  2
CLASSES
  0
CLASS
  1
ACDBDICTIONARYWDFLT
  2
AcDbDictionaryWithDefault
  3
ObjectDBX Classes
 90
0
 91
1
280
0
281
0
  0
CLASS
  1
ACDBPLACEHOLDER
  2
AcDbPlaceHolder
  3
ObjectDBX Classes
 90
0
 91
0
280
0
281
0
  0
CLASS
  1
LAYOUT
  2
AcDbLayout
  3
ObjectDBX Classes
 90
0
 91
2
280
0
281
0
  0
CLASS
  1
DICTIONARYVAR
  2
AcDbDictionaryVar
  3
ObjectDBX Classes
 90
0
 91
13
280
0
281
0
  0
CLASS
  1
TABLESTYLE
  2
AcDbTableStyle
  3
ObjectDBX Classes
 90
4095
 91
0
280
0
281
0
  0
CLASS
  1
MATERIAL
  2
AcDbMaterial
  3
ObjectDBX Classes
 90
1153
 91
0
280
0
281
0
  0
CLASS
  1
VISUALSTYLE
  2
AcDbVisualStyle
  3
ObjectDBX Classes
 90
4095
 91
0
280
0
281
0
  0
CLASS
  1
SCALE
  2
AcDbScale
  3
ObjectDBX Classes
 90
1153
 91
25
280
0
281
0
  0
CLASS
  1
MLEADERSTYLE
  2
AcDbMLeaderStyle
  3
ACDB_MLEADERSTYLE_CLASS
 90
4095
 91
0
280
0
281
0
  0
CLASS
  1
CELLSTYLEMAP
  2
AcDbCellStyleMap
  3
ObjectDBX Classes
 90
1152
 91
0
280
0
281
0
  0
CLASS
  1
EXACXREFPANELOBJECT
  2
ExAcXREFPanelObject
  3
EXAC_ESW
 90
1025
 91
0
280
1
281
0
  0
CLASS
  1
NPOCOLLECTION
  2
AcDbImpNonPersistentObjectsCollection
  3
ObjectDBX Classes
 90
1153
 91
0
280
0
281
0
  0
CLASS
  1
LAYER_INDEX
  2
AcDbLayerIndex
  3
ObjectDBX Classes
 90
0
 91
0
280
0
281
0
  0
CLASS
  1
SPATIAL_INDEX
  2
AcDbSpatialIndex
  3
ObjectDBX Classes
 90
0
 91
0
280
0
281
0
  0
CLASS
  1
IDBUFFER
  2
AcDbIdBuffer
  3
ObjectDBX Classes
 90
0
 91
0
280
0
281
0
  0
CLASS
  1
SORTENTSTABLE
  2
AcDbSortentsTable
  3
ObjectDBX Classes
 90
0
 91
3
280
0
281
0
  0
CLASS
  1
ACAD_EVALUATION_GRAPH
  2
AcDbEvalGraph
  3
ObjectDBX Classes
 90
1153
 91
0
280
0
281
0
  0
CLASS
  1
BLOCKROTATIONPARAMETER
  2
AcDbBlockRotationParameter
  3
ObjectDBX Classes
 90
1153
 91
0
280
0
281
0
  0
CLASS
  1
BLOCKROTATIONGRIP
  2
AcDbBlockRotationGrip
  3
ObjectDBX Classes
 90
1153
 91
0
280
0
281
0
  0
CLASS
  1
BLOCKGRIPLOCATIONCOMPONENT
  2
AcDbBlockGripExpr
  3
ObjectDBX Classes
 90
1153
 91
0
280
0
281
0
  0
CLASS
  1
BLOCKROTATEACTION
  2
AcDbBlockRotateAction
  3
ObjectDBX Classes
 90
1153
 91
0
280
0
281
0
  0
CLASS
  1
ACDB_DYNAMICBLOCKPURGEPREVENTER_VERSION
  2
AcDbDynamicBlockPurgePreventer
  3
ObjectDBX Classes
 90
1153
 91
0
280
0
281
0
  0
CLASS
  1
WIPEOUT
  2
AcDbWipeout
  3
WipeOut|Product Desc: Object Enabler for WipeOut entity | Company: Autodesk, Inc. | WEB Address: www.autodesk.com
 90
2175
 91
0
280
0
281
1
  0
CLASS
  1
BLOCKLINEARPARAMETER
  2
AcDbBlockLinearParameter
  3
ObjectDBX Classes
 90
1153
 91
0
280
0
281
0
  0
CLASS
  1
BLOCKLINEARGRIP
  2
AcDbBlockLinearGrip
  3
ObjectDBX Classes
 90
1153
 91
0
280
0
281
0
  0
CLASS
  1
BLOCKSTRETCHACTION
  2
AcDbBlockStretchAction
  3
ObjectDBX Classes
 90
1153
 91
0
280
0
281
0
  0
CLASS
  1
BLOCKFLIPPARAMETER
  2
AcDbBlockFlipParameter
  3
ObjectDBX Classes
 90
1153
 91
0
280
0
281
0
  0
CLASS
  1
BLOCKFLIPGRIP
  2
AcDbBlockFlipGrip
  3
ObjectDBX Classes
 90
1153
 91
0
280
0
281
0
  0
CLASS
  1
BLOCKFLIPACTION
  2
AcDbBlockFlipAction
  3
ObjectDBX Classes
 90
1153
 91
0
280
0
281
0
  0
CLASS
  1
BLOCKVISIBILITYPARAMETER
  2
AcDbBlockVisibilityParameter
  3
ObjectDBX Classes
 90
1153
 91
0
280
0
281
0
  0
CLASS
  1
BLOCKVISIBILITYGRIP
  2
AcDbBlockVisibilityGrip
  3
ObjectDBX Classes
 90
1153
 91
0
280
0
281
0
  0
CLASS
  1
ACDB_BLOCKREPRESENTATION_DATA
  2
AcDbBlockRepresentationData
  3
ObjectDBX Classes
 90
1153
 91
0
280
0
281
0
  0
CLASS
  1
WIPEOUTVARIABLES
  2
AcDbWipeoutVariables
  3
"WipeOut|Product Desc:     WipeOut Dbx Application|Company:          Autodesk, Inc.|WEB Address:      www.autodesk.com"
 90
0
 91
0
280
0
281
0
  0
CLASS
  1
AEC_REFEDIT_STATUS_TRACKER
  2
AecDbRefEditStatusTracker
  3
AecArchBase70|Product Desc: Autodesk Architectural Desktop 2007 |Company: Autodesk,Inc. |WEB Address: www.autodesk.com
 90
129
 91
0
280
1
281
0
  0
CLASS
  1
TCH_DBCONFIG
  2
TDbConfig
  3
"TCH_KERNAL|缺乏解释器天正图形看不见, 请下载天正插件|网址: www.tangent.com.cn"
 90
1
 91
0
280
1
281
0
  0
CLASS
  1
ACDB_TEXTOBJECTCONTEXTDATA_CLASS
  2
AcDbTextObjectContextData
  3
ObjectDBX Classes
 90
1153
 91
0
280
0
281
0
  0
CLASS
  1
ACDB_ALDIMOBJECTCONTEXTDATA_CLASS
  2
AcDbAlignedDimensionObjectContextData
  3
ObjectDBX Classes
 90
1153
 91
0
280
0
281
0
  0
CLASS
  1
ACAECUSTOBJ
  2
AcAeEditorObj
  3
AcAeEditorObj
 90
1024
 91
0
280
1
281
0
  0
CLASS
  1
LINEARGRIPENTITY
  2
AcDbBlockLinearGripEntity
  3
ObjectDBX Classes
 90
1025
 91
0
280
0
281
1
  0
CLASS
  1
ACAEEEMGROBJ
  2
AcAeEEMgrObj
  3
AcAeEEMgrObj
 90
1024
 91
0
280
0
281
0
  0
CLASS
  1
LINEARPARAMETERENTITY
  2
AcDbBlockLinearParameterEntity
  3
ObjectDBX Classes
 90
1025
 91
0
280
0
281
1
  0
CLASS
  1
STRETCHACTIONENTITY
  2
AcDbBlockStretchActionEntity
  3
ObjectDBX Classes
 90
1025
 91
0
280
0
281
1
  0
CLASS
  1
ACDB_BLKREFOBJECTCONTEXTDATA_CLASS
  2
AcDbBlkRefObjectContextData
  3
ObjectDBX Classes
 90
1153
 91
0
280
0
281
0
  0
CLASS
  1
BLOCKPROPERTIESTABLE
  2
AcDbBlockPropertiesTable
  3
ObjectDBX Classes
 90
1153
 91
0
280
0
281
0
  0
CLASS
  1
VLO-VL
  2
vlo_VL
  3
VL|AutoLISP based application
 90
129
 91
0
280
1
281
0
  0
CLASS
  1
DIMASSOC
  2
AcDbDimAssoc
  3
"AcDbDimAssoc|Product Desc:     AcDim ARX App For Dimension|Company:          Autodesk, Inc.|WEB Address:      www.autodesk.com"
 90
0
 91
0
280
0
281
0
  0
CLASS
  1
VISIBILITYPARAMETERENTITY
  2
AcDbBlockVisibilityParameterEntity
  3
ObjectDBX Classes
 90
1025
 91
0
280
0
281
1
  0
CLASS
  1
VISIBILITYGRIPENTITY
  2
AcDbBlockVisibilityGripEntity
  3
ObjectDBX Classes
 90
1025
 91
0
280
0
281
1
  0
CLASS
  1
ACDBSECTIONVIEWSTYLE
  2
AcDbSectionViewStyle
  3
ObjectDBX Classes
 90
1025
 91
0
280
0
281
0
  0
CLASS
  1
ACDBDETAILVIEWSTYLE
  2
AcDbDetailViewStyle
  3
ObjectDBX Classes
 90
1025
 91
0
280
0
281
0
  0
CLASS
  1
BLOCKBASEPOINTPARAMETER
  2
AcDbBlockBasepointParameter
  3
ObjectDBX Classes
 90
1153
 91
0
280
0
281
0
  0
CLASS
  1
ACDB_LEADEROBJECTCONTEXTDATA_CLASS
  2
AcDbLeaderObjectContextData
  3
ObjectDBX Classes
 90
1153
 91
0
280
0
281
0
  0
CLASS
  1
ACDB_MTEXTATTRIBUTEOBJECTCONTEXTDATA_CLASS
  2
AcDbMTextAttributeObjectContextData
  3
ObjectDBX Classes
 90
1153
 91
0
280
0
281
0
  0
CLASS
  1
BLOCKALIGNMENTPARAMETER
  2
AcDbBlockAlignmentParameter
  3
ObjectDBX Classes
 90
1153
 91
0
280
0
281
0
  0
CLASS
  1
BLOCKALIGNMENTGRIP
  2
AcDbBlockAlignmentGrip
  3
ObjectDBX Classes
 90
1153
 91
0
280
0
281
0
  0
CLASS
  1
ALIGNMENTGRIPENTITY
  2
AcDbBlockAlignmentGripEntity
  3
ObjectDBX Classes
 90
1025
 91
0
280
0
281
1
  0
CLASS
  1
ALIGNMENTPARAMETERENTITY
  2
AcDbBlockAlignmentParameterEntity
  3
ObjectDBX Classes
 90
1025
 91
0
280
0
281
1
  0
CLASS
  1
BLOCKSCALEACTION
  2
AcDbBlockScaleAction
  3
ObjectDBX Classes
 90
1153
 91
0
280
0
281
0
  0
CLASS
  1
IAEC_MATERIAL
  2
IcDbMaterial
  3
"IAecDbObject|缺乏IAec对象解释器, 请下载IAec插件|网址: www.gstarcad.com"
 90
1
 91
0
280
1
281
0
  0
CLASS
  1
EXACTERMXREFMAP
  2
ExAcTermXrefMap
  3
EXAC_SERVICE
 90
1025
 91
0
280
1
281
0
  0
CLASS
  1
AEC_NOTIFICATION_TRACKER
  2
AecDbNotificationTracker
  3
AecBase70|Product Desc: Autodesk Architectural Desktop 2007 |Company: Autodesk,Inc. |WEB Address: www.autodesk.com
 90
129
 91
0
280
1
281
0
  0
CLASS
  1
LSDEFINITION
  2
AcDbLSDefinition
  3
AcDgnLS
 90
0
 91
0
280
0
281
0
  0
CLASS
  1
LSSTROKEPATTERNCOMPONENT
  2
AcDbLSStrokePatternComponent
  3
AcDgnLS
 90
0
 91
0
280
0
281
0
  0
CLASS
  1
LSINTERNALCOMPONENT
  2
AcDbLSInternalComponent
  3
AcDgnLS
 90
0
 91
0
280
0
281
0
  0
CLASS
  1
LSCOMPOUNDCOMPONENT
  2
AcDbLSCompoundComponent
  3
AcDgnLS
 90
0
 91
0
280
0
281
0
  0
CLASS
  1
LSPOINTCOMPONENT
  2
AcDbLSPointComponent
  3
AcDgnLS
 90
0
 91
0
280
0
281
0
  0
CLASS
  1
LSSYMBOLCOMPONENT
  2
AcDbLSSymbolComponent
  3
AcDgnLS
 90
0
 91
0
280
0
281
0
  0
CLASS
  1
SPATIAL_FILTER
  2
AcDbSpatialFilter
  3
ObjectDBX Classes
 90
0
 91
0
280
0
281
0
  0
CLASS
  1
SOLID_BACKGROUND
  2
AcDbSolidBackground
  3
SCENEOE
 90
4095
 91
0
280
1
281
0
  0
CLASS
  1
GROUND_PLANE_BACKGROUND
  2
AcDbGroundPlaneBackground
  3
SCENEOE
 90
4095
 91
0
280
1
281
0
  0
CLASS
  1
BLOCKMOVEACTION
  2
AcDbBlockMoveAction
  3
ObjectDBX Classes
 90
1153
 91
0
280
0
281
0
  0
CLASS
  1
ACARRAYJIGENTITY
  2
AcArrayJigEntity
  3
ACAD_ARRAY
 90
129
 91
0
280
1
281
1
  0
CLASS
  1
ACDBASSOCNETWORK
  2
AcDbAssocNetwork
  3
ObjectDBX Classes
 90
1025
 91
0
280
0
281
0
  0
CLASS
  1
ACDBASSOCACTION
  2
AcDbAssocAction
  3
ObjectDBX Classes
 90
1025
 91
0
280
0
281
0
  0
CLASS
  1
ACDBASSOCARRAYACTIONBODY
  2
AcDbAssocArrayActionBody
  3
ObjectDBX Classes
 90
1025
 91
0
280
0
281
0
  0
CLASS
  1
ACDBASSOCVERTEXACTIONPARAM
  2
AcDbAssocVertexActionParam
  3
ObjectDBX Classes
 90
1025
 91
0
280
0
281
0
  0
CLASS
  1
ACDBASSOCDEPENDENCY
  2
AcDbAssocDependency
  3
ObjectDBX Classes
 90
1025
 91
0
280
0
281
0
  0
CLASS
  1
ACDBASSOCARRAYPOLARPARAMETERS
  2
AcDbAssocArrayPolarParameters
  3
ObjectDBX Classes
 90
1025
 91
0
280
0
281
0
  0
CLASS
  1
ACDBASSOCPERSSUBENTMANAGER
  2
AcDbAssocPersSubentManager
  3
ObjectDBX Classes
 90
1024
 91
0
280
0
281
0
  0
CLASS
  1
RASTERVARIABLES
  2
AcDbRasterVariables
  3
ISM
 90
0
 91
0
280
0
281
0
  0
CLASS
  1
IMAGEDEF
  2
AcDbRasterImageDef
  3
ISM
 90
0
 91
0
280
0
281
0
  0
CLASS
  1
IMAGEDEF_REACTOR
  2
AcDbRasterImageDefReactor
  3
ISM
 90
1
 91
0
280
0
281
0
  0
CLASS
  1
IMAGE
  2
AcDbRasterImage
  3
ISM
 90
2175
 91
0
280
0
281
1
  0
CLASS
  1
ACDB_DYNAMICBLOCKPROXYNODE
  2
AcDbDynamicBlockProxyNode
  3
ObjectDBX Classes
 90
1153
 91
0
280
0
281
0
  0
CLASS
  1
SURFACE
  2
AcDbSurface
  3
ObjectDBX Classes
 90
4095
 91
0
280
0
281
1
  0
CLASS
  1
FIELD
  2
AcDbField
  3
ObjectDBX Classes
 90
1152
 91
0
280
0
281
0
  0
CLASS
  1
FIELDLIST
  2
AcDbFieldList
  3
ObjectDBX Classes
 90
1152
 91
0
280
0
281
0
  0
CLASS
  1
RAPIDRTRENDERSETTINGS
  2
AcDbRapidRTRenderSettings
  3
ObjectDBX Classes
 90
1024
 91
0
280
1
281
0
  0
CLASS
  1
MENTALRAYRENDERSETTINGS
  2
AcDbMentalRayRenderSettings
  3
SCENEOE
 90
1024
 91
0
280
0
281
0
  0
CLASS
  1
BLOCKXYPARAMETER
  2
AcDbBlockXYParameter
  3
ObjectDBX Classes
 90
1153
 91
0
280
0
281
0
  0
CLASS
  1
BLOCKXYGRIP
  2
AcDbBlockXYGrip
  3
ObjectDBX Classes
 90
1153
 91
0
280
0
281
0
  0
CLASS
  1
BLOCKLOOKUPACTION
  2
AcDbBlockLookupAction
  3
ObjectDBX Classes
 90
1153
 91
0
280
0
281
0
  0
CLASS
  1
XYPARAMETERENTITY
  2
AcDbBlockXYParameterEntity
  3
ObjectDBX Classes
 90
1025
 91
0
280
0
281
1
  0
CLASS
  1
XYGRIPENTITY
  2
AcDbBlockXYGripEntity
  3
ObjectDBX Classes
 90
1025
 91
0
280
0
281
1
  0
CLASS
  1
LOOKUPACTIONENTITY
  2
AcDbBlockLookupActionEntity
  3
ObjectDBX Classes
 90
1025
 91
0
280
0
281
1
  0
CLASS
  1
BASEPOINTPARAMETERENTITY
  2
AcDbBlockBasepointParameterEntity
  3
ObjectDBX Classes
 90
1025
 91
0
280
0
281
1
  0
CLASS
  1
BLOCKLOOKUPPARAMETER
  2
AcDbBlockLookupParameter
  3
ObjectDBX Classes
 90
1153
 91
0
280
0
281
0
  0
CLASS
  1
BLOCKLOOKUPGRIP
  2
AcDbBlockLookupGrip
  3
ObjectDBX Classes
 90
1153
 91
0
280
0
281
0
  0
CLASS
  1
LOOKUPPARAMETERENTITY
  2
AcDbBlockLookupParameterEntity
  3
ObjectDBX Classes
 90
1025
 91
0
280
0
281
1
  0
CLASS
  1
LOOKUPGRIPENTITY
  2
AcDbBlockLookupGripEntity
  3
ObjectDBX Classes
 90
1025
 91
0
280
0
281
1
  0
CLASS
  1
SUN
  2
AcDbSun
  3
SCENEOE
 90
1153
 91
0
280
0
281
0
  0
CLASS
  1
MESH
  2
AcDbSubDMesh
  3
ObjectDBX Classes
 90
0
 91
0
280
0
281
0
  0
CLASS
  1
ACAD_TABLE
  2
AcDbTable
  3
ObjectDBX Classes
 90
1025
 91
0
280
0
281
0
  0
CLASS
  1
TABLECONTENT
  2
AcDbTableContent
  3
ObjectDBX Classes
 90
1152
 91
0
280
0
281
0
  0
CLASS
  1
TABLEGEOMETRY
  2
AcDbTableGeometry
  3
ObjectDBX Classes
 90
1152
 91
0
280
0
281
0
  0
CLASS
  1
DBCOLOR
  2
AcDbColor
  3
ObjectDBX Classes
 90
0
 91
0
280
0
281
0
  0
CLASS
  1
GEODATA
  2
AcDbGeoData
  3
ObjectDBX Classes
 90
4095
 91
0
280
0
281
0
  0
CLASS
  1
MULTILEADER
  2
AcDbMLeader
  3
ObjectDBX Classes
 90
1025
 91
0
280
0
281
0
  0
CLASS
  1
PDFUNDERLAY
  2
AcDbPdfReference
  3
ObjectDBX Classes
 90
4095
 91
0
280
0
281
0
  0
CLASS
  1
PDFDEFINITION
  2
AcDbPdfDefinition
  3
ObjectDBX Classes
 90
1153
 91
0
280
0
281
0
  0
CLASS
  1
ACDB_MLEADEROBJECTCONTEXTDATA_CLASS
  2
AcDbMLeaderObjectContextData
  3
ObjectDBX Classes
 90
1025
 91
0
280
0
281
0
  0
CLASS
  1
PLOTSETTINGS
  2
AcDbPlotSettings
  3
ObjectDBX Classes
 90
0
 91
0
280
0
281
0
  0
ENDSEC
  0
SECTION
  2
TABLES
  0
TABLE
  2
VPORT
  5
30
102
{ACAD_XDICTIONARY
360
37
102
}
330
0
100
AcDbSymbolTable
 70
1
  0
VPORT
  5
31
102
{ACAD_XDICTIONARY
360
32
102
}
330
30
100
AcDbSymbolTableRecord
100
AcDbViewportTableRecord
  2
*Active
 70
64
 10
0.0
 20
0.0
 11
1.0
 21
1.0
 12
-96239.7186611937
 22
-165578.799289489
 13
0.0
 23
0.0
 14
10.0
 24
10.0
 15
10.0
 25
10.0
 16
0.0
 26
0.0
 36
1.0
 17
446904.019562467
 27
-162348.790437654
 37
0.0
 40
30868.8828542412
 41
2.4343949044586
 75
0
 76
0
1001
ACAD_NAV_VCDISPLAY
1070
0
  0
ENDTAB
  0
TABLE
  2
LTYPE
  5
2B
330
0
100
AcDbSymbolTable
 70
3
  0
LTYPE
  5
14
330
2B
100
AcDbSymbolTableRecord
100
AcDbLinetypeTableRecord
  2
Continuous
 70
64
  3
Solid line
 72
65
 73
0
 40
0.0
  0
LTYPE
  5
2C
330
2B
100
AcDbSymbolTableRecord
100
AcDbLinetypeTableRecord
  2
ByBlock
 70
64
  3

 72
65
 73
0
 40
0.0
  0
LTYPE
  5
2D
330
2B
100
AcDbSymbolTableRecord
100
AcDbLinetypeTableRecord
  2
ByLayer
 70
64
  3

 72
65
 73
0
 40
0.0
  0
ENDTAB
  0
TABLE
  2
LAYER
  5
23
102
{ACAD_XDICTIONARY
360
24
102
}
330
0
100
AcDbSymbolTable
 70
3
  0
LAYER
  5
6
102
{ACAD_XDICTIONARY
360
7
102
}
330
23
100
AcDbSymbolTableRecord
100
AcDbLayerTableRecord
  2
0
 70
64
 62
7
  6
Continuous
290
1
370
-3
390
0
  0
LAYER
  5
5D
102
{ACAD_XDICTIONARY
360
5E
102
}
330
23
100
AcDbSymbolTableRecord
100
AcDbLayerTableRecord
  2
A-新隔墙
 70
64
 62
4
  6
Continuous
290
1
370
-3
390
0
1001
AcAecLayerStandard
1000

1000

  0
LAYER
  5
9F
102
{ACAD_XDICTIONARY
360
A0
102
}
330
23
100
AcDbSymbolTableRecord
100
AcDbLayerTableRecord
  2
Defpoints
 70
64
 62
250
  6
Continuous
290
0
370
-3
390
0
  0
ENDTAB
  0
TABLE
  2
STYLE
  5
28
330
0
100
AcDbSymbolTable
 70
3
  0
STYLE
  5
29
330
28
100
AcDbSymbolTableRecord
100
AcDbTextStyleTableRecord
  2
Standard
 70
64
 40
0.0
 41
1.0
 42
2.5
 50
0.0
 71
0
1001
ACAD
1000
SimSun
1071
34
  0
STYLE
  5
60
330
28
100
AcDbSymbolTableRecord
100
AcDbTextStyleTableRecord
  2
DIM
 70
64
 40
0.0
 41
0.7
 42
5.0
 50
0.0
 71
0
1001
ACAD
1000
SimSun
1071
34306
  0
STYLE
  5
3B
330
28
100
AcDbSymbolTableRecord
100
AcDbTextStyleTableRecord
  2
DIMA
 70
64
  3
romanc.shx
 40
0.0
 41
0.7
 42
300.0
 50
0.0
 71
0
  0
ENDTAB
  0
TABLE
  2
VIEW
  5
2E
330
0
100
AcDbSymbolTable
 70
0
  0
ENDTAB
  0
TABLE
  2
UCS
  5
2F
330
0
100
AcDbSymbolTable
 70
0
  0
ENDTAB
  0
TABLE
  2
APPID
  5
38
330
0
100
AcDbSymbolTable
 70
14
  0
APPID
  5
13
330
38
100
AcDbSymbolTableRecord
100
AcDbRegAppTableRecord
  2
ACAD
 70
64
  0
APPID
  5
1A
330
38
100
AcDbSymbolTableRecord
100
AcDbRegAppTableRecord
  2
ACAD_PSEXT
 70
64
  0
APPID
  5
41
330
38
100
AcDbSymbolTableRecord
100
AcDbRegAppTableRecord
  2
ACAD_DSTYLE_DIMJAG
 70
64
  0
APPID
  5
42
330
38
100
AcDbSymbolTableRecord
100
AcDbRegAppTableRecord
  2
ACAD_DSTYLE_DIMTALN
 70
64
  0
APPID
  5
5F
330
38
100
AcDbSymbolTableRecord
100
AcDbRegAppTableRecord
  2
AcAecLayerStandard
 70
64
  0
APPID
  5
36
330
38
100
AcDbSymbolTableRecord
100
AcDbRegAppTableRecord
  2
ACAD_NAV_VCDISPLAY
 70
64
  0
APPID
  5
43
330
38
100
AcDbSymbolTableRecord
100
AcDbRegAppTableRecord
  2
ACAD_DSTYLE_DIMJOGGED_JOGANGLE_SYMBOL
 70
64
  0
APPID
  5
40
330
38
100
AcDbSymbolTableRecord
100
AcDbRegAppTableRecord
  2
ACAD_DSTYLE_DIMBREAK
 70
64
  0
APPID
  5
81
330
38
100
AcDbSymbolTableRecord
100
AcDbRegAppTableRecord
  2
GradientColor1ACI
 70
64
  0
APPID
  5
82
330
38
100
AcDbSymbolTableRecord
100
AcDbRegAppTableRecord
  2
GradientColor2ACI
 70
64
  0
APPID
  5
210
330
38
100
AcDbSymbolTableRecord
100
AcDbRegAppTableRecord
  2
ACAD_DSTYLE_DIMEXT_ENABLED
 70
64
  0
APPID
  5
211
330
38
100
AcDbSymbolTableRecord
100
AcDbRegAppTableRecord
  2
ACAD_DSTYLE_DIMEXT_LENGTH
 70
64
  0
APPID
  5
212
330
38
100
AcDbSymbolTableRecord
100
AcDbRegAppTableRecord
  2
ACAD_DSTYLE_DIM_LINETYPE
 70
64
  0
APPID
  5
213
330
38
100
AcDbSymbolTableRecord
100
AcDbRegAppTableRecord
  2
ACAD_DSTYLE_DIM_EXT2_LINETYPE
 70
64
  0
ENDTAB
  0
TABLE
  2
DIMSTYLE
  5
39
330
0
100
AcDbSymbolTable
 70
6
100
AcDbDimStyleTable
  0
DIMSTYLE
105
3A
102
{ACAD_REACTORS
330
93
330
A4
330
B1
330
C0
330
CD
330
DA
330
E7
330
F6
330
103
330
113
330
120
330
12F
330
13C
330
149
330
16E
330
17B
330
188
330
195
330
1A2
330
1AF
330
1BE
330
1CB
330
1DA
330
1E7
330
1F4
102
}
330
39
100
AcDbSymbolTableRecord
100
AcDbDimStyleTableRecord
  2
HG-120
 70
0
  3

  4

 40
120.0
 41
0.8
 42
3.0
 43
3.0
 44
3.0
 45
0.0
 46
3.0
 47
0.0
 48
0.0
 49
1.0
 50
45.0
 70
0
 90
0
140
2.0
141
0.5
142
0.0
143
0.0394
144
1.0
145
1.0
146
1.0
147
1.0
148
0.0
 71
0
 72
0
 73
0
 74
0
 75
0
 76
0
 77
1
 78
8
 79
0
170
0
171
2
172
1
173
0
174
1
175
0
176
5
177
5
178
35
179
0
271
0
272
0
273
2
274
2
275
0
276
0
277
2
278
46
279
2
280
0
281
0
282
0
283
1
284
0
285
0
286
0
287
3
288
0
289
3
290
0
340
3B
341
3C
371
-1
372
-2
1001
ACAD_DSTYLE_DIMBREAK
1070
391
1040
0.5
1001
ACAD_DSTYLE_DIMJAG
1070
388
1040
2.0
1001
ACAD_DSTYLE_DIMTALN
1070
392
1070
0
1001
ACAD_DSTYLE_DIMEXT_ENABLED
1070
383
1070
1
1001
ACAD_DSTYLE_DIMEXT_LENGTH
1070
378
1040
4.0
1001
ACAD_DSTYLE_DIMJOGGED_JOGANGLE_SYMBOL
1070
384
1040
1.5707963267949
1001
ACAD_DSTYLE_DIM_LINETYPE
1070
380
1005
2D
1001
ACAD_DSTYLE_DIM_EXT2_LINETYPE
1070
382
1005
2D
  0
DIMSTYLE
105
44
330
39
100
AcDbSymbolTableRecord
100
AcDbDimStyleTableRecord
  2
HG-150
 70
0
  3

  4

 40
150.0
 41
0.8
 42
1.0
 43
1.0
 44
1.0
 45
0.0
 46
1.0
 47
0.0
 48
0.0
 49
1.0
 50
45.0
 70
0
 90
0
140
2.5
141
0.5
142
0.0
143
0.0394
144
1.0
145
1.0
146
1.0
147
1.0
148
0.0
 71
0
 72
0
 73
0
 74
0
 75
0
 76
0
 77
1
 78
8
 79
0
170
0
171
2
172
1
173
0
174
1
175
0
176
5
177
5
178
35
179
0
271
0
272
0
273
2
274
2
275
0
276
0
277
2
278
46
279
2
280
0
281
0
282
0
283
1
284
0
285
0
286
0
287
3
288
0
289
3
290
0
340
3B
341
3C
371
-1
372
-2
1001
ACAD_DSTYLE_DIMBREAK
1070
391
1040
0.5
1001
ACAD_DSTYLE_DIMJAG
1070
388
1040
2.0
1001
ACAD_DSTYLE_DIMTALN
1070
392
1070
0
1001
ACAD_DSTYLE_DIMEXT_ENABLED
1070
383
1070
1
1001
ACAD_DSTYLE_DIMEXT_LENGTH
1070
378
1040
3.0
1001
ACAD_DSTYLE_DIMJOGGED_JOGANGLE_SYMBOL
1070
384
1040
1.5707963267949
1001
ACAD_DSTYLE_DIM_LINETYPE
1070
380
1005
2D
1001
ACAD_DSTYLE_DIM_EXT2_LINETYPE
1070
382
1005
2D
  0
DIMSTYLE
105
4E
330
39
100
AcDbSymbolTableRecord
100
AcDbDimStyleTableRecord
  2
HG-80
 70
0
  3

  4

 40
80.0
 41
1.0
 42
1.0
 43
1.0
 44
1.0
 45
5.0
 46
1.0
 47
0.0
 48
0.0
 49
1.0
 50
45.0
 70
0
 90
0
140
2.5
141
0.1
142
0.0
143
0.0394
144
1.0
145
1.0
146
1.0
147
1.0
148
0.0
 71
0
 72
0
 73
0
 74
0
 75
0
 76
0
 77
1
 78
8
 79
0
170
0
171
2
172
1
173
0
174
1
175
0
176
5
177
5
178
35
179
0
271
0
272
0
273
2
274
2
275
0
276
0
277
2
278
46
279
2
280
0
281
0
282
0
283
1
284
0
285
0
286
0
287
3
288
0
289
3
290
0
340
3B
341
46
371
-2
372
-2
1001
ACAD_DSTYLE_DIMBREAK
1070
391
1040
3.75
1001
ACAD_DSTYLE_DIMJAG
1070
388
1040
1.5
1001
ACAD_DSTYLE_DIMTALN
1070
392
1070
0
1001
ACAD_DSTYLE_DIMEXT_ENABLED
1070
383
1070
1
  0
DIMSTYLE
105
45
330
39
100
AcDbSymbolTableRecord
100
AcDbDimStyleTableRecord
  2
HG-60
 70
0
  3

  4

 40
60.0
 41
0.8
 42
3.0
 43
1.0
 44
3.0
 45
0.0
 46
3.0
 47
0.0
 48
0.0
 49
1.0
 50
45.0
 70
0
 90
0
140
2.5
141
0.1
142
0.0
143
0.0394
144
1.0
145
1.0
146
1.0
147
1.0
148
0.0
 71
0
 72
0
 73
0
 74
0
 75
0
 76
0
 77
1
 78
8
 79
0
170
0
171
2
172
1
173
0
174
1
175
0
176
5
177
5
178
35
179
0
271
0
272
0
273
2
274
2
275
0
276
0
277
2
278
46
279
2
280
0
281
0
282
0
283
1
284
0
285
0
286
0
287
3
288
0
289
3
290
0
340
3B
341
3C
343
3C
344
46
371
-2
372
-2
1001
ACAD_DSTYLE_DIMBREAK
1070
391
1040
3.75
1001
ACAD_DSTYLE_DIMJAG
1070
388
1040
1.5
1001
ACAD_DSTYLE_DIMTALN
1070
392
1070
0
1001
ACAD_DSTYLE_DIMEXT_ENABLED
1070
383
1070
1
1001
ACAD_DSTYLE_DIMEXT_LENGTH
1070
378
1040
4.0
  0
DIMSTYLE
105
4D
330
39
100
AcDbSymbolTableRecord
100
AcDbDimStyleTableRecord
  2
HG-40
 70
0
  3

  4

 40
40.0
 41
0.8
 42
3.0
 43
1.0
 44
3.0
 45
0.0
 46
3.0
 47
0.0
 48
0.0
 49
1.0
 50
45.0
 70
0
 90
0
140
2.5
141
0.1
142
0.0
143
0.0394
144
1.0
145
1.0
146
1.0
147
1.0
148
0.0
 71
0
 72
0
 73
0
 74
0
 75
0
 76
0
 77
1
 78
8
 79
0
170
0
171
2
172
1
173
0
174
1
175
0
176
5
177
5
178
35
179
0
271
0
272
0
273
2
274
2
275
0
276
0
277
2
278
46
279
2
280
0
281
0
282
0
283
1
284
0
285
0
286
0
287
3
288
0
289
3
290
0
340
3B
341
3C
371
-2
372
-2
1001
ACAD_DSTYLE_DIMBREAK
1070
391
1040
3.75
1001
ACAD_DSTYLE_DIMJAG
1070
388
1040
1.5
1001
ACAD_DSTYLE_DIMTALN
1070
392
1070
0
1001
ACAD_DSTYLE_DIMEXT_ENABLED
1070
383
1070
1
1001
ACAD_DSTYLE_DIMEXT_LENGTH
1070
378
1040
4.0
  0
DIMSTYLE
105
22B
330
39
100
AcDbSymbolTableRecord
100
AcDbDimStyleTableRecord
  2
Standard
 70
0
  3
<>
  4
[]
 40
1.0
 41
0.18
 42
0.625
 43
3.75
 44
1.25
 45
0.0
 46
0.0
 47
0.0
 48
0.0
 49
1.0
 50
45.0
 70
0
 90
0
140
0.18
141
0.09
142
0.0
143
25.4
144
1.0
145
0.0
146
1.0
147
0.625
148
0.0
 71
0
 72
0
 73
0
 74
0
 75
0
 76
0
 77
1
 78
8
 79
0
170
0
171
3
172
0
173
1
174
0
175
0
176
0
177
0
178
0
179
0
271
2
272
2
273
2
274
3
275
0
276
0
277
2
278
46
279
0
280
0
281
0
282
0
283
0
284
8
285
0
286
0
287
0
288
0
289
3
290
0
340
29
371
-2
372
-2
  0
ENDTAB
  0
TABLE
  2
BLOCK_RECORD
  5
1
330
0
100
AcDbSymbolTable
 70
29
  0
BLOCK_RECORD
  5
3C
330
1
100
AcDbSymbolTableRecord
100
AcDbBlockTableRecord
  2
_ArchTick
 70
0
 70
0
280
0
281
1
  0
BLOCK_RECORD
  5
46
102
{ACAD_XDICTIONARY
360
47
102
}
330
1
100
AcDbSymbolTableRecord
100
AcDbBlockTableRecord
  2
_DOT
 70
0
 70
0
280
0
281
1
  0
BLOCK_RECORD
  5
94
330
1
100
AcDbSymbolTableRecord
100
AcDbBlockTableRecord
  2
*D2
 70
0
 70
0
280
0
281
1
  0
BLOCK_RECORD
  5
A5
330
1
100
AcDbSymbolTableRecord
100
AcDbBlockTableRecord
  2
*D3
 70
0
 70
0
280
0
281
1
  0
BLOCK_RECORD
  5
B2
330
1
100
AcDbSymbolTableRecord
100
AcDbBlockTableRecord
  2
*D4
 70
0
 70
0
280
0
281
1
  0
BLOCK_RECORD
  5
C1
330
1
100
AcDbSymbolTableRecord
100
AcDbBlockTableRecord
  2
*D5
 70
0
 70
0
280
0
281
1
  0
BLOCK_RECORD
  5
CE
330
1
100
AcDbSymbolTableRecord
100
AcDbBlockTableRecord
  2
*D6
 70
0
 70
0
280
0
281
1
  0
BLOCK_RECORD
  5
DB
330
1
100
AcDbSymbolTableRecord
100
AcDbBlockTableRecord
  2
*D7
 70
0
 70
0
280
0
281
1
  0
BLOCK_RECORD
  5
E8
330
1
100
AcDbSymbolTableRecord
100
AcDbBlockTableRecord
  2
*D8
 70
0
 70
0
280
0
281
1
  0
BLOCK_RECORD
  5
F7
330
1
100
AcDbSymbolTableRecord
100
AcDbBlockTableRecord
  2
*D9
 70
0
 70
0
280
0
281
1
  0
BLOCK_RECORD
  5
104
330
1
100
AcDbSymbolTableRecord
100
AcDbBlockTableRecord
  2
*D10
 70
0
 70
0
280
0
281
1
  0
BLOCK_RECORD
  5
114
330
1
100
AcDbSymbolTableRecord
100
AcDbBlockTableRecord
  2
*D11
 70
0
 70
0
280
0
281
1
  0
BLOCK_RECORD
  5
121
330
1
100
AcDbSymbolTableRecord
100
AcDbBlockTableRecord
  2
*D12
 70
0
 70
0
280
0
281
1
  0
BLOCK_RECORD
  5
130
330
1
100
AcDbSymbolTableRecord
100
AcDbBlockTableRecord
  2
*D13
 70
0
 70
0
280
0
281
1
  0
BLOCK_RECORD
  5
13D
330
1
100
AcDbSymbolTableRecord
100
AcDbBlockTableRecord
  2
*D14
 70
0
 70
0
280
0
281
1
  0
BLOCK_RECORD
  5
14A
330
1
100
AcDbSymbolTableRecord
100
AcDbBlockTableRecord
  2
*D15
 70
0
 70
0
280
0
281
1
  0
BLOCK_RECORD
  5
16F
330
1
100
AcDbSymbolTableRecord
100
AcDbBlockTableRecord
  2
*D16
 70
0
 70
0
280
0
281
1
  0
BLOCK_RECORD
  5
17C
330
1
100
AcDbSymbolTableRecord
100
AcDbBlockTableRecord
  2
*D17
 70
0
 70
0
280
0
281
1
  0
BLOCK_RECORD
  5
189
330
1
100
AcDbSymbolTableRecord
100
AcDbBlockTableRecord
  2
*D18
 70
0
 70
0
280
0
281
1
  0
BLOCK_RECORD
  5
196
330
1
100
AcDbSymbolTableRecord
100
AcDbBlockTableRecord
  2
*D19
 70
0
 70
0
280
0
281
1
  0
BLOCK_RECORD
  5
1A3
330
1
100
AcDbSymbolTableRecord
100
AcDbBlockTableRecord
  2
*D20
 70
0
 70
0
280
0
281
1
  0
BLOCK_RECORD
  5
1B0
330
1
100
AcDbSymbolTableRecord
100
AcDbBlockTableRecord
  2
*D21
 70
0
 70
0
280
0
281
1
  0
BLOCK_RECORD
  5
1BF
330
1
100
AcDbSymbolTableRecord
100
AcDbBlockTableRecord
  2
*D22
 70
0
 70
0
280
0
281
1
  0
BLOCK_RECORD
  5
1CC
330
1
100
AcDbSymbolTableRecord
100
AcDbBlockTableRecord
  2
*D23
 70
0
 70
0
280
0
281
1
  0
BLOCK_RECORD
  5
1DB
330
1
100
AcDbSymbolTableRecord
100
AcDbBlockTableRecord
  2
*D24
 70
0
 70
0
280
0
281
1
  0
BLOCK_RECORD
  5
1E8
330
1
100
AcDbSymbolTableRecord
100
AcDbBlockTableRecord
  2
*D25
 70
0
 70
0
280
0
281
1
  0
BLOCK_RECORD
  5
1F5
330
1
100
AcDbSymbolTableRecord
100
AcDbBlockTableRecord
  2
*D26
 70
0
 70
0
280
0
281
1
  0
BLOCK_RECORD
  5
2
102
{ACAD_XDICTIONARY
360
3
102
}
330
1
100
AcDbSymbolTableRecord
100
AcDbBlockTableRecord
  2
*Model_Space
 70
0
340
16
 70
0
280
0
281
1
  0
BLOCK_RECORD
  5
1B
102
{ACAD_XDICTIONARY
360
1C
102
}
330
1
100
AcDbSymbolTableRecord
100
AcDbBlockTableRecord
  2
*Paper_Space
 70
0
340
20
 70
0
280
0
281
1
  0
ENDTAB
  0
ENDSEC
  0
SECTION
  2
BLOCKS
  0
BLOCK
  5
3D
330
3C
100
AcDbEntity
  8
0
  6
ByLayer
 62
256
 48
1.0
 60
0
370
-1
100
AcDbBlockBegin
  2
_ArchTick
 70
0
 10
0.0
 20
0.0
 30
0.0
  3
_ArchTick
  4

  0
LWPOLYLINE
  5
3E
330
3C
100
AcDbEntity
  8
0
  6
ByBlock
 62
0
440
33554687
 48
1.0
 60
0
370
-1
100
AcDbPolyline
 90
2
 70
0
 38
0.0
 39
0.0
 10
-0.5
 20
-0.5
 42
0.0
 10
0.5
 20
0.5
 42
0.0
210
0.0
220
0.0
230
1.0
  0
ENDBLK
  5
3F
330
3C
100
AcDbEntity
  8
0
100
AcDbBlockEnd
  0
BLOCK
  5
49
330
46
100
AcDbEntity
  8
0
  6
ByLayer
 62
256
 48
1.0
 60
0
370
-1
100
AcDbBlockBegin
  2
_DOT
 70
0
 10
0.0
 20
0.0
 30
0.0
  3
_DOT
  4

  0
LWPOLYLINE
  5
4A
330
46
100
AcDbEntity
  8
0
  6
ByBlock
 62
22
 48
1.0
 60
0
370
-1
100
AcDbPolyline
 90
2
 70
1
 38
0.0
 39
0.0
 10
-0.25
 20
0.0
 42
1.0
 10
0.25
 20
0.0
 42
1.0
210
0.0
220
0.0
230
1.0
  0
LINE
  5
4B
330
46
100
AcDbEntity
  8
0
  6
ByBlock
 62
22
 48
1.0
 60
0
370
-1
100
AcDbLine
 10
-0.5
 20
0.0
 30
0.0
 11
-1.0
 21
0.0
 31
0.0
 39
0.0
210
0.0
220
0.0
230
1.0
  0
ENDBLK
  5
4C
330
46
100
AcDbEntity
  8
0
100
AcDbBlockEnd
  0
BLOCK
  5
95
330
94
100
AcDbEntity
  8
0
  6
ByLayer
 62
256
 48
0.01
 60
0
370
-1
100
AcDbBlockBegin
  2
*D2
 70
1
 10
0.0
 20
0.0
 30
0.0
  3
*D2
  4

  0
LINE
  5
96
330
94
100
AcDbEntity
  8
A-新隔墙
  6
ByBlock
 62
5
440
16777216
 48
0.01
 60
0
370
-2
100
AcDbLine
 10
338362.96858813
 20
-324833.915258865
 30
0.0
 11
338362.96858813
 21
-325409.091644931
 31
0.0
 39
0.0
210
0.0
220
0.0
230
1.0
  0
LINE
  5
97
330
94
100
AcDbEntity
  8
A-新隔墙
  6
ByLayer
 62
5
440
16777216
 48
0.01
 60
0
370
-2
100
AcDbLine
 10
338762.96858813
 20
-324833.915258865
 30
0.0
 11
338762.96858813
 21
-325409.091644931
 31
0.0
 39
0.0
210
0.0
220
0.0
230
1.0
  0
LINE
  5
98
330
94
100
AcDbEntity
  8
A-新隔墙
  6
ByLayer
 62
5
440
16777216
 48
0.01
 60
0
370
-1
100
AcDbLine
 10
338362.96858813
 20
-325049.091644931
 30
0.0
 11
338266.96858813
 21
-325049.091644931
 31
0.0
 39
0.0
210
0.0
220
0.0
230
1.0
  0
LINE
  5
99
330
94
100
AcDbEntity
  8
A-新隔墙
  6
ByLayer
 62
5
440
16777216
 48
0.01
 60
0
370
-1
100
AcDbLine
 10
338762.96858813
 20
-325049.091644931
 30
0.0
 11
338858.96858813
 21
-325049.091644931
 31
0.0
 39
0.0
210
0.0
220
0.0
230
1.0
  0
LINE
  5
9A
330
94
100
AcDbEntity
  8
A-新隔墙
  6
ByLayer
 62
5
440
16777216
 48
0.01
 60
0
370
-1
100
AcDbLine
 10
338362.96858813
 20
-325049.091644931
 30
0.0
 11
338762.96858813
 21
-325049.091644931
 31
0.0
 39
0.0
210
0.0
220
0.0
230
1.0
  0
INSERT
  5
9B
330
94
100
AcDbEntity
  8
A-新隔墙
  6
ByBlock
 62
5
440
16777216
 48
0.01
 60
0
370
-1
100
AcDbBlockReference
  2
_ArchTick
 10
338362.96858813
 20
-325049.091644931
 30
0.0
 41
96.0
 42
96.0
 43
96.0
 50
0.0
 70
1
 71
1
 44
0.0
 45
0.0
210
0.0
220
0.0
230
1.0
  0
INSERT
  5
9C
330
94
100
AcDbEntity
  8
A-新隔墙
  6
ByBlock
 62
5
440
16777216
 48
0.01
 60
0
370
-1
100
AcDbBlockReference
  2
_ArchTick
 10
338762.96858813
 20
-325049.091644931
 30
0.0
 41
96.0
 42
96.0
 43
96.0
 50
180.0
 70
1
 71
1
 44
0.0
 45
0.0
210
0.0
220
0.0
230
1.0
  0
MTEXT
  5
9D
330
94
100
AcDbEntity
  8
A-新隔墙
  6
ByBlock
 62
35
440
16777216
 48
0.01
 60
0
370
-1
100
AcDbMText
 10
338562.96858813
 20
-324809.091644931
 30
0.0
 40
240.0
 41
0.0
 44
1.0
 46
0.0
 71
5
 72
1
  1
\A1;400
  7
DIMA
 73
1
 11
1.0
 21
0.0
 31
0.0
210
0.0
220
0.0
230
1.0
  0
POINT
  5
9E
330
94
100
AcDbEntity
  8
Defpoints
  6
ByBlock
 62
0
440
16777216
 48
0.01
 60
0
370
-1
100
AcDbPoint
 10
338362.96858813
 20
-324473.915258865
 30
0.0
 39
0.0
210
0.0
220
0.0
230
1.0
 50
0.0
  0
POINT
  5
A1
330
94
100
AcDbEntity
  8
Defpoints
  6
ByBlock
 62
0
440
16777216
 48
0.01
 60
0
370
-1
100
AcDbPoint
 10
338762.96858813
 20
-324473.915258865
 30
0.0
 39
0.0
210
0.0
220
0.0
230
1.0
 50
0.0
  0
POINT
  5
A2
330
94
100
AcDbEntity
  8
Defpoints
  6
ByBlock
 62
0
440
16777216
 48
0.01
 60
0
370
-1
100
AcDbPoint
 10
338762.96858813
 20
-325049.091644931
 30
0.0
 39
0.0
210
0.0
220
0.0
230
1.0
 50
0.0
  0
ENDBLK
  5
A3
330
94
100
AcDbEntity
  8
0
100
AcDbBlockEnd
  0
BLOCK
  5
A6
330
A5
100
AcDbEntity
  8
0
  6
ByLayer
 62
256
 48
0.01
 60
0
370
-1
100
AcDbBlockBegin
  2
*D3
 70
1
 10
0.0
 20
0.0
 30
0.0
  3
*D3
  4

  0
LINE
  5
A7
330
A5
100
AcDbEntity
  8
A-新隔墙
  6
ByBlock
 62
5
440
16777216
 48
0.01
 60
0
370
-2
100
AcDbLine
 10
338762.96858813
 20
-324833.915258865
 30
0.0
 11
338762.96858813
 21
-325409.091644931
 31
0.0
 39
0.0
210
0.0
220
0.0
230
1.0
  0
LINE
  5
A8
330
A5
100
AcDbEntity
  8
A-新隔墙
  6
ByLayer
 62
5
440
16777216
 48
0.01
 60
0
370
-2
100
AcDbLine
 10
339962.96858813
 20
-324833.915258865
 30
0.0
 11
339962.96858813
 21
-325409.091644931
 31
0.0
 39
0.0
210
0.0
220
0.0
230
1.0
  0
LINE
  5
A9
330
A5
100
AcDbEntity
  8
A-新隔墙
  6
ByLayer
 62
5
440
16777216
 48
0.01
 60
0
370
-1
100
AcDbLine
 10
338402.96858813
 20
-325049.091644931
 30
0.0
 11
340322.96858813
 21
-325049.091644931
 31
0.0
 39
0.0
210
0.0
220
0.0
230
1.0
  0
INSERT
  5
AA
330
A5
100
AcDbEntity
  8
A-新隔墙
  6
ByBlock
 62
5
440
16777216
 48
0.01
 60
0
370
-1
100
AcDbBlockReference
  2
_ArchTick
 10
338762.96858813
 20
-325049.091644931
 30
0.0
 41
96.0
 42
96.0
 43
96.0
 50
180.0
 70
1
 71
1
 44
0.0
 45
0.0
210
0.0
220
0.0
230
1.0
  0
INSERT
  5
AB
330
A5
100
AcDbEntity
  8
A-新隔墙
  6
ByBlock
 62
5
440
16777216
 48
0.01
 60
0
370
-1
100
AcDbBlockReference
  2
_ArchTick
 10
339962.96858813
 20
-325049.091644931
 30
0.0
 41
96.0
 42
96.0
 43
96.0
 50
0.0
 70
1
 71
1
 44
0.0
 45
0.0
210
0.0
220
0.0
230
1.0
  0
MTEXT
  5
AC
330
A5
100
AcDbEntity
  8
A-新隔墙
  6
ByBlock
 62
35
440
16777216
 48
0.01
 60
0
370
-1
100
AcDbMText
 10
339362.96858813
 20
-324809.091644931
 30
0.0
 40
240.0
 41
0.0
 44
1.0
 46
0.0
 71
5
 72
1
  1
\A1;1200
  7
DIMA
 73
1
 11
1.0
 21
0.0
 31
0.0
210
0.0
220
0.0
230
1.0
  0
POINT
  5
AD
330
A5
100
AcDbEntity
  8
Defpoints
  6
ByBlock
 62
0
440
16777216
 48
0.01
 60
0
370
-1
100
AcDbPoint
 10
338762.96858813
 20
-324473.915258865
 30
0.0
 39
0.0
210
0.0
220
0.0
230
1.0
 50
0.0
  0
POINT
  5
AE
330
A5
100
AcDbEntity
  8
Defpoints
  6
ByBlock
 62
0
440
16777216
 48
0.01
 60
0
370
-1
100
AcDbPoint
 10
339962.96858813
 20
-324473.915258865
 30
0.0
 39
0.0
210
0.0
220
0.0
230
1.0
 50
0.0
  0
POINT
  5
AF
330
A5
100
AcDbEntity
  8
Defpoints
  6
ByBlock
 62
0
440
16777216
 48
0.01
 60
0
370
-1
100
AcDbPoint
 10
339962.96858813
 20
-325049.091644931
 30
0.0
 39
0.0
210
0.0
220
0.0
230
1.0
 50
0.0
  0
ENDBLK
  5
B0
330
A5
100
AcDbEntity
  8
0
100
AcDbBlockEnd
  0
BLOCK
  5
B3
330
B2
100
AcDbEntity
  8
0
  6
ByLayer
 62
256
 48
0.01
 60
0
370
-1
100
AcDbBlockBegin
  2
*D4
 70
1
 10
0.0
 20
0.0
 30
0.0
  3
*D4
  4

  0
LINE
  5
B4
330
B2
100
AcDbEntity
  8
A-新隔墙
  6
ByBlock
 62
5
440
16777216
 48
0.01
 60
0
370
-2
100
AcDbLine
 10
339962.96858813
 20
-324833.915258865
 30
0.0
 11
339962.96858813
 21
-325409.091644931
 31
0.0
 39
0.0
210
0.0
220
0.0
230
1.0
  0
LINE
  5
B5
330
B2
100
AcDbEntity
  8
A-新隔墙
  6
ByLayer
 62
5
440
16777216
 48
0.01
 60
0
370
-2
100
AcDbLine
 10
340542.96858813
 20
-324833.915258865
 30
0.0
 11
340542.96858813
 21
-325409.091644931
 31
0.0
 39
0.0
210
0.0
220
0.0
230
1.0
  0
LINE
  5
B6
330
B2
100
AcDbEntity
  8
A-新隔墙
  6
ByLayer
 62
5
440
16777216
 48
0.01
 60
0
370
-1
100
AcDbLine
 10
339962.96858813
 20
-325049.091644931
 30
0.0
 11
339866.96858813
 21
-325049.091644931
 31
0.0
 39
0.0
210
0.0
220
0.0
230
1.0
  0
LINE
  5
B7
330
B2
100
AcDbEntity
  8
A-新隔墙
  6
ByLayer
 62
5
440
16777216
 48
0.01
 60
0
370
-1
100
AcDbLine
 10
340542.96858813
 20
-325049.091644931
 30
0.0
 11
340638.96858813
 21
-325049.091644931
 31
0.0
 39
0.0
210
0.0
220
0.0
230
1.0
  0
LINE
  5
B8
330
B2
100
AcDbEntity
  8
A-新隔墙
  6
ByLayer
 62
5
440
16777216
 48
0.01
 60
0
370
-1
100
AcDbLine
 10
339962.96858813
 20
-325049.091644931
 30
0.0
 11
340542.96858813
 21
-325049.091644931
 31
0.0
 39
0.0
210
0.0
220
0.0
230
1.0
  0
INSERT
  5
B9
330
B2
100
AcDbEntity
  8
A-新隔墙
  6
ByBlock
 62
5
440
16777216
 48
0.01
 60
0
370
-1
100
AcDbBlockReference
  2
_ArchTick
 10
339962.96858813
 20
-325049.091644931
 30
0.0
 41
96.0
 42
96.0
 43
96.0
 50
0.0
 70
1
 71
1
 44
0.0
 45
0.0
210
0.0
220
0.0
230
1.0
  0
INSERT
  5
BA
330
B2
100
AcDbEntity
  8
A-新隔墙
  6
ByBlock
 62
5
440
16777216
 48
0.01
 60
0
370
-1
100
AcDbBlockReference
  2
_ArchTick
 10
340542.96858813
 20
-325049.091644931
 30
0.0
 41
96.0
 42
96.0
 43
96.0
 50
180.0
 70
1
 71
1
 44
0.0
 45
0.0
210
0.0
220
0.0
230
1.0
  0
MTEXT
  5
BB
330
B2
100
AcDbEntity
  8
A-新隔墙
  6
ByBlock
 62
35
440
16777216
 48
0.01
 60
0
370
-1
100
AcDbMText
 10
340252.96858813
 20
-324809.091644931
 30
0.0
 40
240.0
 41
0.0
 44
1.0
 46
0.0
 71
5
 72
1
  1
\A1;580
  7
DIMA
 73
1
 11
1.0
 21
0.0
 31
0.0
210
0.0
220
0.0
230
1.0
  0
POINT
  5
BC
330
B2
100
AcDbEntity
  8
Defpoints
  6
ByBlock
 62
0
440
16777216
 48
0.01
 60
0
370
-1
100
AcDbPoint
 10
339962.96858813
 20
-324473.915258865
 30
0.0
 39
0.0
210
0.0
220
0.0
230
1.0
 50
0.0
  0
POINT
  5
BD
330
B2
100
AcDbEntity
  8
Defpoints
  6
ByBlock
 62
0
440
16777216
 48
0.01
 60
0
370
-1
100
AcDbPoint
 10
340542.96858813
 20
-324473.915258865
 30
0.0
 39
0.0
210
0.0
220
0.0
230
1.0
 50
0.0
  0
POINT
  5
BE
330
B2
100
AcDbEntity
  8
Defpoints
  6
ByBlock
 62
0
440
16777216
 48
0.01
 60
0
370
-1
100
AcDbPoint
 10
340542.96858813
 20
-325049.091644931
 30
0.0
 39
0.0
210
0.0
220
0.0
230
1.0
 50
0.0
  0
ENDBLK
  5
BF
330
B2
100
AcDbEntity
  8
0
100
AcDbBlockEnd
  0
BLOCK
  5
C2
330
C1
100
AcDbEntity
  8
0
  6
ByLayer
 62
256
 48
0.01
 60
0
370
-1
100
AcDbBlockBegin
  2
*D5
 70
1
 10
0.0
 20
0.0
 30
0.0
  3
*D5
  4

  0
LINE
  5
C3
330
C1
100
AcDbEntity
  8
A-新隔墙
  6
ByBlock
 62
5
440
16777216
 48
0.01
 60
0
370
-2
100
AcDbLine
 10
340542.96858813
 20
-324833.915258865
 30
0.0
 11
340542.96858813
 21
-325409.091644931
 31
0.0
 39
0.0
210
0.0
220
0.0
230
1.0
  0
LINE
  5
C4
330
C1
100
AcDbEntity
  8
A-新隔墙
  6
ByLayer
 62
5
440
16777216
 48
0.01
 60
0
370
-2
100
AcDbLine
 10
341752.96858813
 20
-324833.915258865
 30
0.0
 11
341752.96858813
 21
-325409.091644931
 31
0.0
 39
0.0
210
0.0
220
0.0
230
1.0
  0
LINE
  5
C5
330
C1
100
AcDbEntity
  8
A-新隔墙
  6
ByLayer
 62
5
440
16777216
 48
0.01
 60
0
370
-1
100
AcDbLine
 10
340182.96858813
 20
-325049.091644931
 30
0.0
 11
342112.96858813
 21
-325049.091644931
 31
0.0
 39
0.0
210
0.0
220
0.0
230
1.0
  0
INSERT
  5
C6
330
C1
100
AcDbEntity
  8
A-新隔墙
  6
ByBlock
 62
5
440
16777216
 48
0.01
 60
0
370
-1
100
AcDbBlockReference
  2
_ArchTick
 10
340542.96858813
 20
-325049.091644931
 30
0.0
 41
96.0
 42
96.0
 43
96.0
 50
180.0
 70
1
 71
1
 44
0.0
 45
0.0
210
0.0
220
0.0
230
1.0
  0
INSERT
  5
C7
330
C1
100
AcDbEntity
  8
A-新隔墙
  6
ByBlock
 62
5
440
16777216
 48
0.01
 60
0
370
-1
100
AcDbBlockReference
  2
_ArchTick
 10
341752.96858813
 20
-325049.091644931
 30
0.0
 41
96.0
 42
96.0
 43
96.0
 50
0.0
 70
1
 71
1
 44
0.0
 45
0.0
210
0.0
220
0.0
230
1.0
  0
MTEXT
  5
C8
330
C1
100
AcDbEntity
  8
A-新隔墙
  6
ByBlock
 62
35
440
16777216
 48
0.01
 60
0
370
-1
100
AcDbMText
 10
341147.96858813
 20
-324809.091644931
 30
0.0
 40
240.0
 41
0.0
 44
1.0
 46
0.0
 71
5
 72
1
  1
\A1;1210
  7
DIMA
 73
1
 11
1.0
 21
0.0
 31
0.0
210
0.0
220
0.0
230
1.0
  0
POINT
  5
C9
330
C1
100
AcDbEntity
  8
Defpoints
  6
ByBlock
 62
0
440
16777216
 48
0.01
 60
0
370
-1
100
AcDbPoint
 10
340542.96858813
 20
-324473.915258865
 30
0.0
 39
0.0
210
0.0
220
0.0
230
1.0
 50
0.0
  0
POINT
  5
CA
330
C1
100
AcDbEntity
  8
Defpoints
  6
ByBlock
 62
0
440
16777216
 48
0.01
 60
0
370
-1
100
AcDbPoint
 10
341752.96858813
 20
-324473.915258865
 30
0.0
 39
0.0
210
0.0
220
0.0
230
1.0
 50
0.0
  0
POINT
  5
CB
330
C1
100
AcDbEntity
  8
Defpoints
  6
ByBlock
 62
0
440
16777216
 48
0.01
 60
0
370
-1
100
AcDbPoint
 10
341752.96858813
 20
-325049.091644931
 30
0.0
 39
0.0
210
0.0
220
0.0
230
1.0
 50
0.0
  0
ENDBLK
  5
CC
330
C1
100
AcDbEntity
  8
0
100
AcDbBlockEnd
  0
BLOCK
  5
CF
330
CE
100
AcDbEntity
  8
0
  6
ByLayer
 62
256
 48
0.01
 60
0
370
-1
100
AcDbBlockBegin
  2
*D6
 70
1
 10
0.0
 20
0.0
 30
0.0
  3
*D6
  4

  0
LINE
  5
D0
330
CE
100
AcDbEntity
  8
A-新隔墙
  6
ByBlock
 62
5
440
16777216
 48
0.01
 60
0
370
-2
100
AcDbLine
 10
341752.96858813
 20
-324833.915258865
 30
0.0
 11
341752.96858813
 21
-325409.091644931
 31
0.0
 39
0.0
210
0.0
220
0.0
230
1.0
  0
LINE
  5
D1
330
CE
100
AcDbEntity
  8
A-新隔墙
  6
ByLayer
 62
5
440
16777216
 48
0.01
 60
0
370
-2
100
AcDbLine
 10
343112.96858813
 20
-324833.915258865
 30
0.0
 11
343112.96858813
 21
-325409.091644931
 31
0.0
 39
0.0
210
0.0
220
0.0
230
1.0
  0
LINE
  5
D2
330
CE
100
AcDbEntity
  8
A-新隔墙
  6
ByLayer
 62
5
440
16777216
 48
0.01
 60
0
370
-1
100
AcDbLine
 10
341392.96858813
 20
-325049.091644931
 30
0.0
 11
343472.96858813
 21
-325049.091644931
 31
0.0
 39
0.0
210
0.0
220
0.0
230
1.0
  0
INSERT
  5
D3
330
CE
100
AcDbEntity
  8
A-新隔墙
  6
ByBlock
 62
5
440
16777216
 48
0.01
 60
0
370
-1
100
AcDbBlockReference
  2
_ArchTick
 10
341752.96858813
 20
-325049.091644931
 30
0.0
 41
96.0
 42
96.0
 43
96.0
 50
180.0
 70
1
 71
1
 44
0.0
 45
0.0
210
0.0
220
0.0
230
1.0
  0
INSERT
  5
D4
330
CE
100
AcDbEntity
  8
A-新隔墙
  6
ByBlock
 62
5
440
16777216
 48
0.01
 60
0
370
-1
100
AcDbBlockReference
  2
_ArchTick
 10
343112.96858813
 20
-325049.091644931
 30
0.0
 41
96.0
 42
96.0
 43
96.0
 50
0.0
 70
1
 71
1
 44
0.0
 45
0.0
210
0.0
220
0.0
230
1.0
  0
MTEXT
  5
D5
330
CE
100
AcDbEntity
  8
A-新隔墙
  6
ByBlock
 62
35
440
16777216
 48
0.01
 60
0
370
-1
100
AcDbMText
 10
342432.96858813
 20
-324809.091644931
 30
0.0
 40
240.0
 41
0.0
 44
1.0
 46
0.0
 71
5
 72
1
  1
\A1;1360
  7
DIMA
 73
1
 11
1.0
 21
0.0
 31
0.0
210
0.0
220
0.0
230
1.0
  0
POINT
  5
D6
330
CE
100
AcDbEntity
  8
Defpoints
  6
ByBlock
 62
0
440
16777216
 48
0.01
 60
0
370
-1
100
AcDbPoint
 10
341752.96858813
 20
-324473.915258865
 30
0.0
 39
0.0
210
0.0
220
0.0
230
1.0
 50
0.0
  0
POINT
  5
D7
330
CE
100
AcDbEntity
  8
Defpoints
  6
ByBlock
 62
0
440
16777216
 48
0.01
 60
0
370
-1
100
AcDbPoint
 10
343112.96858813
 20
-324473.915258865
 30
0.0
 39
0.0
210
0.0
220
0.0
230
1.0
 50
0.0
  0
POINT
  5
D8
330
CE
100
AcDbEntity
  8
Defpoints
  6
ByBlock
 62
0
440
16777216
 48
0.01
 60
0
370
-1
100
AcDbPoint
 10
343112.96858813
 20
-325049.091644931
 30
0.0
 39
0.0
210
0.0
220
0.0
230
1.0
 50
0.0
  0
ENDBLK
  5
D9
330
CE
100
AcDbEntity
  8
0
100
AcDbBlockEnd
  0
BLOCK
  5
DC
330
DB
100
AcDbEntity
  8
0
  6
ByLayer
 62
256
 48
0.01
 60
0
370
-1
100
AcDbBlockBegin
  2
*D7
 70
1
 10
0.0
 20
0.0
 30
0.0
  3
*D7
  4

  0
LINE
  5
DD
330
DB
100
AcDbEntity
  8
A-新隔墙
  6
ByBlock
 62
5
440
16777216
 48
0.01
 60
0
370
-2
100
AcDbLine
 10
343112.96858813
 20
-324833.915258865
 30
0.0
 11
343112.96858813
 21
-325409.091644931
 31
0.0
 39
0.0
210
0.0
220
0.0
230
1.0
  0
LINE
  5
DE
330
DB
100
AcDbEntity
  8
A-新隔墙
  6
ByLayer
 62
5
440
16777216
 48
0.01
 60
0
370
-2
100
AcDbLine
 10
344342.96858813
 20
-324833.915258865
 30
0.0
 11
344342.96858813
 21
-325409.091644931
 31
0.0
 39
0.0
210
0.0
220
0.0
230
1.0
  0
LINE
  5
DF
330
DB
100
AcDbEntity
  8
A-新隔墙
  6
ByLayer
 62
5
440
16777216
 48
0.01
 60
0
370
-1
100
AcDbLine
 10
342752.96858813
 20
-325049.091644931
 30
0.0
 11
344702.96858813
 21
-325049.091644931
 31
0.0
 39
0.0
210
0.0
220
0.0
230
1.0
  0
INSERT
  5
E0
330
DB
100
AcDbEntity
  8
A-新隔墙
  6
ByBlock
 62
5
440
16777216
 48
0.01
 60
0
370
-1
100
AcDbBlockReference
  2
_ArchTick
 10
343112.96858813
 20
-325049.091644931
 30
0.0
 41
96.0
 42
96.0
 43
96.0
 50
180.0
 70
1
 71
1
 44
0.0
 45
0.0
210
0.0
220
0.0
230
1.0
  0
INSERT
  5
E1
330
DB
100
AcDbEntity
  8
A-新隔墙
  6
ByBlock
 62
5
440
16777216
 48
0.01
 60
0
370
-1
100
AcDbBlockReference
  2
_ArchTick
 10
344342.96858813
 20
-325049.091644931
 30
0.0
 41
96.0
 42
96.0
 43
96.0
 50
0.0
 70
1
 71
1
 44
0.0
 45
0.0
210
0.0
220
0.0
230
1.0
  0
MTEXT
  5
E2
330
DB
100
AcDbEntity
  8
A-新隔墙
  6
ByBlock
 62
35
440
16777216
 48
0.01
 60
0
370
-1
100
AcDbMText
 10
343727.96858813
 20
-324809.091644931
 30
0.0
 40
240.0
 41
0.0
 44
1.0
 46
0.0
 71
5
 72
1
  1
\A1;1230
  7
DIMA
 73
1
 11
1.0
 21
0.0
 31
0.0
210
0.0
220
0.0
230
1.0
  0
POINT
  5
E3
330
DB
100
AcDbEntity
  8
Defpoints
  6
ByBlock
 62
0
440
16777216
 48
0.01
 60
0
370
-1
100
AcDbPoint
 10
343112.96858813
 20
-324473.915258865
 30
0.0
 39
0.0
210
0.0
220
0.0
230
1.0
 50
0.0
  0
POINT
  5
E4
330
DB
100
AcDbEntity
  8
Defpoints
  6
ByBlock
 62
0
440
16777216
 48
0.01
 60
0
370
-1
100
AcDbPoint
 10
344342.96858813
 20
-324473.915258865
 30
0.0
 39
0.0
210
0.0
220
0.0
230
1.0
 50
0.0
  0
POINT
  5
E5
330
DB
100
AcDbEntity
  8
Defpoints
  6
ByBlock
 62
0
440
16777216
 48
0.01
 60
0
370
-1
100
AcDbPoint
 10
344342.96858813
 20
-325049.091644931
 30
0.0
 39
0.0
210
0.0
220
0.0
230
1.0
 50
0.0
  0
ENDBLK
  5
E6
330
DB
100
AcDbEntity
  8
0
100
AcDbBlockEnd
  0
BLOCK
  5
E9
330
E8
100
AcDbEntity
  8
0
  6
ByLayer
 62
256
 48
0.01
 60
0
370
-1
100
AcDbBlockBegin
  2
*D8
 70
1
 10
0.0
 20
0.0
 30
0.0
  3
*D8
  4

  0
LINE
  5
EA
330
E8
100
AcDbEntity
  8
A-新隔墙
  6
ByBlock
 62
5
440
16777216
 48
0.01
 60
0
370
-2
100
AcDbLine
 10
344342.96858813
 20
-324833.915258865
 30
0.0
 11
344342.96858813
 21
-325409.091644931
 31
0.0
 39
0.0
210
0.0
220
0.0
230
1.0
  0
LINE
  5
EB
330
E8
100
AcDbEntity
  8
A-新隔墙
  6
ByLayer
 62
5
440
16777216
 48
0.01
 60
0
370
-2
100
AcDbLine
 10
344782.96858813
 20
-324833.915258865
 30
0.0
 11
344782.96858813
 21
-325409.091644931
 31
0.0
 39
0.0
210
0.0
220
0.0
230
1.0
  0
LINE
  5
EC
330
E8
100
AcDbEntity
  8
A-新隔墙
  6
ByLayer
 62
5
440
16777216
 48
0.01
 60
0
370
-1
100
AcDbLine
 10
344342.96858813
 20
-325049.091644931
 30
0.0
 11
344246.96858813
 21
-325049.091644931
 31
0.0
 39
0.0
210
0.0
220
0.0
230
1.0
  0
LINE
  5
ED
330
E8
100
AcDbEntity
  8
A-新隔墙
  6
ByLayer
 62
5
440
16777216
 48
0.01
 60
0
370
-1
100
AcDbLine
 10
344782.96858813
 20
-325049.091644931
 30
0.0
 11
344878.96858813
 21
-325049.091644931
 31
0.0
 39
0.0
210
0.0
220
0.0
230
1.0
  0
LINE
  5
EE
330
E8
100
AcDbEntity
  8
A-新隔墙
  6
ByLayer
 62
5
440
16777216
 48
0.01
 60
0
370
-1
100
AcDbLine
 10
344342.96858813
 20
-325049.091644931
 30
0.0
 11
344782.96858813
 21
-325049.091644931
 31
0.0
 39
0.0
210
0.0
220
0.0
230
1.0
  0
INSERT
  5
EF
330
E8
100
AcDbEntity
  8
A-新隔墙
  6
ByBlock
 62
5
440
16777216
 48
0.01
 60
0
370
-1
100
AcDbBlockReference
  2
_ArchTick
 10
344342.96858813
 20
-325049.091644931
 30
0.0
 41
96.0
 42
96.0
 43
96.0
 50
0.0
 70
1
 71
1
 44
0.0
 45
0.0
210
0.0
220
0.0
230
1.0
  0
INSERT
  5
F0
330
E8
100
AcDbEntity
  8
A-新隔墙
  6
ByBlock
 62
5
440
16777216
 48
0.01
 60
0
370
-1
100
AcDbBlockReference
  2
_ArchTick
 10
344782.96858813
 20
-325049.091644931
 30
0.0
 41
96.0
 42
96.0
 43
96.0
 50
180.0
 70
1
 71
1
 44
0.0
 45
0.0
210
0.0
220
0.0
230
1.0
  0
MTEXT
  5
F1
330
E8
100
AcDbEntity
  8
A-新隔墙
  6
ByBlock
 62
35
440
16777216
 48
0.01
 60
0
370
-1
100
AcDbMText
 10
344562.96858813
 20
-324809.091644931
 30
0.0
 40
240.0
 41
0.0
 44
1.0
 46
0.0
 71
5
 72
1
  1
\A1;440
  7
DIMA
 73
1
 11
1.0
 21
0.0
 31
0.0
210
0.0
220
0.0
230
1.0
  0
POINT
  5
F2
330
E8
100
AcDbEntity
  8
Defpoints
  6
ByBlock
 62
0
440
16777216
 48
0.01
 60
0
370
-1
100
AcDbPoint
 10
344342.96858813
 20
-324473.915258865
 30
0.0
 39
0.0
210
0.0
220
0.0
230
1.0
 50
0.0
  0
POINT
  5
F3
330
E8
100
AcDbEntity
  8
Defpoints
  6
ByBlock
 62
0
440
16777216
 48
0.01
 60
0
370
-1
100
AcDbPoint
 10
344782.96858813
 20
-324473.915258865
 30
0.0
 39
0.0
210
0.0
220
0.0
230
1.0
 50
0.0
  0
POINT
  5
F4
330
E8
100
AcDbEntity
  8
Defpoints
  6
ByBlock
 62
0
440
16777216
 48
0.01
 60
0
370
-1
100
AcDbPoint
 10
344782.96858813
 20
-325049.091644931
 30
0.0
 39
0.0
210
0.0
220
0.0
230
1.0
 50
0.0
  0
ENDBLK
  5
F5
330
E8
100
AcDbEntity
  8
0
100
AcDbBlockEnd
  0
BLOCK
  5
F8
330
F7
100
AcDbEntity
  8
0
  6
ByLayer
 62
256
 48
0.01
 60
0
370
-1
100
AcDbBlockBegin
  2
*D9
 70
1
 10
0.0
 20
0.0
 30
0.0
  3
*D9
  4

  0
LINE
  5
F9
330
F7
100
AcDbEntity
  8
A-新隔墙
  6
ByBlock
 62
5
440
16777216
 48
0.01
 60
0
370
-2
100
AcDbLine
 10
344782.96858813
 20
-324833.915258865
 30
0.0
 11
344782.96858813
 21
-325409.091644931
 31
0.0
 39
0.0
210
0.0
220
0.0
230
1.0
  0
LINE
  5
FA
330
F7
100
AcDbEntity
  8
A-新隔墙
  6
ByLayer
 62
5
440
16777216
 48
0.01
 60
0
370
-2
100
AcDbLine
 10
345992.96858813
 20
-324833.915258865
 30
0.0
 11
345992.96858813
 21
-325409.091644931
 31
0.0
 39
0.0
210
0.0
220
0.0
230
1.0
  0
LINE
  5
FB
330
F7
100
AcDbEntity
  8
A-新隔墙
  6
ByLayer
 62
5
440
16777216
 48
0.01
 60
0
370
-1
100
AcDbLine
 10
344422.96858813
 20
-325049.091644931
 30
0.0
 11
346352.96858813
 21
-325049.091644931
 31
0.0
 39
0.0
210
0.0
220
0.0
230
1.0
  0
INSERT
  5
FC
330
F7
100
AcDbEntity
  8
A-新隔墙
  6
ByBlock
 62
5
440
16777216
 48
0.01
 60
0
370
-1
100
AcDbBlockReference
  2
_ArchTick
 10
344782.96858813
 20
-325049.091644931
 30
0.0
 41
96.0
 42
96.0
 43
96.0
 50
180.0
 70
1
 71
1
 44
0.0
 45
0.0
210
0.0
220
0.0
230
1.0
  0
INSERT
  5
FD
330
F7
100
AcDbEntity
  8
A-新隔墙
  6
ByBlock
 62
5
440
16777216
 48
0.01
 60
0
370
-1
100
AcDbBlockReference
  2
_ArchTick
 10
345992.96858813
 20
-325049.091644931
 30
0.0
 41
96.0
 42
96.0
 43
96.0
 50
0.0
 70
1
 71
1
 44
0.0
 45
0.0
210
0.0
220
0.0
230
1.0
  0
MTEXT
  5
FE
330
F7
100
AcDbEntity
  8
A-新隔墙
  6
ByBlock
 62
35
440
16777216
 48
0.01
 60
0
370
-1
100
AcDbMText
 10
345387.96858813
 20
-324809.091644931
 30
0.0
 40
240.0
 41
0.0
 44
1.0
 46
0.0
 71
5
 72
1
  1
\A1;1210
  7
DIMA
 73
1
 11
1.0
 21
0.0
 31
0.0
210
0.0
220
0.0
230
1.0
  0
POINT
  5
FF
330
F7
100
AcDbEntity
  8
Defpoints
  6
ByBlock
 62
0
440
16777216
 48
0.01
 60
0
370
-1
100
AcDbPoint
 10
344782.96858813
 20
-324473.915258865
 30
0.0
 39
0.0
210
0.0
220
0.0
230
1.0
 50
0.0
  0
POINT
  5
100
330
F7
100
AcDbEntity
  8
Defpoints
  6
ByBlock
 62
0
440
16777216
 48
0.01
 60
0
370
-1
100
AcDbPoint
 10
345992.96858813
 20
-324473.915258865
 30
0.0
 39
0.0
210
0.0
220
0.0
230
1.0
 50
0.0
  0
POINT
  5
101
330
F7
100
AcDbEntity
  8
Defpoints
  6
ByBlock
 62
0
440
16777216
 48
0.01
 60
0
370
-1
100
AcDbPoint
 10
345992.96858813
 20
-325049.091644931
 30
0.0
 39
0.0
210
0.0
220
0.0
230
1.0
 50
0.0
  0
ENDBLK
  5
102
330
F7
100
AcDbEntity
  8
0
100
AcDbBlockEnd
  0
BLOCK
  5
105
330
104
100
AcDbEntity
  8
0
  6
ByLayer
 62
256
 48
0.01
 60
0
370
-1
100
AcDbBlockBegin
  2
*D10
 70
1
 10
0.0
 20
0.0
 30
0.0
  3
*D10
  4

  0
LINE
  5
106
330
104
100
AcDbEntity
  8
A-新隔墙
  6
ByBlock
 62
5
440
16777216
 48
0.01
 60
0
370
-2
100
AcDbLine
 10
345992.96858813
 20
-324833.915258865
 30
0.0
 11
345992.96858813
 21
-325409.091644931
 31
0.0
 39
0.0
210
0.0
220
0.0
230
1.0
  0
LINE
  5
107
330
104
100
AcDbEntity
  8
A-新隔墙
  6
ByLayer
 62
5
440
16777216
 48
0.01
 60
0
370
-2
100
AcDbLine
 10
346272.96858813
 20
-324833.915258865
 30
0.0
 11
346272.96858813
 21
-325409.091644931
 31
0.0
 39
0.0
210
0.0
220
0.0
230
1.0
  0
LINE
  5
108
330
104
100
AcDbEntity
  8
A-新隔墙
  6
ByLayer
 62
5
440
16777216
 48
0.01
 60
0
370
-1
100
AcDbLine
 10
345992.96858813
 20
-325049.091644931
 30
0.0
 11
345896.96858813
 21
-325049.091644931
 31
0.0
 39
0.0
210
0.0
220
0.0
230
1.0
  0
LINE
  5
109
330
104
100
AcDbEntity
  8
A-新隔墙
  6
ByLayer
 62
5
440
16777216
 48
0.01
 60
0
370
-1
100
AcDbLine
 10
346272.96858813
 20
-325049.091644931
 30
0.0
 11
346368.96858813
 21
-325049.091644931
 31
0.0
 39
0.0
210
0.0
220
0.0
230
1.0
  0
LINE
  5
10A
330
104
100
AcDbEntity
  8
A-新隔墙
  6
ByLayer
 62
5
440
16777216
 48
0.01
 60
0
370
-1
100
AcDbLine
 10
345992.96858813
 20
-325049.091644931
 30
0.0
 11
346272.96858813
 21
-325049.091644931
 31
0.0
 39
0.0
210
0.0
220
0.0
230
1.0
  0
INSERT
  5
10B
330
104
100
AcDbEntity
  8
A-新隔墙
  6
ByBlock
 62
5
440
16777216
 48
0.01
 60
0
370
-1
100
AcDbBlockReference
  2
_ArchTick
 10
345992.96858813
 20
-325049.091644931
 30
0.0
 41
96.0
 42
96.0
 43
96.0
 50
0.0
 70
1
 71
1
 44
0.0
 45
0.0
210
0.0
220
0.0
230
1.0
  0
INSERT
  5
10C
330
104
100
AcDbEntity
  8
A-新隔墙
  6
ByBlock
 62
5
440
16777216
 48
0.01
 60
0
370
-1
100
AcDbBlockReference
  2
_ArchTick
 10
346272.96858813
 20
-325049.091644931
 30
0.0
 41
96.0
 42
96.0
 43
96.0
 50
180.0
 70
1
 71
1
 44
0.0
 45
0.0
210
0.0
220
0.0
230
1.0
  0
MTEXT
  5
10D
330
104
100
AcDbEntity
  8
A-新隔墙
  6
ByBlock
 62
35
440
16777216
 48
0.01
 60
0
370
-1
100
AcDbMText
 10
346132.96858813
 20
-324809.091644931
 30
0.0
 40
240.0
 41
0.0
 44
1.0
 46
0.0
 71
5
 72
1
  1
\A1;280
  7
DIMA
 73
1
 11
1.0
 21
0.0
 31
0.0
210
0.0
220
0.0
230
1.0
  0
POINT
  5
10E
330
104
100
AcDbEntity
  8
Defpoints
  6
ByBlock
 62
0
440
16777216
 48
0.01
 60
0
370
-1
100
AcDbPoint
 10
345992.96858813
 20
-324473.915258865
 30
0.0
 39
0.0
210
0.0
220
0.0
230
1.0
 50
0.0
  0
POINT
  5
10F
330
104
100
AcDbEntity
  8
Defpoints
  6
ByBlock
 62
0
440
16777216
 48
0.01
 60
0
370
-1
100
AcDbPoint
 10
346272.96858813
 20
-324473.915258865
 30
0.0
 39
0.0
210
0.0
220
0.0
230
1.0
 50
0.0
  0
POINT
  5
110
330
104
100
AcDbEntity
  8
Defpoints
  6
ByBlock
 62
0
440
16777216
 48
0.01
 60
0
370
-1
100
AcDbPoint
 10
346272.96858813
 20
-325049.091644931
 30
0.0
 39
0.0
210
0.0
220
0.0
230
1.0
 50
0.0
  0
ENDBLK
  5
111
330
104
100
AcDbEntity
  8
0
100
AcDbBlockEnd
  0
BLOCK
  5
115
330
114
100
AcDbEntity
  8
0
  6
ByLayer
 62
256
 48
0.01
 60
0
370
-1
100
AcDbBlockBegin
  2
*D11
 70
1
 10
0.0
 20
0.0
 30
0.0
  3
*D11
  4

  0
LINE
  5
116
330
114
100
AcDbEntity
  8
A-新隔墙
  6
ByBlock
 62
5
440
16777216
 48
0.01
 60
0
370
-2
100
AcDbLine
 10
338402.96858813
 20
-324473.915258865
 30
0.0
 11
337566.32924877
 21
-324473.915258865
 31
0.0
 39
0.0
210
0.0
220
0.0
230
1.0
  0
LINE
  5
117
330
114
100
AcDbEntity
  8
A-新隔墙
  6
ByLayer
 62
5
440
16777216
 48
0.01
 60
0
370
-2
100
AcDbLine
 10
338402.96858813
 20
-321433.915258865
 30
0.0
 11
337566.32924877
 21
-321433.915258865
 31
0.0
 39
0.0
210
0.0
220
0.0
230
1.0
  0
LINE
  5
118
330
114
100
AcDbEntity
  8
A-新隔墙
  6
ByLayer
 62
5
440
16777216
 48
0.01
 60
0
370
-1
100
AcDbLine
 10
337926.32924877
 20
-324833.915258865
 30
0.0
 11
337926.32924877
 21
-321073.915258865
 31
0.0
 39
0.0
210
0.0
220
0.0
230
1.0
  0
INSERT
  5
119
330
114
100
AcDbEntity
  8
A-新隔墙
  6
ByBlock
 62
5
440
16777216
 48
0.01
 60
0
370
-1
100
AcDbBlockReference
  2
_ArchTick
 10
337926.32924877
 20
-324473.915258865
 30
0.0
 41
96.0
 42
96.0
 43
96.0
 50
270.0
 70
1
 71
1
 44
0.0
 45
0.0
210
0.0
220
0.0
230
1.0
  0
INSERT
  5
11A
330
114
100
AcDbEntity
  8
A-新隔墙
  6
ByBlock
 62
5
440
16777216
 48
0.01
 60
0
370
-1
100
AcDbBlockReference
  2
_ArchTick
 10
337926.32924877
 20
-321433.915258865
 30
0.0
 41
96.0
 42
96.0
 43
96.0
 50
90.0
 70
1
 71
1
 44
0.0
 45
0.0
210
0.0
220
0.0
230
1.0
  0
MTEXT
  5
11B
330
114
100
AcDbEntity
  8
A-新隔墙
  6
ByBlock
 62
35
440
16777216
 48
0.01
 60
0
370
-1
100
AcDbMText
 10
337686.32924877
 20
-322953.915258865
 30
0.0
 40
240.0
 41
0.0
 44
1.0
 46
0.0
 71
5
 72
1
  1
\A1;3040
  7
DIMA
 73
1
 11
0.0000000000000001
 21
1.0
 31
0.0
210
0.0
220
0.0
230
1.0
  0
POINT
  5
11C
330
114
100
AcDbEntity
  8
Defpoints
  6
ByBlock
 62
0
440
16777216
 48
0.01
 60
0
370
-1
100
AcDbPoint
 10
338762.96858813
 20
-324473.915258865
 30
0.0
 39
0.0
210
0.0
220
0.0
230
1.0
 50
0.0
  0
POINT
  5
11D
330
114
100
AcDbEntity
  8
Defpoints
  6
ByBlock
 62
0
440
16777216
 48
0.01
 60
0
370
-1
100
AcDbPoint
 10
338762.96858813
 20
-321433.915258865
 30
0.0
 39
0.0
210
0.0
220
0.0
230
1.0
 50
0.0
  0
POINT
  5
11E
330
114
100
AcDbEntity
  8
Defpoints
  6
ByBlock
 62
0
440
16777216
 48
0.01
 60
0
370
-1
100
AcDbPoint
 10
337926.32924877
 20
-321433.915258865
 30
0.0
 39
0.0
210
0.0
220
0.0
230
1.0
 50
0.0
  0
ENDBLK
  5
11F
330
114
100
AcDbEntity
  8
0
100
AcDbBlockEnd
  0
BLOCK
  5
122
330
121
100
AcDbEntity
  8
0
  6
ByLayer
 62
256
 48
0.01
 60
0
370
-1
100
AcDbBlockBegin
  2
*D12
 70
1
 10
0.0
 20
0.0
 30
0.0
  3
*D12
  4

  0
LINE
  5
123
330
121
100
AcDbEntity
  8
A-新隔墙
  6
ByBlock
 62
5
440
16777216
 48
0.01
 60
0
370
-2
100
AcDbLine
 10
338402.96858813
 20
-321433.915258865
 30
0.0
 11
337566.32924877
 21
-321433.915258865
 31
0.0
 39
0.0
210
0.0
220
0.0
230
1.0
  0
LINE
  5
124
330
121
100
AcDbEntity
  8
A-新隔墙
  6
ByLayer
 62
5
440
16777216
 48
0.01
 60
0
370
-2
100
AcDbLine
 10
338002.96858813
 20
-320783.915258865
 30
0.0
 11
337566.32924877
 21
-320783.915258865
 31
0.0
 39
0.0
210
0.0
220
0.0
230
1.0
  0
LINE
  5
125
330
121
100
AcDbEntity
  8
A-新隔墙
  6
ByLayer
 62
5
440
16777216
 48
0.01
 60
0
370
-1
100
AcDbLine
 10
337926.32924877
 20
-321433.915258865
 30
0.0
 11
337926.32924877
 21
-321529.915258865
 31
0.0
 39
0.0
210
0.0
220
0.0
230
1.0
  0
LINE
  5
126
330
121
100
AcDbEntity
  8
A-新隔墙
  6
ByLayer
 62
5
440
16777216
 48
0.01
 60
0
370
-1
100
AcDbLine
 10
337926.32924877
 20
-320783.915258865
 30
0.0
 11
337926.32924877
 21
-320687.915258865
 31
0.0
 39
0.0
210
0.0
220
0.0
230
1.0
  0
LINE
  5
127
330
121
100
AcDbEntity
  8
A-新隔墙
  6
ByLayer
 62
5
440
16777216
 48
0.01
 60
0
370
-1
100
AcDbLine
 10
337926.32924877
 20
-321433.915258865
 30
0.0
 11
337926.32924877
 21
-320783.915258865
 31
0.0
 39
0.0
210
0.0
220
0.0
230
1.0
  0
INSERT
  5
128
330
121
100
AcDbEntity
  8
A-新隔墙
  6
ByBlock
 62
5
440
16777216
 48
0.01
 60
0
370
-1
100
AcDbBlockReference
  2
_ArchTick
 10
337926.32924877
 20
-321433.915258865
 30
0.0
 41
96.0
 42
96.0
 43
96.0
 50
90.0
 70
1
 71
1
 44
0.0
 45
0.0
210
0.0
220
0.0
230
1.0
  0
INSERT
  5
129
330
121
100
AcDbEntity
  8
A-新隔墙
  6
ByBlock
 62
5
440
16777216
 48
0.01
 60
0
370
-1
100
AcDbBlockReference
  2
_ArchTick
 10
337926.32924877
 20
-320783.915258865
 30
0.0
 41
96.0
 42
96.0
 43
96.0
 50
270.0
 70
1
 71
1
 44
0.0
 45
0.0
210
0.0
220
0.0
230
1.0
  0
MTEXT
  5
12A
330
121
100
AcDbEntity
  8
A-新隔墙
  6
ByBlock
 62
35
440
16777216
 48
0.01
 60
0
370
-1
100
AcDbMText
 10
337686.32924877
 20
-321108.915258865
 30
0.0
 40
240.0
 41
0.0
 44
1.0
 46
0.0
 71
5
 72
1
  1
\A1;650
  7
DIMA
 73
1
 11
0.0000000000000001
 21
1.0
 31
0.0
210
0.0
220
0.0
230
1.0
  0
POINT
  5
12B
330
121
100
AcDbEntity
  8
Defpoints
  6
ByBlock
 62
0
440
16777216
 48
0.01
 60
0
370
-1
100
AcDbPoint
 10
338762.96858813
 20
-321433.915258865
 30
0.0
 39
0.0
210
0.0
220
0.0
230
1.0
 50
0.0
  0
POINT
  5
12C
330
121
100
AcDbEntity
  8
Defpoints
  6
ByBlock
 62
0
440
16777216
 48
0.01
 60
0
370
-1
100
AcDbPoint
 10
338362.96858813
 20
-320783.915258865
 30
0.0
 39
0.0
210
0.0
220
0.0
230
1.0
 50
0.0
  0
POINT
  5
12D
330
121
100
AcDbEntity
  8
Defpoints
  6
ByBlock
 62
0
440
16777216
 48
0.01
 60
0
370
-1
100
AcDbPoint
 10
337926.32924877
 20
-320783.915258865
 30
0.0
 39
0.0
210
0.0
220
0.0
230
1.0
 50
0.0
  0
ENDBLK
  5
12E
330
121
100
AcDbEntity
  8
0
100
AcDbBlockEnd
  0
BLOCK
  5
131
330
130
100
AcDbEntity
  8
0
  6
ByLayer
 62
256
 48
0.01
 60
0
370
-1
100
AcDbBlockBegin
  2
*D13
 70
1
 10
0.0
 20
0.0
 30
0.0
  3
*D13
  4

  0
LINE
  5
132
330
130
100
AcDbEntity
  8
A-新隔墙
  6
ByBlock
 62
5
440
16777216
 48
0.01
 60
0
370
-2
100
AcDbLine
 10
346272.96858813
 20
-325343.973634718
 30
0.0
 11
346272.96858813
 21
-326183.973634718
 31
0.0
 39
0.0
210
0.0
220
0.0
230
1.0
  0
LINE
  5
133
330
130
100
AcDbEntity
  8
A-新隔墙
  6
ByLayer
 62
5
440
16777216
 48
0.01
 60
0
370
-2
100
AcDbLine
 10
338362.96858813
 20
-325343.973634718
 30
0.0
 11
338362.96858813
 21
-326183.973634718
 31
0.0
 39
0.0
210
0.0
220
0.0
230
1.0
  0
LINE
  5
134
330
130
100
AcDbEntity
  8
A-新隔墙
  6
ByLayer
 62
5
440
16777216
 48
0.01
 60
0
370
-1
100
AcDbLine
 10
346632.96858813
 20
-325823.973634718
 30
0.0
 11
338002.96858813
 21
-325823.973634718
 31
0.0
 39
0.0
210
0.0
220
0.0
230
1.0
  0
INSERT
  5
135
330
130
100
AcDbEntity
  8
A-新隔墙
  6
ByBlock
 62
5
440
16777216
 48
0.01
 60
0
370
-1
100
AcDbBlockReference
  2
_ArchTick
 10
346272.96858813
 20
-325823.973634718
 30
0.0
 41
96.0
 42
96.0
 43
96.0
 50
0.0
 70
1
 71
1
 44
0.0
 45
0.0
210
0.0
220
0.0
230
1.0
  0
INSERT
  5
136
330
130
100
AcDbEntity
  8
A-新隔墙
  6
ByBlock
 62
5
440
16777216
 48
0.01
 60
0
370
-1
100
AcDbBlockReference
  2
_ArchTick
 10
338362.96858813
 20
-325823.973634718
 30
0.0
 41
96.0
 42
96.0
 43
96.0
 50
180.0
 70
1
 71
1
 44
0.0
 45
0.0
210
0.0
220
0.0
230
1.0
  0
MTEXT
  5
137
330
130
100
AcDbEntity
  8
A-新隔墙
  6
ByBlock
 62
35
440
16777216
 48
0.01
 60
0
370
-1
100
AcDbMText
 10
342317.96858813
 20
-325583.973634718
 30
0.0
 40
240.0
 41
0.0
 44
1.0
 46
0.0
 71
5
 72
1
  1
\A1;7910
  7
DIMA
 73
1
 11
1.0
 21
0.0
 31
0.0
210
0.0
220
0.0
230
1.0
  0
POINT
  5
138
330
130
100
AcDbEntity
  8
Defpoints
  6
ByBlock
 62
0
440
16777216
 48
0.01
 60
0
370
-1
100
AcDbPoint
 10
346272.96858813
 20
-324473.915258865
 30
0.0
 39
0.0
210
0.0
220
0.0
230
1.0
 50
0.0
  0
POINT
  5
139
330
130
100
AcDbEntity
  8
Defpoints
  6
ByBlock
 62
0
440
16777216
 48
0.01
 60
0
370
-1
100
AcDbPoint
 10
338362.96858813
 20
-324473.915258865
 30
0.0
 39
0.0
210
0.0
220
0.0
230
1.0
 50
0.0
  0
POINT
  5
13A
330
130
100
AcDbEntity
  8
Defpoints
  6
ByBlock
 62
0
440
16777216
 48
0.01
 60
0
370
-1
100
AcDbPoint
 10
338362.96858813
 20
-325823.973634718
 30
0.0
 39
0.0
210
0.0
220
0.0
230
1.0
 50
0.0
  0
ENDBLK
  5
13B
330
130
100
AcDbEntity
  8
0
100
AcDbBlockEnd
  0
BLOCK
  5
13E
330
13D
100
AcDbEntity
  8
0
  6
ByLayer
 62
256
 48
0.01
 60
0
370
-1
100
AcDbBlockBegin
  2
*D14
 70
1
 10
0.0
 20
0.0
 30
0.0
  3
*D14
  4

  0
LINE
  5
13F
330
13D
100
AcDbEntity
  8
A-新隔墙
  6
ByBlock
 62
5
440
16777216
 48
0.01
 60
0
370
-2
100
AcDbLine
 10
337773.839909493
 20
-324473.915258865
 30
0.0
 11
336933.839909493
 21
-324473.915258865
 31
0.0
 39
0.0
210
0.0
220
0.0
230
1.0
  0
LINE
  5
140
330
13D
100
AcDbEntity
  8
A-新隔墙
  6
ByLayer
 62
5
440
16777216
 48
0.01
 60
0
370
-2
100
AcDbLine
 10
337773.839909493
 20
-319483.915258865
 30
0.0
 11
336933.839909493
 21
-319483.915258865
 31
0.0
 39
0.0
210
0.0
220
0.0
230
1.0
  0
LINE
  5
141
330
13D
100
AcDbEntity
  8
A-新隔墙
  6
ByLayer
 62
5
440
16777216
 48
0.01
 60
0
370
-1
100
AcDbLine
 10
337293.839909493
 20
-324833.915258865
 30
0.0
 11
337293.839909493
 21
-319123.915258865
 31
0.0
 39
0.0
210
0.0
220
0.0
230
1.0
  0
INSERT
  5
142
330
13D
100
AcDbEntity
  8
A-新隔墙
  6
ByBlock
 62
5
440
16777216
 48
0.01
 60
0
370
-1
100
AcDbBlockReference
  2
_ArchTick
 10
337293.839909493
 20
-324473.915258865
 30
0.0
 41
96.0
 42
96.0
 43
96.0
 50
270.0
 70
1
 71
1
 44
0.0
 45
0.0
210
0.0
220
0.0
230
1.0
  0
INSERT
  5
143
330
13D
100
AcDbEntity
  8
A-新隔墙
  6
ByBlock
 62
5
440
16777216
 48
0.01
 60
0
370
-1
100
AcDbBlockReference
  2
_ArchTick
 10
337293.839909493
 20
-319483.915258865
 30
0.0
 41
96.0
 42
96.0
 43
96.0
 50
90.0
 70
1
 71
1
 44
0.0
 45
0.0
210
0.0
220
0.0
230
1.0
  0
MTEXT
  5
144
330
13D
100
AcDbEntity
  8
A-新隔墙
  6
ByBlock
 62
35
440
16777216
 48
0.01
 60
0
370
-1
100
AcDbMText
 10
337053.839909493
 20
-321978.915258865
 30
0.0
 40
240.0
 41
0.0
 44
1.0
 46
0.0
 71
5
 72
1
  1
\A1;4990
  7
DIMA
 73
1
 11
0.0000000000000001
 21
1.0
 31
0.0
210
0.0
220
0.0
230
1.0
  0
POINT
  5
145
330
13D
100
AcDbEntity
  8
Defpoints
  6
ByBlock
 62
0
440
16777216
 48
0.01
 60
0
370
-1
100
AcDbPoint
 10
338362.96858813
 20
-324473.915258865
 30
0.0
 39
0.0
210
0.0
220
0.0
230
1.0
 50
0.0
  0
POINT
  5
146
330
13D
100
AcDbEntity
  8
Defpoints
  6
ByBlock
 62
0
440
16777216
 48
0.01
 60
0
370
-1
100
AcDbPoint
 10
338362.96858813
 20
-319483.915258865
 30
0.0
 39
0.0
210
0.0
220
0.0
230
1.0
 50
0.0
  0
POINT
  5
147
330
13D
100
AcDbEntity
  8
Defpoints
  6
ByBlock
 62
0
440
16777216
 48
0.01
 60
0
370
-1
100
AcDbPoint
 10
337293.839909493
 20
-319483.915258865
 30
0.0
 39
0.0
210
0.0
220
0.0
230
1.0
 50
0.0
  0
ENDBLK
  5
148
330
13D
100
AcDbEntity
  8
0
100
AcDbBlockEnd
  0
BLOCK
  5
14B
330
14A
100
AcDbEntity
  8
0
  6
ByLayer
 62
256
 48
0.01
 60
0
370
-1
100
AcDbBlockBegin
  2
*D15
 70
1
 10
0.0
 20
0.0
 30
0.0
  3
*D15
  4

  0
LINE
  5
14C
330
14A
100
AcDbEntity
  8
A-新隔墙
  6
ByBlock
 62
5
440
16777216
 48
0.01
 60
0
370
-2
100
AcDbLine
 10
338002.96858813
 20
-320783.915258865
 30
0.0
 11
337566.32924877
 21
-320783.915258865
 31
0.0
 39
0.0
210
0.0
220
0.0
230
1.0
  0
LINE
  5
14D
330
14A
100
AcDbEntity
  8
A-新隔墙
  6
ByLayer
 62
5
440
16777216
 48
0.01
 60
0
370
-2
100
AcDbLine
 10
338002.96858813
 20
-319483.915258865
 30
0.0
 11
337566.32924877
 21
-319483.915258865
 31
0.0
 39
0.0
210
0.0
220
0.0
230
1.0
  0
LINE
  5
14E
330
14A
100
AcDbEntity
  8
A-新隔墙
  6
ByLayer
 62
5
440
16777216
 48
0.01
 60
0
370
-1
100
AcDbLine
 10
337926.32924877
 20
-321143.915258865
 30
0.0
 11
337926.32924877
 21
-319123.915258865
 31
0.0
 39
0.0
210
0.0
220
0.0
230
1.0
  0
INSERT
  5
14F
330
14A
100
AcDbEntity
  8
A-新隔墙
  6
ByBlock
 62
5
440
16777216
 48
0.01
 60
0
370
-1
100
AcDbBlockReference
  2
_ArchTick
 10
337926.32924877
 20
-320783.915258865
 30
0.0
 41
96.0
 42
96.0
 43
96.0
 50
270.0
 70
1
 71
1
 44
0.0
 45
0.0
210
0.0
220
0.0
230
1.0
  0
INSERT
  5
150
330
14A
100
AcDbEntity
  8
A-新隔墙
  6
ByBlock
 62
5
440
16777216
 48
0.01
 60
0
370
-1
100
AcDbBlockReference
  2
_ArchTick
 10
337926.32924877
 20
-319483.915258865
 30
0.0
 41
96.0
 42
96.0
 43
96.0
 50
90.0
 70
1
 71
1
 44
0.0
 45
0.0
210
0.0
220
0.0
230
1.0
  0
MTEXT
  5
151
330
14A
100
AcDbEntity
  8
A-新隔墙
  6
ByBlock
 62
35
440
16777216
 48
0.01
 60
0
370
-1
100
AcDbMText
 10
337686.32924877
 20
-320133.915258865
 30
0.0
 40
240.0
 41
0.0
 44
1.0
 46
0.0
 71
5
 72
1
  1
\A1;1300
  7
DIMA
 73
1
 11
0.0000000000000001
 21
1.0
 31
0.0
210
0.0
220
0.0
230
1.0
  0
POINT
  5
152
330
14A
100
AcDbEntity
  8
Defpoints
  6
ByBlock
 62
0
440
16777216
 48
0.01
 60
0
370
-1
100
AcDbPoint
 10
338362.96858813
 20
-320783.915258865
 30
0.0
 39
0.0
210
0.0
220
0.0
230
1.0
 50
0.0
  0
POINT
  5
153
330
14A
100
AcDbEntity
  8
Defpoints
  6
ByBlock
 62
0
440
16777216
 48
0.01
 60
0
370
-1
100
AcDbPoint
 10
338362.96858813
 20
-319483.915258865
 30
0.0
 39
0.0
210
0.0
220
0.0
230
1.0
 50
0.0
  0
POINT
  5
154
330
14A
100
AcDbEntity
  8
Defpoints
  6
ByBlock
 62
0
440
16777216
 48
0.01
 60
0
370
-1
100
AcDbPoint
 10
337926.32924877
 20
-319483.915258865
 30
0.0
 39
0.0
210
0.0
220
0.0
230
1.0
 50
0.0
  0
ENDBLK
  5
155
330
14A
100
AcDbEntity
  8
0
100
AcDbBlockEnd
  0
BLOCK
  5
170
330
16F
100
AcDbEntity
  8
0
  6
ByLayer
 62
256
 48
0.01
 60
0
370
-1
100
AcDbBlockBegin
  2
*D16
 70
1
 10
0.0
 20
0.0
 30
0.0
  3
*D16
  4

  0
LINE
  5
171
330
16F
100
AcDbEntity
  8
A-新隔墙
  6
ByBlock
 62
5
440
16777216
 48
0.01
 60
0
370
-2
100
AcDbLine
 10
349574.582677813
 20
-324473.915258865
 30
0.0
 11
348734.582677813
 21
-324473.915258865
 31
0.0
 39
0.0
210
0.0
220
0.0
230
1.0
  0
LINE
  5
172
330
16F
100
AcDbEntity
  8
A-新隔墙
  6
ByLayer
 62
5
440
16777216
 48
0.01
 60
0
370
-2
100
AcDbLine
 10
349574.582677813
 20
-321493.915258865
 30
0.0
 11
348734.582677813
 21
-321493.915258865
 31
0.0
 39
0.0
210
0.0
220
0.0
230
1.0
  0
LINE
  5
173
330
16F
100
AcDbEntity
  8
A-新隔墙
  6
ByLayer
 62
5
440
16777216
 48
0.01
 60
0
370
-1
100
AcDbLine
 10
349094.582677813
 20
-324833.915258865
 30
0.0
 11
349094.582677813
 21
-321133.915258865
 31
0.0
 39
0.0
210
0.0
220
0.0
230
1.0
  0
INSERT
  5
174
330
16F
100
AcDbEntity
  8
A-新隔墙
  6
ByBlock
 62
5
440
16777216
 48
0.01
 60
0
370
-1
100
AcDbBlockReference
  2
_ArchTick
 10
349094.582677813
 20
-324473.915258865
 30
0.0
 41
96.0
 42
96.0
 43
96.0
 50
270.0
 70
1
 71
1
 44
0.0
 45
0.0
210
0.0
220
0.0
230
1.0
  0
INSERT
  5
175
330
16F
100
AcDbEntity
  8
A-新隔墙
  6
ByBlock
 62
5
440
16777216
 48
0.01
 60
0
370
-1
100
AcDbBlockReference
  2
_ArchTick
 10
349094.582677813
 20
-321493.915258865
 30
0.0
 41
96.0
 42
96.0
 43
96.0
 50
90.0
 70
1
 71
1
 44
0.0
 45
0.0
210
0.0
220
0.0
230
1.0
  0
MTEXT
  5
176
330
16F
100
AcDbEntity
  8
A-新隔墙
  6
ByBlock
 62
35
440
16777216
 48
0.01
 60
0
370
-1
100
AcDbMText
 10
348854.582677813
 20
-322983.915258865
 30
0.0
 40
240.0
 41
0.0
 44
1.0
 46
0.0
 71
5
 72
1
  1
\A1;2980
  7
DIMA
 73
1
 11
0.0000000000000001
 21
1.0
 31
0.0
210
0.0
220
0.0
230
1.0
  0
POINT
  5
177
330
16F
100
AcDbEntity
  8
Defpoints
  6
ByBlock
 62
0
440
16777216
 48
0.01
 60
0
370
-1
100
AcDbPoint
 10
350465.515093445
 20
-324473.915258865
 30
0.0
 39
0.0
210
0.0
220
0.0
230
1.0
 50
0.0
  0
POINT
  5
178
330
16F
100
AcDbEntity
  8
Defpoints
  6
ByBlock
 62
0
440
16777216
 48
0.01
 60
0
370
-1
100
AcDbPoint
 10
350465.515093445
 20
-321493.915258865
 30
0.0
 39
0.0
210
0.0
220
0.0
230
1.0
 50
0.0
  0
POINT
  5
179
330
16F
100
AcDbEntity
  8
Defpoints
  6
ByBlock
 62
0
440
16777216
 48
0.01
 60
0
370
-1
100
AcDbPoint
 10
349094.582677813
 20
-321493.915258865
 30
0.0
 39
0.0
210
0.0
220
0.0
230
1.0
 50
0.0
  0
ENDBLK
  5
17A
330
16F
100
AcDbEntity
  8
0
100
AcDbBlockEnd
  0
BLOCK
  5
17D
330
17C
100
AcDbEntity
  8
0
  6
ByLayer
 62
256
 48
0.01
 60
0
370
-1
100
AcDbBlockBegin
  2
*D17
 70
1
 10
0.0
 20
0.0
 30
0.0
  3
*D17
  4

  0
LINE
  5
17E
330
17C
100
AcDbEntity
  8
A-新隔墙
  6
ByBlock
 62
5
440
16777216
 48
0.01
 60
0
370
-2
100
AcDbLine
 10
349574.582677813
 20
-321493.915258865
 30
0.0
 11
348734.582677813
 21
-321493.915258865
 31
0.0
 39
0.0
210
0.0
220
0.0
230
1.0
  0
LINE
  5
17F
330
17C
100
AcDbEntity
  8
A-新隔墙
  6
ByLayer
 62
5
440
16777216
 48
0.01
 60
0
370
-2
100
AcDbLine
 10
349405.515093445
 20
-320013.915258865
 30
0.0
 11
348734.582677813
 21
-320013.915258865
 31
0.0
 39
0.0
210
0.0
220
0.0
230
1.0
  0
LINE
  5
180
330
17C
100
AcDbEntity
  8
A-新隔墙
  6
ByLayer
 62
5
440
16777216
 48
0.01
 60
0
370
-1
100
AcDbLine
 10
349094.582677813
 20
-321853.915258865
 30
0.0
 11
349094.582677813
 21
-319653.915258865
 31
0.0
 39
0.0
210
0.0
220
0.0
230
1.0
  0
INSERT
  5
181
330
17C
100
AcDbEntity
  8
A-新隔墙
  6
ByBlock
 62
5
440
16777216
 48
0.01
 60
0
370
-1
100
AcDbBlockReference
  2
_ArchTick
 10
349094.582677813
 20
-321493.915258865
 30
0.0
 41
96.0
 42
96.0
 43
96.0
 50
270.0
 70
1
 71
1
 44
0.0
 45
0.0
210
0.0
220
0.0
230
1.0
  0
INSERT
  5
182
330
17C
100
AcDbEntity
  8
A-新隔墙
  6
ByBlock
 62
5
440
16777216
 48
0.01
 60
0
370
-1
100
AcDbBlockReference
  2
_ArchTick
 10
349094.582677813
 20
-320013.915258865
 30
0.0
 41
96.0
 42
96.0
 43
96.0
 50
90.0
 70
1
 71
1
 44
0.0
 45
0.0
210
0.0
220
0.0
230
1.0
  0
MTEXT
  5
183
330
17C
100
AcDbEntity
  8
A-新隔墙
  6
ByBlock
 62
35
440
16777216
 48
0.01
 60
0
370
-1
100
AcDbMText
 10
348854.582677813
 20
-320753.915258865
 30
0.0
 40
240.0
 41
0.0
 44
1.0
 46
0.0
 71
5
 72
1
  1
\A1;1480
  7
DIMA
 73
1
 11
0.0000000000000001
 21
1.0
 31
0.0
210
0.0
220
0.0
230
1.0
  0
POINT
  5
184
330
17C
100
AcDbEntity
  8
Defpoints
  6
ByBlock
 62
0
440
16777216
 48
0.01
 60
0
370
-1
100
AcDbPoint
 10
350465.515093445
 20
-321493.915258865
 30
0.0
 39
0.0
210
0.0
220
0.0
230
1.0
 50
0.0
  0
POINT
  5
185
330
17C
100
AcDbEntity
  8
Defpoints
  6
ByBlock
 62
0
440
16777216
 48
0.01
 60
0
370
-1
100
AcDbPoint
 10
349765.515093445
 20
-320013.915258865
 30
0.0
 39
0.0
210
0.0
220
0.0
230
1.0
 50
0.0
  0
POINT
  5
186
330
17C
100
AcDbEntity
  8
Defpoints
  6
ByBlock
 62
0
440
16777216
 48
0.01
 60
0
370
-1
100
AcDbPoint
 10
349094.582677813
 20
-320013.915258865
 30
0.0
 39
0.0
210
0.0
220
0.0
230
1.0
 50
0.0
  0
ENDBLK
  5
187
330
17C
100
AcDbEntity
  8
0
100
AcDbBlockEnd
  0
BLOCK
  5
18A
330
189
100
AcDbEntity
  8
0
  6
ByLayer
 62
256
 48
0.01
 60
0
370
-1
100
AcDbBlockBegin
  2
*D18
 70
1
 10
0.0
 20
0.0
 30
0.0
  3
*D18
  4

  0
LINE
  5
18B
330
189
100
AcDbEntity
  8
A-新隔墙
  6
ByBlock
 62
5
440
16777216
 48
0.01
 60
0
370
-2
100
AcDbLine
 10
349082.108367657
 20
-320013.915258865
 30
0.0
 11
348242.108367657
 21
-320013.915258865
 31
0.0
 39
0.0
210
0.0
220
0.0
230
1.0
  0
LINE
  5
18C
330
189
100
AcDbEntity
  8
A-新隔墙
  6
ByLayer
 62
5
440
16777216
 48
0.01
 60
0
370
-2
100
AcDbLine
 10
349082.108367657
 20
-324473.915258865
 30
0.0
 11
348242.108367657
 21
-324473.915258865
 31
0.0
 39
0.0
210
0.0
220
0.0
230
1.0
  0
LINE
  5
18D
330
189
100
AcDbEntity
  8
A-新隔墙
  6
ByLayer
 62
5
440
16777216
 48
0.01
 60
0
370
-1
100
AcDbLine
 10
348602.108367657
 20
-319653.915258865
 30
0.0
 11
348602.108367657
 21
-324833.915258865
 31
0.0
 39
0.0
210
0.0
220
0.0
230
1.0
  0
INSERT
  5
18E
330
189
100
AcDbEntity
  8
A-新隔墙
  6
ByBlock
 62
5
440
16777216
 48
0.01
 60
0
370
-1
100
AcDbBlockReference
  2
_ArchTick
 10
348602.108367657
 20
-320013.915258865
 30
0.0
 41
96.0
 42
96.0
 43
96.0
 50
90.0
 70
1
 71
1
 44
0.0
 45
0.0
210
0.0
220
0.0
230
1.0
  0
INSERT
  5
18F
330
189
100
AcDbEntity
  8
A-新隔墙
  6
ByBlock
 62
5
440
16777216
 48
0.01
 60
0
370
-1
100
AcDbBlockReference
  2
_ArchTick
 10
348602.108367657
 20
-324473.915258865
 30
0.0
 41
96.0
 42
96.0
 43
96.0
 50
270.0
 70
1
 71
1
 44
0.0
 45
0.0
210
0.0
220
0.0
230
1.0
  0
MTEXT
  5
190
330
189
100
AcDbEntity
  8
A-新隔墙
  6
ByBlock
 62
35
440
16777216
 48
0.01
 60
0
370
-1
100
AcDbMText
 10
348362.108367657
 20
-322243.915258865
 30
0.0
 40
240.0
 41
0.0
 44
1.0
 46
0.0
 71
5
 72
1
  1
\A1;4460
  7
DIMA
 73
1
 11
0.0000000000000001
 21
1.0
 31
0.0
210
0.0
220
0.0
230
1.0
  0
POINT
  5
191
330
189
100
AcDbEntity
  8
Defpoints
  6
ByBlock
 62
0
440
16777216
 48
0.01
 60
0
370
-1
100
AcDbPoint
 10
349765.515093445
 20
-320013.915258865
 30
0.0
 39
0.0
210
0.0
220
0.0
230
1.0
 50
0.0
  0
POINT
  5
192
330
189
100
AcDbEntity
  8
Defpoints
  6
ByBlock
 62
0
440
16777216
 48
0.01
 60
0
370
-1
100
AcDbPoint
 10
349765.515093445
 20
-324473.915258865
 30
0.0
 39
0.0
210
0.0
220
0.0
230
1.0
 50
0.0
  0
POINT
  5
193
330
189
100
AcDbEntity
  8
Defpoints
  6
ByBlock
 62
0
440
16777216
 48
0.01
 60
0
370
-1
100
AcDbPoint
 10
348602.108367657
 20
-324473.915258865
 30
0.0
 39
0.0
210
0.0
220
0.0
230
1.0
 50
0.0
  0
ENDBLK
  5
194
330
189
100
AcDbEntity
  8
0
100
AcDbBlockEnd
  0
BLOCK
  5
197
330
196
100
AcDbEntity
  8
0
  6
ByLayer
 62
256
 48
0.01
 60
0
370
-1
100
AcDbBlockBegin
  2
*D19
 70
1
 10
0.0
 20
0.0
 30
0.0
  3
*D19
  4

  0
LINE
  5
198
330
196
100
AcDbEntity
  8
A-新隔墙
  6
ByBlock
 62
5
440
16777216
 48
0.01
 60
0
370
-2
100
AcDbLine
 10
349765.515093445
 20
-324833.915258865
 30
0.0
 11
349765.515093445
 21
-325409.091644931
 31
0.0
 39
0.0
210
0.0
220
0.0
230
1.0
  0
LINE
  5
199
330
196
100
AcDbEntity
  8
A-新隔墙
  6
ByLayer
 62
5
440
16777216
 48
0.01
 60
0
370
-2
100
AcDbLine
 10
350465.515093445
 20
-324833.915258865
 30
0.0
 11
350465.515093445
 21
-325409.091644931
 31
0.0
 39
0.0
210
0.0
220
0.0
230
1.0
  0
LINE
  5
19A
330
196
100
AcDbEntity
  8
A-新隔墙
  6
ByLayer
 62
5
440
16777216
 48
0.01
 60
0
370
-1
100
AcDbLine
 10
349405.515093445
 20
-325049.091644931
 30
0.0
 11
350825.515093445
 21
-325049.091644931
 31
0.0
 39
0.0
210
0.0
220
0.0
230
1.0
  0
INSERT
  5
19B
330
196
100
AcDbEntity
  8
A-新隔墙
  6
ByBlock
 62
5
440
16777216
 48
0.01
 60
0
370
-1
100
AcDbBlockReference
  2
_ArchTick
 10
349765.515093445
 20
-325049.091644931
 30
0.0
 41
96.0
 42
96.0
 43
96.0
 50
180.0
 70
1
 71
1
 44
0.0
 45
0.0
210
0.0
220
0.0
230
1.0
  0
INSERT
  5
19C
330
196
100
AcDbEntity
  8
A-新隔墙
  6
ByBlock
 62
5
440
16777216
 48
0.01
 60
0
370
-1
100
AcDbBlockReference
  2
_ArchTick
 10
350465.515093445
 20
-325049.091644931
 30
0.0
 41
96.0
 42
96.0
 43
96.0
 50
0.0
 70
1
 71
1
 44
0.0
 45
0.0
210
0.0
220
0.0
230
1.0
  0
MTEXT
  5
19D
330
196
100
AcDbEntity
  8
A-新隔墙
  6
ByBlock
 62
35
440
16777216
 48
0.01
 60
0
370
-1
100
AcDbMText
 10
350115.515093445
 20
-324809.091644931
 30
0.0
 40
240.0
 41
0.0
 44
1.0
 46
0.0
 71
5
 72
1
  1
\A1;700
  7
DIMA
 73
1
 11
1.0
 21
0.0
 31
0.0
210
0.0
220
0.0
230
1.0
  0
POINT
  5
19E
330
196
100
AcDbEntity
  8
Defpoints
  6
ByBlock
 62
0
440
16777216
 48
0.01
 60
0
370
-1
100
AcDbPoint
 10
349765.515093445
 20
-324473.915258865
 30
0.0
 39
0.0
210
0.0
220
0.0
230
1.0
 50
0.0
  0
POINT
  5
19F
330
196
100
AcDbEntity
  8
Defpoints
  6
ByBlock
 62
0
440
16777216
 48
0.01
 60
0
370
-1
100
AcDbPoint
 10
350465.515093445
 20
-324473.915258865
 30
0.0
 39
0.0
210
0.0
220
0.0
230
1.0
 50
0.0
  0
POINT
  5
1A0
330
196
100
AcDbEntity
  8
Defpoints
  6
ByBlock
 62
0
440
16777216
 48
0.01
 60
0
370
-1
100
AcDbPoint
 10
350465.515093445
 20
-325049.091644931
 30
0.0
 39
0.0
210
0.0
220
0.0
230
1.0
 50
0.0
  0
ENDBLK
  5
1A1
330
196
100
AcDbEntity
  8
0
100
AcDbBlockEnd
  0
BLOCK
  5
1A4
330
1A3
100
AcDbEntity
  8
0
  6
ByLayer
 62
256
 48
0.01
 60
0
370
-1
100
AcDbBlockBegin
  2
*D20
 70
1
 10
0.0
 20
0.0
 30
0.0
  3
*D20
  4

  0
LINE
  5
1A5
330
1A3
100
AcDbEntity
  8
A-新隔墙
  6
ByBlock
 62
5
440
16777216
 48
0.01
 60
0
370
-2
100
AcDbLine
 10
350465.515093445
 20
-324833.915258865
 30
0.0
 11
350465.515093445
 21
-325409.091644931
 31
0.0
 39
0.0
210
0.0
220
0.0
230
1.0
  0
LINE
  5
1A6
330
1A3
100
AcDbEntity
  8
A-新隔墙
  6
ByLayer
 62
5
440
16777216
 48
0.01
 60
0
370
-2
100
AcDbLine
 10
352155.515093445
 20
-324833.915258865
 30
0.0
 11
352155.515093445
 21
-325409.091644931
 31
0.0
 39
0.0
210
0.0
220
0.0
230
1.0
  0
LINE
  5
1A7
330
1A3
100
AcDbEntity
  8
A-新隔墙
  6
ByLayer
 62
5
440
16777216
 48
0.01
 60
0
370
-1
100
AcDbLine
 10
350105.515093445
 20
-325049.091644931
 30
0.0
 11
352515.515093445
 21
-325049.091644931
 31
0.0
 39
0.0
210
0.0
220
0.0
230
1.0
  0
INSERT
  5
1A8
330
1A3
100
AcDbEntity
  8
A-新隔墙
  6
ByBlock
 62
5
440
16777216
 48
0.01
 60
0
370
-1
100
AcDbBlockReference
  2
_ArchTick
 10
350465.515093445
 20
-325049.091644931
 30
0.0
 41
96.0
 42
96.0
 43
96.0
 50
180.0
 70
1
 71
1
 44
0.0
 45
0.0
210
0.0
220
0.0
230
1.0
  0
INSERT
  5
1A9
330
1A3
100
AcDbEntity
  8
A-新隔墙
  6
ByBlock
 62
5
440
16777216
 48
0.01
 60
0
370
-1
100
AcDbBlockReference
  2
_ArchTick
 10
352155.515093445
 20
-325049.091644931
 30
0.0
 41
96.0
 42
96.0
 43
96.0
 50
0.0
 70
1
 71
1
 44
0.0
 45
0.0
210
0.0
220
0.0
230
1.0
  0
MTEXT
  5
1AA
330
1A3
100
AcDbEntity
  8
A-新隔墙
  6
ByBlock
 62
35
440
16777216
 48
0.01
 60
0
370
-1
100
AcDbMText
 10
351310.515093445
 20
-324809.091644931
 30
0.0
 40
240.0
 41
0.0
 44
1.0
 46
0.0
 71
5
 72
1
  1
\A1;1690
  7
DIMA
 73
1
 11
1.0
 21
0.0
 31
0.0
210
0.0
220
0.0
230
1.0
  0
POINT
  5
1AB
330
1A3
100
AcDbEntity
  8
Defpoints
  6
ByBlock
 62
0
440
16777216
 48
0.01
 60
0
370
-1
100
AcDbPoint
 10
350465.515093445
 20
-324473.915258865
 30
0.0
 39
0.0
210
0.0
220
0.0
230
1.0
 50
0.0
  0
POINT
  5
1AC
330
1A3
100
AcDbEntity
  8
Defpoints
  6
ByBlock
 62
0
440
16777216
 48
0.01
 60
0
370
-1
100
AcDbPoint
 10
352155.515093445
 20
-324473.915258865
 30
0.0
 39
0.0
210
0.0
220
0.0
230
1.0
 50
0.0
  0
POINT
  5
1AD
330
1A3
100
AcDbEntity
  8
Defpoints
  6
ByBlock
 62
0
440
16777216
 48
0.01
 60
0
370
-1
100
AcDbPoint
 10
352155.515093445
 20
-325049.091644931
 30
0.0
 39
0.0
210
0.0
220
0.0
230
1.0
 50
0.0
  0
ENDBLK
  5
1AE
330
1A3
100
AcDbEntity
  8
0
100
AcDbBlockEnd
  0
BLOCK
  5
1B1
330
1B0
100
AcDbEntity
  8
0
  6
ByLayer
 62
256
 48
0.01
 60
0
370
-1
100
AcDbBlockBegin
  2
*D21
 70
1
 10
0.0
 20
0.0
 30
0.0
  3
*D21
  4

  0
LINE
  5
1B2
330
1B0
100
AcDbEntity
  8
A-新隔墙
  6
ByBlock
 62
5
440
16777216
 48
0.01
 60
0
370
-2
100
AcDbLine
 10
352155.515093445
 20
-324833.915258865
 30
0.0
 11
352155.515093445
 21
-325409.091644931
 31
0.0
 39
0.0
210
0.0
220
0.0
230
1.0
  0
LINE
  5
1B3
330
1B0
100
AcDbEntity
  8
A-新隔墙
  6
ByLayer
 62
5
440
16777216
 48
0.01
 60
0
370
-2
100
AcDbLine
 10
352235.515093445
 20
-324833.915258865
 30
0.0
 11
352235.515093445
 21
-325409.091644931
 31
0.0
 39
0.0
210
0.0
220
0.0
230
1.0
  0
LINE
  5
1B4
330
1B0
100
AcDbEntity
  8
A-新隔墙
  6
ByLayer
 62
5
440
16777216
 48
0.01
 60
0
370
-1
100
AcDbLine
 10
352155.515093445
 20
-325049.091644931
 30
0.0
 11
352059.515093445
 21
-325049.091644931
 31
0.0
 39
0.0
210
0.0
220
0.0
230
1.0
  0
LINE
  5
1B5
330
1B0
100
AcDbEntity
  8
A-新隔墙
  6
ByLayer
 62
5
440
16777216
 48
0.01
 60
0
370
-1
100
AcDbLine
 10
352235.515093445
 20
-325049.091644931
 30
0.0
 11
352331.515093445
 21
-325049.091644931
 31
0.0
 39
0.0
210
0.0
220
0.0
230
1.0
  0
LINE
  5
1B6
330
1B0
100
AcDbEntity
  8
A-新隔墙
  6
ByLayer
 62
5
440
16777216
 48
0.01
 60
0
370
-1
100
AcDbLine
 10
352155.515093445
 20
-325049.091644931
 30
0.0
 11
352235.515093445
 21
-325049.091644931
 31
0.0
 39
0.0
210
0.0
220
0.0
230
1.0
  0
INSERT
  5
1B7
330
1B0
100
AcDbEntity
  8
A-新隔墙
  6
ByBlock
 62
5
440
16777216
 48
0.01
 60
0
370
-1
100
AcDbBlockReference
  2
_ArchTick
 10
352155.515093445
 20
-325049.091644931
 30
0.0
 41
96.0
 42
96.0
 43
96.0
 50
0.0
 70
1
 71
1
 44
0.0
 45
0.0
210
0.0
220
0.0
230
1.0
  0
INSERT
  5
1B8
330
1B0
100
AcDbEntity
  8
A-新隔墙
  6
ByBlock
 62
5
440
16777216
 48
0.01
 60
0
370
-1
100
AcDbBlockReference
  2
_ArchTick
 10
352235.515093445
 20
-325049.091644931
 30
0.0
 41
96.0
 42
96.0
 43
96.0
 50
180.0
 70
1
 71
1
 44
0.0
 45
0.0
210
0.0
220
0.0
230
1.0
  0
MTEXT
  5
1B9
330
1B0
100
AcDbEntity
  8
A-新隔墙
  6
ByBlock
 62
35
440
16777216
 48
0.01
 60
0
370
-1
100
AcDbMText
 10
352195.515093445
 20
-324809.091644931
 30
0.0
 40
240.0
 41
0.0
 44
1.0
 46
0.0
 71
5
 72
1
  1
\A1;80
  7
DIMA
 73
1
 11
1.0
 21
0.0
 31
0.0
210
0.0
220
0.0
230
1.0
  0
POINT
  5
1BA
330
1B0
100
AcDbEntity
  8
Defpoints
  6
ByBlock
 62
0
440
16777216
 48
0.01
 60
0
370
-1
100
AcDbPoint
 10
352155.515093445
 20
-324473.915258865
 30
0.0
 39
0.0
210
0.0
220
0.0
230
1.0
 50
0.0
  0
POINT
  5
1BB
330
1B0
100
AcDbEntity
  8
Defpoints
  6
ByBlock
 62
0
440
16777216
 48
0.01
 60
0
370
-1
100
AcDbPoint
 10
352235.515093445
 20
-324473.915258865
 30
0.0
 39
0.0
210
0.0
220
0.0
230
1.0
 50
0.0
  0
POINT
  5
1BC
330
1B0
100
AcDbEntity
  8
Defpoints
  6
ByBlock
 62
0
440
16777216
 48
0.01
 60
0
370
-1
100
AcDbPoint
 10
352235.515093445
 20
-325049.091644931
 30
0.0
 39
0.0
210
0.0
220
0.0
230
1.0
 50
0.0
  0
ENDBLK
  5
1BD
330
1B0
100
AcDbEntity
  8
0
100
AcDbBlockEnd
  0
BLOCK
  5
1C0
330
1BF
100
AcDbEntity
  8
0
  6
ByLayer
 62
256
 48
0.01
 60
0
370
-1
100
AcDbBlockBegin
  2
*D22
 70
1
 10
0.0
 20
0.0
 30
0.0
  3
*D22
  4

  0
LINE
  5
1C1
330
1BF
100
AcDbEntity
  8
A-新隔墙
  6
ByBlock
 62
5
440
16777216
 48
0.01
 60
0
370
-2
100
AcDbLine
 10
352235.515093445
 20
-324833.915258865
 30
0.0
 11
352235.515093445
 21
-325409.091644931
 31
0.0
 39
0.0
210
0.0
220
0.0
230
1.0
  0
LINE
  5
1C2
330
1BF
100
AcDbEntity
  8
A-新隔墙
  6
ByLayer
 62
5
440
16777216
 48
0.01
 60
0
370
-2
100
AcDbLine
 10
353955.515093445
 20
-324833.915258865
 30
0.0
 11
353955.515093445
 21
-325409.091644931
 31
0.0
 39
0.0
210
0.0
220
0.0
230
1.0
  0
LINE
  5
1C3
330
1BF
100
AcDbEntity
  8
A-新隔墙
  6
ByLayer
 62
5
440
16777216
 48
0.01
 60
0
370
-1
100
AcDbLine
 10
351875.515093445
 20
-325049.091644931
 30
0.0
 11
354315.515093445
 21
-325049.091644931
 31
0.0
 39
0.0
210
0.0
220
0.0
230
1.0
  0
INSERT
  5
1C4
330
1BF
100
AcDbEntity
  8
A-新隔墙
  6
ByBlock
 62
5
440
16777216
 48
0.01
 60
0
370
-1
100
AcDbBlockReference
  2
_ArchTick
 10
352235.515093445
 20
-325049.091644931
 30
0.0
 41
96.0
 42
96.0
 43
96.0
 50
180.0
 70
1
 71
1
 44
0.0
 45
0.0
210
0.0
220
0.0
230
1.0
  0
INSERT
  5
1C5
330
1BF
100
AcDbEntity
  8
A-新隔墙
  6
ByBlock
 62
5
440
16777216
 48
0.01
 60
0
370
-1
100
AcDbBlockReference
  2
_ArchTick
 10
353955.515093445
 20
-325049.091644931
 30
0.0
 41
96.0
 42
96.0
 43
96.0
 50
0.0
 70
1
 71
1
 44
0.0
 45
0.0
210
0.0
220
0.0
230
1.0
  0
MTEXT
  5
1C6
330
1BF
100
AcDbEntity
  8
A-新隔墙
  6
ByBlock
 62
35
440
16777216
 48
0.01
 60
0
370
-1
100
AcDbMText
 10
353095.515093445
 20
-324809.091644931
 30
0.0
 40
240.0
 41
0.0
 44
1.0
 46
0.0
 71
5
 72
1
  1
\A1;1720
  7
DIMA
 73
1
 11
1.0
 21
0.0
 31
0.0
210
0.0
220
0.0
230
1.0
  0
POINT
  5
1C7
330
1BF
100
AcDbEntity
  8
Defpoints
  6
ByBlock
 62
0
440
16777216
 48
0.01
 60
0
370
-1
100
AcDbPoint
 10
352235.515093445
 20
-324473.915258865
 30
0.0
 39
0.0
210
0.0
220
0.0
230
1.0
 50
0.0
  0
POINT
  5
1C8
330
1BF
100
AcDbEntity
  8
Defpoints
  6
ByBlock
 62
0
440
16777216
 48
0.01
 60
0
370
-1
100
AcDbPoint
 10
353955.515093445
 20
-324473.915258865
 30
0.0
 39
0.0
210
0.0
220
0.0
230
1.0
 50
0.0
  0
POINT
  5
1C9
330
1BF
100
AcDbEntity
  8
Defpoints
  6
ByBlock
 62
0
440
16777216
 48
0.01
 60
0
370
-1
100
AcDbPoint
 10
353955.515093445
 20
-325049.091644931
 30
0.0
 39
0.0
210
0.0
220
0.0
230
1.0
 50
0.0
  0
ENDBLK
  5
1CA
330
1BF
100
AcDbEntity
  8
0
100
AcDbBlockEnd
  0
BLOCK
  5
1CD
330
1CC
100
AcDbEntity
  8
0
  6
ByLayer
 62
256
 48
0.01
 60
0
370
-1
100
AcDbBlockBegin
  2
*D23
 70
1
 10
0.0
 20
0.0
 30
0.0
  3
*D23
  4

  0
LINE
  5
1CE
330
1CC
100
AcDbEntity
  8
A-新隔墙
  6
ByBlock
 62
5
440
16777216
 48
0.01
 60
0
370
-2
100
AcDbLine
 10
353955.515093445
 20
-324833.915258865
 30
0.0
 11
353955.515093445
 21
-325409.091644931
 31
0.0
 39
0.0
210
0.0
220
0.0
230
1.0
  0
LINE
  5
1CF
330
1CC
100
AcDbEntity
  8
A-新隔墙
  6
ByLayer
 62
5
440
16777216
 48
0.01
 60
0
370
-2
100
AcDbLine
 10
354035.515093445
 20
-324833.915258865
 30
0.0
 11
354035.515093445
 21
-325409.091644931
 31
0.0
 39
0.0
210
0.0
220
0.0
230
1.0
  0
LINE
  5
1D0
330
1CC
100
AcDbEntity
  8
A-新隔墙
  6
ByLayer
 62
5
440
16777216
 48
0.01
 60
0
370
-1
100
AcDbLine
 10
353955.515093445
 20
-325049.091644931
 30
0.0
 11
353859.515093445
 21
-325049.091644931
 31
0.0
 39
0.0
210
0.0
220
0.0
230
1.0
  0
LINE
  5
1D1
330
1CC
100
AcDbEntity
  8
A-新隔墙
  6
ByLayer
 62
5
440
16777216
 48
0.01
 60
0
370
-1
100
AcDbLine
 10
354035.515093445
 20
-325049.091644931
 30
0.0
 11
354131.515093445
 21
-325049.091644931
 31
0.0
 39
0.0
210
0.0
220
0.0
230
1.0
  0
LINE
  5
1D2
330
1CC
100
AcDbEntity
  8
A-新隔墙
  6
ByLayer
 62
5
440
16777216
 48
0.01
 60
0
370
-1
100
AcDbLine
 10
353955.515093445
 20
-325049.091644931
 30
0.0
 11
354035.515093445
 21
-325049.091644931
 31
0.0
 39
0.0
210
0.0
220
0.0
230
1.0
  0
INSERT
  5
1D3
330
1CC
100
AcDbEntity
  8
A-新隔墙
  6
ByBlock
 62
5
440
16777216
 48
0.01
 60
0
370
-1
100
AcDbBlockReference
  2
_ArchTick
 10
353955.515093445
 20
-325049.091644931
 30
0.0
 41
96.0
 42
96.0
 43
96.0
 50
0.0
 70
1
 71
1
 44
0.0
 45
0.0
210
0.0
220
0.0
230
1.0
  0
INSERT
  5
1D4
330
1CC
100
AcDbEntity
  8
A-新隔墙
  6
ByBlock
 62
5
440
16777216
 48
0.01
 60
0
370
-1
100
AcDbBlockReference
  2
_ArchTick
 10
354035.515093445
 20
-325049.091644931
 30
0.0
 41
96.0
 42
96.0
 43
96.0
 50
180.0
 70
1
 71
1
 44
0.0
 45
0.0
210
0.0
220
0.0
230
1.0
  0
MTEXT
  5
1D5
330
1CC
100
AcDbEntity
  8
A-新隔墙
  6
ByBlock
 62
35
440
16777216
 48
0.01
 60
0
370
-1
100
AcDbMText
 10
353995.515093445
 20
-324809.091644931
 30
0.0
 40
240.0
 41
0.0
 44
1.0
 46
0.0
 71
5
 72
1
  1
\A1;80
  7
DIMA
 73
1
 11
1.0
 21
0.0
 31
0.0
210
0.0
220
0.0
230
1.0
  0
POINT
  5
1D6
330
1CC
100
AcDbEntity
  8
Defpoints
  6
ByBlock
 62
0
440
16777216
 48
0.01
 60
0
370
-1
100
AcDbPoint
 10
353955.515093445
 20
-324473.915258865
 30
0.0
 39
0.0
210
0.0
220
0.0
230
1.0
 50
0.0
  0
POINT
  5
1D7
330
1CC
100
AcDbEntity
  8
Defpoints
  6
ByBlock
 62
0
440
16777216
 48
0.01
 60
0
370
-1
100
AcDbPoint
 10
354035.515093445
 20
-324473.915258865
 30
0.0
 39
0.0
210
0.0
220
0.0
230
1.0
 50
0.0
  0
POINT
  5
1D8
330
1CC
100
AcDbEntity
  8
Defpoints
  6
ByBlock
 62
0
440
16777216
 48
0.01
 60
0
370
-1
100
AcDbPoint
 10
354035.515093445
 20
-325049.091644931
 30
0.0
 39
0.0
210
0.0
220
0.0
230
1.0
 50
0.0
  0
ENDBLK
  5
1D9
330
1CC
100
AcDbEntity
  8
0
100
AcDbBlockEnd
  0
BLOCK
  5
1DC
330
1DB
100
AcDbEntity
  8
0
  6
ByLayer
 62
256
 48
0.01
 60
0
370
-1
100
AcDbBlockBegin
  2
*D24
 70
1
 10
0.0
 20
0.0
 30
0.0
  3
*D24
  4

  0
LINE
  5
1DD
330
1DB
100
AcDbEntity
  8
A-新隔墙
  6
ByBlock
 62
5
440
16777216
 48
0.01
 60
0
370
-2
100
AcDbLine
 10
354035.515093445
 20
-324833.915258865
 30
0.0
 11
354035.515093445
 21
-325409.091644931
 31
0.0
 39
0.0
210
0.0
220
0.0
230
1.0
  0
LINE
  5
1DE
330
1DB
100
AcDbEntity
  8
A-新隔墙
  6
ByLayer
 62
5
440
16777216
 48
0.01
 60
0
370
-2
100
AcDbLine
 10
356575.515093445
 20
-324833.915258865
 30
0.0
 11
356575.515093445
 21
-325409.091644931
 31
0.0
 39
0.0
210
0.0
220
0.0
230
1.0
  0
LINE
  5
1DF
330
1DB
100
AcDbEntity
  8
A-新隔墙
  6
ByLayer
 62
5
440
16777216
 48
0.01
 60
0
370
-1
100
AcDbLine
 10
353675.515093445
 20
-325049.091644931
 30
0.0
 11
356935.515093445
 21
-325049.091644931
 31
0.0
 39
0.0
210
0.0
220
0.0
230
1.0
  0
INSERT
  5
1E0
330
1DB
100
AcDbEntity
  8
A-新隔墙
  6
ByBlock
 62
5
440
16777216
 48
0.01
 60
0
370
-1
100
AcDbBlockReference
  2
_ArchTick
 10
354035.515093445
 20
-325049.091644931
 30
0.0
 41
96.0
 42
96.0
 43
96.0
 50
180.0
 70
1
 71
1
 44
0.0
 45
0.0
210
0.0
220
0.0
230
1.0
  0
INSERT
  5
1E1
330
1DB
100
AcDbEntity
  8
A-新隔墙
  6
ByBlock
 62
5
440
16777216
 48
0.01
 60
0
370
-1
100
AcDbBlockReference
  2
_ArchTick
 10
356575.515093445
 20
-325049.091644931
 30
0.0
 41
96.0
 42
96.0
 43
96.0
 50
0.0
 70
1
 71
1
 44
0.0
 45
0.0
210
0.0
220
0.0
230
1.0
  0
MTEXT
  5
1E2
330
1DB
100
AcDbEntity
  8
A-新隔墙
  6
ByBlock
 62
35
440
16777216
 48
0.01
 60
0
370
-1
100
AcDbMText
 10
355305.515093445
 20
-324809.091644931
 30
0.0
 40
240.0
 41
0.0
 44
1.0
 46
0.0
 71
5
 72
1
  1
\A1;2540
  7
DIMA
 73
1
 11
1.0
 21
0.0
 31
0.0
210
0.0
220
0.0
230
1.0
  0
POINT
  5
1E3
330
1DB
100
AcDbEntity
  8
Defpoints
  6
ByBlock
 62
0
440
16777216
 48
0.01
 60
0
370
-1
100
AcDbPoint
 10
354035.515093445
 20
-324473.915258865
 30
0.0
 39
0.0
210
0.0
220
0.0
230
1.0
 50
0.0
  0
POINT
  5
1E4
330
1DB
100
AcDbEntity
  8
Defpoints
  6
ByBlock
 62
0
440
16777216
 48
0.01
 60
0
370
-1
100
AcDbPoint
 10
356575.515093445
 20
-324473.915258865
 30
0.0
 39
0.0
210
0.0
220
0.0
230
1.0
 50
0.0
  0
POINT
  5
1E5
330
1DB
100
AcDbEntity
  8
Defpoints
  6
ByBlock
 62
0
440
16777216
 48
0.01
 60
0
370
-1
100
AcDbPoint
 10
356575.515093445
 20
-325049.091644931
 30
0.0
 39
0.0
210
0.0
220
0.0
230
1.0
 50
0.0
  0
ENDBLK
  5
1E6
330
1DB
100
AcDbEntity
  8
0
100
AcDbBlockEnd
  0
BLOCK
  5
1E9
330
1E8
100
AcDbEntity
  8
0
  6
ByLayer
 62
256
 48
0.01
 60
0
370
-1
100
AcDbBlockBegin
  2
*D25
 70
1
 10
0.0
 20
0.0
 30
0.0
  3
*D25
  4

  0
LINE
  5
1EA
330
1E8
100
AcDbEntity
  8
A-新隔墙
  6
ByBlock
 62
5
440
16777216
 48
0.01
 60
0
370
-2
100
AcDbLine
 10
356575.515093445
 20
-324833.915258865
 30
0.0
 11
356575.515093445
 21
-325409.091644931
 31
0.0
 39
0.0
210
0.0
220
0.0
230
1.0
  0
LINE
  5
1EB
330
1E8
100
AcDbEntity
  8
A-新隔墙
  6
ByLayer
 62
5
440
16777216
 48
0.01
 60
0
370
-2
100
AcDbLine
 10
357345.515093445
 20
-324833.915258865
 30
0.0
 11
357345.515093445
 21
-325409.091644931
 31
0.0
 39
0.0
210
0.0
220
0.0
230
1.0
  0
LINE
  5
1EC
330
1E8
100
AcDbEntity
  8
A-新隔墙
  6
ByLayer
 62
5
440
16777216
 48
0.01
 60
0
370
-1
100
AcDbLine
 10
356215.515093445
 20
-325049.091644931
 30
0.0
 11
357705.515093445
 21
-325049.091644931
 31
0.0
 39
0.0
210
0.0
220
0.0
230
1.0
  0
INSERT
  5
1ED
330
1E8
100
AcDbEntity
  8
A-新隔墙
  6
ByBlock
 62
5
440
16777216
 48
0.01
 60
0
370
-1
100
AcDbBlockReference
  2
_ArchTick
 10
356575.515093445
 20
-325049.091644931
 30
0.0
 41
96.0
 42
96.0
 43
96.0
 50
180.0
 70
1
 71
1
 44
0.0
 45
0.0
210
0.0
220
0.0
230
1.0
  0
INSERT
  5
1EE
330
1E8
100
AcDbEntity
  8
A-新隔墙
  6
ByBlock
 62
5
440
16777216
 48
0.01
 60
0
370
-1
100
AcDbBlockReference
  2
_ArchTick
 10
357345.515093445
 20
-325049.091644931
 30
0.0
 41
96.0
 42
96.0
 43
96.0
 50
0.0
 70
1
 71
1
 44
0.0
 45
0.0
210
0.0
220
0.0
230
1.0
  0
MTEXT
  5
1EF
330
1E8
100
AcDbEntity
  8
A-新隔墙
  6
ByBlock
 62
35
440
16777216
 48
0.01
 60
0
370
-1
100
AcDbMText
 10
356960.515093445
 20
-324809.091644931
 30
0.0
 40
240.0
 41
0.0
 44
1.0
 46
0.0
 71
5
 72
1
  1
\A1;770
  7
DIMA
 73
1
 11
1.0
 21
0.0
 31
0.0
210
0.0
220
0.0
230
1.0
  0
POINT
  5
1F0
330
1E8
100
AcDbEntity
  8
Defpoints
  6
ByBlock
 62
0
440
16777216
 48
0.01
 60
0
370
-1
100
AcDbPoint
 10
356575.515093445
 20
-324473.915258865
 30
0.0
 39
0.0
210
0.0
220
0.0
230
1.0
 50
0.0
  0
POINT
  5
1F1
330
1E8
100
AcDbEntity
  8
Defpoints
  6
ByBlock
 62
0
440
16777216
 48
0.01
 60
0
370
-1
100
AcDbPoint
 10
357345.515093445
 20
-324473.915258865
 30
0.0
 39
0.0
210
0.0
220
0.0
230
1.0
 50
0.0
  0
POINT
  5
1F2
330
1E8
100
AcDbEntity
  8
Defpoints
  6
ByBlock
 62
0
440
16777216
 48
0.01
 60
0
370
-1
100
AcDbPoint
 10
357345.515093445
 20
-325049.091644931
 30
0.0
 39
0.0
210
0.0
220
0.0
230
1.0
 50
0.0
  0
ENDBLK
  5
1F3
330
1E8
100
AcDbEntity
  8
0
100
AcDbBlockEnd
  0
BLOCK
  5
1F6
330
1F5
100
AcDbEntity
  8
0
  6
ByLayer
 62
256
 48
0.01
 60
0
370
-1
100
AcDbBlockBegin
  2
*D26
 70
1
 10
0.0
 20
0.0
 30
0.0
  3
*D26
  4

  0
LINE
  5
1F7
330
1F5
100
AcDbEntity
  8
A-新隔墙
  6
ByBlock
 62
5
440
16777216
 48
0.01
 60
0
370
-2
100
AcDbLine
 10
357345.515093445
 20
-325343.973634718
 30
0.0
 11
357345.515093445
 21
-326183.973634718
 31
0.0
 39
0.0
210
0.0
220
0.0
230
1.0
  0
LINE
  5
1F8
330
1F5
100
AcDbEntity
  8
A-新隔墙
  6
ByLayer
 62
5
440
16777216
 48
0.01
 60
0
370
-2
100
AcDbLine
 10
349765.515093445
 20
-325343.973634718
 30
0.0
 11
349765.515093445
 21
-326183.973634718
 31
0.0
 39
0.0
210
0.0
220
0.0
230
1.0
  0
LINE
  5
1F9
330
1F5
100
AcDbEntity
  8
A-新隔墙
  6
ByLayer
 62
5
440
16777216
 48
0.01
 60
0
370
-1
100
AcDbLine
 10
357705.515093445
 20
-325823.973634718
 30
0.0
 11
349405.515093445
 21
-325823.973634718
 31
0.0
 39
0.0
210
0.0
220
0.0
230
1.0
  0
INSERT
  5
1FA
330
1F5
100
AcDbEntity
  8
A-新隔墙
  6
ByBlock
 62
5
440
16777216
 48
0.01
 60
0
370
-1
100
AcDbBlockReference
  2
_ArchTick
 10
357345.515093445
 20
-325823.973634718
 30
0.0
 41
96.0
 42
96.0
 43
96.0
 50
0.0
 70
1
 71
1
 44
0.0
 45
0.0
210
0.0
220
0.0
230
1.0
  0
INSERT
  5
1FB
330
1F5
100
AcDbEntity
  8
A-新隔墙
  6
ByBlock
 62
5
440
16777216
 48
0.01
 60
0
370
-1
100
AcDbBlockReference
  2
_ArchTick
 10
349765.515093445
 20
-325823.973634718
 30
0.0
 41
96.0
 42
96.0
 43
96.0
 50
180.0
 70
1
 71
1
 44
0.0
 45
0.0
210
0.0
220
0.0
230
1.0
  0
MTEXT
  5
1FC
330
1F5
100
AcDbEntity
  8
A-新隔墙
  6
ByBlock
 62
35
440
16777216
 48
0.01
 60
0
370
-1
100
AcDbMText
 10
353555.515093445
 20
-325583.973634718
 30
0.0
 40
240.0
 41
0.0
 44
1.0
 46
0.0
 71
5
 72
1
  1
\A1;7580
  7
DIMA
 73
1
 11
1.0
 21
0.0
 31
0.0
210
0.0
220
0.0
230
1.0
  0
POINT
  5
1FD
330
1F5
100
AcDbEntity
  8
Defpoints
  6
ByBlock
 62
0
440
16777216
 48
0.01
 60
0
370
-1
100
AcDbPoint
 10
357345.515093445
 20
-324473.915258865
 30
0.0
 39
0.0
210
0.0
220
0.0
230
1.0
 50
0.0
  0
POINT
  5
1FE
330
1F5
100
AcDbEntity
  8
Defpoints
  6
ByBlock
 62
0
440
16777216
 48
0.01
 60
0
370
-1
100
AcDbPoint
 10
349765.515093445
 20
-324473.915258865
 30
0.0
 39
0.0
210
0.0
220
0.0
230
1.0
 50
0.0
  0
POINT
  5
1FF
330
1F5
100
AcDbEntity
  8
Defpoints
  6
ByBlock
 62
0
440
16777216
 48
0.01
 60
0
370
-1
100
AcDbPoint
 10
349765.515093445
 20
-325823.973634718
 30
0.0
 39
0.0
210
0.0
220
0.0
230
1.0
 50
0.0
  0
ENDBLK
  5
200
330
1F5
100
AcDbEntity
  8
0
100
AcDbBlockEnd
  0
BLOCK
  5
5
330
2
100
AcDbEntity
  8
0
  6
ByLayer
 62
256
 48
1.0
 60
0
370
-1
100
AcDbBlockBegin
  2
*Model_Space
 70
0
 10
0.0
 20
0.0
 30
0.0
  3
*Model_Space
  4

  0
ENDBLK
  5
15
330
2
100
AcDbEntity
  8
0
100
AcDbBlockEnd
  0
BLOCK
  5
1E
330
1B
100
AcDbEntity
  8
0
  6
ByLayer
 62
256
 48
1.0
 60
0
370
-1
100
AcDbBlockBegin
  2
*Paper_Space
 70
0
 10
0.0
 20
0.0
 30
0.0
  3
*Paper_Space
  4

  0
ENDBLK
  5
1F
330
1B
100
AcDbEntity
  8
0
100
AcDbBlockEnd
  0
ENDSEC
  0
SECTION
  2
ENTITIES
  0
LINE
  5
7F
330
2
100
AcDbEntity
  8
A-新隔墙
  6
ByBlock
 62
256
 48
0.01
 60
0
370
-1
100
AcDbLine
 10
338362.96858813
 20
-319483.915258865
 30
0.0
 11
338362.96858813
 21
-324473.915258865
 31
0.0
 39
0.0
210
0.0
220
0.0
230
1.0
  0
HATCH
  5
80
330
2
100
AcDbEntity
  8
A-新隔墙
  6
ByBlock
 62
250
 48
0.01
 60
0
370
-1
100
AcDbHatch
 10
0.0
 20
0.0
 30
0.0
210
0.0
220
0.0
230
1.0
  2
AR-RROOF
 70
0
 71
1
 91
3
 92
7
 72
0
 73
1
 93
4
 10
341752.96858813
 20
-321433.915258865
 10
340542.96858813
 20
-321433.915258865
 10
340542.96858813
 20
-324473.915258865
 10
341752.96858813
 20
-324473.915258865
 97
4
330
8C
330
87
330
84
330
88
 92
7
 72
0
 73
1
 93
4
 10
338762.96858813
 20
-324473.915258865
 10
339962.96858813
 20
-324473.915258865
 10
339962.96858813
 20
-321433.915258865
 10
338762.96858813
 20
-321433.915258865
 97
4
330
85
330
83
330
84
330
86
 92
7
 72
0
 73
1
 93
4
 10
344782.96858813
 20
-324473.915258865
 10
345992.96858813
 20
-324473.915258865
 10
345992.96858813
 20
-321433.915258865
 10
344782.96858813
 20
-321433.915258865
 97
4
330
92
330
8F
330
84
330
90
 75
0
 76
1
 52
45.0
 41
10.0
 77
0
 78
3
 53
45.0
 43
-9680.61625314318
 44
-651.048649672419
 45
215.52614690566
 46
574.736391748426
 79
4
 49
3810.0
 49
-508.0
 49
1270.0
 49
-254.0
 53
45.0
 43
-9531.54400153343
 44
-322.371275641288
 45
-418.479935241822
 46
59.2696903990564
 79
4
 49
762.0
 49
-83.82
 49
1524.0
 49
-190.5
 53
45.0
 43
-9743.47804599066
 44
-408.581734403552
 45
813.611204568865
 46
1054.28206861352
 79
4
 49
2032.0
 49
-355.6
 49
1016.0
 49
-254.0
 98
4
 10
0.0
 20
0.0
 10
341227.763084528
 20
-323413.168284039
 10
339359.873621921
 20
-323144.336167452
 10
344978.919240286
 20
-323336.36157413
1001
GradientColor1ACI
1070
5
1001
GradientColor2ACI
1070
2
1001
ACAD
1010
0.0
1020
0.0
1030
0.0
  0
LINE
  5
83
102
{ACAD_REACTORS
330
80
102
}
330
2
100
AcDbEntity
  8
A-新隔墙
  6
ByBlock
 62
256
 48
0.01
 60
0
370
-1
100
AcDbLine
 10
338762.96858813
 20
-321433.915258865
 30
0.0
 11
338762.96858813
 21
-324473.915258865
 31
0.0
 39
0.0
210
0.0
220
0.0
230
1.0
  0
LINE
  5
84
102
{ACAD_REACTORS
330
80
102
}
330
2
100
AcDbEntity
  8
A-新隔墙
  6
ByBlock
 62
6
 48
0.01
 60
0
370
-1
100
AcDbLine
 10
337217.652721805
 20
-324473.915258865
 30
0.0
 11
347446.792056964
 21
-324473.915258865
 31
0.0
 39
0.0
210
0.0
220
0.0
230
1.0
  0
LINE
  5
85
102
{ACAD_REACTORS
330
80
102
}
330
2
100
AcDbEntity
  8
A-新隔墙
  6
ByBlock
 62
256
 48
0.01
 60
0
370
-1
100
AcDbLine
 10
338762.96858813
 20
-321433.915258865
 30
0.0
 11
339962.96858813
 21
-321433.915258865
 31
0.0
 39
0.0
210
0.0
220
0.0
230
1.0
  0
LINE
  5
86
102
{ACAD_REACTORS
330
80
102
}
330
2
100
AcDbEntity
  8
A-新隔墙
  6
ByBlock
 62
256
 48
0.01
 60
0
370
-1
100
AcDbLine
 10
339962.96858813
 20
-321433.915258865
 30
0.0
 11
339962.96858813
 21
-324473.915258865
 31
0.0
 39
0.0
210
0.0
220
0.0
230
1.0
  0
LINE
  5
87
102
{ACAD_REACTORS
330
80
102
}
330
2
100
AcDbEntity
  8
A-新隔墙
  6
ByBlock
 62
256
 48
0.01
 60
0
370
-1
100
AcDbLine
 10
340542.96858813
 20
-321433.915258865
 30
0.0
 11
340542.96858813
 21
-324473.915258865
 31
0.0
 39
0.0
210
0.0
220
0.0
230
1.0
  0
LINE
  5
88
102
{ACAD_REACTORS
330
80
102
}
330
2
100
AcDbEntity
  8
A-新隔墙
  6
ByBlock
 62
256
 48
0.01
 60
0
370
-1
100
AcDbLine
 10
341752.96858813
 20
-321433.915258865
 30
0.0
 11
341752.96858813
 21
-324473.915258865
 31
0.0
 39
0.0
210
0.0
220
0.0
230
1.0
  0
LINE
  5
89
330
2
100
AcDbEntity
  8
A-新隔墙
  6
ByBlock
 62
256
 48
0.01
 60
0
370
-1
100
AcDbLine
 10
343112.96858813
 20
-321433.915258865
 30
0.0
 11
343112.96858813
 21
-324473.915258865
 31
0.0
 39
0.0
210
0.0
220
0.0
230
1.0
  0
LINE
  5
8A
330
2
100
AcDbEntity
  8
A-新隔墙
  6
ByBlock
 62
256
 48
0.01
 60
0
370
-1
100
AcDbLine
 10
338362.96858813
 20
-320783.915258865
 30
0.0
 11
346272.96858813
 21
-320783.915258865
 31
0.0
 39
0.0
210
0.0
220
0.0
230
1.0
  0
LINE
  5
8B
330
2
100
AcDbEntity
  8
A-新隔墙
  6
ByBlock
 62
256
 48
0.01
 60
0
370
-1
100
AcDbLine
 10
338362.96858813
 20
-319483.915258865
 30
0.0
 11
346272.96858813
 21
-319483.915258865
 31
0.0
 39
0.0
210
0.0
220
0.0
230
1.0
  0
LINE
  5
8C
102
{ACAD_REACTORS
330
80
102
}
330
2
100
AcDbEntity
  8
A-新隔墙
  6
ByBlock
 62
256
 48
0.01
 60
0
370
-1
100
AcDbLine
 10
341752.96858813
 20
-321433.915258865
 30
0.0
 11
340542.96858813
 21
-321433.915258865
 31
0.0
 39
0.0
210
0.0
220
0.0
230
1.0
  0
LINE
  5
8D
330
2
100
AcDbEntity
  8
A-新隔墙
  6
ByBlock
 62
256
 48
0.01
 60
0
370
-1
100
AcDbLine
 10
343112.96858813
 20
-321433.915258865
 30
0.0
 11
344342.96858813
 21
-321433.915258865
 31
0.0
 39
0.0
210
0.0
220
0.0
230
1.0
  0
LINE
  5
8E
330
2
100
AcDbEntity
  8
A-新隔墙
  6
ByBlock
 62
256
 48
0.01
 60
0
370
-1
100
AcDbLine
 10
344342.96858813
 20
-321433.915258865
 30
0.0
 11
344342.96858813
 21
-324473.915258865
 31
0.0
 39
0.0
210
0.0
220
0.0
230
1.0
  0
LINE
  5
8F
102
{ACAD_REACTORS
330
80
102
}
330
2
100
AcDbEntity
  8
A-新隔墙
  6
ByBlock
 62
256
 48
0.01
 60
0
370
-1
100
AcDbLine
 10
344782.96858813
 20
-321433.915258865
 30
0.0
 11
344782.96858813
 21
-324473.915258865
 31
0.0
 39
0.0
210
0.0
220
0.0
230
1.0
  0
LINE
  5
90
102
{ACAD_REACTORS
330
80
102
}
330
2
100
AcDbEntity
  8
A-新隔墙
  6
ByBlock
 62
256
 48
0.01
 60
0
370
-1
100
AcDbLine
 10
345992.96858813
 20
-321433.915258865
 30
0.0
 11
345992.96858813
 21
-324473.915258865
 31
0.0
 39
0.0
210
0.0
220
0.0
230
1.0
  0
LINE
  5
91
330
2
100
AcDbEntity
  8
A-新隔墙
  6
ByBlock
 62
256
 48
0.01
 60
0
370
-1
100
AcDbLine
 10
346272.96858813
 20
-319483.915258865
 30
0.0
 11
346272.96858813
 21
-324473.915258865
 31
0.0
 39
0.0
210
0.0
220
0.0
230
1.0
  0
LINE
  5
92
102
{ACAD_REACTORS
330
80
102
}
330
2
100
AcDbEntity
  8
A-新隔墙
  6
ByBlock
 62
256
 48
0.01
 60
0
370
-1
100
AcDbLine
 10
345992.96858813
 20
-321433.915258865
 30
0.0
 11
344782.96858813
 21
-321433.915258865
 31
0.0
 39
0.0
210
0.0
220
0.0
230
1.0
  0
DIMENSION
  5
93
330
2
100
AcDbEntity
  8
A-新隔墙
  6
ByBlock
 62
256
 48
0.01
 60
0
370
-1
100
AcDbDimension
  2
*D2
 10
338762.96858813
 20
-325049.091644931
 30
0.0
 11
338562.96858813
 21
-324809.091644931
 31
0.0
 53
0.0
 70
32
 71
5
 72
1
 41
1.0
  1

210
0.0
220
0.0
230
1.0
  3
HG-120
100
AcDbAlignedDimension
 13
338362.96858813
 23
-324473.915258865
 33
0.0
 14
338762.96858813
 24
-324473.915258865
 34
0.0
 50
0.0
100
AcDbRotatedDimension
1001
ACAD
1000
DSTYLE
1002
{
1070
50
1040
0.698131700797732
1002
}
  0
DIMENSION
  5
A4
330
2
100
AcDbEntity
  8
A-新隔墙
  6
ByBlock
 62
256
 48
0.01
 60
0
370
-1
100
AcDbDimension
  2
*D3
 10
339962.96858813
 20
-325049.091644931
 30
0.0
 11
339362.96858813
 21
-324809.091644931
 31
0.0
 53
0.0
 70
32
 71
5
 72
1
 41
1.0
  1

210
0.0
220
0.0
230
1.0
  3
HG-120
100
AcDbAlignedDimension
 13
338762.96858813
 23
-324473.915258865
 33
0.0
 14
339962.96858813
 24
-324473.915258865
 34
0.0
 50
0.0
100
AcDbRotatedDimension
1001
ACAD
1000
DSTYLE
1002
{
1070
50
1040
0.698131700797732
1002
}
  0
DIMENSION
  5
B1
330
2
100
AcDbEntity
  8
A-新隔墙
  6
ByBlock
 62
256
 48
0.01
 60
0
370
-1
100
AcDbDimension
  2
*D4
 10
340542.96858813
 20
-325049.091644931
 30
0.0
 11
340252.96858813
 21
-324809.091644931
 31
0.0
 53
0.0
 70
32
 71
5
 72
1
 41
1.0
  1

210
0.0
220
0.0
230
1.0
  3
HG-120
100
AcDbAlignedDimension
 13
339962.96858813
 23
-324473.915258865
 33
0.0
 14
340542.96858813
 24
-324473.915258865
 34
0.0
 50
0.0
100
AcDbRotatedDimension
1001
ACAD
1000
DSTYLE
1002
{
1070
50
1040
0.698131700797732
1002
}
  0
DIMENSION
  5
C0
330
2
100
AcDbEntity
  8
A-新隔墙
  6
ByBlock
 62
256
 48
0.01
 60
0
370
-1
100
AcDbDimension
  2
*D5
 10
341752.96858813
 20
-325049.091644931
 30
0.0
 11
341147.96858813
 21
-324809.091644931
 31
0.0
 53
0.0
 70
32
 71
5
 72
1
 41
1.0
  1

210
0.0
220
0.0
230
1.0
  3
HG-120
100
AcDbAlignedDimension
 13
340542.96858813
 23
-324473.915258865
 33
0.0
 14
341752.96858813
 24
-324473.915258865
 34
0.0
 50
0.0
100
AcDbRotatedDimension
1001
ACAD
1000
DSTYLE
1002
{
1070
50
1040
0.698131700797732
1002
}
  0
DIMENSION
  5
CD
330
2
100
AcDbEntity
  8
A-新隔墙
  6
ByBlock
 62
256
 48
0.01
 60
0
370
-1
100
AcDbDimension
  2
*D6
 10
343112.96858813
 20
-325049.091644931
 30
0.0
 11
342432.96858813
 21
-324809.091644931
 31
0.0
 53
0.0
 70
32
 71
5
 72
1
 41
1.0
  1

210
0.0
220
0.0
230
1.0
  3
HG-120
100
AcDbAlignedDimension
 13
341752.96858813
 23
-324473.915258865
 33
0.0
 14
343112.96858813
 24
-324473.915258865
 34
0.0
 50
0.0
100
AcDbRotatedDimension
1001
ACAD
1000
DSTYLE
1002
{
1070
50
1040
0.698131700797732
1002
}
  0
DIMENSION
  5
DA
330
2
100
AcDbEntity
  8
A-新隔墙
  6
ByBlock
 62
256
 48
0.01
 60
0
370
-1
100
AcDbDimension
  2
*D7
 10
344342.96858813
 20
-325049.091644931
 30
0.0
 11
343727.96858813
 21
-324809.091644931
 31
0.0
 53
0.0
 70
32
 71
5
 72
1
 41
1.0
  1

210
0.0
220
0.0
230
1.0
  3
HG-120
100
AcDbAlignedDimension
 13
343112.96858813
 23
-324473.915258865
 33
0.0
 14
344342.96858813
 24
-324473.915258865
 34
0.0
 50
0.0
100
AcDbRotatedDimension
1001
ACAD
1000
DSTYLE
1002
{
1070
50
1040
0.698131700797732
1002
}
  0
DIMENSION
  5
E7
330
2
100
AcDbEntity
  8
A-新隔墙
  6
ByBlock
 62
256
 48
0.01
 60
0
370
-1
100
AcDbDimension
  2
*D8
 10
344782.96858813
 20
-325049.091644931
 30
0.0
 11
344562.96858813
 21
-324809.091644931
 31
0.0
 53
0.0
 70
32
 71
5
 72
1
 41
1.0
  1

210
0.0
220
0.0
230
1.0
  3
HG-120
100
AcDbAlignedDimension
 13
344342.96858813
 23
-324473.915258865
 33
0.0
 14
344782.96858813
 24
-324473.915258865
 34
0.0
 50
0.0
100
AcDbRotatedDimension
1001
ACAD
1000
DSTYLE
1002
{
1070
50
1040
0.698131700797732
1002
}
  0
DIMENSION
  5
F6
330
2
100
AcDbEntity
  8
A-新隔墙
  6
ByBlock
 62
256
 48
0.01
 60
0
370
-1
100
AcDbDimension
  2
*D9
 10
345992.96858813
 20
-325049.091644931
 30
0.0
 11
345387.96858813
 21
-324809.091644931
 31
0.0
 53
0.0
 70
32
 71
5
 72
1
 41
1.0
  1

210
0.0
220
0.0
230
1.0
  3
HG-120
100
AcDbAlignedDimension
 13
344782.96858813
 23
-324473.915258865
 33
0.0
 14
345992.96858813
 24
-324473.915258865
 34
0.0
 50
0.0
100
AcDbRotatedDimension
1001
ACAD
1000
DSTYLE
1002
{
1070
50
1040
0.698131700797732
1002
}
  0
DIMENSION
  5
103
330
2
100
AcDbEntity
  8
A-新隔墙
  6
ByBlock
 62
256
 48
0.01
 60
0
370
-1
100
AcDbDimension
  2
*D10
 10
346272.96858813
 20
-325049.091644931
 30
0.0
 11
346132.96858813
 21
-324809.091644931
 31
0.0
 53
0.0
 70
32
 71
5
 72
1
 41
1.0
  1

210
0.0
220
0.0
230
1.0
  3
HG-120
100
AcDbAlignedDimension
 13
345992.96858813
 23
-324473.915258865
 33
0.0
 14
346272.96858813
 24
-324473.915258865
 34
0.0
 50
0.0
100
AcDbRotatedDimension
1001
ACAD
1000
DSTYLE
1002
{
1070
50
1040
0.698131700797732
1002
}
  0
LWPOLYLINE
  5
112
330
2
100
AcDbEntity
  8
A-新隔墙
  6
ByBlock
 62
250
 48
0.01
 60
0
370
-1
100
AcDbPolyline
 90
3
 70
0
 38
0.0
 39
0.0
 10
343112.96858813
 20
-321433.915258865
 42
0.0
 10
344342.96858813
 20
-322953.915258865
 42
0.0
 10
343112.96858813
 20
-324473.915258865
 42
0.0
210
0.0
220
0.0
230
1.0
  0
DIMENSION
  5
113
330
2
100
AcDbEntity
  8
A-新隔墙
  6
ByBlock
 62
256
 48
0.01
 60
0
370
-1
100
AcDbDimension
  2
*D11
 10
337926.32924877
 20
-321433.915258865
 30
0.0
 11
337686.32924877
 21
-322953.915258865
 31
0.0
 53
0.0
 70
32
 71
5
 72
1
 41
1.0
  1

210
0.0
220
0.0
230
1.0
  3
HG-120
100
AcDbAlignedDimension
 13
338762.96858813
 23
-324473.915258865
 33
0.0
 14
338762.96858813
 24
-321433.915258865
 34
0.0
 50
90.0
100
AcDbRotatedDimension
1001
ACAD
1000
DSTYLE
1002
{
1070
50
1040
0.698131700797732
1002
}
  0
DIMENSION
  5
120
330
2
100
AcDbEntity
  8
A-新隔墙
  6
ByBlock
 62
256
 48
0.01
 60
0
370
-1
100
AcDbDimension
  2
*D12
 10
337926.32924877
 20
-320783.915258865
 30
0.0
 11
337686.32924877
 21
-321108.915258865
 31
0.0
 53
0.0
 70
32
 71
5
 72
1
 41
1.0
  1

210
0.0
220
0.0
230
1.0
  3
HG-120
100
AcDbAlignedDimension
 13
338762.96858813
 23
-321433.915258865
 33
0.0
 14
338362.96858813
 24
-320783.915258865
 34
0.0
 50
90.0
100
AcDbRotatedDimension
1001
ACAD
1000
DSTYLE
1002
{
1070
50
1040
0.698131700797732
1002
}
  0
DIMENSION
  5
12F
330
2
100
AcDbEntity
  8
A-新隔墙
  6
ByBlock
 62
256
 48
0.01
 60
0
370
-1
100
AcDbDimension
  2
*D13
 10
338362.96858813
 20
-325823.973634718
 30
0.0
 11
342317.96858813
 21
-325583.973634718
 31
0.0
 53
0.0
 70
32
 71
5
 72
1
 41
1.0
  1

210
0.0
220
0.0
230
1.0
  3
HG-120
100
AcDbAlignedDimension
 13
346272.96858813
 23
-324473.915258865
 33
0.0
 14
338362.96858813
 24
-324473.915258865
 34
0.0
 50
0.0
100
AcDbRotatedDimension
1001
ACAD
1000
DSTYLE
1002
{
1070
50
1040
0.698131700797732
1002
}
  0
DIMENSION
  5
13C
330
2
100
AcDbEntity
  8
A-新隔墙
  6
ByBlock
 62
256
 48
0.01
 60
0
370
-1
100
AcDbDimension
  2
*D14
 10
337293.839909493
 20
-319483.915258865
 30
0.0
 11
337053.839909493
 21
-321978.915258865
 31
0.0
 53
0.0
 70
32
 71
5
 72
1
 41
1.0
  1

210
0.0
220
0.0
230
1.0
  3
HG-120
100
AcDbAlignedDimension
 13
338362.96858813
 23
-324473.915258865
 33
0.0
 14
338362.96858813
 24
-319483.915258865
 34
0.0
 50
90.0
100
AcDbRotatedDimension
1001
ACAD
1000
DSTYLE
1002
{
1070
50
1040
0.698131700797732
1002
}
  0
DIMENSION
  5
149
330
2
100
AcDbEntity
  8
A-新隔墙
  6
ByBlock
 62
256
 48
0.01
 60
0
370
-1
100
AcDbDimension
  2
*D15
 10
337926.32924877
 20
-319483.915258865
 30
0.0
 11
337686.32924877
 21
-320133.915258865
 31
0.0
 53
0.0
 70
32
 71
5
 72
1
 41
1.0
  1

210
0.0
220
0.0
230
1.0
  3
HG-120
100
AcDbAlignedDimension
 13
338362.96858813
 23
-320783.915258865
 33
0.0
 14
338362.96858813
 24
-319483.915258865
 34
0.0
 50
90.0
100
AcDbRotatedDimension
1001
ACAD
1000
DSTYLE
1002
{
1070
50
1040
0.698131700797732
1002
}
  0
LINE
  5
156
330
2
100
AcDbEntity
  8
A-新隔墙
  6
ByBlock
 62
6
 48
0.01
 60
0
370
-1
100
AcDbLine
 10
349044.331204097
 20
-324473.915258865
 30
0.0
 11
358379.634065694
 21
-324473.915258865
 31
0.0
 39
0.0
210
0.0
220
0.0
230
1.0
  0
HATCH
  5
157
330
2
100
AcDbEntity
  8
A-新隔墙
  6
ByBlock
 62
250
 48
0.01
 60
0
370
-1
100
AcDbHatch
 10
0.0
 20
0.0
 30
0.0
210
0.0
220
0.0
230
1.0
  2
AR-RROOF
 70
0
 71
0
 91
8
 92
7
 72
0
 73
1
 93
4
 10
352155.515093445
 20
-321573.915258865
 10
350545.515093445
 20
-321573.915258865
 10
350545.515093445
 20
-324393.915258865
 10
352155.515093445
 20
-324393.915258865
 97
0
 92
7
 72
0
 73
1
 93
4
 10
356495.515093445
 20
-321573.915258865
 10
354035.515093445
 20
-321573.915258865
 10
354035.515093445
 20
-324393.915258865
 10
356495.515093445
 20
-324393.915258865
 97
0
 92
7
 72
0
 73
1
 93
4
 10
353875.515093445
 20
-321653.915258865
 10
353175.515093445
 20
-321653.915258865
 10
353175.515093445
 20
-321708.798979795
 10
353875.515093445
 20
-322889.031537934
 97
0
 92
7
 72
0
 73
1
 93
4
 10
353875.515093445
 20
-322889.031537934
 10
353175.515093445
 20
-321708.798979795
 10
353175.515093445
 20
-324339.031537934
 10
353875.515093445
 20
-323158.798979795
 97
0
 92
7
 72
0
 73
1
 93
4
 10
353875.515093445
 20
-323158.798979795
 10
353175.515093445
 20
-324339.031537934
 10
353175.515093445
 20
-324393.915258865
 10
353875.515093445
 20
-324393.915258865
 97
0
 92
7
 72
0
 73
1
 93
4
 10
352315.515093445
 20
-323158.798979794
 10
352315.515093445
 20
-324393.915258865
 10
353015.515093445
 20
-324393.915258865
 10
353015.515093445
 20
-324339.031537934
 97
0
 92
7
 72
0
 73
1
 93
4
 10
353015.515093445
 20
-321708.798979796
 10
352315.515093445
 20
-322889.031537935
 10
352315.515093445
 20
-323158.798979794
 10
353015.515093445
 20
-324339.031537934
 97
0
 92
7
 72
0
 73
1
 93
4
 10
353015.515093445
 20
-321708.798979796
 10
353015.515093445
 20
-321653.915258865
 10
352315.515093445
 20
-321653.915258865
 10
352315.515093445
 20
-322889.031537935
 97
0
 75
0
 76
1
 52
45.0
 41
10.0
 77
0
 78
3
 53
45.0
 43
-3217.91049391404
 44
0.0
 45
215.52614690566
 46
574.736391748426
 79
4
 49
3810.0
 49
-508.0
 49
1270.0
 49
-254.0
 53
45.0
 43
-3068.83824230429
 44
328.677374031131
 45
-418.479935241822
 46
59.2696903990564
 79
4
 49
762.0
 49
-83.82
 49
1524.0
 49
-190.5
 53
45.0
 43
-3280.77228676152
 44
242.466915268867
 45
813.611204568865
 46
1054.28206861352
 79
4
 49
2032.0
 49
-355.6
 49
1016.0
 49
-254.0
 98
9
 10
0.0
 20
0.0
 10
351456.484173629
 20
-322953.804080712
 10
354687.643243495
 20
-322837.95525472
 10
353635.380179747
 20
-322142.365964103
 10
353465.400108864
 20
-323040.161995892
 10
353659.663047017
 20
-324334.283413022
 10
352655.965717809
 20
-323946.046124692
 10
352890.702842451
 20
-322967.369122813
 10
352672.157037028
 20
-322085.74928504
1001
GradientColor1ACI
1070
5
1001
GradientColor2ACI
1070
2
1001
ACAD
1010
0.0
1020
0.0
1030
0.0
  0
LINE
  5
158
330
2
100
AcDbEntity
  8
A-新隔墙
  6
ByBlock
 62
146
 48
0.01
 60
0
370
-1
100
AcDbLine
 10
350545.515093445
 20
-324393.915258865
 30
0.0
 11
352155.515093445
 21
-324393.915258865
 31
0.0
 39
0.0
210
0.0
220
0.0
230
1.0
  0
LINE
  5
159
330
2
100
AcDbEntity
  8
A-新隔墙
  6
ByBlock
 62
146
 48
0.01
 60
0
370
-1
100
AcDbLine
 10
354035.515093445
 20
-324393.915258865
 30
0.0
 11
356495.515093445
 21
-324393.915258865
 31
0.0
 39
0.0
210
0.0
220
0.0
230
1.0
  0
LINE
  5
15A
330
2
100
AcDbEntity
  8
A-新隔墙
  6
ByBlock
 62
256
 48
0.01
 60
0
370
-1
100
AcDbLine
 10
349765.515093445
 20
-321493.915258865
 30
0.0
 11
357345.515093445
 21
-321493.915258865
 31
0.0
 39
0.0
210
0.0
220
0.0
230
1.0
  0
LINE
  5
15B
330
2
100
AcDbEntity
  8
A-新隔墙
  6
ByBlock
 62
146
 48
0.01
 60
0
370
-1
100
AcDbLine
 10
350545.515093445
 20
-321573.915258865
 30
0.0
 11
356495.515093445
 21
-321573.915258865
 31
0.0
 39
0.0
210
0.0
220
0.0
230
1.0
  0
LINE
  5
15C
330
2
100
AcDbEntity
  8
A-新隔墙
  6
ByBlock
 62
256
 48
0.01
 60
0
370
-1
100
AcDbLine
 10
349765.515093445
 20
-320013.915258865
 30
0.0
 11
357345.515093445
 21
-320013.915258865
 31
0.0
 39
0.0
210
0.0
220
0.0
230
1.0
  0
LINE
  5
15D
330
2
100
AcDbEntity
  8
A-新隔墙
  6
ByBlock
 62
256
 48
0.01
 60
0
370
-1
100
AcDbLine
 10
349765.515093445
 20
-324473.915258865
 30
0.0
 11
349765.515093445
 21
-321493.915258865
 31
0.0
 39
0.0
210
0.0
220
0.0
230
1.0
  0
LINE
  5
15E
330
2
100
AcDbEntity
  8
A-新隔墙
  6
ByBlock
 62
2
 48
0.01
 60
0
370
-1
100
AcDbLine
 10
350465.515093445
 20
-324473.915258865
 30
0.0
 11
350465.515093445
 21
-321493.915258865
 31
0.0
 39
0.0
210
0.0
220
0.0
230
1.0
  0
LINE
  5
15F
330
2
100
AcDbEntity
  8
A-新隔墙
  6
ByBlock
 62
146
 48
0.01
 60
0
370
-1
100
AcDbLine
 10
350545.515093445
 20
-324473.915258865
 30
0.0
 11
350545.515093445
 21
-321493.915258865
 31
0.0
 39
0.0
210
0.0
220
0.0
230
1.0
  0
LINE
  5
160
330
2
100
AcDbEntity
  8
A-新隔墙
  6
ByBlock
 62
146
 48
0.01
 60
0
370
-1
100
AcDbLine
 10
352155.515093445
 20
-324473.915258865
 30
0.0
 11
352155.515093445
 21
-321573.915258865
 31
0.0
 39
0.0
210
0.0
220
0.0
230
1.0
  0
LINE
  5
161
330
2
100
AcDbEntity
  8
A-新隔墙
  6
ByBlock
 62
146
 48
0.01
 60
0
370
-1
100
AcDbLine
 10
352235.515093445
 20
-324473.915258865
 30
0.0
 11
352235.515093445
 21
-321573.915258865
 31
0.0
 39
0.0
210
0.0
220
0.0
230
1.0
  0
LINE
  5
162
330
2
100
AcDbEntity
  8
A-新隔墙
  6
ByBlock
 62
146
 48
0.01
 60
0
370
-1
100
AcDbLine
 10
353955.515093445
 20
-324473.915258865
 30
0.0
 11
353955.515093445
 21
-321573.915258865
 31
0.0
 39
0.0
210
0.0
220
0.0
230
1.0
  0
LINE
  5
163
330
2
100
AcDbEntity
  8
A-新隔墙
  6
ByBlock
 62
146
 48
0.01
 60
0
370
-1
100
AcDbLine
 10
354035.515093445
 20
-324473.915258865
 30
0.0
 11
354035.515093445
 21
-321573.915258865
 31
0.0
 39
0.0
210
0.0
220
0.0
230
1.0
  0
LINE
  5
164
330
2
100
AcDbEntity
  8
A-新隔墙
  6
ByBlock
 62
2
 48
0.01
 60
0
370
-1
100
AcDbLine
 10
356575.515093445
 20
-324473.915258865
 30
0.0
 11
356575.515093445
 21
-321493.915258865
 31
0.0
 39
0.0
210
0.0
220
0.0
230
1.0
  0
LINE
  5
165
330
2
100
AcDbEntity
  8
A-新隔墙
  6
ByBlock
 62
146
 48
0.01
 60
0
370
-1
100
AcDbLine
 10
356495.515093445
 20
-324473.915258865
 30
0.0
 11
356495.515093445
 21
-321493.915258865
 31
0.0
 39
0.0
210
0.0
220
0.0
230
1.0
  0
LINE
  5
166
330
2
100
AcDbEntity
  8
A-新隔墙
  6
ByBlock
 62
256
 48
0.01
 60
0
370
-1
100
AcDbLine
 10
357345.515093445
 20
-324473.915258865
 30
0.0
 11
357345.515093445
 21
-321493.915258865
 31
0.0
 39
0.0
210
0.0
220
0.0
230
1.0
  0
LINE
  5
167
330
2
100
AcDbEntity
  8
A-新隔墙
  6
ByBlock
 62
256
 48
0.01
 60
0
370
-1
100
AcDbLine
 10
349765.515093445
 20
-321493.915258865
 30
0.0
 11
349765.515093445
 21
-320013.915258865
 31
0.0
 39
0.0
210
0.0
220
0.0
230
1.0
  0
LINE
  5
168
330
2
100
AcDbEntity
  8
A-新隔墙
  6
ByBlock
 62
256
 48
0.01
 60
0
370
-1
100
AcDbLine
 10
357345.515093445
 20
-321493.915258865
 30
0.0
 11
357345.515093445
 21
-320013.915258865
 31
0.0
 39
0.0
210
0.0
220
0.0
230
1.0
  0
LINE
  5
169
330
2
100
AcDbEntity
  8
A-新隔墙
  6
ByBlock
 62
146
 48
0.01
 60
0
370
-1
100
AcDbLine
 10
353095.515093445
 20
-324473.915258865
 30
0.0
 11
353095.515093445
 21
-321573.915258865
 31
0.0
 39
0.0
210
0.0
220
0.0
230
1.0
  0
LWPOLYLINE
  5
16A
330
2
100
AcDbEntity
  8
A-新隔墙
  6
ByBlock
 62
146
 48
0.01
 60
0
370
-1
100
AcDbPolyline
 90
4
 70
1
 38
0.0
 39
0.0
 10
353175.515093445
 20
-324393.915258865
 42
0.0
 10
353875.515093445
 20
-324393.915258865
 42
0.0
 10
353875.515093445
 20
-321653.915258865
 42
0.0
 10
353175.515093445
 20
-321653.915258865
 42
0.0
210
0.0
220
0.0
230
1.0
  0
LWPOLYLINE
  5
16B
330
2
100
AcDbEntity
  8
A-新隔墙
  6
ByBlock
 62
146
 48
0.01
 60
0
370
-1
100
AcDbPolyline
 90
4
 70
1
 38
0.0
 39
0.0
 10
353015.515093445
 20
-324393.915258865
 42
0.0
 10
352315.515093445
 20
-324393.915258865
 42
0.0
 10
352315.515093445
 20
-321653.915258865
 42
0.0
 10
353015.515093445
 20
-321653.915258865
 42
0.0
210
0.0
220
0.0
230
1.0
  0
LWPOLYLINE
  5
16C
330
2
100
AcDbEntity
  8
A-新隔墙
  6
ByBlock
 62
250
 48
0.01
 60
0
370
-1
100
AcDbPolyline
 90
3
 70
0
 38
0.0
 39
0.0
 10
353095.515093445
 20
-321573.915258865
 42
0.0
 10
353955.515093445
 20
-323023.915258865
 42
0.0
 10
353095.515093445
 20
-324473.915258865
 42
0.0
210
0.0
220
0.0
230
1.0
  0
LWPOLYLINE
  5
16D
330
2
100
AcDbEntity
  8
A-新隔墙
  6
ByBlock
 62
250
 48
0.01
 60
0
370
-1
100
AcDbPolyline
 90
3
 70
0
 38
0.0
 39
0.0
 10
353095.515093445
 20
-321573.915258865
 42
0.0
 10
352235.515093445
 20
-323023.915258865
 42
0.0
 10
353095.515093445
 20
-324473.915258865
 42
0.0
210
0.0
220
0.0
230
1.0
  0
DIMENSION
  5
16E
330
2
100
AcDbEntity
  8
A-新隔墙
  6
ByBlock
 62
256
 48
0.01
 60
0
370
-1
100
AcDbDimension
  2
*D16
 10
349094.582677813
 20
-321493.915258865
 30
0.0
 11
348854.582677813
 21
-322983.915258865
 31
0.0
 53
0.0
 70
32
 71
5
 72
1
 41
1.0
  1

210
0.0
220
0.0
230
1.0
  3
HG-120
100
AcDbAlignedDimension
 13
350465.515093445
 23
-324473.915258865
 33
0.0
 14
350465.515093445
 24
-321493.915258865
 34
0.0
 50
90.0
100
AcDbRotatedDimension
1001
ACAD
1000
DSTYLE
1002
{
1070
50
1040
0.698131700797732
1002
}
  0
DIMENSION
  5
17B
330
2
100
AcDbEntity
  8
A-新隔墙
  6
ByBlock
 62
256
 48
0.01
 60
0
370
-1
100
AcDbDimension
  2
*D17
 10
349094.582677813
 20
-320013.915258865
 30
0.0
 11
348854.582677813
 21
-320753.915258865
 31
0.0
 53
0.0
 70
32
 71
5
 72
1
 41
1.0
  1

210
0.0
220
0.0
230
1.0
  3
HG-120
100
AcDbAlignedDimension
 13
350465.515093445
 23
-321493.915258865
 33
0.0
 14
349765.515093445
 24
-320013.915258865
 34
0.0
 50
90.0
100
AcDbRotatedDimension
1001
ACAD
1000
DSTYLE
1002
{
1070
50
1040
0.698131700797732
1002
}
  0
DIMENSION
  5
188
330
2
100
AcDbEntity
  8
A-新隔墙
  6
ByBlock
 62
256
 48
0.01
 60
0
370
-1
100
AcDbDimension
  2
*D18
 10
348602.108367657
 20
-324473.915258865
 30
0.0
 11
348362.108367657
 21
-322243.915258865
 31
0.0
 53
0.0
 70
32
 71
5
 72
1
 41
1.0
  1

210
0.0
220
0.0
230
1.0
  3
HG-120
100
AcDbAlignedDimension
 13
349765.515093445
 23
-320013.915258865
 33
0.0
 14
349765.515093445
 24
-324473.915258865
 34
0.0
 50
90.0
100
AcDbRotatedDimension
1001
ACAD
1000
DSTYLE
1002
{
1070
50
1040
0.698131700797732
1002
}
  0
DIMENSION
  5
195
330
2
100
AcDbEntity
  8
A-新隔墙
  6
ByBlock
 62
256
 48
0.01
 60
0
370
-1
100
AcDbDimension
  2
*D19
 10
350465.515093445
 20
-325049.091644931
 30
0.0
 11
350115.515093445
 21
-324809.091644931
 31
0.0
 53
0.0
 70
32
 71
5
 72
1
 41
1.0
  1

210
0.0
220
0.0
230
1.0
  3
HG-120
100
AcDbAlignedDimension
 13
349765.515093445
 23
-324473.915258865
 33
0.0
 14
350465.515093445
 24
-324473.915258865
 34
0.0
 50
0.0
100
AcDbRotatedDimension
1001
ACAD
1000
DSTYLE
1002
{
1070
50
1040
0.698131700797732
1002
}
  0
DIMENSION
  5
1A2
330
2
100
AcDbEntity
  8
A-新隔墙
  6
ByBlock
 62
256
 48
0.01
 60
0
370
-1
100
AcDbDimension
  2
*D20
 10
352155.515093445
 20
-325049.091644931
 30
0.0
 11
351310.515093445
 21
-324809.091644931
 31
0.0
 53
0.0
 70
32
 71
5
 72
1
 41
1.0
  1

210
0.0
220
0.0
230
1.0
  3
HG-120
100
AcDbAlignedDimension
 13
350465.515093445
 23
-324473.915258865
 33
0.0
 14
352155.515093445
 24
-324473.915258865
 34
0.0
 50
0.0
100
AcDbRotatedDimension
1001
ACAD
1000
DSTYLE
1002
{
1070
50
1040
0.698131700797732
1002
}
  0
DIMENSION
  5
1AF
330
2
100
AcDbEntity
  8
A-新隔墙
  6
ByBlock
 62
256
 48
0.01
 60
0
370
-1
100
AcDbDimension
  2
*D21
 10
352235.515093445
 20
-325049.091644931
 30
0.0
 11
352195.515093445
 21
-324809.091644931
 31
0.0
 53
0.0
 70
32
 71
5
 72
1
 41
1.0
  1

210
0.0
220
0.0
230
1.0
  3
HG-120
100
AcDbAlignedDimension
 13
352155.515093445
 23
-324473.915258865
 33
0.0
 14
352235.515093445
 24
-324473.915258865
 34
0.0
 50
0.0
100
AcDbRotatedDimension
1001
ACAD
1000
DSTYLE
1002
{
1070
50
1040
0.698131700797732
1002
}
  0
DIMENSION
  5
1BE
330
2
100
AcDbEntity
  8
A-新隔墙
  6
ByBlock
 62
256
 48
0.01
 60
0
370
-1
100
AcDbDimension
  2
*D22
 10
353955.515093445
 20
-325049.091644931
 30
0.0
 11
353095.515093445
 21
-324809.091644931
 31
0.0
 53
0.0
 70
32
 71
5
 72
1
 41
1.0
  1

210
0.0
220
0.0
230
1.0
  3
HG-120
100
AcDbAlignedDimension
 13
352235.515093445
 23
-324473.915258865
 33
0.0
 14
353955.515093445
 24
-324473.915258865
 34
0.0
 50
0.0
100
AcDbRotatedDimension
1001
ACAD
1000
DSTYLE
1002
{
1070
50
1040
0.698131700797732
1002
}
  0
DIMENSION
  5
1CB
330
2
100
AcDbEntity
  8
A-新隔墙
  6
ByBlock
 62
256
 48
0.01
 60
0
370
-1
100
AcDbDimension
  2
*D23
 10
354035.515093445
 20
-325049.091644931
 30
0.0
 11
353995.515093445
 21
-324809.091644931
 31
0.0
 53
0.0
 70
32
 71
5
 72
1
 41
1.0
  1

210
0.0
220
0.0
230
1.0
  3
HG-120
100
AcDbAlignedDimension
 13
353955.515093445
 23
-324473.915258865
 33
0.0
 14
354035.515093445
 24
-324473.915258865
 34
0.0
 50
0.0
100
AcDbRotatedDimension
1001
ACAD
1000
DSTYLE
1002
{
1070
50
1040
0.698131700797732
1002
}
  0
DIMENSION
  5
1DA
330
2
100
AcDbEntity
  8
A-新隔墙
  6
ByBlock
 62
256
 48
0.01
 60
0
370
-1
100
AcDbDimension
  2
*D24
 10
356575.515093445
 20
-325049.091644931
 30
0.0
 11
355305.515093445
 21
-324809.091644931
 31
0.0
 53
0.0
 70
32
 71
5
 72
1
 41
1.0
  1

210
0.0
220
0.0
230
1.0
  3
HG-120
100
AcDbAlignedDimension
 13
354035.515093445
 23
-324473.915258865
 33
0.0
 14
356575.515093445
 24
-324473.915258865
 34
0.0
 50
0.0
100
AcDbRotatedDimension
1001
ACAD
1000
DSTYLE
1002
{
1070
50
1040
0.698131700797732
1002
}
  0
DIMENSION
  5
1E7
330
2
100
AcDbEntity
  8
A-新隔墙
  6
ByBlock
 62
256
 48
0.01
 60
0
370
-1
100
AcDbDimension
  2
*D25
 10
357345.515093445
 20
-325049.091644931
 30
0.0
 11
356960.515093445
 21
-324809.091644931
 31
0.0
 53
0.0
 70
32
 71
5
 72
1
 41
1.0
  1

210
0.0
220
0.0
230
1.0
  3
HG-120
100
AcDbAlignedDimension
 13
356575.515093445
 23
-324473.915258865
 33
0.0
 14
357345.515093445
 24
-324473.915258865
 34
0.0
 50
0.0
100
AcDbRotatedDimension
1001
ACAD
1000
DSTYLE
1002
{
1070
50
1040
0.698131700797732
1002
}
  0
DIMENSION
  5
1F4
330
2
100
AcDbEntity
  8
A-新隔墙
  6
ByBlock
 62
256
 48
0.01
 60
0
370
-1
100
AcDbDimension
  2
*D26
 10
349765.515093445
 20
-325823.973634718
 30
0.0
 11
353555.515093445
 21
-325583.973634718
 31
0.0
 53
0.0
 70
32
 71
5
 72
1
 41
1.0
  1

210
0.0
220
0.0
230
1.0
  3
HG-120
100
AcDbAlignedDimension
 13
357345.515093445
 23
-324473.915258865
 33
0.0
 14
349765.515093445
 24
-324473.915258865
 34
0.0
 50
0.0
100
AcDbRotatedDimension
1001
ACAD
1000
DSTYLE
1002
{
1070
50
1040
0.698131700797732
1002
}
  0
ENDSEC
  0
SECTION
  2
OBJECTS
  0
DICTIONARY
  5
A
330
0
100
AcDbDictionary
280
0
281
1
  3
ACAD_2007HEADERVARS_RT
350
207
  3
ACAD_COLOR
350
59
  3
ACAD_GROUP
350
50
  3
ACAD_LAYOUT
350
17
  3
ACAD_MATERIAL
350
C
  3
ACAD_MLEADERSTYLE
350
5C
  3
ACAD_MLINESTYLE
350
51
  3
ACAD_PLOTSETTINGS
350
52
  3
ACAD_PLOTSTYLENAME
350
9
  3
ACAD_SCALELIST
350
5A
  3
ACAD_TABLESTYLE
350
5B
  3
ACAD_VISUALSTYLE
350
35
  3
AcDbVariableDictionary
350
21B
  3
ACAD_IMAGE_DICT
350
229
  3
ACAD_PDFDEFINITIONS
350
22A
  0
DICTIONARY
  5
37
330
30
100
AcDbDictionary
280
1
281
1
  0
DICTIONARY
  5
32
330
31
100
AcDbDictionary
280
1
281
1
  0
DICTIONARY
  5
24
330
23
100
AcDbDictionary
280
1
281
1
  3
ACAD_LAYERFILTERS
350
25
  3
ACAD_LAYERSTATES
350
26
  3
ACLYDICTIONARY
350
27
  0
DICTIONARY
  5
7
330
6
100
AcDbDictionary
280
1
281
1
  0
DICTIONARY
  5
5E
330
5D
100
AcDbDictionary
280
1
281
1
  0
DICTIONARY
  5
A0
330
9F
100
AcDbDictionary
280
1
281
1
  0
DICTIONARY
  5
47
330
46
100
AcDbDictionary
280
1
281
1
  3
ACAD_SORTENTS
350
201
  0
DICTIONARY
  5
3
330
2
100
AcDbDictionary
280
1
281
1
  3
ACAD_SORTENTS
350
202
  0
DICTIONARY
  5
1C
330
1B
100
AcDbDictionary
280
1
281
1
  3
ACAD_SORTENTS
350
1D
  0
DICTIONARY
  5
207
102
{ACAD_REACTORS
330
A
102
}
330
A
100
AcDbDictionary
280
0
281
1
  0
DICTIONARY
  5
59
102
{ACAD_REACTORS
330
A
102
}
330
A
100
AcDbDictionary
280
0
281
1
  0
DICTIONARY
  5
50
102
{ACAD_REACTORS
330
A
102
}
330
A
100
AcDbDictionary
280
0
281
1
  0
DICTIONARY
  5
17
102
{ACAD_REACTORS
330
A
102
}
330
A
100
AcDbDictionary
280
0
281
1
  3
Model
350
16
  3
布局1
350
20
  0
DICTIONARY
  5
C
102
{ACAD_REACTORS
330
A
102
}
330
A
100
AcDbDictionary
280
0
281
1
  0
DICTIONARY
  5
5C
102
{ACAD_REACTORS
330
A
102
}
330
A
100
AcDbDictionary
280
0
281
1
  0
DICTIONARY
  5
51
102
{ACAD_REACTORS
330
A
102
}
330
A
100
AcDbDictionary
280
0
281
1
  3
STANDARD
350
61
  0
DICTIONARY
  5
52
102
{ACAD_REACTORS
330
A
102
}
330
A
100
AcDbDictionary
280
0
281
1
  0
ACDBDICTIONARYWDFLT
  5
9
102
{ACAD_REACTORS
330
A
102
}
330
A
100
AcDbDictionary
280
0
281
1
100
AcDbDictionaryWithDefault
  0
DICTIONARY
  5
5A
102
{ACAD_REACTORS
330
A
102
}
330
A
100
AcDbDictionary
280
0
281
1
  3
1:90
350
66
  3
1:45
350
67
  3
1:120
350
68
  3
1:180
350
69
  3
1：160
350
6A
  3
1:1
350
6B
  3
1:2
350
6C
  3
1:3
350
6D
  3
1:4
350
6E
  3
1:5
350
6F
  3
1:6
350
70
  3
1:10
350
71
  3
1:15
350
72
  3
1:20
350
73
  3
1:25
350
74
  3
1:30
350
75
  3
1:40
350
76
  3
1:50
350
77
  3
1:60
350
78
  3
1:75
350
79
  3
1:80
350
7A
  3
1:100
350
7B
  3
1:150
350
7C
  3
1:200
350
7D
  3
1:250
350
7E
  0
DICTIONARY
  5
5B
102
{ACAD_REACTORS
330
A
102
}
330
A
100
AcDbDictionary
280
0
281
1
  0
DICTIONARY
  5
35
102
{ACAD_REACTORS
330
A
102
}
330
A
100
AcDbDictionary
280
0
281
1
  0
DICTIONARY
  5
21B
102
{ACAD_REACTORS
330
A
102
}
330
A
100
AcDbDictionary
280
0
281
1
  3
CANNOSCALE
350
221
  3
CMLEADERSTYLE
350
21D
  3
CTABLESTYLE
350
21C
  3
CVIEWDETAILSTYLE
350
21E
  3
CVIEWSECTIONSTYLE
350
21F
  3
LAYEREVAL
350
223
  3
LAYERNOTIFY
350
224
  3
LIGHTINGUNITS
350
222
  3
MSLTSCALE
350
220
  3
PSOLHEIGHT
350
227
  3
PSOLWIDTH
350
226
  3
SOLIDHIST
350
225
  3
XCLIPFRAME
350
228
  0
DICTIONARY
  5
229
330
A
100
AcDbDictionary
280
0
281
0
  0
DICTIONARY
  5
22A
330
A
100
AcDbDictionary
280
0
281
0
  0
DICTIONARY
  5
25
102
{ACAD_REACTORS
330
24
102
}
330
24
100
AcDbDictionary
280
0
281
1
  0
DICTIONARY
  5
26
102
{ACAD_REACTORS
330
24
102
}
330
24
100
AcDbDictionary
280
0
281
1
  0
DICTIONARY
  5
27
102
{ACAD_REACTORS
330
24
102
}
330
24
100
AcDbDictionary
280
0
281
1
  0
SORTENTSTABLE
  5
201
102
{ACAD_REACTORS
330
47
102
}
330
47
100
AcDbSortentsTable
330
46
  0
SORTENTSTABLE
  5
202
102
{ACAD_REACTORS
330
3
102
}
330
3
100
AcDbSortentsTable
330
2
  0
SORTENTSTABLE
  5
1D
102
{ACAD_REACTORS
330
1C
102
}
330
1C
100
AcDbSortentsTable
330
1B
  0
LAYOUT
  5
16
102
{ACAD_REACTORS
330
17
102
}
330
17
100
AcDbPlotSettings
  1
none_device
  2
HP LaserJet MFP M437-M443 PCL6
  4
A3
  7
白金装饰打印线型A3.ctb
 40
5.02708292007446
 41
5.02706909179688
 42
5.027099609375
 43
5.02706909179688
 44
296.925994873047
 45
419.946655273438
 46
22.5915791527093
 47
0.0
 48
49249.173914
 49
-184751.733508
140
107223.258679
141
-150567.946462
142
1.0
143
141.437285014629
 70
688
 72
1
 73
1
 74
4
 75
0
 76
0
 77
2
 78
300
147
0.0070702714626951
148
0.0
149
0.0
100
AcDbLayout
  1
Model
 71
0
 10
0.0
 20
0.0
 11
12.0
 21
9.0
 12
0.0
 22
0.0
 32
0.0
 13
0.0
 23
0.0
 33
0.0
 14
0.0
 24
0.0
 34
0.0
 15
0.0
 25
0.0
 35
0.0
 16
1.0
 26
0.0
 36
0.0
 17
0.0
 27
1.0
 37
0.0
146
0.0
 76
0
330
2
1001
ACAD_PSEXT
1000
HP LaserJet MFP M437-M443 PCL6
1000
HP LaserJet MFP M437-M443 PCL6
1000
NPI440AD8
1000

1070
0
  0
LAYOUT
  5
20
102
{ACAD_REACTORS
330
17
102
}
330
17
100
AcDbPlotSettings
  1
none_device
  2
DWG To PDF.pc3
  4
ISO_expand_A3_(297.00_x_420.00_MM)
  7
白金装饰打印线型A3.ctb
 40
5.79374980926514
 41
10.7937498092651
 42
5.79376220703125
 43
10.7937622070312
 44
297.0
 45
420.0
 46
1.83754245833586
 47
0.0
 48
1175.21823625238
 49
-141.408009773739
140
1595.22852428426
141
155.602278258143
142
1.0
143
1.05420964628263
 70
688
 72
1
 73
1
 74
4
 75
0
 76
0
 77
2
 78
300
147
0.9485779261518
148
0.0
149
0.0
100
AcDbLayout
  1
布局1
 71
1
 10
1164.61702478348
 20
-148.912762358229
 11
1605.82976781292
 21
163.107050379047
 12
0.0
 22
0.0
 32
0.0
 13
0.0
 23
0.0
 33
0.0
 14
11.9420013849855
 24
-764.74155562689
 34
-0.0000000238614026
 15
12275.2806527221
 25
917.438787110506
 35
0.0000013208135234
 16
1.0
 26
0.0
 36
0.0
 17
0.0
 27
1.0
 37
0.0
146
0.0
 76
0
330
1B
1001
ACAD_PSEXT
1000
DWG To PDF.pc3
1000
DWG To PDF
1000
�ļ�
1000

1070
0
  0
MLINESTYLE
  5
61
102
{ACAD_REACTORS
330
51
102
}
330
51
100
AcDbMlineStyle
  2
STANDARD
 70
0
  3

 62
0
 51
90.0
 52
90.0
 71
2
 49
0.5
 62
256
  6
ByLayer
 49
-0.5
 62
256
  6
ByLayer
  0
SCALE
  5
66
102
{ACAD_REACTORS
330
5A
102
}
330
5A
100
AcDbScale
 70
0
300
1:90
140
1.0
141
90.0
290
0
  0
SCALE
  5
67
102
{ACAD_REACTORS
330
5A
102
}
330
5A
100
AcDbScale
 70
0
300
1:45
140
1.0
141
45.0
290
0
  0
SCALE
  5
68
102
{ACAD_REACTORS
330
5A
102
}
330
5A
100
AcDbScale
 70
0
300
1:120
140
1.0
141
120.0
290
0
  0
SCALE
  5
69
102
{ACAD_REACTORS
330
5A
102
}
330
5A
100
AcDbScale
 70
0
300
1:180
140
1.0
141
180.0
290
0
  0
SCALE
  5
6A
102
{ACAD_REACTORS
330
5A
102
}
330
5A
100
AcDbScale
 70
0
300
1：160
140
1.0
141
160.0
290
0
  0
SCALE
  5
6B
102
{ACAD_REACTORS
330
5A
102
}
330
5A
100
AcDbScale
 70
0
300
1:1
140
1.0
141
1.0
290
1
1001
ACAD
1000
AcRTDxfName
1000
SCALE
1000
AcRTDxfName
1000
SCALE
1000
AcRTDxfName
1000
SCALE
1000
AcRTDxfName
1000
SCALE
1000
AcRTDxfName
1000
SCALE
1000
AcRTDxfName
1000
SCALE
1000
AcRTDxfName
1000
SCALE
  0
SCALE
  5
6C
102
{ACAD_REACTORS
330
5A
102
}
330
5A
100
AcDbScale
 70
0
300
1:2
140
1.0
141
2.0
290
0
  0
SCALE
  5
6D
102
{ACAD_REACTORS
330
5A
102
}
330
5A
100
AcDbScale
 70
0
300
1:3
140
1.0
141
3.0
290
0
  0
SCALE
  5
6E
102
{ACAD_REACTORS
330
5A
102
}
330
5A
100
AcDbScale
 70
0
300
1:4
140
1.0
141
4.0
290
0
  0
SCALE
  5
6F
102
{ACAD_REACTORS
330
5A
102
}
330
5A
100
AcDbScale
 70
0
300
1:5
140
1.0
141
5.0
290
0
  0
SCALE
  5
70
102
{ACAD_REACTORS
330
5A
102
}
330
5A
100
AcDbScale
 70
0
300
1:6
140
1.0
141
6.0
290
0
  0
SCALE
  5
71
102
{ACAD_REACTORS
330
5A
102
}
330
5A
100
AcDbScale
 70
0
300
1:10
140
1.0
141
10.0
290
0
  0
SCALE
  5
72
102
{ACAD_REACTORS
330
5A
102
}
330
5A
100
AcDbScale
 70
0
300
1:15
140
1.0
141
15.0
290
0
  0
SCALE
  5
73
102
{ACAD_REACTORS
330
5A
102
}
330
5A
100
AcDbScale
 70
0
300
1:20
140
1.0
141
20.0
290
0
  0
SCALE
  5
74
102
{ACAD_REACTORS
330
5A
102
}
330
5A
100
AcDbScale
 70
0
300
1:25
140
1.0
141
25.0
290
0
  0
SCALE
  5
75
102
{ACAD_REACTORS
330
5A
102
}
330
5A
100
AcDbScale
 70
0
300
1:30
140
1.0
141
30.0
290
0
  0
SCALE
  5
76
102
{ACAD_REACTORS
330
5A
102
}
330
5A
100
AcDbScale
 70
0
300
1:40
140
1.0
141
40.0
290
0
  0
SCALE
  5
77
102
{ACAD_REACTORS
330
5A
102
}
330
5A
100
AcDbScale
 70
0
300
1:50
140
1.0
141
50.0
290
0
  0
SCALE
  5
78
102
{ACAD_REACTORS
330
5A
102
}
330
5A
100
AcDbScale
 70
0
300
1:60
140
1.0
141
60.0
290
0
  0
SCALE
  5
79
102
{ACAD_REACTORS
330
5A
102
}
330
5A
100
AcDbScale
 70
0
300
1:75
140
1.0
141
75.0
290
0
  0
SCALE
  5
7A
102
{ACAD_REACTORS
330
5A
102
}
330
5A
100
AcDbScale
 70
0
300
1:80
140
1.0
141
80.0
290
0
  0
SCALE
  5
7B
102
{ACAD_REACTORS
330
5A
102
}
330
5A
100
AcDbScale
 70
0
300
1:100
140
1.0
141
100.0
290
0
  0
SCALE
  5
7C
102
{ACAD_REACTORS
330
5A
102
}
330
5A
100
AcDbScale
 70
0
300
1:150
140
1.0
141
150.0
290
0
  0
SCALE
  5
7D
102
{ACAD_REACTORS
330
5A
102
}
330
5A
100
AcDbScale
 70
0
300
1:200
140
1.0
141
200.0
290
0
  0
SCALE
  5
7E
102
{ACAD_REACTORS
330
5A
102
}
330
5A
100
AcDbScale
 70
0
300
1:250
140
1.0
141
250.0
290
0
  0
DICTIONARYVAR
  5
221
102
{ACAD_REACTORS
330
21B
102
}
330
21B
100
DictionaryVariables
  1
1:1
280
0
  0
DICTIONARYVAR
  5
21D
102
{ACAD_REACTORS
330
21B
102
}
330
21B
100
DictionaryVariables
  1
STANDARD
280
0
  0
DICTIONARYVAR
  5
21C
102
{ACAD_REACTORS
330
21B
102
}
330
21B
100
DictionaryVariables
  1
STANDARD
280
0
  0
DICTIONARYVAR
  5
21E
102
{ACAD_REACTORS
330
21B
102
}
330
21B
100
DictionaryVariables
  1

280
0
  0
DICTIONARYVAR
  5
21F
102
{ACAD_REACTORS
330
21B
102
}
330
21B
100
DictionaryVariables
  1

280
0
  0
DICTIONARYVAR
  5
223
102
{ACAD_REACTORS
330
21B
102
}
330
21B
100
DictionaryVariables
  1
0
280
0
  0
DICTIONARYVAR
  5
224
102
{ACAD_REACTORS
330
21B
102
}
330
21B
100
DictionaryVariables
  1
0
280
0
  0
DICTIONARYVAR
  5
222
102
{ACAD_REACTORS
330
21B
102
}
330
21B
100
DictionaryVariables
  1
2
280
0
  0
DICTIONARYVAR
  5
220
102
{ACAD_REACTORS
330
21B
102
}
330
21B
100
DictionaryVariables
  1
1
280
0
  0
DICTIONARYVAR
  5
227
102
{ACAD_REACTORS
330
21B
102
}
330
21B
100
DictionaryVariables
  1
80.000000
280
0
  0
DICTIONARYVAR
  5
226
102
{ACAD_REACTORS
330
21B
102
}
330
21B
100
DictionaryVariables
  1
5.000000
280
0
  0
DICTIONARYVAR
  5
225
102
{ACAD_REACTORS
330
21B
102
}
330
21B
100
DictionaryVariables
  1
1
280
0
  0
DICTIONARYVAR
  5
228
102
{ACAD_REACTORS
330
21B
102
}
330
21B
100
DictionaryVariables
  1
2
280
0
  0
ENDSEC
  0
COMMENT
  2
RECON
  1
CAD_Master_20260711
  0
EOF
