<?xml version="1.0" encoding="utf-8" ?>
<svg baseProfile="full" height="700px" version="1.1" width="900px" xmlns="http://www.w3.org/2000/svg" xmlns:ev="http://www.w3.org/2001/xml-events" xmlns:xlink="http://www.w3.org/1999/xlink"><defs /><rect fill="#f8f8f8" height="700" width="900" x="0" y="0" /><line stroke="#e8e8e8" stroke-width="0.5" x1="42.21427706499106" x2="42.21427706499106" y1="680.0" y2="453.20780784719716" /><line stroke="#e8e8e8" stroke-width="0.5" x1="77.98558683976738" x2="77.98558683976738" y1="680.0" y2="453.20780784719716" /><line stroke="#e8e8e8" stroke-width="0.5" x1="113.7568966145437" x2="113.7568966145437" y1="680.0" y2="453.20780784719716" /><line stroke="#e8e8e8" stroke-width="0.5" x1="149.52820638932002" x2="149.52820638932002" y1="680.0" y2="453.20780784719716" /><line stroke="#e8e8e8" stroke-width="0.5" x1="185.29951616409633" x2="185.29951616409633" y1="680.0" y2="453.20780784719716" /><line stroke="#e8e8e8" stroke-width="0.5" x1="221.07082593887267" x2="221.07082593887267" y1="680.0" y2="453.20780784719716" /><line stroke="#e8e8e8" stroke-width="0.5" x1="256.842135713649" x2="256.842135713649" y1="680.0" y2="453.20780784719716" /><line stroke="#e8e8e8" stroke-width="0.5" x1="292.6134454884253" x2="292.6134454884253" y1="680.0" y2="453.20780784719716" /><line stroke="#e8e8e8" stroke-width="0.5" x1="328.3847552632016" x2="328.3847552632016" y1="680.0" y2="453.20780784719716" /><line stroke="#e8e8e8" stroke-width="0.5" x1="364.15606503797795" x2="364.15606503797795" y1="680.0" y2="453.20780784719716" /><line stroke="#e8e8e8" stroke-width="0.5" x1="399.92737481275424" x2="399.92737481275424" y1="680.0" y2="453.20780784719716" /><line stroke="#e8e8e8" stroke-width="0.5" x1="435.6986845875306" x2="435.6986845875306" y1="680.0" y2="453.20780784719716" /><line stroke="#e8e8e8" stroke-width="0.5" x1="471.4699943623069" x2="471.4699943623069" y1="680.0" y2="453.20780784719716" /><line stroke="#e8e8e8" stroke-width="0.5" x1="507.2413041370832" x2="507.2413041370832" y1="680.0" y2="453.20780784719716" /><line stroke="#e8e8e8" stroke-width="0.5" x1="543.0126139118595" x2="543.0126139118595" y1="680.0" y2="453.20780784719716" /><line stroke="#e8e8e8" stroke-width="0.5" x1="578.7839236866358" x2="578.7839236866358" y1="680.0" y2="453.20780784719716" /><line stroke="#e8e8e8" stroke-width="0.5" x1="614.5552334614122" x2="614.5552334614122" y1="680.0" y2="453.20780784719716" /><line stroke="#e8e8e8" stroke-width="0.5" x1="650.3265432361885" x2="650.3265432361885" y1="680.0" y2="453.20780784719716" /><line stroke="#e8e8e8" stroke-width="0.5" x1="686.0978530109649" x2="686.0978530109649" y1="680.0" y2="453.20780784719716" /><line stroke="#e8e8e8" stroke-width="0.5" x1="721.8691627857412" x2="721.8691627857412" y1="680.0" y2="453.20780784719716" /><line stroke="#e8e8e8" stroke-width="0.5" x1="757.6404725605174" x2="757.6404725605174" y1="680.0" y2="453.20780784719716" /><line stroke="#e8e8e8" stroke-width="0.5" x1="50.0" x2="770.0000000000001" y1="650.5253838662545" y2="650.5253838662545" /><line stroke="#e8e8e8" stroke-width="0.5" x1="50.0" x2="770.0000000000001" y1="614.7540740914782" y2="614.7540740914782" /><line stroke="#e8e8e8" stroke-width="0.5" x1="50.0" x2="770.0000000000001" y1="578.9827643167018" y2="578.9827643167018" /><line stroke="#e8e8e8" stroke-width="0.5" x1="50.0" x2="770.0000000000001" y1="543.2114545419256" y2="543.2114545419256" /><line stroke="#e8e8e8" stroke-width="0.5" x1="50.0" x2="770.0000000000001" y1="507.44014476714926" y2="507.44014476714926" /><line stroke="#e8e8e8" stroke-width="0.5" x1="50.0" x2="770.0000000000001" y1="471.6688349923729" y2="471.6688349923729" /><line stroke="#e8e8e8" stroke-width="0.5" x1="50.0" x2="770.0000000000001" y1="435.8975252175966" y2="435.8975252175966" /><line stroke="#222" stroke-width="1" x1="90.9694486442797" x2="90.9694486442797" y1="453.20780784719716" y2="631.706643623331" /><line stroke="#222" stroke-width="1" x1="105.27797255419023" x2="105.27797255419023" y1="522.961861908011" y2="631.706643623331" /><line stroke="#222" stroke-width="1" x1="50.0" x2="415.90971188732345" y1="631.706643623331" y2="631.706643623331" /><line stroke="#222" stroke-width="1" x1="105.27797255419023" x2="148.20354428392181" y1="522.961861908011" y2="522.961861908011" /><line stroke="#222" stroke-width="1" x1="148.20354428392181" x2="148.20354428392181" y1="522.961861908011" y2="631.706643623331" /><line stroke="#222" stroke-width="1" x1="168.95090395329208" x2="168.95090395329208" y1="522.961861908011" y2="631.706643623331" /><line stroke="#222" stroke-width="1" x1="212.23418878077143" x2="212.23418878077143" y1="522.961861908011" y2="631.706643623331" /><line stroke="#222" stroke-width="1" x1="260.8831700744672" x2="260.8831700744672" y1="522.961861908011" y2="631.706643623331" /><line stroke="#222" stroke-width="1" x1="90.9694486442797" x2="373.9205089627604" y1="499.71051055440637" y2="499.71051055440637" /><line stroke="#222" stroke-width="1" x1="90.9694486442797" x2="373.9205089627604" y1="453.20780784719716" y2="453.20780784719716" /><line stroke="#222" stroke-width="1" x1="212.23418878077143" x2="168.95090395329208" y1="522.961861908011" y2="522.961861908011" /><line stroke="#222" stroke-width="1" x1="260.8831700744672" x2="304.8818810974421" y1="522.961861908011" y2="522.961861908011" /><line stroke="#222" stroke-width="1" x1="304.8818810974421" x2="304.8818810974421" y1="522.961861908011" y2="631.706643623331" /><line stroke="#222" stroke-width="1" x1="320.6212573983437" x2="320.6212573983437" y1="522.961861908011" y2="631.706643623331" /><line stroke="#222" stroke-width="1" x1="363.90454222582304" x2="363.90454222582304" y1="522.961861908011" y2="631.706643623331" /><line stroke="#222" stroke-width="1" x1="373.9205089627604" x2="373.9205089627604" y1="453.20780784719716" y2="631.706643623331" /><line stroke="#222" stroke-width="1" x1="363.90454222582304" x2="320.6212573983437" y1="522.961861908011" y2="522.961861908011" /><line stroke="#222" stroke-width="1" x1="473.0557795967502" x2="806.9917901002917" y1="631.706643623331" y2="631.706643623331" /><line stroke="#222" stroke-width="1" x1="526.7550935315212" x2="584.346902268911" y1="628.844938841349" y2="628.844938841349" /><line stroke="#222" stroke-width="1" x1="651.5969646454905" x2="739.5943866914403" y1="628.844938841349" y2="628.844938841349" /><line stroke="#222" stroke-width="1" x1="498.8534719071956" x2="770.0000000000001" y1="525.1081404944975" y2="525.1081404944975" /><line stroke="#222" stroke-width="1" x1="526.7550935315212" x2="739.5943866914403" y1="527.9698452764796" y2="527.9698452764796" /><line stroke="#222" stroke-width="1" x1="498.8534719071956" x2="770.0000000000001" y1="472.1666020278286" y2="472.1666020278286" /><line stroke="#222" stroke-width="1" x1="498.8534719071956" x2="498.8534719071956" y1="631.706643623331" y2="525.1081404944975" /><line stroke="#222" stroke-width="1" x1="523.8933887495391" x2="523.8933887495391" y1="631.706643623331" y2="525.1081404944975" /><line stroke="#222" stroke-width="1" x1="526.7550935315212" x2="526.7550935315212" y1="631.706643623331" y2="525.1081404944975" /><line stroke="#222" stroke-width="1" x1="584.346902268911" x2="584.346902268911" y1="631.706643623331" y2="527.9698452764796" /><line stroke="#222" stroke-width="1" x1="587.2086070508931" x2="587.2086070508931" y1="631.706643623331" y2="527.9698452764796" /><line stroke="#222" stroke-width="1" x1="648.7352598635084" x2="648.7352598635084" y1="631.706643623331" y2="527.9698452764796" /><line stroke="#222" stroke-width="1" x1="651.5969646454905" x2="651.5969646454905" y1="631.706643623331" y2="527.9698452764796" /><line stroke="#222" stroke-width="1" x1="742.4560914734224" x2="742.4560914734224" y1="631.706643623331" y2="525.1081404944975" /><line stroke="#222" stroke-width="1" x1="739.5943866914403" x2="739.5943866914403" y1="631.706643623331" y2="525.1081404944975" /><line stroke="#222" stroke-width="1" x1="770.0000000000001" x2="770.0000000000001" y1="631.706643623331" y2="525.1081404944975" /><line stroke="#222" stroke-width="1" x1="498.8534719071956" x2="498.8534719071956" y1="525.1081404944975" y2="472.1666020278286" /><line stroke="#222" stroke-width="1" x1="770.0000000000001" x2="770.0000000000001" y1="525.1081404944975" y2="472.1666020278286" /><line stroke="#222" stroke-width="1" x1="617.9719334572007" x2="617.9719334572007" y1="631.706643623331" y2="527.9698452764796" /><rect fill="#222" height="8" width="10" x="50" y="10" /><text font-size="7" x="62" y="18">A-新隔墙</text><text font-size="11" font-weight="bold" text-anchor="middle" x="450" y="690">金沙美容 原图预览 | 68个实体 | 3个图层</text></svg>