<svg xmlns="http://www.w3.org/2000/svg" viewBox="0 0 850 660">
<rect width="100%" height="100%" fill="#f8f9fa"/>
<text x="30" y="22" font-size="14" font-weight="bold">晴碧园26栋 — 房间面积统计</text>
<text x="30" y="38" font-size="10" fill="#666">总面积: 49.64m² | 房间: 20间 | 颜色: 绿(小)→黄→红(大)</text>
<polygon points="707.5,358.3 704.8,358.3 704.8,369.7 703.4,369.7 703.4,429.1 703.4,442.8 703.4,429.1 703.4,369.7 704.8,369.7 708.2,369.7 719.8,369.7 737.6,369.7 748.6,369.7 754.0,369.7 754.0,413.1 754.0,495.3 754.0,538.7 748.6,538.7 737.6,538.7 703.4,538.7 703.4,506.7 700.7,506.7 685.9,506.7 685.9,512.2 700.7,512.2 685.9,512.2 685.9,506.7 700.7,506.7 700.7,538.7 700.7,566.1 700.7,602.6 700.7,620.9 693.2,620.9 683.6,620.9 673.3,620.9 662.4,620.9 662.4,506.7 673.6,506.7 673.6,512.2 664.1,512.2 664.1,620.9 664.1,512.2 673.6,512.2 673.6,506.7 662.4,506.7 662.4,620.9 651.5,620.9 641.9,620.9 641.9,424.5 639.2,424.5 639.2,616.3 639.2,424.5 641.9,424.5 641.9,620.9 651.5,620.9 651.5,630.0 639.2,630.0 651.5,630.0 662.4,630.0 673.3,630.0 683.6,630.0 693.2,630.0 703.4,630.0 703.4,602.6 703.4,566.1 703.4,547.8 737.6,547.8 748.6,547.8 756.8,547.8 756.8,495.3 756.8,413.1 756.8,360.6 777.3,360.6 777.3,229.8 762.2,229.8 762.2,79.1 687.0,79.1 687.0,155.2 687.0,79.1 762.2,79.1 684.3,79.1 684.3,70.0 684.3,155.2 684.3,70.0 765.0,70.0 765.0,220.7 780.0,220.7 780.0,369.7 756.8,369.7 780.0,369.7 780.0,220.7 765.0,220.7 765.0,70.0 765.0,164.3 737.6,164.3 737.6,155.2 762.2,155.2 762.2,79.1 762.2,229.8 777.3,229.8 777.3,360.6 756.8,360.6 748.6,360.6 737.6,360.6 719.8,360.6 708.2,360.6 707.5,360.6 707.5,358.3" fill="rgb(60,218,66)" fill-opacity="0.35" stroke="#333" stroke-width="1"/>
<text x="710" y="416" text-anchor="middle" font-size="8" fill="#333" font-weight="bold">卧室二?</text>
<text x="710" y="426" text-anchor="middle" font-size="7" fill="#666">1.6m²</text>
<polygon points="247.3,429.1 230.9,429.1 230.9,434.6 247.3,434.6 230.9,434.6 230.9,429.1 247.3,429.1 247.3,515.9 217.2,515.9 247.3,515.9 250.1,515.9 250.1,438.2 262.4,438.2 273.3,438.2 274.7,438.2 273.3,438.2 273.3,429.1 274.7,429.1 273.3,429.1 262.4,429.1 247.3,429.1" fill="rgb(26,208,85)" fill-opacity="0.35" stroke="#333" stroke-width="1"/>
<text x="252" y="449" text-anchor="middle" font-size="8" fill="#333" font-weight="bold">衣帽间?</text>
<text x="252" y="459" text-anchor="middle" font-size="7" fill="#666">0.7m²</text>
<polygon points="250.1,515.9 247.3,515.9 247.3,429.1 262.4,429.1 262.4,438.2 250.1,438.2 250.1,515.9" fill="rgb(20,206,88)" fill-opacity="0.35" stroke="#333" stroke-width="1"/>
<text x="253" y="469" text-anchor="middle" font-size="8" fill="#333" font-weight="bold">衣帽间?</text>
<text x="253" y="479" text-anchor="middle" font-size="7" fill="#666">0.6m²</text>
<polygon points="514.7,369.7 514.7,579.8 512.0,579.8 512.0,369.7 514.7,369.7" fill="rgb(34,210,80)" fill-opacity="0.35" stroke="#333" stroke-width="1"/>
<text x="514" y="454" text-anchor="middle" font-size="8" fill="#333" font-weight="bold">休闲区?</text>
<text x="514" y="464" text-anchor="middle" font-size="7" fill="#666">0.9m²</text>
<polygon points="60.0,369.7 62.7,369.7 62.7,579.8 60.0,579.8 60.0,369.7" fill="rgb(34,210,80)" fill-opacity="0.35" stroke="#333" stroke-width="1"/>
<text x="61" y="454" text-anchor="middle" font-size="8" fill="#333" font-weight="bold">客厅?</text>
<text x="61" y="464" text-anchor="middle" font-size="7" fill="#666">0.9m²</text>
<polygon points="332.1,520.4 329.4,520.4 329.4,392.6 332.1,392.6 332.1,520.4" fill="rgb(20,206,88)" fill-opacity="0.35" stroke="#333" stroke-width="1"/>
<text x="331" y="469" text-anchor="middle" font-size="8" fill="#333" font-weight="bold">卧室?</text>
<text x="331" y="479" text-anchor="middle" font-size="7" fill="#666">0.6m²</text>
<polygon points="512.0,616.3 484.7,616.3 484.7,333.2 512.0,333.2 512.0,369.7 512.0,579.8 512.0,616.3" fill="rgb(255,91,50)" fill-opacity="0.35" stroke="#333" stroke-width="1"/>
<text x="504" y="495" text-anchor="middle" font-size="8" fill="#333" font-weight="bold">露台</text>
<text x="504" y="505" text-anchor="middle" font-size="7" fill="#666">12.4m²</text>
<polygon points="278.8,566.1 276.0,566.1 276.0,538.7 276.0,515.9 278.8,515.9 278.8,538.7 313.0,538.7 313.0,547.8 278.8,547.8 278.8,566.1" fill="rgb(26,208,85)" fill-opacity="0.35" stroke="#333" stroke-width="1"/>
<text x="285" y="544" text-anchor="middle" font-size="8" fill="#333" font-weight="bold">衣帽间?</text>
<text x="285" y="554" text-anchor="middle" font-size="7" fill="#666">0.7m²</text>
<polygon points="161.2,593.5 161.2,602.6 161.2,593.5 163.9,593.5 163.9,602.6 163.9,616.3 144.8,616.3 144.8,607.2 159.8,607.2 144.8,607.2 106.5,607.2 91.4,607.2 106.5,607.2 106.5,616.3 87.3,616.3 60.0,616.3 60.0,579.8 62.7,579.8 62.7,607.2 87.3,607.2 62.7,607.2 62.7,579.8 62.7,369.7 62.7,342.4 66.8,342.4 75.0,342.4 87.3,342.4 75.0,342.4 75.0,333.2 87.3,333.2 95.6,333.2 87.3,333.2 75.0,333.2 66.8,333.2 60.0,333.2 60.0,369.7 60.0,579.8 60.0,616.3 87.3,616.3 106.5,616.3 144.8,616.3 163.9,616.3 163.9,602.6 214.5,602.6 163.9,602.6 163.9,593.5 214.5,593.5 163.9,593.5 161.2,593.5 159.8,593.5 159.8,602.6 159.8,593.5 161.2,593.5" fill="rgb(67,220,62)" fill-opacity="0.35" stroke="#333" stroke-width="1"/>
<text x="115" y="534" text-anchor="middle" font-size="8" fill="#333" font-weight="bold">客厅?</text>
<text x="115" y="544" text-anchor="middle" font-size="7" fill="#666">1.8m²</text>
<polygon points="313.0,547.8 323.9,547.8 332.1,547.8 332.1,520.4 332.1,392.6 332.1,360.6 335.5,360.6 335.5,369.7 332.1,369.7 335.5,369.7 335.5,360.6 332.1,360.6 325.3,360.6 319.8,360.6 319.8,336.6 317.1,336.6 317.1,369.7 262.4,369.7 317.1,369.7 329.4,369.7 329.4,392.6 329.4,520.4 329.4,538.7 323.9,538.7 313.0,538.7 278.8,538.7 278.8,515.9 278.8,510.4 267.8,510.4 267.8,515.9 276.0,515.9 276.0,538.7 276.0,566.1 276.0,602.6 276.0,620.9 276.0,602.6 278.8,602.6 278.8,630.0 268.5,630.0 268.5,620.9 274.7,620.9 268.5,620.9 257.6,620.9 237.8,620.9 226.8,620.9 217.2,620.9 217.2,429.1 218.6,429.1 218.6,434.6 217.2,434.6 218.6,434.6 218.6,429.1 217.2,429.1 214.5,429.1 214.5,616.3 214.5,429.1 217.2,429.1 217.2,620.9 226.8,620.9 226.8,630.0 214.5,630.0 226.8,630.0 237.8,630.0 257.6,630.0 268.5,630.0 278.8,630.0 278.8,602.6 278.8,566.1 278.8,547.8 313.0,547.8" fill="rgb(108,233,39)" fill-opacity="0.35" stroke="#333" stroke-width="1"/>
<text x="277" y="509" text-anchor="middle" font-size="8" fill="#333" font-weight="bold">衣帽间?</text>
<text x="277" y="519" text-anchor="middle" font-size="7" fill="#666">2.9m²</text>
<polygon points="737.6,538.7 737.6,547.8 703.4,547.8 703.4,566.1 700.7,566.1 700.7,538.7 700.7,506.7 703.4,506.7 703.4,538.7 737.6,538.7" fill="rgb(28,208,84)" fill-opacity="0.35" stroke="#333" stroke-width="1"/>
<text x="713" y="540" text-anchor="middle" font-size="8" fill="#333" font-weight="bold">卧室二?</text>
<text x="713" y="550" text-anchor="middle" font-size="7" fill="#666">0.8m²</text>
<polygon points="484.7,616.3 512.0,616.3 533.9,616.3 512.0,616.3 512.0,579.8 514.7,579.8 514.7,607.2 533.9,607.2 514.7,607.2 514.7,579.8 514.7,369.7 514.7,342.4 520.2,342.4 520.2,326.4 522.9,326.4 522.9,333.2 522.9,326.4 522.9,294.4 522.9,285.3 522.9,253.3 522.9,244.2 522.9,212.2 522.9,205.4 569.4,205.4 576.3,205.4 584.5,205.4 576.3,205.4 576.3,196.2 584.5,196.2 576.3,196.2 569.4,196.2 520.2,196.2 520.2,212.2 520.2,244.2 520.2,253.3 520.2,285.3 520.2,294.4 520.2,326.4 520.2,342.4 514.7,342.4 514.7,369.7 512.0,369.7 512.0,333.2 520.2,333.2 512.0,333.2 484.7,333.2 484.7,616.3" fill="rgb(255,0,50)" fill-opacity="0.35" stroke="#333" stroke-width="1"/>
<text x="527" y="355" text-anchor="middle" font-size="8" fill="#333" font-weight="bold">露台</text>
<text x="527" y="365" text-anchor="middle" font-size="7" fill="#666">14.7m²</text>
<polygon points="349.2,229.8 352.6,229.8 352.6,250.4 352.6,340.1 352.6,360.6 349.2,360.6 349.2,369.7 355.3,369.7 355.3,340.1 355.3,250.4 355.3,220.7 349.2,220.7 340.3,220.7 349.2,220.7 349.2,229.8 340.3,229.8 349.2,229.8" fill="rgb(27,208,84)" fill-opacity="0.35" stroke="#333" stroke-width="1"/>
<text x="350" y="275" text-anchor="middle" font-size="8" fill="#333" font-weight="bold">门厅?</text>
<text x="350" y="285" text-anchor="middle" font-size="7" fill="#666">0.8m²</text>
<polygon points="259.6,70.0 340.3,70.0 340.3,92.8 337.6,92.8 337.6,79.1 262.4,79.1 262.4,229.8 259.6,229.8 259.6,70.0" fill="rgb(70,221,60)" fill-opacity="0.35" stroke="#333" stroke-width="1"/>
<text x="295" y="113" text-anchor="middle" font-size="8" fill="#333" font-weight="bold">车库?</text>
<text x="295" y="123" text-anchor="middle" font-size="7" fill="#666">1.9m²</text>
<polygon points="340.3,70.0 259.6,70.0 217.2,70.0 103.8,70.0 103.8,168.9 103.8,196.2 95.6,196.2 103.8,196.2 103.8,168.9 161.2,168.9 161.2,155.2 165.3,155.2 165.3,164.3 163.9,164.3 163.9,209.9 163.9,164.3 165.3,164.3 176.2,164.3 189.9,164.3 200.8,164.3 215.9,164.3 215.9,168.9 215.9,191.7 217.2,191.7 239.1,191.7 239.1,186.2 217.2,186.2 239.1,186.2 239.1,191.7 217.2,191.7 215.9,191.7 215.9,168.9 215.9,164.3 200.8,164.3 200.8,155.2 215.9,155.2 200.8,155.2 189.9,155.2 176.2,155.2 165.3,155.2 161.2,155.2 161.2,168.9 103.8,168.9 103.8,70.0 217.2,70.0 217.2,79.1 106.5,79.1 106.5,168.9 106.5,79.1 217.2,79.1 217.2,111.8 217.2,155.2 217.2,111.8 220.0,111.8 220.0,155.2 220.0,111.8 220.0,79.1 220.0,111.8 217.2,111.8 217.2,79.1 259.6,79.1 217.2,79.1 217.2,70.0 259.6,70.0 259.6,229.8 259.6,246.2 262.4,246.2 262.8,246.2 262.8,240.8 262.4,240.8 262.4,229.8 262.4,79.1 337.6,79.1 337.6,92.8 337.6,207.0 337.6,216.1 337.6,207.0 340.3,207.0 340.3,216.1 340.3,207.0 340.3,92.8 340.3,70.0" fill="rgb(111,234,38)" fill-opacity="0.35" stroke="#333" stroke-width="1"/>
<text x="216" y="152" text-anchor="middle" font-size="8" fill="#333" font-weight="bold">衣帽间?</text>
<text x="216" y="162" text-anchor="middle" font-size="7" fill="#666">3.0m²</text>
<polygon points="737.6,155.2 737.6,164.3 707.5,164.3 737.6,164.3 765.0,164.3 765.0,70.0 684.3,70.0 641.9,70.0 641.9,155.2 641.9,70.0 684.3,70.0 684.3,79.1 644.6,79.1 644.6,155.2 644.6,79.1 684.3,79.1 762.2,79.1 762.2,155.2 737.6,155.2 707.5,155.2 680.2,155.2 669.2,155.2 659.7,155.2 648.7,155.2 643.3,155.2 648.7,155.2 648.7,164.3 643.3,164.3 648.7,164.3 659.7,164.3 669.2,164.3 680.2,164.3 704.8,164.3 704.8,179.6 704.8,216.1 704.8,179.6 707.5,179.6 707.5,216.1 707.5,179.6 707.5,155.2 737.6,155.2" fill="rgb(105,232,41)" fill-opacity="0.35" stroke="#333" stroke-width="1"/>
<text x="690" y="143" text-anchor="middle" font-size="8" fill="#333" font-weight="bold">洗衣房?</text>
<text x="690" y="153" text-anchor="middle" font-size="7" fill="#666">2.8m²</text>
<polygon points="619.3,155.2 600.2,155.2 589.9,155.2 585.8,155.2 585.8,196.2 585.8,155.2 589.9,155.2 589.9,164.3 588.6,164.3 588.6,196.2 588.6,164.3 589.9,164.3 600.2,164.3 619.3,164.3 629.6,164.3 639.2,164.3 629.6,164.3 629.6,155.2 639.2,155.2 629.6,155.2 619.3,155.2" fill="rgb(21,206,88)" fill-opacity="0.35" stroke="#333" stroke-width="1"/>
<text x="607" y="163" text-anchor="middle" font-size="8" fill="#333" font-weight="bold">卫生间?</text>
<text x="607" y="173" text-anchor="middle" font-size="7" fill="#666">0.6m²</text>
<polygon points="522.9,212.2 520.2,212.2 520.2,196.2 569.4,196.2 569.4,205.4 522.9,205.4 522.9,212.2" fill="rgb(27,208,84)" fill-opacity="0.35" stroke="#333" stroke-width="1"/>
<text x="535" y="206" text-anchor="middle" font-size="8" fill="#333" font-weight="bold">衣帽间?</text>
<text x="535" y="216" text-anchor="middle" font-size="7" fill="#666">0.8m²</text>
<polygon points="583.1,616.3 583.1,607.2 585.8,607.2 583.1,607.2 572.2,607.2 550.3,607.2 539.4,607.2 538.0,607.2 539.4,607.2 539.4,616.3 538.0,616.3 539.4,616.3 550.3,616.3 572.2,616.3 583.1,616.3 588.6,616.3 588.6,602.6 639.2,602.6 588.6,602.6 588.6,422.3 585.8,422.3 585.8,602.6 585.8,422.3 588.6,422.3 588.6,602.6 588.6,616.3 583.1,616.3" fill="rgb(23,207,86)" fill-opacity="0.35" stroke="#333" stroke-width="1"/>
<text x="574" y="582" text-anchor="middle" font-size="8" fill="#333" font-weight="bold">电梯（井道净宽1.6米，净深1.58米）?</text>
<text x="574" y="592" text-anchor="middle" font-size="7" fill="#666">0.6m²</text>
<polygon points="144.8,607.2 144.8,616.3 106.5,616.3 106.5,607.2 144.8,607.2" fill="rgb(20,206,88)" fill-opacity="0.35" stroke="#333" stroke-width="1"/>
<text x="129" y="611" text-anchor="middle" font-size="8" fill="#333" font-weight="bold">客厅?</text>
<text x="129" y="621" text-anchor="middle" font-size="7" fill="#666">0.6m²</text>
<rect x="790" y="50" width="25" height="160" fill="url(#ag)" stroke="#999" stroke-width="0.5"/>
<defs><linearGradient id="ag" x1="0" y1="0" x2="0" y2="1">
<stop offset="0%" stop-color="rgb(255,50,50)"/>
<stop offset="50%" stop-color="rgb(255,200,50)"/>
<stop offset="100%" stop-color="rgb(50,200,50)"/>
</linearGradient></defs>
<text x="790" y="220" font-size="7" fill="#666">15m²</text>
<text x="790" y="240" font-size="7" fill="#666">0</text>
</svg>