<?xml version="1.0" encoding="utf-8" ?>
<svg baseProfile="full" height="750px" version="1.1" width="900px" xmlns="http://www.w3.org/2000/svg" xmlns:ev="http://www.w3.org/2001/xml-events" xmlns:xlink="http://www.w3.org/1999/xlink"><defs /><rect fill="#1a1a2e" height="750" width="900" x="0" y="0" /><line stroke="#2a2a4e" stroke-width="0.3" x1="150.0" x2="150.0" y1="640.0" y2="0.0" /><line stroke="#2a2a4e" stroke-width="0.3" x1="190.0" x2="190.0" y1="640.0" y2="0.0" /><line stroke="#2a2a4e" stroke-width="0.3" x1="230.0" x2="230.0" y1="640.0" y2="0.0" /><line stroke="#2a2a4e" stroke-width="0.3" x1="270.0" x2="270.0" y1="640.0" y2="0.0" /><line stroke="#2a2a4e" stroke-width="0.3" x1="310.0" x2="310.0" y1="640.0" y2="0.0" /><line stroke="#2a2a4e" stroke-width="0.3" x1="350.0" x2="350.0" y1="640.0" y2="0.0" /><line stroke="#2a2a4e" stroke-width="0.3" x1="390.0" x2="390.0" y1="640.0" y2="0.0" /><line stroke="#2a2a4e" stroke-width="0.3" x1="430.0" x2="430.0" y1="640.0" y2="0.0" /><line stroke="#2a2a4e" stroke-width="0.3" x1="470.0" x2="470.0" y1="640.0" y2="0.0" /><line stroke="#2a2a4e" stroke-width="0.3" x1="510.0" x2="510.0" y1="640.0" y2="0.0" /><line stroke="#2a2a4e" stroke-width="0.3" x1="550.0" x2="550.0" y1="640.0" y2="0.0" /><line stroke="#2a2a4e" stroke-width="0.3" x1="590.0" x2="590.0" y1="640.0" y2="0.0" /><line stroke="#2a2a4e" stroke-width="0.3" x1="630.0" x2="630.0" y1="640.0" y2="0.0" /><line stroke="#2a2a4e" stroke-width="0.3" x1="670.0" x2="670.0" y1="640.0" y2="0.0" /><line stroke="#2a2a4e" stroke-width="0.3" x1="710.0" x2="710.0" y1="640.0" y2="0.0" /><line stroke="#2a2a4e" stroke-width="0.3" x1="150.0" x2="710.0" y1="640.0" y2="640.0" /><line stroke="#2a2a4e" stroke-width="0.3" x1="150.0" x2="710.0" y1="600.0" y2="600.0" /><line stroke="#2a2a4e" stroke-width="0.3" x1="150.0" x2="710.0" y1="560.0" y2="560.0" /><line stroke="#2a2a4e" stroke-width="0.3" x1="150.0" x2="710.0" y1="520.0" y2="520.0" /><line stroke="#2a2a4e" stroke-width="0.3" x1="150.0" x2="710.0" y1="480.0" y2="480.0" /><line stroke="#2a2a4e" stroke-width="0.3" x1="150.0" x2="710.0" y1="440.0" y2="440.0" /><line stroke="#2a2a4e" stroke-width="0.3" x1="150.0" x2="710.0" y1="400.0" y2="400.0" /><line stroke="#2a2a4e" stroke-width="0.3" x1="150.0" x2="710.0" y1="360.0" y2="360.0" /><line stroke="#2a2a4e" stroke-width="0.3" x1="150.0" x2="710.0" y1="320.0" y2="320.0" /><line stroke="#2a2a4e" stroke-width="0.3" x1="150.0" x2="710.0" y1="280.0" y2="280.0" /><line stroke="#2a2a4e" stroke-width="0.3" x1="150.0" x2="710.0" y1="240.0" y2="240.0" /><line stroke="#2a2a4e" stroke-width="0.3" x1="150.0" x2="710.0" y1="200.0" y2="200.0" /><line stroke="#2a2a4e" stroke-width="0.3" x1="150.0" x2="710.0" y1="160.0" y2="160.0" /><line stroke="#2a2a4e" stroke-width="0.3" x1="150.0" x2="710.0" y1="120.0" y2="120.0" /><line stroke="#2a2a4e" stroke-width="0.3" x1="150.0" x2="710.0" y1="80.0" y2="80.0" /><line stroke="#2a2a4e" stroke-width="0.3" x1="150.0" x2="710.0" y1="40.0" y2="40.0" /><line stroke="#2a2a4e" stroke-width="0.3" x1="150.0" x2="710.0" y1="0.0" y2="0.0" /><rect fill="#1a2a1a" fill-opacity="0.5" height="240.0" stroke="none" width="560.0" x="150.0" y="400.0" /><rect fill="#1a1a2a" fill-opacity="0.5" height="400.0" stroke="none" width="560.0" x="150.0" y="0.0" /><rect fill="#2a1a1a" fill-opacity="0.5" height="160.0" stroke="none" width="200.0" x="190.0" y="80.0" /><rect fill="#1a2a2a" fill-opacity="0.5" height="160.0" stroke="none" width="200.0" x="470.0" y="80.0" /><rect fill="#2a2a1a" fill-opacity="0.5" height="80.0" stroke="none" width="200.0" x="470.0" y="0.0" /><line stroke="#ccaa00" stroke-dasharray="8,4" stroke-width="3" x1="150.0" x2="710.0" y1="640.0" y2="640.0" /><line stroke="#ccaa00" stroke-dasharray="8,4" stroke-width="3" x1="710.0" x2="710.0" y1="640.0" y2="0.0" /><line stroke="#ccaa00" stroke-dasharray="8,4" stroke-width="3" x1="710.0" x2="150.0" y1="0.0" y2="0.0" /><line stroke="#ccaa00" stroke-dasharray="8,4" stroke-width="3" x1="150.0" x2="150.0" y1="0.0" y2="640.0" /><line stroke="cyan" stroke-width="2.5" x1="150.0" x2="502.0" y1="400.0" y2="400.0" /><line stroke="cyan" stroke-width="2.5" x1="630.0" x2="630.0" y1="640.0" y2="400.0" /><line stroke="cyan" stroke-width="2.5" x1="470.0" x2="470.0" y1="640.0" y2="400.0" /><line stroke="cyan" stroke-width="2.5" x1="470.0" x2="670.0" y1="80.0" y2="80.0" /><line stroke="cyan" stroke-width="2.5" x1="670.0" x2="670.0" y1="80.0" y2="0.0" /><line stroke="#40e0d0" stroke-dasharray="3,2" stroke-width="2" x1="190.0" x2="190.0" y1="640.0" y2="0.0" /><line stroke="#40e0d0" stroke-dasharray="3,2" stroke-width="2" x1="390.0" x2="390.0" y1="240.0" y2="80.0" /><line stroke="#40e0d0" stroke-dasharray="3,2" stroke-width="2" x1="190.0" x2="390.0" y1="80.0" y2="80.0" /><rect fill="#333" height="142.4" stroke="#888" stroke-width="2" width="144.0" x="358.0" y="257.59999999999997" /><rect fill="#444" height="126.4" stroke="#aaa" stroke-width="1.5" width="128.0" x="366.0" y="265.59999999999997" /><line stroke="#aaa" stroke-width="1" x1="366.0" x2="494.0" y1="392.0" y2="265.59999999999997" /><line stroke="#aaa" stroke-width="1" x1="494.0" x2="366.0" y1="392.0" y2="265.59999999999997" /><text fill="#ddd" font-size="10" text-anchor="middle" x="430.0" y="343.2">电梯</text><text fill="#aaa" font-size="7" text-anchor="middle" x="430.0" y="330.4">1.6×1.58m</text><line stroke="white" stroke-width="0.8" x1="270.0" x2="350.0" y1="400.0" y2="400.0" /><line stroke="white" stroke-width="0.8" x1="270.0" x2="350.0" y1="394.0" y2="394.0" /><line stroke="white" stroke-width="0.8" x1="270.0" x2="350.0" y1="388.0" y2="388.0" /><line stroke="white" stroke-width="0.8" x1="270.0" x2="350.0" y1="382.0" y2="382.0" /><line stroke="white" stroke-width="0.8" x1="270.0" x2="350.0" y1="376.0" y2="376.0" /><line stroke="white" stroke-width="0.8" x1="270.0" x2="350.0" y1="370.0" y2="370.0" /><line stroke="white" stroke-width="0.8" x1="270.0" x2="350.0" y1="364.0" y2="364.0" /><line stroke="white" stroke-width="0.8" x1="270.0" x2="350.0" y1="358.0" y2="358.0" /><line stroke="white" stroke-width="0.8" x1="270.0" x2="350.0" y1="352.0" y2="352.0" /><line stroke="white" stroke-width="0.8" x1="270.0" x2="350.0" y1="346.0" y2="346.0" /><line stroke="white" stroke-width="0.8" x1="270.0" x2="350.0" y1="340.0" y2="340.0" /><line stroke="white" stroke-width="0.8" x1="270.0" x2="350.0" y1="334.0" y2="334.0" /><line stroke="white" stroke-width="0.8" x1="270.0" x2="350.0" y1="328.0" y2="328.0" /><line stroke="white" stroke-width="0.8" x1="270.0" x2="350.0" y1="322.0" y2="322.0" /><line stroke="white" stroke-width="0.8" x1="270.0" x2="350.0" y1="316.0" y2="316.0" /><line stroke="white" stroke-width="0.8" x1="270.0" x2="350.0" y1="310.0" y2="310.0" /><line stroke="white" stroke-width="0.8" x1="270.0" x2="350.0" y1="304.0" y2="304.0" /><line stroke="white" stroke-width="0.8" x1="270.0" x2="350.0" y1="298.0" y2="298.0" /><line stroke="white" stroke-width="0.8" x1="270.0" x2="350.0" y1="292.0" y2="292.0" /><line stroke="white" stroke-width="0.8" x1="270.0" x2="350.0" y1="286.0" y2="286.0" /><line stroke="white" stroke-width="0.8" x1="270.0" x2="350.0" y1="280.0" y2="280.0" /><line stroke="white" stroke-width="0.8" x1="270.0" x2="350.0" y1="274.0" y2="274.0" /><line stroke="white" stroke-width="2" x1="350.0" x2="350.0" y1="400.0" y2="273.59999999999997" /><text fill="#ff6" font-size="8" text-anchor="middle" x="278.0" y="336.8">↑上21步</text><line stroke="white" stroke-width="0.8" x1="510.0" x2="590.0" y1="400.0" y2="400.0" /><line stroke="white" stroke-width="0.8" x1="510.0" x2="590.0" y1="392.64" y2="392.64" /><line stroke="white" stroke-width="0.8" x1="510.0" x2="590.0" y1="385.28" y2="385.28" /><line stroke="white" stroke-width="0.8" x1="510.0" x2="590.0" y1="377.92" y2="377.92" /><line stroke="white" stroke-width="0.8" x1="510.0" x2="590.0" y1="370.56" y2="370.56" /><line stroke="white" stroke-width="0.8" x1="510.0" x2="590.0" y1="363.2" y2="363.2" /><line stroke="white" stroke-width="0.8" x1="510.0" x2="590.0" y1="355.84" y2="355.84" /><line stroke="white" stroke-width="0.8" x1="510.0" x2="590.0" y1="348.48" y2="348.48" /><line stroke="white" stroke-width="0.8" x1="510.0" x2="590.0" y1="341.12" y2="341.12" /><line stroke="white" stroke-width="0.8" x1="510.0" x2="590.0" y1="333.76" y2="333.76" /><line stroke="white" stroke-width="0.8" x1="510.0" x2="590.0" y1="326.4" y2="326.4" /><line stroke="white" stroke-width="0.8" x1="510.0" x2="590.0" y1="319.04" y2="319.04" /><line stroke="white" stroke-width="0.8" x1="510.0" x2="590.0" y1="311.68" y2="311.68" /><line stroke="white" stroke-width="0.8" x1="510.0" x2="590.0" y1="304.32" y2="304.32" /><line stroke="white" stroke-width="0.8" x1="510.0" x2="590.0" y1="296.96" y2="296.96" /><line stroke="white" stroke-width="0.8" x1="510.0" x2="590.0" y1="289.59999999999997" y2="289.59999999999997" /><line stroke="white" stroke-width="0.8" x1="510.0" x2="590.0" y1="282.24" y2="282.24" /><line stroke="white" stroke-width="0.8" x1="510.0" x2="590.0" y1="274.88" y2="274.88" /><line stroke="white" stroke-width="2" x1="590.0" x2="590.0" y1="400.0" y2="273.59999999999997" /><text fill="#ff6" font-size="8" text-anchor="middle" x="518.0" y="336.8">↓下17步</text><rect fill="none" height="56.0" stroke="#f6f" stroke-width="1.5" width="72.0" x="254.0" y="136.0" /><circle cx="268.4" cy="204.0" fill="none" r="6" stroke="#f6f" stroke-width="1" /><circle cx="282.8" cy="204.0" fill="none" r="6" stroke="#f6f" stroke-width="1" /><circle cx="297.20000000000005" cy="204.0" fill="none" r="6" stroke="#f6f" stroke-width="1" /><circle cx="311.6" cy="204.0" fill="none" r="6" stroke="#f6f" stroke-width="1" /><line stroke="#888" stroke-dasharray="5,3" stroke-width="0.8" x1="470.0" x2="630.0" y1="240.0" y2="40.0" /><line stroke="#888" stroke-dasharray="5,3" stroke-width="0.8" x1="630.0" x2="470.0" y1="240.0" y2="40.0" /><circle cx="342.0" cy="536.0" fill="#555" r="14" stroke="cyan" stroke-width="1" /><line stroke="cyan" stroke-width="1.5" x1="341.20000000000005" x2="342.8" y1="537.12" y2="537.12" /><circle cx="558.0" cy="528.0" fill="#448" r="9" stroke="cyan" stroke-width="1" /><rect fill="#553" height="32.0" stroke="#f6f" stroke-width="1.5" width="40.0" x="198.0" y="328.0" /><line stroke="green" stroke-width="1" x1="150.0" x2="710.0" y1="646.4" y2="646.4" /><text fill="green" font-size="9" text-anchor="middle" x="430.0" y="647.2">7000</text><text fill="green" font-size="8" text-anchor="middle" x="306.0" y="644.8">3900</text><text fill="green" font-size="8" text-anchor="middle" x="470.0" y="644.8">200</text><text fill="#fff" font-family="sans-serif" font-size="11" text-anchor="middle" x="430.0" y="256.0">电梯厅</text><text fill="#faa" font-family="sans-serif" font-size="11" text-anchor="middle" x="290.0" y="96.0">早餐区</text><text fill="#f6f" font-family="sans-serif" font-size="9" text-anchor="middle" x="290.0" y="224.0">岛台</text><text fill="#aaa" font-family="sans-serif" font-size="10" text-anchor="middle" x="550.0" y="140.0">挑空</text><text fill="#0ff" font-family="sans-serif" font-size="11" text-anchor="middle" x="470.0" y="416.0">卫生间</text><text fill="#ff0" font-family="sans-serif" font-size="9" text-anchor="middle" x="486.0" y="16.0">衣帽间</text><text fill="#aa0" font-family="sans-serif" font-size="10" text-anchor="middle" x="454.0" y="32.0">院子</text><text fill="#aa0" font-family="sans-serif" font-size="8" text-anchor="middle" x="310.0" y="32.0">硬化地面</text><text fill="#40e0d0" font-family="sans-serif" font-size="8" text-anchor="middle" x="190.0" y="624.0">玻璃砖隔墙</text><text fill="#f6f" font-family="sans-serif" font-size="8" text-anchor="middle" x="202.0" y="348.0">钢琴</text><text fill="#f6f" font-family="sans-serif" font-size="7" text-anchor="middle" x="202.0" y="336.0">留声机</text><text fill="#aaa" font-family="sans-serif" font-size="7" text-anchor="middle" x="558.0" y="520.0">预留水源</text><text fill="#aaa" font-family="sans-serif" font-size="7" text-anchor="middle" x="558.0" y="504.0">预留充电桩</text><text fill="#aaa" font-family="sans-serif" font-size="7" text-anchor="middle" x="686.0" y="32.0">预留水龙头</text><rect fill="#ccaa00" fill-opacity="0.8" height="12" width="14" x="150" y="710" /><text fill="#ddd" font-size="8" x="168" y="720">保留墙</text><rect fill="cyan" fill-opacity="0.8" height="12" width="14" x="270" y="710" /><text fill="#ddd" font-size="8" x="288" y="720">内墙</text><rect fill="#40e0d0" fill-opacity="0.8" height="12" width="14" x="390" y="710" /><text fill="#ddd" font-size="8" x="408" y="720">玻璃砖</text><rect fill="#888" fill-opacity="0.8" height="12" width="14" x="510" y="710" /><text fill="#ddd" font-size="8" x="528" y="720">电梯井</text><rect fill="white" fill-opacity="0.8" height="12" width="14" x="630" y="710" /><text fill="#ddd" font-size="8" x="648" y="720">楼梯</text><rect fill="#f6f" fill-opacity="0.8" height="12" width="14" x="750" y="710" /><text fill="#ddd" font-size="8" x="768" y="720">家具</text><text fill="#ddd" font-size="14" font-weight="bold" text-anchor="middle" x="450" y="30">晴碧园晶园26栋拆砌图 · 重建版 | 暗色模式</text></svg>