<svg xmlns="http://www.w3.org/2000/svg" width="1000" height="800" viewBox="0 0 1000 800">
<rect width="100%" height="100%" fill="#1a1a2e"/>
<text x="500" y="25" text-anchor="middle" fill="#e0e0e0" font-size="14" font-family="monospace">晴碧园晶园26栋 — INSERT</text>
<circle cx="468.9" cy="372.2" r="3" fill="#ff7043" opacity="0.7"/>
<text x="473.9" y="375.2" fill="#ff7043" font-size="8" font-family="monospace">ZHOUXIAN</text>
<circle cx="454.6" cy="412.3" r="3" fill="#4dd0e1" opacity="0.7"/>
<text x="459.6" y="415.3" fill="#4dd0e1" font-size="8" font-family="monospace">dfhgfjhgjghg</text>
<circle cx="455.6" cy="412.3" r="3" fill="#4dd0e1" opacity="0.7"/>
<text x="460.6" y="415.3" fill="#4dd0e1" font-size="8" font-family="monospace">dfhgfjhgjghg</text>
<circle cx="457.2" cy="412.4" r="3" fill="#4dd0e1" opacity="0.7"/>
<text x="462.2" y="415.4" fill="#4dd0e1" font-size="8" font-family="monospace">dfhgfjhgjghg</text>
<circle cx="458.0" cy="411.0" r="3" fill="#4dd0e1" opacity="0.7"/>
<text x="463.0" y="414.0" fill="#4dd0e1" font-size="8" font-family="monospace">dfhgfjhgjghg</text>
<circle cx="457.8" cy="411.0" r="3" fill="#4dd0e1" opacity="0.7"/>
<text x="462.8" y="414.0" fill="#4dd0e1" font-size="8" font-family="monospace">dfhgfjhgjghg</text>
<circle cx="457.0" cy="406.9" r="3" fill="#4dd0e1" opacity="0.7"/>
<text x="462.0" y="409.9" fill="#4dd0e1" font-size="8" font-family="monospace">dfhgfjhgjghg</text>
<circle cx="457.2" cy="411.8" r="3" fill="#4dd0e1" opacity="0.7"/>
<text x="462.2" y="414.8" fill="#4dd0e1" font-size="8" font-family="monospace">dfhgfjhgjghg</text>
<circle cx="455.6" cy="411.4" r="3" fill="#4dd0e1" opacity="0.7"/>
<text x="460.6" y="414.4" fill="#4dd0e1" font-size="8" font-family="monospace">dfhgfjhgjghg</text>
<circle cx="456.4" cy="411.4" r="3" fill="#4dd0e1" opacity="0.7"/>
<text x="461.4" y="414.4" fill="#4dd0e1" font-size="8" font-family="monospace">dfhgfjhgjghg</text>
<circle cx="461.4" cy="412.3" r="3" fill="#4dd0e1" opacity="0.7"/>
<text x="466.4" y="415.3" fill="#4dd0e1" font-size="8" font-family="monospace">dfhgfjhgjghg</text>
<circle cx="463.0" cy="412.4" r="3" fill="#4dd0e1" opacity="0.7"/>
<text x="468.0" y="415.4" fill="#4dd0e1" font-size="8" font-family="monospace">dfhgfjhgjghg</text>
<circle cx="463.0" cy="411.8" r="3" fill="#4dd0e1" opacity="0.7"/>
<text x="468.0" y="414.8" fill="#4dd0e1" font-size="8" font-family="monospace">dfhgfjhgjghg</text>
<circle cx="462.8" cy="411.5" r="3" fill="#4dd0e1" opacity="0.7"/>
<text x="467.8" y="414.5" fill="#4dd0e1" font-size="8" font-family="monospace">dfhgfjhgjghg</text>
<circle cx="461.4" cy="411.0" r="3" fill="#4dd0e1" opacity="0.7"/>
<text x="466.4" y="414.0" fill="#4dd0e1" font-size="8" font-family="monospace">dfhgfjhgjghg</text>
<circle cx="460.7" cy="412.3" r="3" fill="#4dd0e1" opacity="0.7"/>
<text x="465.7" y="415.3" fill="#4dd0e1" font-size="8" font-family="monospace">dfhgfjhgjghg</text>
<circle cx="460.5" cy="411.4" r="3" fill="#4dd0e1" opacity="0.7"/>
<text x="465.5" y="414.4" fill="#4dd0e1" font-size="8" font-family="monospace">dfhgfjhgjghg</text>
<circle cx="462.1" cy="411.4" r="3" fill="#4dd0e1" opacity="0.7"/>
<text x="467.1" y="414.4" fill="#4dd0e1" font-size="8" font-family="monospace">dfhgfjhgjghg</text>
<circle cx="449.2" cy="412.3" r="3" fill="#4dd0e1" opacity="0.7"/>
<text x="454.2" y="415.3" fill="#4dd0e1" font-size="8" font-family="monospace">dfhgfjhgjghg</text>
<circle cx="450.2" cy="412.3" r="3" fill="#4dd0e1" opacity="0.7"/>
<text x="455.2" y="415.3" fill="#4dd0e1" font-size="8" font-family="monospace">dfhgfjhgjghg</text>
<circle cx="448.8" cy="412.3" r="3" fill="#4dd0e1" opacity="0.7"/>
<text x="453.8" y="415.3" fill="#4dd0e1" font-size="8" font-family="monospace">dfhgfjhgjghg</text>
<circle cx="448.8" cy="411.4" r="3" fill="#4dd0e1" opacity="0.7"/>
<text x="453.8" y="414.4" fill="#4dd0e1" font-size="8" font-family="monospace">dfhgfjhgjghg</text>
<circle cx="516.5" cy="363.5" r="3" fill="#ce93d8" opacity="0.7"/>
<text x="521.5" y="366.5" fill="#ce93d8" font-size="8" font-family="monospace">FHGFJGHJHG</text>
<circle cx="894.7" cy="293.9" r="3" fill="#ce93d8" opacity="0.7"/>
<text x="899.7" y="296.9" fill="#ce93d8" font-size="8" font-family="monospace">FGHGFJGFJGF</text>
<circle cx="100.0" cy="474.4" r="3" fill="#4dd0e1" opacity="0.7"/>
<text x="105.0" y="477.4" fill="#4dd0e1" font-size="8" font-family="monospace">dfhfjfgjf</text>
<circle cx="543.6" cy="428.1" r="3" fill="#ce93d8" opacity="0.7"/>
<text x="548.6" y="431.1" fill="#ce93d8" font-size="8" font-family="monospace">DFHGFHGFJHGJ</text>
<circle cx="877.7" cy="273.9" r="3" fill="#4dd0e1" opacity="0.7"/>
<text x="882.7" y="276.9" fill="#4dd0e1" font-size="8" font-family="monospace">dfhdddddd</text>
<circle cx="465.5" cy="391.2" r="3" fill="#ce93d8" opacity="0.7"/>
<text x="470.5" y="394.2" fill="#ce93d8" font-size="8" font-family="monospace">DFHGFHGFJHGJ</text>
<circle cx="466.4" cy="391.9" r="3" fill="#ce93d8" opacity="0.7"/>
<text x="471.4" y="394.9" fill="#ce93d8" font-size="8" font-family="monospace">DFHGFHGFJHGJ</text>
<circle cx="123.7" cy="545.3" r="3" fill="#4dd0e1" opacity="0.7"/>
<text x="128.7" y="548.3" fill="#4dd0e1" font-size="8" font-family="monospace">dfhdddddd</text>
<circle cx="496.8" cy="409.9" r="3" fill="#ce93d8" opacity="0.7"/>
<text x="501.8" y="412.9" fill="#ce93d8" font-size="8" font-family="monospace">DFBDFBDFSB</text>
<circle cx="469.7" cy="452.0" r="3" fill="#4dd0e1" opacity="0.7"/>
<text x="474.7" y="455.0" fill="#4dd0e1" font-size="8" font-family="monospace">fhgfjhgjghgh</text>
<circle cx="502.4" cy="410.2" r="3" fill="#81c784" opacity="0.7"/>
<text x="507.4" y="413.2" fill="#81c784" font-size="8" font-family="monospace">A$C47632887</text>
<circle cx="502.4" cy="409.7" r="3" fill="#81c784" opacity="0.7"/>
<text x="507.4" y="412.7" fill="#81c784" font-size="8" font-family="monospace">A$C47632887</text>
<circle cx="500.1" cy="410.5" r="3" fill="#81c784" opacity="0.7"/>
<text x="505.1" y="413.5" fill="#81c784" font-size="8" font-family="monospace">A$C47632887</text>
<circle cx="498.8" cy="410.4" r="3" fill="#81c784" opacity="0.7"/>
<text x="503.8" y="413.4" fill="#81c784" font-size="8" font-family="monospace">A$C47632887</text>
<circle cx="651.1" cy="91.6" r="3" fill="#ce93d8" opacity="0.7"/>
<text x="656.1" y="94.6" fill="#ce93d8" font-size="8" font-family="monospace">FGHGFJGFJGF</text>
<circle cx="675.4" cy="715.3" r="3" fill="#4dd0e1" opacity="0.7"/>
<text x="680.4" y="718.3" fill="#4dd0e1" font-size="8" font-family="monospace">dfhdddddd</text>
<circle cx="505.5" cy="409.3" r="3" fill="#81c784" opacity="0.7"/>
<text x="510.5" y="412.3" fill="#81c784" font-size="8" font-family="monospace">A$C5DF34C6F</text>
<circle cx="508.2" cy="410.2" r="3" fill="#81c784" opacity="0.7"/>
<text x="513.2" y="413.2" fill="#81c784" font-size="8" font-family="monospace">A$C47632887</text>
<circle cx="508.2" cy="409.7" r="3" fill="#81c784" opacity="0.7"/>
<text x="513.2" y="412.7" fill="#81c784" font-size="8" font-family="monospace">A$C47632887</text>
<circle cx="900.0" cy="525.5" r="3" fill="#ce93d8" opacity="0.7"/>
<text x="905.0" y="528.5" fill="#ce93d8" font-size="8" font-family="monospace">FGHGFJGFJGF</text>
<circle cx="338.3" cy="104.3" r="3" fill="#4dd0e1" opacity="0.7"/>
<text x="343.3" y="107.3" fill="#4dd0e1" font-size="8" font-family="monospace">dfhdddddd</text>
<circle cx="507.5" cy="409.0" r="3" fill="#81c784" opacity="0.7"/>
<text x="512.5" y="412.0" fill="#81c784" font-size="8" font-family="monospace">A$C47632887</text>
<circle cx="507.5" cy="409.5" r="3" fill="#81c784" opacity="0.7"/>
<text x="512.5" y="412.5" fill="#81c784" font-size="8" font-family="monospace">A$C47632887</text>
<circle cx="494.6" cy="410.5" r="3" fill="#81c784" opacity="0.7"/>
<text x="499.6" y="413.5" fill="#81c784" font-size="8" font-family="monospace">A$C47632887</text>
<circle cx="493.7" cy="410.4" r="3" fill="#81c784" opacity="0.7"/>
<text x="498.7" y="413.4" fill="#81c784" font-size="8" font-family="monospace">A$C47632887</text>
<circle cx="410.3" cy="470.4" r="3" fill="#4dd0e1" opacity="0.7"/>
<text x="415.3" y="473.4" fill="#4dd0e1" font-size="8" font-family="monospace">fhgfhgf</text>
<circle cx="410.5" cy="470.4" r="3" fill="#4dd0e1" opacity="0.7"/>
<text x="415.5" y="473.4" fill="#4dd0e1" font-size="8" font-family="monospace">fhgfhgf</text>
<circle cx="410.2" cy="470.4" r="3" fill="#4dd0e1" opacity="0.7"/>
<text x="415.2" y="473.4" fill="#4dd0e1" font-size="8" font-family="monospace">fhgfhgf</text>
<circle cx="454.9" cy="338.7" r="3" fill="#ce93d8" opacity="0.7"/>
<text x="459.9" y="341.7" fill="#ce93d8" font-size="8" font-family="monospace">SDGDSGDGFDHG</text>
<circle cx="561.6" cy="300.8" r="3" fill="#ce93d8" opacity="0.7"/>
<text x="566.6" y="303.8" fill="#ce93d8" font-size="8" font-family="monospace">DFGFHGFJGFFF</text>
<circle cx="453.9" cy="390.3" r="3" fill="#ce93d8" opacity="0.7"/>
<text x="458.9" y="393.3" fill="#ce93d8" font-size="8" font-family="monospace">FGHGFJHGJHG</text>
<circle cx="468.9" cy="366.6" r="3" fill="#4dd0e1" opacity="0.7"/>
<text x="473.9" y="369.6" fill="#4dd0e1" font-size="8" font-family="monospace">fhfhgjgh</text>
<circle cx="453.9" cy="428.3" r="3" fill="#ce93d8" opacity="0.7"/>
<text x="458.9" y="431.3" fill="#ce93d8" font-size="8" font-family="monospace">FGHGFJHGJHG</text>
<circle cx="496.6" cy="409.6" r="3" fill="#81c784" opacity="0.7"/>
<text x="501.6" y="412.6" fill="#81c784" font-size="8" font-family="monospace">A$C322A32FE</text>
<circle cx="459.3" cy="368.8" r="3" fill="#4fc3f7" opacity="0.7"/>
<text x="464.3" y="371.8" fill="#4fc3f7" font-size="8" font-family="monospace">YLD.Studio-C</text>
<circle cx="547.1" cy="428.3" r="3" fill="#ce93d8" opacity="0.7"/>
<text x="552.1" y="431.3" fill="#ce93d8" font-size="8" font-family="monospace">DFHGFHGFJHGJ</text>
<circle cx="505.0" cy="410.5" r="3" fill="#81c784" opacity="0.7"/>
<text x="510.0" y="413.5" fill="#81c784" font-size="8" font-family="monospace">A$C47632887</text>
<circle cx="898.9" cy="525.8" r="3" fill="#ce93d8" opacity="0.7"/>
<text x="903.9" y="528.8" fill="#ce93d8" font-size="8" font-family="monospace">FGHGFJGFJGF</text>
<circle cx="584.2" cy="84.7" r="3" fill="#4dd0e1" opacity="0.7"/>
<text x="589.2" y="87.7" fill="#4dd0e1" font-size="8" font-family="monospace">dfhfjfgjf</text>
<circle cx="337.2" cy="104.7" r="3" fill="#4dd0e1" opacity="0.7"/>
<text x="342.2" y="107.7" fill="#4dd0e1" font-size="8" font-family="monospace">dfhdddddd</text>
<circle cx="494.1" cy="409.1" r="3" fill="#81c784" opacity="0.7"/>
<text x="499.1" y="412.1" fill="#81c784" font-size="8" font-family="monospace">A$C778C4224</text>
<circle cx="468.9" cy="361.2" r="3" fill="#ff7043" opacity="0.7"/>
<text x="473.9" y="364.2" fill="#ff7043" font-size="8" font-family="monospace">ZHOUXIAN1</text>
<circle cx="505.0" cy="409.6" r="3" fill="#81c784" opacity="0.7"/>
<text x="510.0" y="412.6" fill="#81c784" font-size="8" font-family="monospace">A$C47632887</text>
<circle cx="471.7" cy="366.5" r="3" fill="#4dd0e1" opacity="0.7"/>
<text x="476.7" y="369.5" fill="#4dd0e1" font-size="8" font-family="monospace">fhfhgjgh</text>
<circle cx="502.1" cy="409.0" r="3" fill="#ce93d8" opacity="0.7"/>
<text x="507.1" y="412.0" fill="#ce93d8" font-size="8" font-family="monospace">DSFDSFSFF</text>
<circle cx="505.0" cy="410.2" r="3" fill="#4fc3f7" opacity="0.7"/>
<text x="510.0" y="413.2" fill="#4fc3f7" font-size="8" font-family="monospace">YLD.Studio-C</text>
<circle cx="458.6" cy="390.3" r="3" fill="#ce93d8" opacity="0.7"/>
<text x="463.6" y="393.3" fill="#ce93d8" font-size="8" font-family="monospace">FGHGFJHGJHG</text>
<circle cx="501.7" cy="410.5" r="3" fill="#ffb74d" opacity="0.7"/>
<text x="506.7" y="413.5" fill="#ffb74d" font-size="8" font-family="monospace">wg</text>
<circle cx="499.2" cy="409.5" r="3" fill="#ffb74d" opacity="0.7"/>
<text x="504.2" y="412.5" fill="#ffb74d" font-size="8" font-family="monospace">wg</text>
<circle cx="500.2" cy="409.1" r="3" fill="#ffb74d" opacity="0.7"/>
<text x="505.2" y="412.1" fill="#ffb74d" font-size="8" font-family="monospace">wg</text>
<circle cx="522.5" cy="355.3" r="3" fill="#ce93d8" opacity="0.7"/>
<text x="527.5" y="358.3" fill="#ce93d8" font-size="8" font-family="monospace">DFGFHGFJGFFF</text>
<circle cx="468.8" cy="375.1" r="3" fill="#4dd0e1" opacity="0.7"/>
<text x="473.8" y="378.1" fill="#4dd0e1" font-size="8" font-family="monospace">fhgjhgjgh</text>
<circle cx="499.3" cy="409.2" r="3" fill="#81c784" opacity="0.7"/>
<text x="504.3" y="412.2" fill="#81c784" font-size="8" font-family="monospace">A$C47632887</text>
<circle cx="505.0" cy="409.6" r="3" fill="#81c784" opacity="0.7"/>
<text x="510.0" y="412.6" fill="#81c784" font-size="8" font-family="monospace">A$C47632887</text>
<circle cx="463.5" cy="369.6" r="3" fill="#4fc3f7" opacity="0.7"/>
<text x="468.5" y="372.6" fill="#4fc3f7" font-size="8" font-family="monospace">YLD.Studio-C</text>
<circle cx="499.0" cy="410.3" r="3" fill="#4fc3f7" opacity="0.7"/>
<text x="504.0" y="413.3" fill="#4fc3f7" font-size="8" font-family="monospace">YLD.Studio-C</text>
<circle cx="483.8" cy="392.2" r="3" fill="#4fc3f7" opacity="0.7"/>
<text x="488.8" y="395.2" fill="#4fc3f7" font-size="8" font-family="monospace">YLD.Studio-C</text>
<circle cx="468.9" cy="366.6" r="3" fill="#ce93d8" opacity="0.7"/>
<text x="473.9" y="369.6" fill="#ce93d8" font-size="8" font-family="monospace">DSGDFGFDHGF</text>
<circle cx="549.3" cy="380.5" r="3" fill="#4fc3f7" opacity="0.7"/>
<text x="554.3" y="383.5" fill="#4fc3f7" font-size="8" font-family="monospace">YLD.Studio-C</text>
<circle cx="420.6" cy="419.3" r="3" fill="#4dd0e1" opacity="0.7"/>
<text x="425.6" y="422.3" fill="#4dd0e1" font-size="8" font-family="monospace">fhgjhgjgh</text>
<circle cx="507.3" cy="409.1" r="3" fill="#4fc3f7" opacity="0.7"/>
<text x="512.3" y="412.1" fill="#4fc3f7" font-size="8" font-family="monospace">YLD.Studio-C</text>
<circle cx="550.4" cy="432.1" r="3" fill="#4dd0e1" opacity="0.7"/>
<text x="555.4" y="435.1" fill="#4dd0e1" font-size="8" font-family="monospace">dgfdhgfhgj</text>
<circle cx="468.8" cy="366.5" r="3" fill="#ce93d8" opacity="0.7"/>
<text x="473.8" y="369.5" fill="#ce93d8" font-size="8" font-family="monospace">FHGFJHGJGGGG</text>
<circle cx="467.9" cy="366.7" r="3" fill="#ce93d8" opacity="0.7"/>
<text x="472.9" y="369.7" fill="#ce93d8" font-size="8" font-family="monospace">FHGFJHGJGGGG</text>
<circle cx="560.0" cy="380.0" r="3" fill="#ce93d8" opacity="0.7"/>
<text x="565.0" y="383.0" fill="#ce93d8" font-size="8" font-family="monospace">FHGFJHGJGGGG</text>
<circle cx="540.5" cy="452.8" r="3" fill="#4dd0e1" opacity="0.7"/>
<text x="545.5" y="455.8" fill="#4dd0e1" font-size="8" font-family="monospace">fhfhgjgh</text>
<circle cx="500.9" cy="410.4" r="3" fill="#81c784" opacity="0.7"/>
<text x="505.9" y="413.4" fill="#81c784" font-size="8" font-family="monospace">A$C47632887</text>
<circle cx="448.7" cy="440.6" r="3" fill="#ce93d8" opacity="0.7"/>
<text x="453.7" y="443.6" fill="#ce93d8" font-size="8" font-family="monospace">FHGFJHGJGGGG</text>
<circle cx="664.3" cy="715.1" r="3" fill="#4dd0e1" opacity="0.7"/>
<text x="669.3" y="718.1" fill="#4dd0e1" font-size="8" font-family="monospace">dfhdddddd</text>
</svg>