<?xml version="1.0" encoding="utf-8" ?>
<svg baseProfile="full" height="750px" version="1.1" width="1000px" xmlns="http://www.w3.org/2000/svg" xmlns:ev="http://www.w3.org/2001/xml-events" xmlns:xlink="http://www.w3.org/1999/xlink"><defs /><rect fill="#f8f8f8" height="750" width="1000" x="0" y="0" /><line stroke="#eee" stroke-width="0.2" x1="60.0" x2="60.0" y1="660.0" y2="169.39999999999998" /><line stroke="#eee" stroke-width="0.2" x1="140.0" x2="140.0" y1="660.0" y2="169.39999999999998" /><line stroke="#eee" stroke-width="0.2" x1="220.0" x2="220.0" y1="660.0" y2="169.39999999999998" /><line stroke="#eee" stroke-width="0.2" x1="300.0" x2="300.0" y1="660.0" y2="169.39999999999998" /><line stroke="#eee" stroke-width="0.2" x1="380.0" x2="380.0" y1="660.0" y2="169.39999999999998" /><line stroke="#eee" stroke-width="0.2" x1="460.0" x2="460.0" y1="660.0" y2="169.39999999999998" /><line stroke="#eee" stroke-width="0.2" x1="540.0" x2="540.0" y1="660.0" y2="169.39999999999998" /><line stroke="#eee" stroke-width="0.2" x1="620.0" x2="620.0" y1="660.0" y2="169.39999999999998" /><line stroke="#eee" stroke-width="0.2" x1="700.0" x2="700.0" y1="660.0" y2="169.39999999999998" /><line stroke="#eee" stroke-width="0.2" x1="780.0" x2="780.0" y1="660.0" y2="169.39999999999998" /><line stroke="#eee" stroke-width="0.2" x1="60.0" x2="852.0" y1="660.0" y2="660.0" /><line stroke="#eee" stroke-width="0.2" x1="60.0" x2="852.0" y1="620.0" y2="620.0" /><line stroke="#eee" stroke-width="0.2" x1="60.0" x2="852.0" y1="580.0" y2="580.0" /><line stroke="#eee" stroke-width="0.2" x1="60.0" x2="852.0" y1="540.0" y2="540.0" /><line stroke="#eee" stroke-width="0.2" x1="60.0" x2="852.0" y1="500.0" y2="500.0" /><line stroke="#eee" stroke-width="0.2" x1="60.0" x2="852.0" y1="460.0" y2="460.0" /><line stroke="#eee" stroke-width="0.2" x1="60.0" x2="852.0" y1="420.0" y2="420.0" /><line stroke="#eee" stroke-width="0.2" x1="60.0" x2="852.0" y1="380.0" y2="380.0" /><line stroke="#eee" stroke-width="0.2" x1="60.0" x2="852.0" y1="340.0" y2="340.0" /><line stroke="#eee" stroke-width="0.2" x1="60.0" x2="852.0" y1="300.0" y2="300.0" /><line stroke="#eee" stroke-width="0.2" x1="60.0" x2="852.0" y1="260.0" y2="260.0" /><line stroke="#eee" stroke-width="0.2" x1="60.0" x2="852.0" y1="220.0" y2="220.0" /><line stroke="#eee" stroke-width="0.2" x1="60.0" x2="852.0" y1="180.0" y2="180.0" /><rect fill="#f5e6d0" fill-opacity="0.4" height="200.0" stroke="#ccc" stroke-width="0.5" width="288.0" x="60.0" y="460.0" /><rect fill="#e6f0d0" fill-opacity="0.4" height="120.0" stroke="#ccc" stroke-width="0.5" width="288.0" x="60.0" y="340.0" /><rect fill="#f0d0e6" fill-opacity="0.4" height="72.0" stroke="#ccc" stroke-width="0.5" width="256.0" x="348.0" y="588.0" /><rect fill="#d0e0f0" fill-opacity="0.4" height="200.0" stroke="#ccc" stroke-width="0.5" width="240.0" x="612.0" y="460.0" /><rect fill="#e6d0f0" fill-opacity="0.4" height="80.0" stroke="#ccc" stroke-width="0.5" width="152.0" x="460.0" y="260.0" /><rect fill="#f0e6d0" fill-opacity="0.4" height="80.0" stroke="#ccc" stroke-width="0.5" width="200.0" x="612.0" y="260.0" /><rect fill="#d0f0e6" fill-opacity="0.4" height="90.60000000000001" stroke="#ccc" stroke-width="0.5" width="40.0" x="812.0" y="169.39999999999998" /><rect fill="#f0f0d0" fill-opacity="0.4" height="80.0" stroke="#ccc" stroke-width="0.5" width="40.0" x="812.0" y="260.0" /><rect fill="#d0e0e0" fill-opacity="0.4" height="90.60000000000001" stroke="#ccc" stroke-width="0.5" width="40.0" x="812.0" y="169.39999999999998" /><line stroke="#333" stroke-width="2" x1="60.0" x2="852.0" y1="660.0" y2="660.0" /><line stroke="#333" stroke-width="2" x1="852.0" x2="852.0" y1="660.0" y2="169.39999999999998" /><line stroke="#333" stroke-width="2" x1="852.0" x2="60.0" y1="169.39999999999998" y2="169.39999999999998" /><line stroke="#333" stroke-width="2" x1="60.0" x2="60.0" y1="169.39999999999998" y2="660.0" /><line stroke="#333" stroke-width="2" x1="60.0" x2="348.0" y1="460.0" y2="460.0" /><line stroke="#333" stroke-width="2" x1="348.0" x2="348.0" y1="660.0" y2="460.0" /><line stroke="#333" stroke-width="2" x1="60.0" x2="164.0" y1="340.0" y2="340.0" /><line stroke="#333" stroke-width="2" x1="164.0" x2="164.0" y1="340.0" y2="460.0" /><line stroke="#333" stroke-width="2" x1="164.0" x2="348.0" y1="340.0" y2="340.0" /><line stroke="#333" stroke-width="2" x1="460.0" x2="460.0" y1="588.0" y2="340.0" /><line stroke="#333" stroke-width="2" x1="612.0" x2="612.0" y1="588.0" y2="300.0" /><line stroke="#333" stroke-width="2" x1="348.0" x2="612.0" y1="588.0" y2="588.0" /><line stroke="#333" stroke-width="2" x1="612.0" x2="612.0" y1="660.0" y2="460.0" /><line stroke="#333" stroke-width="2" x1="612.0" x2="852.0" y1="460.0" y2="460.0" /><line stroke="#333" stroke-width="2" x1="348.0" x2="460.0" y1="660.0" y2="660.0" /><line stroke="#333" stroke-width="2" x1="460.0" x2="460.0" y1="660.0" y2="588.0" /><line stroke="#333" stroke-width="2" x1="460.0" x2="612.0" y1="300.0" y2="300.0" /><line stroke="#333" stroke-width="2" x1="460.0" x2="460.0" y1="340.0" y2="300.0" /><line stroke="#333" stroke-width="2" x1="612.0" x2="612.0" y1="340.0" y2="300.0" /><line stroke="#333" stroke-width="2" x1="612.0" x2="812.0" y1="340.0" y2="340.0" /><line stroke="#333" stroke-width="2" x1="812.0" x2="812.0" y1="340.0" y2="260.0" /><line stroke="#333" stroke-width="2" x1="612.0" x2="812.0" y1="260.0" y2="260.0" /><line stroke="#333" stroke-width="2" x1="812.0" x2="852.0" y1="260.0" y2="260.0" /><line stroke="#333" stroke-width="2" x1="852.0" x2="852.0" y1="260.0" y2="169.39999999999998" /><line stroke="#333" stroke-width="2" x1="812.0" x2="852.0" y1="169.39999999999998" y2="169.39999999999998" /><rect fill="#bbb" height="8.0" stroke="#888" stroke-width="1" width="8.0" x="60.0" y="652.0" /><rect fill="#bbb" height="8.0" stroke="#888" stroke-width="1" width="8.0" x="348.0" y="652.0" /><rect fill="#bbb" height="8.0" stroke="#888" stroke-width="1" width="8.0" x="460.0" y="652.0" /><rect fill="#bbb" height="8.0" stroke="#888" stroke-width="1" width="8.0" x="612.0" y="652.0" /><rect fill="#bbb" height="8.0" stroke="#888" stroke-width="1" width="8.0" x="852.0" y="652.0" /><rect fill="#bbb" height="8.0" stroke="#888" stroke-width="1" width="8.0" x="60.0" y="452.0" /><rect fill="#bbb" height="8.0" stroke="#888" stroke-width="1" width="8.0" x="348.0" y="452.0" /><rect fill="#bbb" height="8.0" stroke="#888" stroke-width="1" width="8.0" x="460.0" y="452.0" /><rect fill="#bbb" height="8.0" stroke="#888" stroke-width="1" width="8.0" x="612.0" y="452.0" /><rect fill="#bbb" height="8.0" stroke="#888" stroke-width="1" width="8.0" x="60.0" y="332.0" /><rect fill="#bbb" height="8.0" stroke="#888" stroke-width="1" width="8.0" x="164.0" y="332.0" /><rect fill="#bbb" height="8.0" stroke="#888" stroke-width="1" width="8.0" x="348.0" y="332.0" /><rect fill="#bbb" height="8.0" stroke="#888" stroke-width="1" width="8.0" x="460.0" y="332.0" /><rect fill="#bbb" height="8.0" stroke="#888" stroke-width="1" width="8.0" x="612.0" y="332.0" /><rect fill="#bbb" height="8.0" stroke="#888" stroke-width="1" width="8.0" x="348.0" y="580.0" /><rect fill="#bbb" height="8.0" stroke="#888" stroke-width="1" width="8.0" x="460.0" y="580.0" /><rect fill="#bbb" height="8.0" stroke="#888" stroke-width="1" width="8.0" x="612.0" y="580.0" /><rect fill="#bbb" height="8.0" stroke="#888" stroke-width="1" width="8.0" x="60.0" y="161.39999999999998" /><rect fill="#bbb" height="8.0" stroke="#888" stroke-width="1" width="8.0" x="852.0" y="161.39999999999998" /><rect fill="#bbb" height="8.0" stroke="#888" stroke-width="1" width="8.0" x="812.0" y="332.0" /><rect fill="#bbb" height="8.0" stroke="#888" stroke-width="1" width="8.0" x="812.0" y="252.0" /><rect fill="#bbb" height="8.0" stroke="#888" stroke-width="1" width="8.0" x="852.0" y="252.0" /><line stroke="#00a" stroke-width="2.5" x1="120.0" x2="320.0" y1="660.0" y2="660.0" /><line stroke="#00a" stroke-width="1" x1="120.0" x2="320.0" y1="657.6" y2="657.6" /><line stroke="#00a" stroke-width="1" x1="120.0" x2="320.0" y1="662.4" y2="662.4" /><line stroke="#00a" stroke-width="2.5" x1="60.0" x2="60.0" y1="640.0" y2="480.0" /><line stroke="#00a" stroke-width="1" x1="60.0" x2="60.0" y1="637.6" y2="477.6" /><line stroke="#00a" stroke-width="1" x1="60.0" x2="60.0" y1="642.4" y2="482.4" /><line stroke="#00a" stroke-width="2.5" x1="80.0" x2="140.0" y1="340.0" y2="340.0" /><line stroke="#00a" stroke-width="1" x1="80.0" x2="140.0" y1="337.59999999999997" y2="337.59999999999997" /><line stroke="#00a" stroke-width="1" x1="80.0" x2="140.0" y1="342.4" y2="342.4" /><line stroke="#00a" stroke-width="2.5" x1="640.0" x2="820.0" y1="660.0" y2="660.0" /><line stroke="#00a" stroke-width="1" x1="640.0" x2="820.0" y1="657.6" y2="657.6" /><line stroke="#00a" stroke-width="1" x1="640.0" x2="820.0" y1="662.4" y2="662.4" /><line stroke="#00a" stroke-width="2.5" x1="640.0" x2="780.0" y1="340.0" y2="340.0" /><line stroke="#00a" stroke-width="1" x1="640.0" x2="780.0" y1="337.59999999999997" y2="337.59999999999997" /><line stroke="#00a" stroke-width="1" x1="640.0" x2="780.0" y1="342.4" y2="342.4" /><line stroke="#00a" stroke-width="2.5" x1="460.0" x2="460.0" y1="420.0" y2="360.0" /><line stroke="#00a" stroke-width="1" x1="460.0" x2="460.0" y1="417.6" y2="357.59999999999997" /><line stroke="#00a" stroke-width="1" x1="460.0" x2="460.0" y1="422.4" y2="362.4" /><line stroke="red" stroke-width="2" x1="740.0" x2="760.0" y1="260.0" y2="260.0" /><line stroke="red" stroke-width="2" x1="164.0" x2="164.0" y1="460.0" y2="440.0" /><line stroke="red" stroke-width="2" x1="144.0" x2="144.0" y1="340.0" y2="320.0" /><line stroke="red" stroke-width="2" x1="612.0" x2="612.0" y1="540.0" y2="520.0" /><line stroke="red" stroke-width="2" x1="400.0" x2="400.0" y1="660.0" y2="640.0" /><line stroke="red" stroke-width="2" x1="700.0" x2="720.0" y1="340.0" y2="340.0" /><line stroke="red" stroke-width="2" x1="460.0" x2="460.0" y1="320.0" y2="300.0" /><line stroke="red" stroke-width="2" x1="812.0" x2="812.0" y1="280.0" y2="260.0" /><line stroke="#888" stroke-width="0.6" x1="348.0" x2="396.0" y1="588.0" y2="588.0" /><line stroke="#888" stroke-width="0.6" x1="348.0" x2="396.0" y1="583.4" y2="583.4" /><line stroke="#888" stroke-width="0.6" x1="348.0" x2="396.0" y1="578.8" y2="578.8" /><line stroke="#888" stroke-width="0.6" x1="348.0" x2="396.0" y1="574.2" y2="574.2" /><line stroke="#888" stroke-width="0.6" x1="348.0" x2="396.0" y1="569.6" y2="569.6" /><line stroke="#888" stroke-width="0.6" x1="348.0" x2="396.0" y1="565.0" y2="565.0" /><line stroke="#888" stroke-width="0.6" x1="348.0" x2="396.0" y1="560.4" y2="560.4" /><line stroke="#888" stroke-width="0.6" x1="348.0" x2="396.0" y1="555.8" y2="555.8" /><line stroke="#888" stroke-width="0.6" x1="348.0" x2="396.0" y1="551.2" y2="551.2" /><line stroke="#888" stroke-width="0.6" x1="348.0" x2="396.0" y1="546.6" y2="546.6" /><line stroke="#888" stroke-width="0.6" x1="348.0" x2="396.0" y1="542.0" y2="542.0" /><line stroke="#888" stroke-width="0.6" x1="348.0" x2="396.0" y1="537.4" y2="537.4" /><line stroke="#888" stroke-width="0.6" x1="348.0" x2="396.0" y1="532.8" y2="532.8" /><line stroke="#888" stroke-width="0.6" x1="348.0" x2="396.0" y1="528.2" y2="528.2" /><line stroke="#888" stroke-width="0.6" x1="348.0" x2="396.0" y1="523.6" y2="523.6" /><line stroke="#888" stroke-width="0.6" x1="348.0" x2="396.0" y1="519.0" y2="519.0" /><line stroke="#888" stroke-width="0.6" x1="348.0" x2="396.0" y1="514.4" y2="514.4" /><line stroke="#888" stroke-width="0.6" x1="348.0" x2="396.0" y1="509.79999999999995" y2="509.79999999999995" /><line stroke="#888" stroke-width="0.6" x1="348.0" x2="396.0" y1="505.2" y2="505.2" /><line stroke="#888" stroke-width="0.6" x1="348.0" x2="396.0" y1="500.6" y2="500.6" /><line stroke="#888" stroke-width="1.5" x1="392.0" x2="392.0" y1="588.0" y2="500.0" /><line stroke="#888" stroke-width="1.5" x1="396.0" x2="444.0" y1="500.0" y2="500.0" /><line stroke="red" stroke-dasharray="8,4" stroke-width="0.5" x1="60.0" x2="60.0" y1="664.0" y2="165.39999999999998" /><circle cx="60.0" cy="664.8" fill="white" r="10" stroke="red" stroke-width="1" /><text fill="red" font-size="8" text-anchor="middle" x="55.0" y="664.92">N</text><line stroke="red" stroke-dasharray="8,4" stroke-width="0.5" x1="164.0" x2="164.0" y1="664.0" y2="165.39999999999998" /><circle cx="164.0" cy="664.8" fill="white" r="10" stroke="red" stroke-width="1" /><text fill="red" font-size="8" text-anchor="middle" x="159.0" y="664.92">M</text><line stroke="red" stroke-dasharray="8,4" stroke-width="0.5" x1="172.0" x2="172.0" y1="664.0" y2="165.39999999999998" /><circle cx="172.0" cy="664.8" fill="white" r="10" stroke="red" stroke-width="1" /><text fill="red" font-size="8" text-anchor="middle" x="167.0" y="664.92">L</text><line stroke="red" stroke-dasharray="8,4" stroke-width="0.5" x1="460.0" x2="460.0" y1="664.0" y2="165.39999999999998" /><circle cx="460.0" cy="664.8" fill="white" r="10" stroke="red" stroke-width="1" /><text fill="red" font-size="8" text-anchor="middle" x="455.0" y="664.92">J</text><line stroke="red" stroke-dasharray="8,4" stroke-width="0.5" x1="612.0" x2="612.0" y1="664.0" y2="165.39999999999998" /><circle cx="612.0" cy="664.8" fill="white" r="10" stroke="red" stroke-width="1" /><text fill="red" font-size="8" text-anchor="middle" x="607.0" y="664.92">H</text><line stroke="red" stroke-dasharray="8,4" stroke-width="0.5" x1="692.0" x2="692.0" y1="664.0" y2="165.39999999999998" /><circle cx="692.0" cy="664.8" fill="white" r="10" stroke="red" stroke-width="1" /><text fill="red" font-size="8" text-anchor="middle" x="687.0" y="664.92">G</text><line stroke="red" stroke-dasharray="8,4" stroke-width="0.5" x1="752.0" x2="752.0" y1="664.0" y2="165.39999999999998" /><circle cx="752.0" cy="664.8" fill="white" r="10" stroke="red" stroke-width="1" /><text fill="red" font-size="8" text-anchor="middle" x="747.0" y="664.92">F</text><line stroke="red" stroke-dasharray="8,4" stroke-width="0.5" x1="812.0" x2="812.0" y1="664.0" y2="165.39999999999998" /><circle cx="812.0" cy="664.8" fill="white" r="10" stroke="red" stroke-width="1" /><text fill="red" font-size="8" text-anchor="middle" x="807.0" y="664.92">D</text><line stroke="red" stroke-dasharray="8,4" stroke-width="0.5" x1="832.0" x2="832.0" y1="664.0" y2="165.39999999999998" /><circle cx="832.0" cy="664.8" fill="white" r="10" stroke="red" stroke-width="1" /><text fill="red" font-size="8" text-anchor="middle" x="827.0" y="664.92">C</text><line stroke="red" stroke-dasharray="8,4" stroke-width="0.5" x1="840.0" x2="840.0" y1="664.0" y2="165.39999999999998" /><circle cx="840.0" cy="664.8" fill="white" r="10" stroke="red" stroke-width="1" /><text fill="red" font-size="8" text-anchor="middle" x="835.0" y="664.92">B</text><line stroke="red" stroke-dasharray="8,4" stroke-width="0.5" x1="852.0" x2="852.0" y1="664.0" y2="165.39999999999998" /><circle cx="852.0" cy="664.8" fill="white" r="10" stroke="red" stroke-width="1" /><text fill="red" font-size="8" text-anchor="middle" x="847.0" y="664.92">A</text><line stroke="red" stroke-dasharray="8,4" stroke-width="0.5" x1="56.0" x2="856.0" y1="660.0" y2="660.0" /><circle cx="55.2" cy="660.0" fill="white" r="10" stroke="red" stroke-width="1" /><text fill="red" font-size="8" text-anchor="end" x="54.6" y="660.12">1</text><line stroke="red" stroke-dasharray="8,4" stroke-width="0.5" x1="56.0" x2="856.0" y1="616.0" y2="616.0" /><circle cx="55.2" cy="616.0" fill="white" r="10" stroke="red" stroke-width="1" /><text fill="red" font-size="8" text-anchor="end" x="54.6" y="616.12">2</text><line stroke="red" stroke-dasharray="8,4" stroke-width="0.5" x1="56.0" x2="856.0" y1="588.0" y2="588.0" /><circle cx="55.2" cy="588.0" fill="white" r="10" stroke="red" stroke-width="1" /><text fill="red" font-size="8" text-anchor="end" x="54.6" y="588.12">3</text><line stroke="red" stroke-dasharray="8,4" stroke-width="0.5" x1="56.0" x2="856.0" y1="580.0" y2="580.0" /><circle cx="55.2" cy="580.0" fill="white" r="10" stroke="red" stroke-width="1" /><text fill="red" font-size="8" text-anchor="end" x="54.6" y="580.12">4</text><line stroke="red" stroke-dasharray="8,4" stroke-width="0.5" x1="56.0" x2="856.0" y1="460.0" y2="460.0" /><circle cx="55.2" cy="460.0" fill="white" r="10" stroke="red" stroke-width="1" /><text fill="red" font-size="8" text-anchor="end" x="54.6" y="460.12">5</text><line stroke="red" stroke-dasharray="8,4" stroke-width="0.5" x1="56.0" x2="856.0" y1="420.0" y2="420.0" /><circle cx="55.2" cy="420.0" fill="white" r="10" stroke="red" stroke-width="1" /><text fill="red" font-size="8" text-anchor="end" x="54.6" y="420.12">6</text><line stroke="red" stroke-dasharray="8,4" stroke-width="0.5" x1="56.0" x2="856.0" y1="340.0" y2="340.0" /><circle cx="55.2" cy="340.0" fill="white" r="10" stroke="red" stroke-width="1" /><text fill="red" font-size="8" text-anchor="end" x="54.6" y="340.12">7</text><line stroke="red" stroke-dasharray="8,4" stroke-width="0.5" x1="56.0" x2="856.0" y1="300.0" y2="300.0" /><circle cx="55.2" cy="300.0" fill="white" r="10" stroke="red" stroke-width="1" /><text fill="red" font-size="8" text-anchor="end" x="54.6" y="300.12">8</text><line stroke="red" stroke-dasharray="8,4" stroke-width="0.5" x1="56.0" x2="856.0" y1="260.0" y2="260.0" /><circle cx="55.2" cy="260.0" fill="white" r="10" stroke="red" stroke-width="1" /><text fill="red" font-size="8" text-anchor="end" x="54.6" y="260.12">9</text><line stroke="red" stroke-dasharray="8,4" stroke-width="0.5" x1="56.0" x2="856.0" y1="240.0" y2="240.0" /><circle cx="55.2" cy="240.0" fill="white" r="10" stroke="red" stroke-width="1" /><text fill="red" font-size="8" text-anchor="end" x="54.6" y="240.12">10</text><line stroke="red" stroke-dasharray="8,4" stroke-width="0.5" x1="56.0" x2="856.0" y1="220.0" y2="220.0" /><circle cx="55.2" cy="220.0" fill="white" r="10" stroke="red" stroke-width="1" /><text fill="red" font-size="8" text-anchor="end" x="54.6" y="220.12">11</text><line stroke="red" stroke-dasharray="8,4" stroke-width="0.5" x1="56.0" x2="856.0" y1="200.0" y2="200.0" /><circle cx="55.2" cy="200.0" fill="white" r="10" stroke="red" stroke-width="1" /><text fill="red" font-size="8" text-anchor="end" x="54.6" y="200.12">12</text><line stroke="red" stroke-dasharray="8,4" stroke-width="0.5" x1="56.0" x2="856.0" y1="169.39999999999998" y2="169.39999999999998" /><circle cx="55.2" cy="169.39999999999998" fill="white" r="10" stroke="red" stroke-width="1" /><text fill="red" font-size="8" text-anchor="end" x="54.6" y="169.51999999999998">13</text><line stroke="green" stroke-width="1" x1="60.0" x2="852.0" y1="662.4" y2="662.4" /><text fill="green" font-size="10" text-anchor="middle" x="456.0" y="662.8">19800</text><line stroke="green" stroke-width="1" x1="57.6" x2="57.6" y1="660.0" y2="169.39999999999998" /><text fill="green" font-size="10" text-anchor="end" x="57.4" y="414.72">12265</text><text fill="#444" font-size="14" font-weight="bold" text-anchor="middle" x="204.0" y="560.0">客厅</text><text fill="#444" font-size="12" font-weight="bold" text-anchor="middle" x="112.0" y="400.0">书房</text><text fill="#444" font-size="12" font-weight="bold" text-anchor="middle" x="520.0" y="320.0">餐厅</text><text fill="#444" font-size="12" font-weight="bold" text-anchor="middle" x="700.0" y="308.0">厨房</text><text fill="#444" font-size="12" font-weight="bold" text-anchor="middle" x="660.0" y="560.0">卧室</text><text fill="#444" font-size="11" font-weight="bold" text-anchor="middle" x="500.0" y="548.0">楼梯间</text><text fill="#444" font-size="11" font-weight="bold" text-anchor="middle" x="400.0" y="628.0">卫生间</text><text fill="#444" font-size="10" font-weight="bold" text-anchor="middle" x="660.0" y="220.0">玄关</text><text fill="#444" font-size="12" font-weight="bold" text-anchor="middle" x="844.0" y="212.0">车库</text><text fill="#444" font-size="10" font-weight="bold" text-anchor="middle" x="72.0" y="648.0">阳台</text><rect fill="#cce" height="72.0" stroke="#48a" stroke-width="1.5" width="180.0" x="820.0" y="168.0" /><circle cx="852.0" cy="168.0" fill="#333" r="8.0" /><circle cx="976.0" cy="168.0" fill="#333" r="8.0" /><text fill="#c0c" font-size="8" text-anchor="middle" x="140.0" y="600.0">L型沙发</text><text fill="#c0c" font-size="8" text-anchor="middle" x="284.0" y="612.0">电视柜</text><text fill="#c0c" font-size="8" text-anchor="middle" x="520.0" y="304.0">餐桌</text><text fill="#c0c" font-size="8" text-anchor="middle" x="740.0" y="320.0">操作台</text><text fill="#c0c" font-size="8" text-anchor="middle" x="660.0" y="508.0">衣柜</text><text fill="#c0c" font-size="8" text-anchor="middle" x="660.0" y="600.0">双人床</text><rect fill="#333" height="10" width="12" x="60" y="730" /><text font-size="7" x="75" y="739">墙体</text><rect fill="#00a" height="10" width="12" x="180" y="730" /><text font-size="7" x="195" y="739">窗</text><rect fill="red" height="10" width="12" x="300" y="730" /><text font-size="7" x="315" y="739">门</text><rect fill="red" height="10" width="12" x="420" y="730" /><text font-size="7" x="435" y="739">轴线(虚线)</text><rect fill="green" height="10" width="12" x="540" y="730" /><text font-size="7" x="555" y="739">尺寸</text><rect fill="#c0c" height="10" width="12" x="660" y="730" /><text font-size="7" x="675" y="739">家具</text><text font-size="13" font-weight="bold" text-anchor="middle" x="500" y="25">住宅一层平面图 · 重建版 | 含车库+完整家具 | 19800×12265</text></svg>