0
SECTION
2
HEADER
0
ENDSEC
0
SECTION
2
TABLES
0
TABLE
2
LAYER
70
12
0
LAYER
2
A-WALL
70
0
62
7
6
CONTINUOUS
370
30
0
LAYER
2
A-COLS
70
0
62
8
6
CONTINUOUS
370
13
0
LAYER
2
A-DOOR
70
0
62
1
6
CONTINUOUS
370
18
0
LAYER
2
A-WINDW
70
0
62
4
6
CONTINUOUS
370
13
0
LAYER
2
A-WALL-H
70
0
62
8
6
CONTINUOUS
370
9
0
LAYER
2
A-AXIS
70
0
62
1
6
CENTER
370
9
0
LAYER
2
A-DIM
70
0
62
3
6
CONTINUOUS
370
13
0
LAYER
2
A-TEXT
70
0
62
7
6
CONTINUOUS
370
13
0
LAYER
2
A-FURN
70
0
62
6
6
CONTINUOUS
370
13
0
LAYER
2
A-STAI
70
0
62
6
6
CONTINUOUS
370
18
0
LAYER
2
A-VEHI
70
0
62
4
6
CONTINUOUS
370
13
0
LAYER
2
A-BALC
70
0
62
5
6
CONTINUOUS
370
13
0
ENDTAB
0
ENDSEC
0
SECTION
2
ENTITIES
0
LINE
8
A-WALL
10
0
20
0
11
19800
21
0
0
LINE
8
A-WALL
10
19800
20
0
11
19800
21
12265
0
LINE
8
A-WALL
10
19800
20
12265
11
0
21
12265
0
LINE
8
A-WALL
10
0
20
12265
11
0
21
0
0
LINE
8
A-WALL
10
0
20
5000
11
7200
21
5000
0
LINE
8
A-WALL
10
7200
20
0
11
7200
21
5000
0
LINE
8
A-WALL
10
0
20
8000
11
2600
21
8000
0
LINE
8
A-WALL
10
2600
20
8000
11
2600
21
5000
0
LINE
8
A-WALL
10
2600
20
8000
11
7200
21
8000
0
LINE
8
A-WALL
10
10000
20
1800
11
10000
21
8000
0
LINE
8
A-WALL
10
13800
20
1800
11
13800
21
9000
0
LINE
8
A-WALL
10
7200
20
1800
11
13800
21
1800
0
LINE
8
A-WALL
10
13800
20
0
11
13800
21
5000
0
LINE
8
A-WALL
10
13800
20
5000
11
19800
21
5000
0
LINE
8
A-WALL
10
7200
20
0
11
10000
21
0
0
LINE
8
A-WALL
10
10000
20
0
11
10000
21
1800
0
LINE
8
A-WALL
10
10000
20
9000
11
13800
21
9000
0
LINE
8
A-WALL
10
10000
20
8000
11
10000
21
9000
0
LINE
8
A-WALL
10
13800
20
8000
11
13800
21
9000
0
LINE
8
A-WALL
10
13800
20
8000
11
18800
21
8000
0
LINE
8
A-WALL
10
18800
20
8000
11
18800
21
10000
0
LINE
8
A-WALL
10
13800
20
10000
11
18800
21
10000
0
LINE
8
A-WALL
10
18800
20
10000
11
19800
21
10000
0
LINE
8
A-WALL
10
19800
20
10000
11
19800
21
12265
0
LINE
8
A-WALL
10
18800
20
12265
11
19800
21
12265
0
LINE
8
A-COLS
10
0
20
0
11
200
21
0
0
LINE
8
A-COLS
10
200
20
0
11
200
21
200
0
LINE
8
A-COLS
10
200
20
200
11
0
21
200
0
LINE
8
A-COLS
10
0
20
200
11
0
21
0
0
LINE
8
A-COLS
10
7200
20
0
11
7400
21
0
0
LINE
8
A-COLS
10
7400
20
0
11
7400
21
200
0
LINE
8
A-COLS
10
7400
20
200
11
7200
21
200
0
LINE
8
A-COLS
10
7200
20
200
11
7200
21
0
0
LINE
8
A-COLS
10
10000
20
0
11
10200
21
0
0
LINE
8
A-COLS
10
10200
20
0
11
10200
21
200
0
LINE
8
A-COLS
10
10200
20
200
11
10000
21
200
0
LINE
8
A-COLS
10
10000
20
200
11
10000
21
0
0
LINE
8
A-COLS
10
13800
20
0
11
14000
21
0
0
LINE
8
A-COLS
10
14000
20
0
11
14000
21
200
0
LINE
8
A-COLS
10
14000
20
200
11
13800
21
200
0
LINE
8
A-COLS
10
13800
20
200
11
13800
21
0
0
LINE
8
A-COLS
10
19800
20
0
11
20000
21
0
0
LINE
8
A-COLS
10
20000
20
0
11
20000
21
200
0
LINE
8
A-COLS
10
20000
20
200
11
19800
21
200
0
LINE
8
A-COLS
10
19800
20
200
11
19800
21
0
0
LINE
8
A-COLS
10
0
20
5000
11
200
21
5000
0
LINE
8
A-COLS
10
200
20
5000
11
200
21
5200
0
LINE
8
A-COLS
10
200
20
5200
11
0
21
5200
0
LINE
8
A-COLS
10
0
20
5200
11
0
21
5000
0
LINE
8
A-COLS
10
7200
20
5000
11
7400
21
5000
0
LINE
8
A-COLS
10
7400
20
5000
11
7400
21
5200
0
LINE
8
A-COLS
10
7400
20
5200
11
7200
21
5200
0
LINE
8
A-COLS
10
7200
20
5200
11
7200
21
5000
0
LINE
8
A-COLS
10
10000
20
5000
11
10200
21
5000
0
LINE
8
A-COLS
10
10200
20
5000
11
10200
21
5200
0
LINE
8
A-COLS
10
10200
20
5200
11
10000
21
5200
0
LINE
8
A-COLS
10
10000
20
5200
11
10000
21
5000
0
LINE
8
A-COLS
10
13800
20
5000
11
14000
21
5000
0
LINE
8
A-COLS
10
14000
20
5000
11
14000
21
5200
0
LINE
8
A-COLS
10
14000
20
5200
11
13800
21
5200
0
LINE
8
A-COLS
10
13800
20
5200
11
13800
21
5000
0
LINE
8
A-COLS
10
0
20
8000
11
200
21
8000
0
LINE
8
A-COLS
10
200
20
8000
11
200
21
8200
0
LINE
8
A-COLS
10
200
20
8200
11
0
21
8200
0
LINE
8
A-COLS
10
0
20
8200
11
0
21
8000
0
LINE
8
A-COLS
10
2600
20
8000
11
2800
21
8000
0
LINE
8
A-COLS
10
2800
20
8000
11
2800
21
8200
0
LINE
8
A-COLS
10
2800
20
8200
11
2600
21
8200
0
LINE
8
A-COLS
10
2600
20
8200
11
2600
21
8000
0
LINE
8
A-COLS
10
7200
20
8000
11
7400
21
8000
0
LINE
8
A-COLS
10
7400
20
8000
11
7400
21
8200
0
LINE
8
A-COLS
10
7400
20
8200
11
7200
21
8200
0
LINE
8
A-COLS
10
7200
20
8200
11
7200
21
8000
0
LINE
8
A-COLS
10
10000
20
8000
11
10200
21
8000
0
LINE
8
A-COLS
10
10200
20
8000
11
10200
21
8200
0
LINE
8
A-COLS
10
10200
20
8200
11
10000
21
8200
0
LINE
8
A-COLS
10
10000
20
8200
11
10000
21
8000
0
LINE
8
A-COLS
10
13800
20
8000
11
14000
21
8000
0
LINE
8
A-COLS
10
14000
20
8000
11
14000
21
8200
0
LINE
8
A-COLS
10
14000
20
8200
11
13800
21
8200
0
LINE
8
A-COLS
10
13800
20
8200
11
13800
21
8000
0
LINE
8
A-COLS
10
7200
20
1800
11
7400
21
1800
0
LINE
8
A-COLS
10
7400
20
1800
11
7400
21
2000
0
LINE
8
A-COLS
10
7400
20
2000
11
7200
21
2000
0
LINE
8
A-COLS
10
7200
20
2000
11
7200
21
1800
0
LINE
8
A-COLS
10
10000
20
1800
11
10200
21
1800
0
LINE
8
A-COLS
10
10200
20
1800
11
10200
21
2000
0
LINE
8
A-COLS
10
10200
20
2000
11
10000
21
2000
0
LINE
8
A-COLS
10
10000
20
2000
11
10000
21
1800
0
LINE
8
A-COLS
10
13800
20
1800
11
14000
21
1800
0
LINE
8
A-COLS
10
14000
20
1800
11
14000
21
2000
0
LINE
8
A-COLS
10
14000
20
2000
11
13800
21
2000
0
LINE
8
A-COLS
10
13800
20
2000
11
13800
21
1800
0
LINE
8
A-COLS
10
0
20
12265
11
200
21
12265
0
LINE
8
A-COLS
10
200
20
12265
11
200
21
12465
0
LINE
8
A-COLS
10
200
20
12465
11
0
21
12465
0
LINE
8
A-COLS
10
0
20
12465
11
0
21
12265
0
LINE
8
A-COLS
10
19800
20
12265
11
20000
21
12265
0
LINE
8
A-COLS
10
20000
20
12265
11
20000
21
12465
0
LINE
8
A-COLS
10
20000
20
12465
11
19800
21
12465
0
LINE
8
A-COLS
10
19800
20
12465
11
19800
21
12265
0
LINE
8
A-COLS
10
18800
20
8000
11
19000
21
8000
0
LINE
8
A-COLS
10
19000
20
8000
11
19000
21
8200
0
LINE
8
A-COLS
10
19000
20
8200
11
18800
21
8200
0
LINE
8
A-COLS
10
18800
20
8200
11
18800
21
8000
0
LINE
8
A-COLS
10
18800
20
10000
11
19000
21
10000
0
LINE
8
A-COLS
10
19000
20
10000
11
19000
21
10200
0
LINE
8
A-COLS
10
19000
20
10200
11
18800
21
10200
0
LINE
8
A-COLS
10
18800
20
10200
11
18800
21
10000
0
LINE
8
A-COLS
10
19800
20
10000
11
20000
21
10000
0
LINE
8
A-COLS
10
20000
20
10000
11
20000
21
10200
0
LINE
8
A-COLS
10
20000
20
10200
11
19800
21
10200
0
LINE
8
A-COLS
10
19800
20
10200
11
19800
21
10000
0
LINE
8
A-WINDW
10
1500
20
0
11
6500
21
0
0
LINE
8
A-WINDW
10
0
20
500
11
0
21
4500
0
LINE
8
A-WINDW
10
500
20
8000
11
2000
21
8000
0
LINE
8
A-WINDW
10
14500
20
0
11
19000
21
0
0
LINE
8
A-WINDW
10
14500
20
8000
11
18000
21
8000
0
LINE
8
A-WINDW
10
10000
20
6000
11
10000
21
7500
0
LINE
8
A-DOOR
10
17000
20
10000
11
17500
21
10000
0
LINE
8
A-DOOR
10
2600
20
5000
11
2600
21
5500
0
LINE
8
A-DOOR
10
2100
20
8000
11
2100
21
8500
0
LINE
8
A-DOOR
10
13800
20
3000
11
13800
21
3500
0
LINE
8
A-DOOR
10
8500
20
0
11
8500
21
500
0
LINE
8
A-DOOR
10
16000
20
8000
11
16500
21
8000
0
LINE
8
A-DOOR
10
10000
20
8500
11
10000
21
9000
0
LINE
8
A-DOOR
10
18800
20
9500
11
18800
21
10000
0
LINE
8
A-STAI
10
7200
20
1800
11
8400
21
1800
0
LINE
8
A-STAI
10
7200
20
1915
11
8400
21
1915
0
LINE
8
A-STAI
10
7200
20
2030
11
8400
21
2030
0
LINE
8
A-STAI
10
7200
20
2145
11
8400
21
2145
0
LINE
8
A-STAI
10
7200
20
2260
11
8400
21
2260
0
LINE
8
A-STAI
10
7200
20
2375
11
8400
21
2375
0
LINE
8
A-STAI
10
7200
20
2490
11
8400
21
2490
0
LINE
8
A-STAI
10
7200
20
2605
11
8400
21
2605
0
LINE
8
A-STAI
10
7200
20
2720
11
8400
21
2720
0
LINE
8
A-STAI
10
7200
20
2835
11
8400
21
2835
0
LINE
8
A-STAI
10
7200
20
2950
11
8400
21
2950
0
LINE
8
A-STAI
10
7200
20
3065
11
8400
21
3065
0
LINE
8
A-STAI
10
7200
20
3180
11
8400
21
3180
0
LINE
8
A-STAI
10
7200
20
3295
11
8400
21
3295
0
LINE
8
A-STAI
10
7200
20
3410
11
8400
21
3410
0
LINE
8
A-STAI
10
7200
20
3525
11
8400
21
3525
0
LINE
8
A-STAI
10
7200
20
3640
11
8400
21
3640
0
LINE
8
A-STAI
10
7200
20
3755
11
8400
21
3755
0
LINE
8
A-STAI
10
7200
20
3870
11
8400
21
3870
0
LINE
8
A-STAI
10
7200
20
3985
11
8400
21
3985
0
LINE
8
A-STAI
10
8300
20
1800
11
8300
21
4000
0
LINE
8
A-STAI
10
8400
20
4000
11
9600
21
4000
0
LINE
8
A-STAI
10
8400
20
4000
11
8400
21
5200
0
LINE
8
A-STAI
10
8463
20
4000
11
8463
21
5200
0
LINE
8
A-STAI
10
8526
20
4000
11
8526
21
5200
0
LINE
8
A-STAI
10
8589
20
4000
11
8589
21
5200
0
LINE
8
A-STAI
10
8652
20
4000
11
8652
21
5200
0
LINE
8
A-STAI
10
8715
20
4000
11
8715
21
5200
0
LINE
8
A-STAI
10
8778
20
4000
11
8778
21
5200
0
LINE
8
A-STAI
10
8841
20
4000
11
8841
21
5200
0
LINE
8
A-STAI
10
8904
20
4000
11
8904
21
5200
0
LINE
8
A-STAI
10
8967
20
4000
11
8967
21
5200
0
LINE
8
A-STAI
10
9030
20
4000
11
9030
21
5200
0
LINE
8
A-STAI
10
9093
20
4000
11
9093
21
5200
0
LINE
8
A-STAI
10
9156
20
4000
11
9156
21
5200
0
LINE
8
A-STAI
10
9219
20
4000
11
9219
21
5200
0
LINE
8
A-STAI
10
9282
20
4000
11
9282
21
5200
0
LINE
8
A-STAI
10
9345
20
4000
11
9345
21
5200
0
LINE
8
A-STAI
10
9408
20
4000
11
9408
21
5200
0
LINE
8
A-STAI
10
9471
20
4000
11
9471
21
5200
0
LINE
8
A-STAI
10
9534
20
4000
11
9534
21
5200
0
LINE
8
A-STAI
10
9597
20
4000
11
9597
21
5200
0
LINE
8
A-STAI
10
7200
20
2900
11
8400
21
2900
0
LINE
8
A-FURN
10
500
20
500
11
3500
21
500
0
LINE
8
A-FURN
10
3500
20
500
11
3500
21
1500
0
LINE
8
A-FURN
10
3500
20
1500
11
500
21
1500
0
LINE
8
A-FURN
10
500
20
1500
11
500
21
2500
0
LINE
8
A-FURN
10
500
20
2500
11
2000
21
2500
0
LINE
8
A-FURN
10
1700
20
1300
11
2300
21
1300
0
LINE
8
A-FURN
10
2300
20
1300
11
2300
21
1700
0
LINE
8
A-FURN
10
2300
20
1700
11
1700
21
1700
0
LINE
8
A-FURN
10
1700
20
1700
11
1700
21
1300
0
LINE
8
A-FURN
10
3700
20
800
11
5700
21
800
0
LINE
8
A-FURN
10
5700
20
800
11
5700
21
1200
0
LINE
8
A-FURN
10
5700
20
1200
11
3700
21
1200
0
LINE
8
A-FURN
10
10500
20
8200
11
12700
21
8200
0
LINE
8
A-FURN
10
12700
20
8200
11
12700
21
9400
0
LINE
8
A-FURN
10
12700
20
9400
11
10500
21
9400
0
LINE
8
A-FURN
10
10500
20
9400
11
10500
21
8200
0
CIRCLE
8
A-FURN
10
10866
20
9550
40
100
0
CIRCLE
8
A-FURN
10
11232
20
9550
40
100
0
CIRCLE
8
A-FURN
10
11598
20
9550
40
100
0
CIRCLE
8
A-FURN
10
11964
20
9550
40
100
0
CIRCLE
8
A-FURN
10
12330
20
9550
40
100
0
CIRCLE
8
A-FURN
10
12696
20
9550
40
100
0
LINE
8
A-FURN
10
14000
20
8200
11
18500
21
8200
0
LINE
8
A-FURN
10
18500
20
8200
11
18500
21
9700
0
LINE
8
A-FURN
10
18500
20
9700
11
14000
21
9700
0
LINE
8
A-FURN
10
14000
20
9700
11
14000
21
8200
0
LINE
8
A-FURN
10
14500
20
500
11
16300
21
500
0
LINE
8
A-FURN
10
16300
20
500
11
16300
21
2700
0
LINE
8
A-FURN
10
16300
20
2700
11
14500
21
2700
0
LINE
8
A-FURN
10
14500
20
2700
11
14500
21
500
0
LINE
8
A-FURN
10
14100
20
700
11
14500
21
700
0
LINE
8
A-FURN
10
14500
20
700
11
14500
21
1100
0
LINE
8
A-FURN
10
14500
20
1100
11
14100
21
1100
0
LINE
8
A-FURN
10
14100
20
1100
11
14100
21
700
0
LINE
8
A-FURN
10
15000
20
4700
11
18000
21
4700
0
LINE
8
A-FURN
10
18000
20
4700
11
18000
21
5000
0
LINE
8
A-FURN
10
18000
20
5000
11
15000
21
5000
0
LINE
8
A-FURN
10
500
20
6000
11
2000
21
6000
0
LINE
8
A-FURN
10
2000
20
6000
11
2000
21
6800
0
LINE
8
A-FURN
10
2000
20
6800
11
500
21
6800
0
LINE
8
A-FURN
10
500
20
6800
11
500
21
6000
0
LINE
8
A-VEHI
10
19000
20
10500
11
23500
21
10500
0
LINE
8
A-VEHI
10
23500
20
10500
11
23500
21
12300
0
LINE
8
A-VEHI
10
23500
20
12300
11
19000
21
12300
0
LINE
8
A-VEHI
10
19000
20
12300
11
19000
21
10500
0
LINE
8
A-VEHI
10
23500
20
10800
11
23700
21
11200
0
LINE
8
A-VEHI
10
23700
20
11200
11
23500
21
12000
0
CIRCLE
8
A-VEHI
10
19800
20
12300
40
250
0
CIRCLE
8
A-VEHI
10
22900
20
12300
40
250
0
LINE
8
A-VEHI
10
23200
20
10700
11
23000
21
12100
0
LINE
8
A-AXIS
10
0
20
-300
11
0
21
12565
0
CIRCLE
8
A-AXIS
10
0
20
-400
40
250
0
TEXT
8
A-TEXT
10
-70
20
-420
40
200
1
N
0
LINE
8
A-AXIS
10
2600
20
-300
11
2600
21
12565
0
CIRCLE
8
A-AXIS
10
2600
20
-400
40
250
0
TEXT
8
A-TEXT
10
2530
20
-420
40
200
1
M
0
LINE
8
A-AXIS
10
2800
20
-300
11
2800
21
12565
0
CIRCLE
8
A-AXIS
10
2800
20
-400
40
250
0
TEXT
8
A-TEXT
10
2730
20
-420
40
200
1
L
0
LINE
8
A-AXIS
10
10000
20
-300
11
10000
21
12565
0
CIRCLE
8
A-AXIS
10
10000
20
-400
40
250
0
TEXT
8
A-TEXT
10
9930
20
-420
40
200
1
J
0
LINE
8
A-AXIS
10
13800
20
-300
11
13800
21
12565
0
CIRCLE
8
A-AXIS
10
13800
20
-400
40
250
0
TEXT
8
A-TEXT
10
13730
20
-420
40
200
1
H
0
LINE
8
A-AXIS
10
15800
20
-300
11
15800
21
12565
0
CIRCLE
8
A-AXIS
10
15800
20
-400
40
250
0
TEXT
8
A-TEXT
10
15730
20
-420
40
200
1
G
0
LINE
8
A-AXIS
10
17300
20
-300
11
17300
21
12565
0
CIRCLE
8
A-AXIS
10
17300
20
-400
40
250
0
TEXT
8
A-TEXT
10
17230
20
-420
40
200
1
F
0
LINE
8
A-AXIS
10
18800
20
-300
11
18800
21
12565
0
CIRCLE
8
A-AXIS
10
18800
20
-400
40
250
0
TEXT
8
A-TEXT
10
18730
20
-420
40
200
1
D
0
LINE
8
A-AXIS
10
19300
20
-300
11
19300
21
12565
0
CIRCLE
8
A-AXIS
10
19300
20
-400
40
250
0
TEXT
8
A-TEXT
10
19230
20
-420
40
200
1
C
0
LINE
8
A-AXIS
10
19500
20
-300
11
19500
21
12565
0
CIRCLE
8
A-AXIS
10
19500
20
-400
40
250
0
TEXT
8
A-TEXT
10
19430
20
-420
40
200
1
B
0
LINE
8
A-AXIS
10
19800
20
-300
11
19800
21
12565
0
CIRCLE
8
A-AXIS
10
19800
20
-400
40
250
0
TEXT
8
A-TEXT
10
19730
20
-420
40
200
1
A
0
LINE
8
A-AXIS
10
-300
20
0
11
20100
21
0
0
CIRCLE
8
A-AXIS
10
-400
20
0
40
250
0
TEXT
8
A-TEXT
10
-430
20
-70
40
200
1
1
0
LINE
8
A-AXIS
10
-300
20
1100
11
20100
21
1100
0
CIRCLE
8
A-AXIS
10
-400
20
1100
40
250
0
TEXT
8
A-TEXT
10
-430
20
1030
40
200
1
2
0
LINE
8
A-AXIS
10
-300
20
1800
11
20100
21
1800
0
CIRCLE
8
A-AXIS
10
-400
20
1800
40
250
0
TEXT
8
A-TEXT
10
-430
20
1730
40
200
1
3
0
LINE
8
A-AXIS
10
-300
20
2000
11
20100
21
2000
0
CIRCLE
8
A-AXIS
10
-400
20
2000
40
250
0
TEXT
8
A-TEXT
10
-430
20
1930
40
200
1
4
0
LINE
8
A-AXIS
10
-300
20
5000
11
20100
21
5000
0
CIRCLE
8
A-AXIS
10
-400
20
5000
40
250
0
TEXT
8
A-TEXT
10
-430
20
4930
40
200
1
5
0
LINE
8
A-AXIS
10
-300
20
6000
11
20100
21
6000
0
CIRCLE
8
A-AXIS
10
-400
20
6000
40
250
0
TEXT
8
A-TEXT
10
-430
20
5930
40
200
1
6
0
LINE
8
A-AXIS
10
-300
20
8000
11
20100
21
8000
0
CIRCLE
8
A-AXIS
10
-400
20
8000
40
250
0
TEXT
8
A-TEXT
10
-430
20
7930
40
200
1
7
0
LINE
8
A-AXIS
10
-300
20
9000
11
20100
21
9000
0
CIRCLE
8
A-AXIS
10
-400
20
9000
40
250
0
TEXT
8
A-TEXT
10
-430
20
8930
40
200
1
8
0
LINE
8
A-AXIS
10
-300
20
10000
11
20100
21
10000
0
CIRCLE
8
A-AXIS
10
-400
20
10000
40
250
0
TEXT
8
A-TEXT
10
-430
20
9930
40
200
1
9
0
LINE
8
A-AXIS
10
-300
20
10500
11
20100
21
10500
0
CIRCLE
8
A-AXIS
10
-400
20
10500
40
250
0
TEXT
8
A-TEXT
10
-430
20
10430
40
200
1
10
0
LINE
8
A-AXIS
10
-300
20
11000
11
20100
21
11000
0
CIRCLE
8
A-AXIS
10
-400
20
11000
40
250
0
TEXT
8
A-TEXT
10
-430
20
10930
40
200
1
11
0
LINE
8
A-AXIS
10
-300
20
11500
11
20100
21
11500
0
CIRCLE
8
A-AXIS
10
-400
20
11500
40
250
0
TEXT
8
A-TEXT
10
-430
20
11430
40
200
1
12
0
LINE
8
A-AXIS
10
-300
20
12265
11
20100
21
12265
0
CIRCLE
8
A-AXIS
10
-400
20
12265
40
250
0
TEXT
8
A-TEXT
10
-430
20
12195
40
200
1
13
0
LINE
8
A-DIM
10
0
20
-200
11
19800
21
-200
0
LINE
8
A-DIM
10
-200
20
0
11
-200
21
12265
0
LINE
8
A-DIM
10
0
20
-100
11
2600
21
-100
0
LINE
8
A-DIM
10
2600
20
-100
11
2800
21
-100
0
LINE
8
A-DIM
10
2800
20
-100
11
10000
21
-100
0
LINE
8
A-DIM
10
10000
20
-100
11
13800
21
-100
0
LINE
8
A-DIM
10
13800
20
-100
11
15800
21
-100
0
LINE
8
A-DIM
10
15800
20
-100
11
17300
21
-100
0
TEXT
8
A-TEXT
10
3596.5
20
2500
40
5
1
客厅
0
TEXT
8
A-TEXT
10
3595.8
20
1500
40
3
1
L型沙发
0
TEXT
8
A-TEXT
10
1297.2
20
6500
40
4
1
书房
0
TEXT
8
A-TEXT
10
4797.9
20
6500
40
3
1
书桌
0
TEXT
8
A-TEXT
10
11497.2
20
8500
40
4
1
餐厅
0
TEXT
8
A-TEXT
10
15997.2
20
8800
40
4
1
厨房
0
TEXT
8
A-TEXT
10
15994.75
20
8300
40
3
1
L型操作台
0
TEXT
8
A-TEXT
10
14997.2
20
2500
40
4
1
卧室
0
TEXT
8
A-TEXT
10
14996.85
20
1500
40
3
1
双人床
0
TEXT
8
A-TEXT
10
10996.325
20
2800
40
3.5
1
楼梯间
0
TEXT
8
A-TEXT
10
10995.8
20
2400
40
3
1
U型楼梯
0
TEXT
8
A-TEXT
10
8496.325
20
800
40
3.5
1
卫生间
0
TEXT
8
A-TEXT
10
14997.55
20
11000
40
3.5
1
玄关
0
TEXT
8
A-TEXT
10
19497.2
20
11200
40
4
1
车库
0
TEXT
8
A-TEXT
10
18997.9
20
10800
40
3
1
轿车
0
TEXT
8
A-TEXT
10
297.55
20
300
40
3.5
1
阳台
0
TEXT
8
A-TEXT
10
1296.5
20
-250
40
2.5
1
2600
0
TEXT
8
A-TEXT
10
2697.375
20
-250
40
2.5
1
200
0
TEXT
8
A-TEXT
10
6396.5
20
-250
40
2.5
1
7200
0
TEXT
8
A-TEXT
10
11896.5
20
-250
40
2.5
1
3800
0
TEXT
8
A-TEXT
10
14796.5
20
-250
40
2.5
1
2000
0
TEXT
8
A-TEXT
10
16546.5
20
-250
40
2.5
1
1500
0
TEXT
8
A-TEXT
10
9893.875
20
-350
40
3.5
1
19800
0
TEXT
8
A-TEXT
10
-306.125
20
6132
40
3.5
1
12265
0
ENDSEC
0
EOF