<?xml version="1.0" encoding="utf-8" ?>
<svg baseProfile="full" height="600px" version="1.1" width="850px" xmlns="http://www.w3.org/2000/svg" xmlns:ev="http://www.w3.org/2001/xml-events" xmlns:xlink="http://www.w3.org/1999/xlink"><defs /><rect fill="#f8f8f8" height="600" width="850" x="0" y="0" /><line stroke="#eee" stroke-width="0.3" x1="50.0" x2="50.0" y1="500.0" y2="150.0" /><line stroke="#eee" stroke-width="0.3" x1="100.0" x2="100.0" y1="500.0" y2="150.0" /><line stroke="#eee" stroke-width="0.3" x1="150.0" x2="150.0" y1="500.0" y2="150.0" /><line stroke="#eee" stroke-width="0.3" x1="200.0" x2="200.0" y1="500.0" y2="150.0" /><line stroke="#eee" stroke-width="0.3" x1="250.0" x2="250.0" y1="500.0" y2="150.0" /><line stroke="#eee" stroke-width="0.3" x1="300.0" x2="300.0" y1="500.0" y2="150.0" /><line stroke="#eee" stroke-width="0.3" x1="350.0" x2="350.0" y1="500.0" y2="150.0" /><line stroke="#eee" stroke-width="0.3" x1="400.0" x2="400.0" y1="500.0" y2="150.0" /><line stroke="#eee" stroke-width="0.3" x1="450.0" x2="450.0" y1="500.0" y2="150.0" /><line stroke="#eee" stroke-width="0.3" x1="500.0" x2="500.0" y1="500.0" y2="150.0" /><line stroke="#eee" stroke-width="0.3" x1="550.0" x2="550.0" y1="500.0" y2="150.0" /><line stroke="#eee" stroke-width="0.3" x1="600.0" x2="600.0" y1="500.0" y2="150.0" /><line stroke="#eee" stroke-width="0.3" x1="650.0" x2="650.0" y1="500.0" y2="150.0" /><line stroke="#eee" stroke-width="0.3" x1="50.0" x2="650.0" y1="500.0" y2="500.0" /><line stroke="#eee" stroke-width="0.3" x1="50.0" x2="650.0" y1="450.0" y2="450.0" /><line stroke="#eee" stroke-width="0.3" x1="50.0" x2="650.0" y1="400.0" y2="400.0" /><line stroke="#eee" stroke-width="0.3" x1="50.0" x2="650.0" y1="350.0" y2="350.0" /><line stroke="#eee" stroke-width="0.3" x1="50.0" x2="650.0" y1="300.0" y2="300.0" /><line stroke="#eee" stroke-width="0.3" x1="50.0" x2="650.0" y1="250.0" y2="250.0" /><line stroke="#eee" stroke-width="0.3" x1="50.0" x2="650.0" y1="200.0" y2="200.0" /><line stroke="#eee" stroke-width="0.3" x1="50.0" x2="650.0" y1="150.0" y2="150.0" /><rect fill="#ddeeff" height="80.0" stroke="#999" stroke-width="0.5" width="600.0" x="50.0" y="420.0" /><rect fill="#e8e8e8" height="270.0" stroke="none" width="150.0" x="50.0" y="150.0" /><rect fill="#e8e8e8" height="270.0" stroke="none" width="270.0" x="380.0" y="150.0" /><rect fill="#d0e8ff" height="240.0" stroke="#4a8" stroke-width="1.5" width="180.0" x="200.0" y="260.0" /><rect fill="#d0e8ff" height="200.0" stroke="#4a8" stroke-width="1.5" width="100.0" x="400.0" y="220.0" /><rect fill="#d0e8ff" height="200.0" stroke="#4a8" stroke-width="1.5" width="80.0" x="520.0" y="220.0" /><rect fill="none" height="350.0" stroke="black" stroke-width="3" width="600.0" x="50.0" y="150.0" /><line stroke="#666" stroke-dasharray="4,3" stroke-width="1.5" x1="50.0" x2="650.0" y1="420.0" y2="420.0" /><line stroke="#0a0" stroke-width="2" x1="200.0" x2="200.0" y1="500.0" y2="260.0" /><line stroke="#0a0" stroke-width="2" x1="380.0" x2="380.0" y1="500.0" y2="260.0" /><line stroke="#0a0" stroke-width="2" x1="200.0" x2="380.0" y1="260.0" y2="260.0" /><path d="M 200.0,260.0 A 180.0,180.0 0 0,0 380.0,260.0" fill="none" stroke="#0a0" stroke-dasharray="3,2" stroke-width="1" /><line stroke="blue" stroke-width="2" x1="400.0" x2="500.0" y1="420.0" y2="420.0" /><line stroke="blue" stroke-width="2" x1="400.0" x2="500.0" y1="220.0" y2="220.0" /><line stroke="blue" stroke-width="1" x1="400.0" x2="400.0" y1="420.0" y2="220.0" /><line stroke="blue" stroke-width="1" x1="500.0" x2="500.0" y1="420.0" y2="220.0" /><line stroke="blue" stroke-width="2" x1="520.0" x2="600.0" y1="420.0" y2="420.0" /><line stroke="blue" stroke-width="2" x1="520.0" x2="600.0" y1="220.0" y2="220.0" /><line stroke="blue" stroke-width="1" x1="520.0" x2="520.0" y1="420.0" y2="220.0" /><line stroke="blue" stroke-width="1" x1="600.0" x2="600.0" y1="420.0" y2="220.0" /><line stroke="green" stroke-width="1" x1="50.0" x2="650.0" y1="505.0" y2="505.0" /><text fill="green" font-size="11" text-anchor="middle" x="350.0" y="505.5">6000</text><text fill="#999" font-size="9" text-anchor="middle" x="350.0" y="506.8">总宽</text><line stroke="green" stroke-width="1" x1="200.0" x2="380.0" y1="508.0" y2="508.0" /><text fill="green" font-size="9" text-anchor="middle" x="290.0" y="508.5">1800</text><line stroke="green" stroke-width="1" x1="46.0" x2="46.0" y1="500.0" y2="150.0" /><text fill="green" font-size="10" text-anchor="end" x="45.5" y="325.0">3500</text><line stroke="green" stroke-width="1" x1="44.0" x2="44.0" y1="500.0" y2="260.0" /><text fill="green" font-size="9" text-anchor="end" x="43.5" y="380.0">2400</text><text fill="#446" font-size="18" font-weight="bold" text-anchor="middle" x="350.0" y="460.0">招 牌 区</text><text fill="#88a" font-size="10" text-anchor="middle" x="350.0" y="462.0">GUOXIN BEAUTY</text><text fill="#080" font-size="12" text-anchor="middle" x="290.0" y="250.0">玻璃推拉门</text><text fill="blue" font-size="12" text-anchor="middle" x="450.0" y="320.0">展示窗</text><text fill="blue" font-size="12" text-anchor="middle" x="560.0" y="320.0">展示窗</text><text fill="#666" font-size="10" text-anchor="middle" x="125.0" y="170.0">石材干挂</text><text fill="#666" font-size="10" text-anchor="middle" x="515.0" y="170.0">石材干挂</text><rect fill="#000" height="12" width="12" x="50" y="570" /><text font-size="9" x="65" y="580">外轮廓</text><rect fill="#0a0" height="12" width="12" x="170" y="570" /><text font-size="9" x="185" y="580">门</text><rect fill="blue" height="12" width="12" x="290" y="570" /><text font-size="9" x="305" y="580">窗</text><rect fill="green" height="12" width="12" x="410" y="570" /><text font-size="9" x="425" y="580">尺寸</text><text font-size="14" font-weight="bold" text-anchor="middle" x="425" y="20">美容院门头 — 正立面图 | 比例示意 | GUOXIN BEAUTY</text></svg>